G04 EAGLE Gerber X2 export*
%TF.Part,Single*%
%TF.FileFunction,Copper,L1,Top,Mixed*%
%TF.FilePolarity,Positive*%
%TF.GenerationSoftware,Autodesk,EAGLE,8.6.3*%
%TF.CreationDate,2018-07-14T15:57:14Z*%
G75*
%MOMM*%
%FSLAX34Y34*%
%LPD*%
%AMOC8*
5,1,8,0,0,1.08239X$1,22.5*%
G01*
%ADD10C,1.524000*%
%ADD11R,0.550000X1.200000*%
%ADD12P,1.924489X8X22.500000*%
%ADD13C,1.500000*%
%ADD14C,1.676400*%
%ADD15R,1.676400X1.676400*%
%ADD16R,1.000000X1.100000*%
%ADD17R,1.800000X1.800000*%
%ADD18C,1.206400*%
%ADD19C,1.800000*%
%ADD20P,1.374635X8X112.500000*%
%ADD21P,1.374635X8X22.500000*%
%ADD22R,5.400000X6.200000*%
%ADD23R,1.000000X1.600000*%
%ADD24R,1.100000X1.000000*%
%ADD25R,2.032000X0.660400*%
%ADD26R,1.200000X1.200000*%
%ADD27P,1.623585X8X22.500000*%
%ADD28P,1.649562X8X292.500000*%
%ADD29P,1.319650X8X292.500000*%
%ADD30C,3.216000*%
%ADD31C,0.203200*%
%ADD32C,0.406400*%
%ADD33C,0.609600*%
%ADD34C,0.304800*%
%ADD35C,1.006400*%
%ADD36C,4.616000*%
%ADD37C,1.016000*%
%ADD38C,0.812800*%
%ADD39R,8.000000X8.000000*%
%ADD40C,4.216000*%
%ADD41C,3.810000*%

G36*
X41623Y95495D02*
X41623Y95495D01*
X41717Y95511D01*
X41813Y95517D01*
X41857Y95533D01*
X41904Y95541D01*
X41990Y95582D01*
X42080Y95614D01*
X42118Y95642D01*
X42161Y95662D01*
X42233Y95725D01*
X42310Y95782D01*
X42339Y95819D01*
X42374Y95850D01*
X42425Y95931D01*
X42484Y96006D01*
X42502Y96050D01*
X42527Y96090D01*
X42554Y96182D01*
X42589Y96270D01*
X42592Y96312D01*
X42607Y96363D01*
X42608Y96530D01*
X42614Y96605D01*
X39122Y133982D01*
X39056Y134259D01*
X39054Y134263D01*
X39053Y134268D01*
X22053Y176380D01*
X22052Y176382D01*
X22052Y176383D01*
X22044Y176395D01*
X22044Y176396D01*
X22029Y176422D01*
X21911Y176626D01*
X21903Y176633D01*
X21899Y176641D01*
X21884Y176654D01*
X21875Y176669D01*
X21333Y177288D01*
X21332Y177299D01*
X21335Y177313D01*
X21321Y177441D01*
X21312Y177569D01*
X21307Y177582D01*
X21305Y177596D01*
X21279Y177658D01*
X21213Y177835D01*
X21186Y177871D01*
X21173Y177901D01*
X21200Y178028D01*
X21210Y178160D01*
X21221Y178292D01*
X21219Y178301D01*
X21220Y178312D01*
X21161Y178590D01*
X21152Y178606D01*
X21149Y178620D01*
X21101Y178740D01*
X21422Y179497D01*
X21423Y179498D01*
X21424Y179500D01*
X21428Y179518D01*
X21496Y179771D01*
X21495Y179802D01*
X21501Y179827D01*
X22026Y187780D01*
X22025Y187781D01*
X22026Y187782D01*
X22026Y187784D01*
X22025Y187793D01*
X22162Y189851D01*
X22162Y189852D01*
X22180Y190128D01*
X22303Y191979D01*
X22897Y200977D01*
X22890Y201069D01*
X22892Y201160D01*
X22879Y201210D01*
X22876Y201261D01*
X22844Y201347D01*
X22820Y201435D01*
X22794Y201479D01*
X22777Y201527D01*
X22722Y201601D01*
X22675Y201680D01*
X22638Y201715D01*
X22608Y201756D01*
X22535Y201812D01*
X22468Y201874D01*
X22422Y201898D01*
X22382Y201929D01*
X22296Y201962D01*
X22215Y202004D01*
X22171Y202011D01*
X22117Y202032D01*
X21960Y202046D01*
X21884Y202059D01*
X20848Y202059D01*
X19359Y203548D01*
X19359Y215652D01*
X21089Y217382D01*
X21124Y217429D01*
X21167Y217469D01*
X21209Y217542D01*
X21260Y217609D01*
X21281Y217664D01*
X21310Y217714D01*
X21331Y217796D01*
X21361Y217875D01*
X21366Y217933D01*
X21380Y217990D01*
X21378Y218074D01*
X21385Y218158D01*
X21373Y218216D01*
X21371Y218274D01*
X21345Y218354D01*
X21329Y218437D01*
X21302Y218489D01*
X21284Y218545D01*
X21244Y218601D01*
X21198Y218689D01*
X21129Y218762D01*
X21089Y218818D01*
X19359Y220548D01*
X19359Y232652D01*
X20848Y234141D01*
X22345Y234141D01*
X22401Y234149D01*
X22457Y234147D01*
X22541Y234168D01*
X22627Y234181D01*
X22678Y234204D01*
X22733Y234218D01*
X22807Y234261D01*
X22886Y234297D01*
X22929Y234333D01*
X22978Y234362D01*
X23037Y234425D01*
X23103Y234480D01*
X23134Y234527D01*
X23173Y234568D01*
X23213Y234645D01*
X23261Y234717D01*
X23278Y234771D01*
X23304Y234821D01*
X23320Y234906D01*
X23346Y234988D01*
X23348Y235045D01*
X23359Y235100D01*
X23351Y235170D01*
X23354Y235272D01*
X23329Y235366D01*
X23322Y235433D01*
X23130Y236109D01*
X23321Y236452D01*
X23329Y236471D01*
X23335Y236481D01*
X23348Y236520D01*
X23352Y236531D01*
X23391Y236605D01*
X23400Y236655D01*
X23424Y236718D01*
X23436Y236858D01*
X23450Y236935D01*
X23454Y237329D01*
X24131Y237991D01*
X24305Y238216D01*
X24306Y238220D01*
X24308Y238223D01*
X29656Y247814D01*
X29681Y247880D01*
X29716Y247942D01*
X29728Y248002D01*
X29758Y248080D01*
X29769Y248197D01*
X29784Y248271D01*
X29801Y248735D01*
X30445Y249332D01*
X30533Y249440D01*
X30536Y249443D01*
X30540Y249449D01*
X30625Y249553D01*
X30632Y249570D01*
X30642Y249582D01*
X31070Y250350D01*
X31516Y250477D01*
X31581Y250505D01*
X31649Y250525D01*
X31700Y250558D01*
X31776Y250592D01*
X31866Y250668D01*
X31929Y250709D01*
X32270Y251025D01*
X33148Y250992D01*
X33431Y251021D01*
X33448Y251028D01*
X33463Y251030D01*
X33621Y251075D01*
X33677Y251099D01*
X33735Y251115D01*
X33806Y251157D01*
X33881Y251190D01*
X33928Y251229D01*
X33980Y251260D01*
X34036Y251320D01*
X34099Y251373D01*
X34133Y251423D01*
X34174Y251467D01*
X34212Y251540D01*
X34258Y251609D01*
X34276Y251666D01*
X34304Y251720D01*
X34315Y251787D01*
X34345Y251879D01*
X34348Y251982D01*
X34359Y252051D01*
X34359Y253775D01*
X34408Y253830D01*
X34426Y253867D01*
X34450Y253899D01*
X34486Y253995D01*
X34530Y254087D01*
X34535Y254123D01*
X34551Y254165D01*
X34567Y254353D01*
X34576Y254419D01*
X34498Y257132D01*
X34492Y257168D01*
X34494Y257198D01*
X34040Y262043D01*
X33974Y262319D01*
X33964Y262337D01*
X33960Y262353D01*
X33913Y262459D01*
X33894Y263566D01*
X33887Y263608D01*
X33890Y263643D01*
X33786Y264745D01*
X33820Y264855D01*
X33865Y265136D01*
X33863Y265156D01*
X33865Y265173D01*
X33727Y272981D01*
X33714Y273059D01*
X33712Y273137D01*
X33692Y273198D01*
X33682Y273262D01*
X33649Y273333D01*
X33624Y273408D01*
X33592Y273453D01*
X33561Y273519D01*
X33475Y273618D01*
X33430Y273681D01*
X31986Y275124D01*
X30439Y278859D01*
X30439Y298141D01*
X31986Y301876D01*
X34844Y304734D01*
X37748Y305937D01*
X37837Y305989D01*
X37931Y306035D01*
X37956Y306059D01*
X37993Y306081D01*
X38127Y306223D01*
X38173Y306267D01*
X53084Y326248D01*
X53090Y326259D01*
X53098Y326267D01*
X53158Y326383D01*
X53221Y326498D01*
X53224Y326510D01*
X53229Y326520D01*
X53239Y326581D01*
X53283Y326775D01*
X53280Y326817D01*
X53286Y326851D01*
X53379Y345957D01*
X53880Y347149D01*
X53889Y347181D01*
X53904Y347211D01*
X53917Y347289D01*
X53952Y347424D01*
X53951Y347491D01*
X53959Y347542D01*
X53959Y353352D01*
X55448Y354841D01*
X67552Y354841D01*
X69041Y353352D01*
X69041Y347535D01*
X69045Y347507D01*
X69042Y347479D01*
X69060Y347402D01*
X69081Y347254D01*
X69106Y347197D01*
X69116Y347151D01*
X69636Y345877D01*
X69532Y324443D01*
X69544Y324356D01*
X69543Y324293D01*
X69677Y323369D01*
X69554Y322886D01*
X69536Y322714D01*
X69523Y322641D01*
X69521Y322143D01*
X69159Y321283D01*
X69137Y321197D01*
X69111Y321139D01*
X68882Y320234D01*
X68584Y319835D01*
X68501Y319683D01*
X68461Y319621D01*
X68269Y319162D01*
X67605Y318505D01*
X67552Y318435D01*
X67506Y318391D01*
X57098Y304444D01*
X57065Y304383D01*
X57023Y304328D01*
X56997Y304259D01*
X56962Y304195D01*
X56947Y304127D01*
X56922Y304062D01*
X56916Y303989D01*
X56900Y303917D01*
X56904Y303848D01*
X56898Y303779D01*
X56913Y303707D01*
X56917Y303634D01*
X56940Y303568D01*
X56954Y303500D01*
X56988Y303435D01*
X57012Y303366D01*
X57053Y303309D01*
X57085Y303248D01*
X57136Y303194D01*
X57178Y303135D01*
X57233Y303092D01*
X57281Y303042D01*
X57344Y303004D01*
X57402Y302959D01*
X57466Y302933D01*
X57526Y302898D01*
X57597Y302880D01*
X57665Y302852D01*
X57734Y302845D01*
X57802Y302828D01*
X57875Y302830D01*
X57948Y302822D01*
X58016Y302835D01*
X58086Y302837D01*
X58156Y302859D01*
X58228Y302872D01*
X58290Y302903D01*
X58356Y302924D01*
X58407Y302960D01*
X58483Y302998D01*
X58552Y303064D01*
X58630Y303119D01*
X60244Y304734D01*
X63979Y306281D01*
X68021Y306281D01*
X71756Y304734D01*
X74614Y301876D01*
X76161Y298141D01*
X76161Y278859D01*
X74614Y275124D01*
X71756Y272266D01*
X68021Y270719D01*
X63979Y270719D01*
X60244Y272266D01*
X57386Y275124D01*
X55839Y278859D01*
X55839Y298141D01*
X57025Y301003D01*
X57029Y301019D01*
X57037Y301034D01*
X57064Y301157D01*
X57096Y301278D01*
X57095Y301295D01*
X57099Y301311D01*
X57091Y301437D01*
X57087Y301562D01*
X57082Y301578D01*
X57081Y301595D01*
X57039Y301713D01*
X57001Y301833D01*
X56992Y301847D01*
X56986Y301863D01*
X56912Y301965D01*
X56843Y302069D01*
X56830Y302080D01*
X56820Y302093D01*
X56721Y302171D01*
X56625Y302252D01*
X56610Y302259D01*
X56597Y302269D01*
X56480Y302317D01*
X56365Y302368D01*
X56349Y302370D01*
X56333Y302376D01*
X56209Y302389D01*
X56084Y302407D01*
X56067Y302404D01*
X56051Y302406D01*
X55927Y302384D01*
X55802Y302366D01*
X55787Y302359D01*
X55771Y302356D01*
X55658Y302301D01*
X55543Y302249D01*
X55530Y302238D01*
X55516Y302231D01*
X55465Y302182D01*
X55327Y302065D01*
X55304Y302028D01*
X55273Y301999D01*
X50962Y296222D01*
X50955Y296210D01*
X50946Y296199D01*
X50888Y296086D01*
X50826Y295973D01*
X50823Y295959D01*
X50816Y295946D01*
X50805Y295880D01*
X50764Y295695D01*
X50767Y295650D01*
X50761Y295615D01*
X50761Y278859D01*
X49214Y275124D01*
X48244Y274154D01*
X48236Y274145D01*
X48236Y274144D01*
X48235Y274143D01*
X48186Y274077D01*
X48121Y274006D01*
X48101Y273964D01*
X48073Y273927D01*
X48039Y273837D01*
X47996Y273751D01*
X47990Y273710D01*
X47972Y273662D01*
X47958Y273492D01*
X47947Y273418D01*
X48106Y264434D01*
X48113Y264392D01*
X48110Y264357D01*
X48556Y259603D01*
X48622Y259327D01*
X48635Y259304D01*
X48641Y259283D01*
X48669Y259219D01*
X48702Y258068D01*
X48708Y258032D01*
X48706Y258002D01*
X48814Y256855D01*
X48793Y256789D01*
X48748Y256508D01*
X48752Y256482D01*
X48749Y256460D01*
X48797Y254788D01*
X48809Y254716D01*
X48811Y254643D01*
X48833Y254577D01*
X48845Y254508D01*
X48876Y254442D01*
X48899Y254373D01*
X48933Y254324D01*
X48968Y254252D01*
X49050Y254161D01*
X49094Y254099D01*
X49682Y253511D01*
X49729Y253476D01*
X49769Y253433D01*
X49842Y253391D01*
X49909Y253340D01*
X49964Y253319D01*
X50014Y253290D01*
X50096Y253269D01*
X50175Y253239D01*
X50233Y253234D01*
X50290Y253220D01*
X50374Y253222D01*
X50458Y253215D01*
X50516Y253227D01*
X50574Y253229D01*
X50654Y253255D01*
X50737Y253271D01*
X50789Y253298D01*
X50845Y253316D01*
X50901Y253356D01*
X50989Y253402D01*
X51062Y253471D01*
X51118Y253511D01*
X52848Y255241D01*
X53575Y255241D01*
X53629Y255248D01*
X53684Y255247D01*
X53769Y255268D01*
X53857Y255281D01*
X53906Y255303D01*
X53959Y255316D01*
X54035Y255361D01*
X54116Y255397D01*
X54158Y255432D01*
X54205Y255459D01*
X54266Y255523D01*
X54333Y255580D01*
X54363Y255626D01*
X54401Y255665D01*
X54442Y255744D01*
X54491Y255817D01*
X54507Y255869D01*
X54532Y255917D01*
X54545Y255988D01*
X54576Y256088D01*
X54579Y256182D01*
X54590Y256248D01*
X54610Y258749D01*
X54606Y258777D01*
X54609Y258805D01*
X54603Y258832D01*
X54620Y259954D01*
X54619Y259958D01*
X54620Y259961D01*
X54628Y260969D01*
X55027Y261895D01*
X55028Y261898D01*
X55030Y261901D01*
X55423Y262829D01*
X56146Y263531D01*
X56149Y263534D01*
X56151Y263536D01*
X56869Y264242D01*
X57805Y264614D01*
X57808Y264616D01*
X57812Y264617D01*
X58746Y264995D01*
X59754Y264980D01*
X59757Y264981D01*
X59761Y264980D01*
X60852Y264972D01*
X60859Y264970D01*
X60920Y264971D01*
X60966Y264963D01*
X80054Y264682D01*
X80076Y264685D01*
X80094Y264682D01*
X81028Y264705D01*
X81167Y264673D01*
X82003Y264312D01*
X82024Y264306D01*
X82040Y264297D01*
X82911Y263961D01*
X83028Y263878D01*
X83662Y263225D01*
X83679Y263212D01*
X83690Y263197D01*
X84366Y262553D01*
X84442Y262433D01*
X84778Y261587D01*
X84789Y261568D01*
X84793Y261550D01*
X85172Y260696D01*
X85195Y260555D01*
X85182Y259646D01*
X85185Y259624D01*
X85182Y259606D01*
X85188Y259350D01*
X85201Y259276D01*
X85203Y259202D01*
X85224Y259137D01*
X85235Y259070D01*
X85268Y259002D01*
X85291Y258931D01*
X85324Y258884D01*
X85358Y258814D01*
X85441Y258720D01*
X85486Y258658D01*
X85591Y258552D01*
X85591Y244448D01*
X84102Y242959D01*
X76498Y242959D01*
X75009Y244448D01*
X75009Y253593D01*
X75002Y253644D01*
X75004Y253695D01*
X74982Y253784D01*
X74969Y253875D01*
X74949Y253921D01*
X74936Y253971D01*
X74891Y254050D01*
X74853Y254134D01*
X74820Y254173D01*
X74795Y254217D01*
X74729Y254281D01*
X74670Y254351D01*
X74627Y254379D01*
X74590Y254415D01*
X74509Y254458D01*
X74433Y254509D01*
X74384Y254524D01*
X74339Y254548D01*
X74267Y254561D01*
X74162Y254594D01*
X74072Y254597D01*
X74009Y254608D01*
X67471Y254704D01*
X67406Y254696D01*
X67340Y254698D01*
X67265Y254678D01*
X67189Y254669D01*
X67128Y254643D01*
X67065Y254626D01*
X66999Y254587D01*
X66928Y254556D01*
X66877Y254514D01*
X66820Y254481D01*
X66768Y254425D01*
X66708Y254376D01*
X66671Y254322D01*
X66626Y254274D01*
X66591Y254205D01*
X66547Y254142D01*
X66526Y254079D01*
X66496Y254020D01*
X66486Y253957D01*
X66457Y253872D01*
X66453Y253762D01*
X66441Y253689D01*
X66441Y240648D01*
X64920Y239126D01*
X64870Y239119D01*
X64830Y239101D01*
X64786Y239091D01*
X64700Y239043D01*
X64611Y239003D01*
X64577Y238974D01*
X64538Y238953D01*
X64469Y238883D01*
X64394Y238820D01*
X64369Y238782D01*
X64338Y238751D01*
X64291Y238665D01*
X64236Y238583D01*
X64223Y238540D01*
X64202Y238501D01*
X64187Y238427D01*
X64151Y238312D01*
X64148Y238231D01*
X64137Y238172D01*
X64112Y237254D01*
X64115Y237226D01*
X64112Y237198D01*
X64116Y237176D01*
X64079Y236050D01*
X64079Y236047D01*
X64078Y236044D01*
X64051Y235035D01*
X63635Y234118D01*
X63634Y234115D01*
X63632Y234113D01*
X63185Y233111D01*
X63184Y233109D01*
X63178Y233096D01*
X63156Y233046D01*
X63133Y233013D01*
X61442Y229284D01*
X61412Y229184D01*
X61376Y229086D01*
X61373Y229048D01*
X61362Y229011D01*
X61361Y228907D01*
X61353Y228803D01*
X61361Y228770D01*
X61360Y228727D01*
X61414Y228538D01*
X61428Y228476D01*
X61665Y227905D01*
X61665Y225095D01*
X60589Y222498D01*
X58602Y220511D01*
X56005Y219435D01*
X53195Y219435D01*
X50598Y220511D01*
X48611Y222498D01*
X47535Y225095D01*
X47535Y227905D01*
X48611Y230502D01*
X50598Y232489D01*
X51631Y232917D01*
X51692Y232953D01*
X51757Y232980D01*
X51814Y233025D01*
X51876Y233062D01*
X51924Y233113D01*
X51980Y233157D01*
X52006Y233196D01*
X52009Y233199D01*
X52018Y233212D01*
X52071Y233268D01*
X52124Y233371D01*
X52155Y233417D01*
X52167Y233436D01*
X53865Y237178D01*
X53874Y237211D01*
X53890Y237240D01*
X53906Y237317D01*
X53945Y237451D01*
X53945Y237519D01*
X53955Y237570D01*
X53970Y238116D01*
X53962Y238188D01*
X53964Y238260D01*
X53946Y238329D01*
X53938Y238399D01*
X53910Y238465D01*
X53892Y238535D01*
X53856Y238596D01*
X53829Y238661D01*
X53784Y238718D01*
X53747Y238780D01*
X53695Y238828D01*
X53651Y238883D01*
X53592Y238925D01*
X53539Y238974D01*
X53477Y239006D01*
X53419Y239047D01*
X53351Y239071D01*
X53286Y239104D01*
X53227Y239114D01*
X53151Y239140D01*
X53030Y239147D01*
X52955Y239159D01*
X52848Y239159D01*
X51118Y240889D01*
X51071Y240924D01*
X51031Y240967D01*
X50958Y241009D01*
X50891Y241060D01*
X50836Y241081D01*
X50786Y241110D01*
X50704Y241131D01*
X50625Y241161D01*
X50567Y241166D01*
X50510Y241180D01*
X50426Y241178D01*
X50342Y241185D01*
X50284Y241173D01*
X50226Y241171D01*
X50146Y241145D01*
X50063Y241129D01*
X50011Y241102D01*
X49955Y241084D01*
X49899Y241044D01*
X49811Y240998D01*
X49738Y240929D01*
X49682Y240889D01*
X47952Y239159D01*
X35848Y239159D01*
X35700Y239307D01*
X35655Y239340D01*
X35617Y239382D01*
X35542Y239426D01*
X35473Y239477D01*
X35420Y239498D01*
X35372Y239526D01*
X35288Y239548D01*
X35207Y239579D01*
X35151Y239583D01*
X35097Y239598D01*
X35010Y239595D01*
X34924Y239602D01*
X34869Y239591D01*
X34812Y239590D01*
X34730Y239563D01*
X34645Y239546D01*
X34595Y239520D01*
X34542Y239503D01*
X34470Y239455D01*
X34393Y239415D01*
X34352Y239377D01*
X34305Y239345D01*
X34261Y239290D01*
X34187Y239220D01*
X34138Y239136D01*
X34096Y239083D01*
X32182Y235650D01*
X32171Y235621D01*
X32153Y235595D01*
X32120Y235489D01*
X32080Y235385D01*
X32077Y235354D01*
X32067Y235324D01*
X32064Y235213D01*
X32055Y235102D01*
X32061Y235071D01*
X32060Y235040D01*
X32088Y234932D01*
X32110Y234823D01*
X32124Y234795D01*
X32132Y234765D01*
X32189Y234669D01*
X32239Y234570D01*
X32261Y234547D01*
X32277Y234520D01*
X32358Y234444D01*
X32434Y234363D01*
X32461Y234347D01*
X32484Y234326D01*
X32583Y234275D01*
X32679Y234218D01*
X32710Y234211D01*
X32738Y234196D01*
X32815Y234183D01*
X32954Y234147D01*
X33019Y234149D01*
X33069Y234141D01*
X33952Y234141D01*
X35441Y232652D01*
X35441Y220548D01*
X33711Y218818D01*
X33676Y218771D01*
X33633Y218731D01*
X33591Y218658D01*
X33540Y218591D01*
X33519Y218536D01*
X33490Y218486D01*
X33469Y218404D01*
X33439Y218325D01*
X33434Y218267D01*
X33420Y218210D01*
X33422Y218126D01*
X33415Y218042D01*
X33427Y217984D01*
X33429Y217926D01*
X33455Y217846D01*
X33471Y217763D01*
X33498Y217711D01*
X33516Y217655D01*
X33556Y217599D01*
X33602Y217511D01*
X33671Y217438D01*
X33711Y217382D01*
X35441Y215652D01*
X35441Y203522D01*
X35367Y203431D01*
X35360Y203414D01*
X35348Y203399D01*
X35304Y203283D01*
X35256Y203169D01*
X35254Y203151D01*
X35247Y203133D01*
X35237Y203010D01*
X35222Y202887D01*
X35225Y202868D01*
X35224Y202850D01*
X35248Y202728D01*
X35268Y202606D01*
X35276Y202589D01*
X35279Y202571D01*
X35337Y202461D01*
X35390Y202349D01*
X35402Y202335D01*
X35410Y202319D01*
X35496Y202229D01*
X35578Y202136D01*
X35594Y202126D01*
X35606Y202113D01*
X35713Y202050D01*
X35818Y201984D01*
X35834Y201979D01*
X35851Y201969D01*
X36127Y201899D01*
X36135Y201899D01*
X36142Y201897D01*
X36345Y201878D01*
X36422Y201882D01*
X36479Y201875D01*
X85716Y203782D01*
X85725Y203784D01*
X85735Y203783D01*
X85865Y203809D01*
X85995Y203833D01*
X86004Y203837D01*
X86013Y203839D01*
X86132Y203901D01*
X86250Y203959D01*
X86257Y203966D01*
X86266Y203970D01*
X86362Y204062D01*
X86460Y204151D01*
X86465Y204159D01*
X86472Y204166D01*
X86539Y204280D01*
X86608Y204394D01*
X86611Y204403D01*
X86615Y204411D01*
X86648Y204539D01*
X86683Y204668D01*
X86683Y204678D01*
X86686Y204687D01*
X86681Y204819D01*
X86680Y204952D01*
X86677Y204961D01*
X86677Y204971D01*
X86636Y205097D01*
X86597Y205224D01*
X86592Y205232D01*
X86589Y205241D01*
X86557Y205287D01*
X86443Y205463D01*
X86413Y205489D01*
X86394Y205515D01*
X84511Y207398D01*
X83435Y209995D01*
X83435Y212805D01*
X84574Y215555D01*
X84603Y215667D01*
X84638Y215776D01*
X84638Y215804D01*
X84645Y215831D01*
X84642Y215945D01*
X84645Y216060D01*
X84638Y216087D01*
X84637Y216115D01*
X84602Y216224D01*
X84573Y216335D01*
X84559Y216359D01*
X84551Y216386D01*
X84487Y216481D01*
X84428Y216580D01*
X84408Y216599D01*
X84392Y216622D01*
X84305Y216696D01*
X84221Y216774D01*
X84196Y216787D01*
X84175Y216805D01*
X84070Y216851D01*
X83968Y216904D01*
X83943Y216908D01*
X83915Y216920D01*
X83651Y216957D01*
X83636Y216959D01*
X76498Y216959D01*
X75009Y218448D01*
X75009Y232552D01*
X76498Y234041D01*
X84102Y234041D01*
X84332Y233811D01*
X84379Y233776D01*
X84419Y233733D01*
X84492Y233691D01*
X84559Y233640D01*
X84614Y233619D01*
X84664Y233590D01*
X84746Y233569D01*
X84825Y233539D01*
X84883Y233534D01*
X84940Y233520D01*
X85024Y233522D01*
X85108Y233515D01*
X85166Y233527D01*
X85224Y233529D01*
X85304Y233555D01*
X85387Y233571D01*
X85439Y233598D01*
X85495Y233616D01*
X85551Y233656D01*
X85639Y233702D01*
X85712Y233771D01*
X85768Y233811D01*
X85998Y234041D01*
X93602Y234041D01*
X93832Y233811D01*
X93879Y233776D01*
X93919Y233733D01*
X93992Y233691D01*
X94059Y233640D01*
X94114Y233619D01*
X94164Y233590D01*
X94246Y233569D01*
X94325Y233539D01*
X94383Y233534D01*
X94440Y233520D01*
X94524Y233522D01*
X94608Y233515D01*
X94666Y233527D01*
X94724Y233529D01*
X94804Y233555D01*
X94887Y233571D01*
X94939Y233598D01*
X94995Y233616D01*
X95051Y233656D01*
X95139Y233702D01*
X95212Y233771D01*
X95268Y233811D01*
X95498Y234041D01*
X103102Y234041D01*
X104591Y232552D01*
X104591Y220896D01*
X104591Y220893D01*
X104591Y220890D01*
X104611Y220754D01*
X104631Y220614D01*
X104632Y220611D01*
X104632Y220608D01*
X104689Y220483D01*
X104747Y220355D01*
X104749Y220352D01*
X104750Y220350D01*
X104840Y220244D01*
X104930Y220138D01*
X104933Y220136D01*
X104935Y220134D01*
X105052Y220057D01*
X105167Y219980D01*
X105170Y219979D01*
X105172Y219978D01*
X105307Y219936D01*
X105438Y219894D01*
X105441Y219894D01*
X105444Y219893D01*
X105585Y219891D01*
X105722Y219887D01*
X105725Y219888D01*
X105728Y219888D01*
X105864Y219924D01*
X105997Y219959D01*
X106000Y219960D01*
X106003Y219961D01*
X106025Y219975D01*
X106242Y220104D01*
X106264Y220128D01*
X106286Y220142D01*
X127474Y239248D01*
X127503Y239283D01*
X127511Y239290D01*
X127521Y239304D01*
X127547Y239335D01*
X127624Y239418D01*
X127638Y239444D01*
X127656Y239466D01*
X127702Y239570D01*
X127754Y239671D01*
X127758Y239697D01*
X127771Y239726D01*
X127805Y239976D01*
X127809Y240002D01*
X127809Y241483D01*
X133017Y246691D01*
X140383Y246691D01*
X145591Y241483D01*
X145591Y237557D01*
X145603Y237468D01*
X145607Y237379D01*
X145623Y237328D01*
X145631Y237275D01*
X145667Y237193D01*
X145695Y237108D01*
X145722Y237071D01*
X145747Y237016D01*
X145846Y236899D01*
X145891Y236836D01*
X170094Y212835D01*
X170162Y212784D01*
X170224Y212726D01*
X170275Y212699D01*
X170321Y212665D01*
X170401Y212635D01*
X170477Y212596D01*
X170527Y212588D01*
X170588Y212565D01*
X170731Y212554D01*
X170808Y212541D01*
X177459Y212541D01*
X183341Y206659D01*
X183341Y198341D01*
X177459Y192459D01*
X169141Y192459D01*
X163259Y198341D01*
X163259Y204879D01*
X163247Y204967D01*
X163243Y205057D01*
X163227Y205107D01*
X163219Y205160D01*
X163183Y205242D01*
X163155Y205327D01*
X163128Y205365D01*
X163103Y205420D01*
X163004Y205536D01*
X162959Y205600D01*
X140612Y227761D01*
X140560Y227799D01*
X140515Y227845D01*
X140447Y227884D01*
X140384Y227931D01*
X140323Y227953D01*
X140267Y227985D01*
X140191Y228003D01*
X140118Y228031D01*
X140053Y228036D01*
X139991Y228051D01*
X139912Y228047D01*
X139834Y228053D01*
X139771Y228040D01*
X139707Y228037D01*
X139632Y228012D01*
X139556Y227996D01*
X139499Y227966D01*
X139438Y227945D01*
X139373Y227900D01*
X139304Y227864D01*
X139257Y227819D01*
X139204Y227782D01*
X139155Y227721D01*
X139099Y227667D01*
X139066Y227611D01*
X139026Y227561D01*
X138995Y227489D01*
X138956Y227421D01*
X138940Y227359D01*
X138915Y227299D01*
X138909Y227234D01*
X138887Y227146D01*
X138891Y227037D01*
X138884Y226965D01*
X139829Y214143D01*
X139855Y214024D01*
X139863Y213948D01*
X140000Y213451D01*
X139937Y212946D01*
X139939Y212822D01*
X139932Y212746D01*
X139969Y212239D01*
X139808Y211749D01*
X139786Y211629D01*
X139764Y211556D01*
X137452Y192964D01*
X137454Y192808D01*
X137450Y192731D01*
X137491Y192343D01*
X137312Y191735D01*
X137298Y191638D01*
X137279Y191573D01*
X137200Y190944D01*
X137008Y190605D01*
X136951Y190460D01*
X136917Y190390D01*
X132920Y176801D01*
X132915Y176768D01*
X132903Y176737D01*
X132895Y176628D01*
X132879Y176520D01*
X132883Y176487D01*
X132881Y176453D01*
X132898Y176377D01*
X132917Y176238D01*
X132944Y176176D01*
X132956Y176126D01*
X133341Y175197D01*
X133341Y156203D01*
X131812Y152512D01*
X128988Y149688D01*
X125297Y148159D01*
X121303Y148159D01*
X117612Y149688D01*
X114788Y152512D01*
X113259Y156203D01*
X113259Y175197D01*
X114788Y178888D01*
X117612Y181712D01*
X121303Y183241D01*
X121344Y183241D01*
X121400Y183249D01*
X121456Y183247D01*
X121540Y183268D01*
X121626Y183281D01*
X121677Y183303D01*
X121731Y183317D01*
X121806Y183361D01*
X121885Y183397D01*
X121928Y183433D01*
X121976Y183461D01*
X122036Y183524D01*
X122102Y183580D01*
X122133Y183627D01*
X122172Y183668D01*
X122203Y183731D01*
X122260Y183817D01*
X122289Y183909D01*
X122318Y183970D01*
X125288Y194065D01*
X125302Y194161D01*
X125321Y194227D01*
X127663Y213054D01*
X127661Y213178D01*
X127668Y213254D01*
X127336Y217763D01*
X127313Y217869D01*
X127297Y217975D01*
X127283Y218007D01*
X127275Y218041D01*
X127224Y218136D01*
X127179Y218234D01*
X127157Y218260D01*
X127140Y218291D01*
X127065Y218368D01*
X126994Y218450D01*
X126965Y218469D01*
X126941Y218494D01*
X126847Y218547D01*
X126757Y218606D01*
X126724Y218617D01*
X126694Y218634D01*
X126589Y218658D01*
X126485Y218691D01*
X126451Y218691D01*
X126417Y218699D01*
X126309Y218694D01*
X126201Y218696D01*
X126168Y218687D01*
X126133Y218686D01*
X126031Y218651D01*
X125926Y218623D01*
X125900Y218606D01*
X125864Y218594D01*
X125688Y218470D01*
X125643Y218442D01*
X112328Y206435D01*
X112310Y206413D01*
X112290Y206399D01*
X112259Y206368D01*
X112224Y206321D01*
X112181Y206281D01*
X112139Y206208D01*
X112088Y206141D01*
X112067Y206086D01*
X112038Y206036D01*
X112017Y205954D01*
X111987Y205875D01*
X111982Y205817D01*
X111968Y205760D01*
X111970Y205676D01*
X111963Y205592D01*
X111975Y205534D01*
X111977Y205476D01*
X112003Y205396D01*
X112019Y205313D01*
X112046Y205261D01*
X112064Y205205D01*
X112104Y205149D01*
X112150Y205061D01*
X112219Y204988D01*
X112259Y204932D01*
X112589Y204602D01*
X113665Y202005D01*
X113665Y199195D01*
X112589Y196598D01*
X110602Y194611D01*
X108005Y193535D01*
X105195Y193535D01*
X102598Y194611D01*
X100611Y196598D01*
X99811Y198528D01*
X99772Y198594D01*
X99742Y198665D01*
X99700Y198716D01*
X99667Y198773D01*
X99611Y198826D01*
X99563Y198885D01*
X99508Y198923D01*
X99460Y198968D01*
X99392Y199004D01*
X99329Y199047D01*
X99266Y199068D01*
X99207Y199099D01*
X99132Y199113D01*
X99060Y199138D01*
X98993Y199141D01*
X98928Y199154D01*
X98852Y199147D01*
X98776Y199150D01*
X98721Y199136D01*
X98645Y199129D01*
X98526Y199083D01*
X98451Y199063D01*
X93115Y196626D01*
X93088Y196608D01*
X93057Y196597D01*
X92995Y196549D01*
X92876Y196473D01*
X92832Y196423D01*
X92792Y196392D01*
X92340Y195904D01*
X91659Y195877D01*
X91630Y195872D01*
X91601Y195873D01*
X91525Y195853D01*
X91380Y195826D01*
X91324Y195799D01*
X91277Y195786D01*
X90657Y195503D01*
X90034Y195736D01*
X90002Y195743D01*
X89973Y195756D01*
X89895Y195766D01*
X89756Y195797D01*
X89690Y195792D01*
X89640Y195799D01*
X38176Y193805D01*
X38156Y193801D01*
X38136Y193803D01*
X38017Y193776D01*
X37897Y193754D01*
X37878Y193745D01*
X37858Y193741D01*
X37794Y193703D01*
X37642Y193628D01*
X37604Y193593D01*
X37568Y193572D01*
X30486Y187706D01*
X30418Y187631D01*
X30344Y187562D01*
X30322Y187527D01*
X30295Y187496D01*
X30250Y187405D01*
X30198Y187318D01*
X30189Y187283D01*
X30169Y187241D01*
X30136Y187058D01*
X30121Y186991D01*
X29952Y184431D01*
X29952Y184425D01*
X29951Y184419D01*
X29963Y184285D01*
X29973Y184148D01*
X29975Y184142D01*
X29975Y184136D01*
X30024Y184010D01*
X30072Y183881D01*
X30075Y183876D01*
X30078Y183871D01*
X30160Y183762D01*
X30241Y183652D01*
X30246Y183649D01*
X30249Y183644D01*
X30359Y183562D01*
X30467Y183480D01*
X30472Y183477D01*
X30477Y183474D01*
X30605Y183426D01*
X30731Y183376D01*
X30737Y183376D01*
X30743Y183374D01*
X30879Y183363D01*
X31014Y183350D01*
X31020Y183351D01*
X31026Y183351D01*
X31068Y183360D01*
X31294Y183404D01*
X31325Y183420D01*
X31353Y183426D01*
X32895Y184065D01*
X35705Y184065D01*
X38302Y182989D01*
X40289Y181002D01*
X41365Y178405D01*
X41365Y175595D01*
X40289Y172998D01*
X38302Y171011D01*
X35705Y169935D01*
X34926Y169935D01*
X34817Y169920D01*
X34707Y169911D01*
X34677Y169900D01*
X34645Y169895D01*
X34544Y169850D01*
X34441Y169812D01*
X34415Y169792D01*
X34385Y169779D01*
X34301Y169708D01*
X34213Y169642D01*
X34193Y169616D01*
X34168Y169596D01*
X34107Y169504D01*
X34040Y169416D01*
X34029Y169386D01*
X34011Y169359D01*
X33977Y169254D01*
X33937Y169151D01*
X33935Y169119D01*
X33925Y169088D01*
X33922Y168978D01*
X33912Y168868D01*
X33918Y168839D01*
X33918Y168804D01*
X33975Y168583D01*
X33985Y168540D01*
X46389Y137811D01*
X46430Y137740D01*
X46463Y137664D01*
X46497Y137625D01*
X46531Y137565D01*
X46631Y137469D01*
X46682Y137410D01*
X46990Y137154D01*
X47078Y136218D01*
X47144Y135941D01*
X47146Y135937D01*
X47147Y135932D01*
X47499Y135060D01*
X47343Y134692D01*
X47322Y134612D01*
X47291Y134535D01*
X47287Y134483D01*
X47269Y134417D01*
X47272Y134279D01*
X47266Y134200D01*
X48176Y124468D01*
X48185Y124430D01*
X48186Y124391D01*
X48217Y124292D01*
X48241Y124191D01*
X48261Y124157D01*
X48272Y124120D01*
X48330Y124034D01*
X48381Y123944D01*
X48409Y123916D01*
X48431Y123884D01*
X48510Y123817D01*
X48584Y123745D01*
X48619Y123726D01*
X48648Y123701D01*
X48743Y123659D01*
X48835Y123610D01*
X48873Y123602D01*
X48908Y123586D01*
X49011Y123572D01*
X49113Y123550D01*
X49151Y123552D01*
X49190Y123547D01*
X49292Y123562D01*
X49396Y123569D01*
X49433Y123582D01*
X49471Y123588D01*
X49566Y123630D01*
X49663Y123666D01*
X49695Y123689D01*
X49730Y123705D01*
X49809Y123772D01*
X49893Y123833D01*
X49917Y123864D01*
X49947Y123889D01*
X49988Y123955D01*
X50068Y124058D01*
X50095Y124126D01*
X50124Y124174D01*
X52913Y130905D01*
X57985Y135977D01*
X64613Y138723D01*
X71787Y138723D01*
X73171Y138149D01*
X73193Y138144D01*
X73212Y138133D01*
X73330Y138108D01*
X73447Y138078D01*
X73469Y138079D01*
X73490Y138074D01*
X73611Y138083D01*
X73731Y138087D01*
X73752Y138093D01*
X73774Y138095D01*
X73887Y138137D01*
X74001Y138173D01*
X74020Y138185D01*
X74041Y138193D01*
X74138Y138264D01*
X74238Y138331D01*
X74252Y138348D01*
X74270Y138361D01*
X74343Y138457D01*
X74421Y138549D01*
X74430Y138569D01*
X74443Y138587D01*
X74487Y138698D01*
X74536Y138809D01*
X74539Y138831D01*
X74547Y138851D01*
X74559Y138971D01*
X74575Y139090D01*
X74572Y139112D01*
X74574Y139134D01*
X74552Y139253D01*
X74534Y139372D01*
X74525Y139392D01*
X74521Y139414D01*
X74467Y139522D01*
X74417Y139631D01*
X74403Y139648D01*
X74393Y139667D01*
X74340Y139722D01*
X74233Y139847D01*
X74192Y139873D01*
X74158Y139907D01*
X70142Y142838D01*
X69972Y142929D01*
X69916Y142963D01*
X69635Y143074D01*
X69116Y143575D01*
X69051Y143622D01*
X69009Y143665D01*
X68427Y144090D01*
X68269Y144348D01*
X68147Y144497D01*
X68108Y144549D01*
X67891Y144759D01*
X67604Y145421D01*
X67561Y145490D01*
X67539Y145545D01*
X67164Y146161D01*
X67117Y146459D01*
X67061Y146644D01*
X67045Y146707D01*
X66925Y146984D01*
X66912Y147705D01*
X66900Y147785D01*
X66900Y147845D01*
X66789Y148557D01*
X66860Y148851D01*
X66879Y149043D01*
X66889Y149107D01*
X66887Y149210D01*
X66875Y149288D01*
X66872Y149367D01*
X66852Y149428D01*
X66842Y149491D01*
X66809Y149562D01*
X66785Y149637D01*
X66753Y149682D01*
X66722Y149748D01*
X66635Y149847D01*
X66590Y149910D01*
X63988Y152512D01*
X62459Y156203D01*
X62459Y175197D01*
X63988Y178888D01*
X66812Y181712D01*
X70503Y183241D01*
X74497Y183241D01*
X78188Y181712D01*
X81012Y178888D01*
X82541Y175197D01*
X82541Y156203D01*
X81012Y152512D01*
X80399Y151899D01*
X80316Y151789D01*
X80233Y151682D01*
X80231Y151676D01*
X80228Y151672D01*
X80179Y151543D01*
X80129Y151417D01*
X80129Y151412D01*
X80127Y151406D01*
X80115Y151270D01*
X80103Y151134D01*
X80104Y151129D01*
X80103Y151123D01*
X80130Y150990D01*
X80155Y150855D01*
X80158Y150850D01*
X80159Y150844D01*
X80223Y150722D01*
X80284Y150601D01*
X80287Y150597D01*
X80290Y150592D01*
X80486Y150386D01*
X80505Y150374D01*
X80518Y150361D01*
X95032Y139770D01*
X95043Y139764D01*
X95050Y139757D01*
X96038Y139069D01*
X96665Y138040D01*
X96673Y138031D01*
X96677Y138021D01*
X109112Y118591D01*
X109146Y118551D01*
X109168Y118515D01*
X109193Y118492D01*
X109216Y118456D01*
X109629Y118001D01*
X109767Y117615D01*
X109837Y117483D01*
X109868Y117411D01*
X110089Y117065D01*
X110197Y116461D01*
X110228Y116365D01*
X110241Y116296D01*
X110448Y115718D01*
X110428Y115308D01*
X110442Y115160D01*
X110443Y115081D01*
X110515Y114677D01*
X110383Y114078D01*
X110376Y113977D01*
X110361Y113909D01*
X109593Y97952D01*
X109602Y97860D01*
X109601Y97767D01*
X109615Y97719D01*
X109619Y97669D01*
X109653Y97583D01*
X109679Y97493D01*
X109705Y97451D01*
X109723Y97404D01*
X109780Y97331D01*
X109829Y97252D01*
X109866Y97218D01*
X109896Y97179D01*
X109971Y97123D01*
X110040Y97061D01*
X110085Y97040D01*
X110125Y97010D01*
X110212Y96978D01*
X110296Y96937D01*
X110339Y96931D01*
X110391Y96911D01*
X110552Y96899D01*
X110628Y96888D01*
X123266Y97143D01*
X123342Y97156D01*
X123420Y97158D01*
X123482Y97178D01*
X123547Y97189D01*
X123616Y97222D01*
X123690Y97246D01*
X123736Y97278D01*
X123804Y97310D01*
X123900Y97395D01*
X123963Y97440D01*
X125693Y99170D01*
X129194Y100620D01*
X129241Y100648D01*
X129291Y100667D01*
X129362Y100720D01*
X129439Y100764D01*
X129476Y100804D01*
X129520Y100837D01*
X129573Y100907D01*
X129634Y100971D01*
X129659Y101020D01*
X129692Y101063D01*
X129716Y101130D01*
X129764Y101224D01*
X129782Y101316D01*
X129805Y101379D01*
X132997Y119206D01*
X132997Y119209D01*
X132998Y119211D01*
X133135Y119998D01*
X133286Y120867D01*
X134666Y121828D01*
X134668Y121830D01*
X134670Y121831D01*
X153981Y135414D01*
X154066Y135493D01*
X154155Y135569D01*
X154169Y135590D01*
X154188Y135608D01*
X154248Y135708D01*
X154312Y135805D01*
X154320Y135830D01*
X154333Y135852D01*
X154363Y135965D01*
X154398Y136076D01*
X154399Y136102D01*
X154405Y136128D01*
X154402Y136244D01*
X154405Y136360D01*
X154399Y136386D01*
X154398Y136412D01*
X154363Y136523D01*
X154333Y136635D01*
X154320Y136658D01*
X154312Y136683D01*
X154248Y136780D01*
X154188Y136880D01*
X154169Y136898D01*
X154155Y136919D01*
X154066Y136995D01*
X153981Y137074D01*
X153958Y137086D01*
X153938Y137103D01*
X153831Y137151D01*
X153728Y137204D01*
X153705Y137208D01*
X153678Y137219D01*
X153397Y137259D01*
X152648Y137259D01*
X151159Y138748D01*
X151159Y152852D01*
X152648Y154341D01*
X166752Y154341D01*
X168241Y152852D01*
X168241Y138748D01*
X166752Y137259D01*
X165956Y137259D01*
X165844Y137243D01*
X165731Y137234D01*
X165703Y137224D01*
X165674Y137219D01*
X165571Y137173D01*
X165465Y137133D01*
X165442Y137115D01*
X165415Y137103D01*
X165328Y137030D01*
X165238Y136962D01*
X165220Y136938D01*
X165198Y136920D01*
X165135Y136825D01*
X165067Y136735D01*
X165058Y136710D01*
X165040Y136683D01*
X164964Y136444D01*
X164955Y136418D01*
X164696Y134929D01*
X164692Y134796D01*
X164685Y134662D01*
X164687Y134653D01*
X164687Y134645D01*
X164720Y134515D01*
X164751Y134385D01*
X164755Y134378D01*
X164757Y134369D01*
X164901Y134124D01*
X164915Y134111D01*
X164923Y134097D01*
X176951Y119951D01*
X177003Y119904D01*
X177049Y119851D01*
X177109Y119810D01*
X177163Y119762D01*
X177227Y119732D01*
X177285Y119693D01*
X177354Y119671D01*
X177420Y119640D01*
X177489Y119628D01*
X177556Y119607D01*
X177629Y119605D01*
X177700Y119594D01*
X177770Y119602D01*
X177840Y119600D01*
X177911Y119618D01*
X177983Y119627D01*
X178048Y119654D01*
X178115Y119672D01*
X178178Y119709D01*
X178245Y119737D01*
X178300Y119781D01*
X178360Y119817D01*
X178409Y119870D01*
X178466Y119915D01*
X178506Y119973D01*
X178554Y120024D01*
X178587Y120089D01*
X178629Y120148D01*
X178652Y120215D01*
X178684Y120277D01*
X178694Y120338D01*
X178721Y120417D01*
X178727Y120534D01*
X178739Y120608D01*
X178739Y129309D01*
X184691Y135261D01*
X186120Y135261D01*
X186168Y135268D01*
X186216Y135265D01*
X186308Y135287D01*
X186402Y135301D01*
X186446Y135320D01*
X186493Y135332D01*
X186575Y135378D01*
X186661Y135417D01*
X186698Y135448D01*
X186740Y135472D01*
X186806Y135540D01*
X186878Y135600D01*
X186905Y135641D01*
X186939Y135675D01*
X186983Y135759D01*
X187036Y135837D01*
X187050Y135883D01*
X187073Y135926D01*
X187087Y135999D01*
X187121Y136108D01*
X187124Y136194D01*
X187135Y136256D01*
X187215Y140264D01*
X188014Y155748D01*
X188012Y155766D01*
X188015Y155781D01*
X189328Y224344D01*
X189316Y224441D01*
X189313Y224538D01*
X189299Y224581D01*
X189293Y224626D01*
X189255Y224716D01*
X189226Y224808D01*
X189202Y224841D01*
X189182Y224888D01*
X189074Y225021D01*
X189031Y225081D01*
X185460Y228652D01*
X182867Y234912D01*
X182867Y241688D01*
X185460Y247948D01*
X189575Y252063D01*
X189622Y252125D01*
X189676Y252181D01*
X189707Y252238D01*
X189746Y252290D01*
X189773Y252362D01*
X189810Y252431D01*
X189820Y252486D01*
X189847Y252556D01*
X189858Y252685D01*
X189872Y252761D01*
X190210Y270426D01*
X243159Y365156D01*
X273427Y407611D01*
X273449Y407654D01*
X273474Y407684D01*
X285274Y427684D01*
X285312Y427775D01*
X285357Y427862D01*
X285364Y427901D01*
X285383Y427947D01*
X285403Y428122D01*
X285415Y428193D01*
X285602Y454860D01*
X285593Y454922D01*
X285595Y454984D01*
X285575Y455062D01*
X285564Y455142D01*
X285539Y455199D01*
X285523Y455259D01*
X285482Y455328D01*
X285449Y455402D01*
X285410Y455450D01*
X285378Y455503D01*
X285319Y455559D01*
X285267Y455621D01*
X285216Y455655D01*
X285171Y455698D01*
X285099Y455735D01*
X285032Y455780D01*
X284973Y455799D01*
X284917Y455827D01*
X284852Y455838D01*
X284761Y455868D01*
X284656Y455871D01*
X284586Y455883D01*
X213569Y455871D01*
X213470Y455857D01*
X213370Y455851D01*
X213330Y455837D01*
X213288Y455831D01*
X213196Y455790D01*
X213102Y455757D01*
X213067Y455732D01*
X213028Y455715D01*
X212952Y455650D01*
X212870Y455592D01*
X212844Y455558D01*
X212811Y455531D01*
X212756Y455448D01*
X212694Y455369D01*
X212680Y455334D01*
X212654Y455294D01*
X212599Y455121D01*
X212574Y455055D01*
X207805Y431300D01*
X207802Y431247D01*
X207789Y431196D01*
X207794Y431124D01*
X207788Y431016D01*
X207809Y430926D01*
X207813Y430861D01*
X212713Y410661D01*
X212748Y410574D01*
X212763Y410510D01*
X221259Y390118D01*
X225295Y379979D01*
X225521Y375753D01*
X225135Y371443D01*
X224139Y367232D01*
X222554Y363206D01*
X220412Y359447D01*
X217757Y356030D01*
X214642Y353026D01*
X211132Y350496D01*
X207298Y348492D01*
X203217Y347053D01*
X199096Y346234D01*
X197190Y346597D01*
X197166Y346598D01*
X197142Y346605D01*
X197065Y346603D01*
X196906Y346611D01*
X196851Y346598D01*
X196807Y346597D01*
X193483Y345952D01*
X190175Y345791D01*
X186877Y346101D01*
X183658Y346879D01*
X180581Y348106D01*
X177711Y349759D01*
X175105Y351803D01*
X172816Y354198D01*
X170891Y356893D01*
X169370Y359836D01*
X168259Y363033D01*
X168244Y363063D01*
X168235Y363095D01*
X168179Y363189D01*
X168129Y363286D01*
X168106Y363310D01*
X168089Y363339D01*
X168009Y363413D01*
X167934Y363493D01*
X167905Y363510D01*
X167881Y363533D01*
X167783Y363582D01*
X167689Y363638D01*
X167657Y363646D01*
X167627Y363661D01*
X167549Y363674D01*
X167414Y363709D01*
X167347Y363707D01*
X167296Y363715D01*
X5133Y363021D01*
X5078Y363012D01*
X5022Y363014D01*
X4937Y362992D01*
X4852Y362980D01*
X4801Y362956D01*
X4746Y362942D01*
X4672Y362898D01*
X4593Y362862D01*
X4550Y362826D01*
X4502Y362797D01*
X4443Y362734D01*
X4377Y362678D01*
X4346Y362631D01*
X4307Y362590D01*
X4268Y362513D01*
X4220Y362440D01*
X4203Y362387D01*
X4178Y362337D01*
X4166Y362267D01*
X4135Y362169D01*
X4133Y362072D01*
X4122Y362006D01*
X4067Y236069D01*
X4068Y236064D01*
X4067Y236059D01*
X5385Y95790D01*
X5394Y95727D01*
X5394Y95663D01*
X5415Y95587D01*
X5427Y95509D01*
X5454Y95451D01*
X5471Y95390D01*
X5513Y95323D01*
X5546Y95251D01*
X5588Y95203D01*
X5621Y95148D01*
X5680Y95095D01*
X5732Y95036D01*
X5785Y95001D01*
X5833Y94958D01*
X5904Y94924D01*
X5970Y94880D01*
X6031Y94862D01*
X6088Y94834D01*
X6153Y94824D01*
X6242Y94797D01*
X6349Y94795D01*
X6421Y94785D01*
X41623Y95495D01*
G37*
G36*
X340708Y177770D02*
X340708Y177770D01*
X340718Y177769D01*
X358889Y177927D01*
X358962Y177935D01*
X359035Y177934D01*
X359161Y177957D01*
X359289Y177971D01*
X359359Y177993D01*
X359431Y178006D01*
X359550Y178053D01*
X359673Y178092D01*
X359737Y178128D01*
X359805Y178155D01*
X359913Y178225D01*
X360025Y178287D01*
X360081Y178334D01*
X360143Y178374D01*
X360234Y178464D01*
X360332Y178547D01*
X360378Y178605D01*
X360430Y178656D01*
X360502Y178762D01*
X360582Y178863D01*
X360615Y178929D01*
X360656Y178989D01*
X360706Y179108D01*
X360764Y179222D01*
X360784Y179293D01*
X360812Y179360D01*
X360838Y179486D01*
X360872Y179610D01*
X360878Y179683D01*
X360892Y179755D01*
X360892Y179883D01*
X360902Y180012D01*
X360892Y180084D01*
X360893Y180158D01*
X360862Y180325D01*
X360851Y180411D01*
X360841Y180443D01*
X360833Y180484D01*
X360691Y181013D01*
X360691Y182619D01*
X373392Y182619D01*
X386093Y182619D01*
X386093Y180982D01*
X386108Y180830D01*
X386116Y180677D01*
X386128Y180630D01*
X386133Y180581D01*
X386177Y180435D01*
X386215Y180287D01*
X386236Y180243D01*
X386251Y180196D01*
X386324Y180062D01*
X386390Y179924D01*
X386419Y179885D01*
X386443Y179842D01*
X386540Y179725D01*
X386632Y179603D01*
X386669Y179570D01*
X386700Y179533D01*
X386819Y179437D01*
X386934Y179336D01*
X386976Y179311D01*
X387014Y179281D01*
X387149Y179210D01*
X387282Y179133D01*
X387328Y179118D01*
X387371Y179095D01*
X387518Y179053D01*
X387663Y179004D01*
X387711Y178997D01*
X387758Y178984D01*
X387910Y178971D01*
X388062Y178951D01*
X388117Y178954D01*
X388160Y178951D01*
X388245Y178961D01*
X388393Y178968D01*
X410421Y181915D01*
X410512Y181936D01*
X410605Y181948D01*
X410732Y181988D01*
X410813Y182008D01*
X410858Y182028D01*
X410921Y182048D01*
X411012Y182085D01*
X411533Y182083D01*
X411616Y182091D01*
X411811Y182101D01*
X412328Y182170D01*
X412422Y182145D01*
X412514Y182130D01*
X412605Y182105D01*
X412738Y182094D01*
X412820Y182080D01*
X412870Y182082D01*
X412935Y182077D01*
X593715Y181289D01*
X593736Y181291D01*
X593758Y181289D01*
X593937Y181310D01*
X594116Y181327D01*
X594136Y181333D01*
X594158Y181335D01*
X594329Y181391D01*
X594501Y181443D01*
X594520Y181453D01*
X594541Y181460D01*
X594697Y181548D01*
X594856Y181633D01*
X594873Y181647D01*
X594891Y181658D01*
X595027Y181775D01*
X595166Y181890D01*
X595180Y181907D01*
X595196Y181921D01*
X595306Y182062D01*
X595420Y182202D01*
X595430Y182222D01*
X595443Y182239D01*
X595524Y182400D01*
X595607Y182559D01*
X595613Y182580D01*
X595623Y182599D01*
X595670Y182773D01*
X595720Y182945D01*
X595722Y182967D01*
X595728Y182988D01*
X595755Y183318D01*
X595846Y323294D01*
X595844Y323316D01*
X595846Y323338D01*
X595824Y323516D01*
X595807Y323695D01*
X595800Y323716D01*
X595797Y323738D01*
X595741Y323908D01*
X595689Y324080D01*
X595678Y324099D01*
X595671Y324120D01*
X595582Y324276D01*
X595497Y324434D01*
X595483Y324451D01*
X595472Y324470D01*
X595354Y324606D01*
X595240Y324743D01*
X595222Y324757D01*
X595208Y324774D01*
X595065Y324884D01*
X594926Y324996D01*
X594906Y325006D01*
X594889Y325020D01*
X594727Y325099D01*
X594569Y325181D01*
X594547Y325188D01*
X594527Y325197D01*
X594353Y325244D01*
X594182Y325293D01*
X594160Y325295D01*
X594138Y325301D01*
X593807Y325326D01*
X541092Y325131D01*
X540904Y325112D01*
X540716Y325095D01*
X540703Y325091D01*
X540692Y325090D01*
X540632Y325071D01*
X540397Y325006D01*
X456397Y294006D01*
X456319Y293968D01*
X456238Y293939D01*
X456111Y293867D01*
X456035Y293829D01*
X456000Y293803D01*
X455950Y293774D01*
X408418Y261127D01*
X385768Y257257D01*
X385669Y257229D01*
X385567Y257212D01*
X385475Y257176D01*
X385380Y257150D01*
X385288Y257104D01*
X385192Y257066D01*
X385108Y257013D01*
X385020Y256969D01*
X384939Y256905D01*
X384852Y256850D01*
X384781Y256781D01*
X384703Y256720D01*
X384637Y256642D01*
X384562Y256570D01*
X384506Y256489D01*
X384442Y256414D01*
X384392Y256324D01*
X384333Y256239D01*
X384294Y256148D01*
X384246Y256062D01*
X384215Y255964D01*
X384174Y255869D01*
X384154Y255773D01*
X384123Y255679D01*
X384112Y255576D01*
X384091Y255475D01*
X384090Y255377D01*
X384079Y255278D01*
X384088Y255176D01*
X384087Y255073D01*
X384105Y254976D01*
X384114Y254877D01*
X384143Y254779D01*
X384162Y254677D01*
X384200Y254586D01*
X384228Y254491D01*
X384276Y254400D01*
X384314Y254305D01*
X384369Y254222D01*
X384415Y254135D01*
X384480Y254055D01*
X384537Y253969D01*
X384607Y253899D01*
X384669Y253823D01*
X384749Y253757D01*
X384821Y253684D01*
X384920Y253616D01*
X384980Y253566D01*
X385030Y253540D01*
X385094Y253495D01*
X385112Y253485D01*
X385585Y253012D01*
X385920Y252433D01*
X386093Y251787D01*
X386093Y250181D01*
X373392Y250181D01*
X360691Y250181D01*
X360691Y250564D01*
X360673Y250752D01*
X360656Y250941D01*
X360653Y250953D01*
X360651Y250965D01*
X360596Y251146D01*
X360542Y251327D01*
X360537Y251338D01*
X360533Y251349D01*
X360443Y251516D01*
X360355Y251684D01*
X360347Y251693D01*
X360341Y251703D01*
X360221Y251848D01*
X360101Y251996D01*
X360091Y252004D01*
X360084Y252013D01*
X359937Y252131D01*
X359790Y252252D01*
X359779Y252258D01*
X359770Y252265D01*
X359603Y252352D01*
X359435Y252442D01*
X359423Y252445D01*
X359413Y252451D01*
X359231Y252503D01*
X359049Y252557D01*
X359037Y252559D01*
X359026Y252562D01*
X358836Y252577D01*
X358648Y252595D01*
X358635Y252594D01*
X358624Y252595D01*
X358563Y252588D01*
X358318Y252566D01*
X341558Y249702D01*
X341529Y249694D01*
X341500Y249691D01*
X341335Y249641D01*
X341170Y249595D01*
X341143Y249582D01*
X341115Y249573D01*
X340963Y249491D01*
X340810Y249414D01*
X340787Y249396D01*
X340761Y249382D01*
X340628Y249271D01*
X340494Y249166D01*
X340474Y249143D01*
X340451Y249124D01*
X340344Y248990D01*
X340232Y248859D01*
X340218Y248833D01*
X340199Y248810D01*
X340120Y248658D01*
X340036Y248508D01*
X340027Y248479D01*
X340013Y248453D01*
X339966Y248288D01*
X339914Y248124D01*
X339910Y248095D01*
X339902Y248066D01*
X339869Y247736D01*
X338669Y179836D01*
X338673Y179791D01*
X338669Y179747D01*
X338689Y179591D01*
X338702Y179435D01*
X338714Y179392D01*
X338720Y179347D01*
X338770Y179199D01*
X338813Y179048D01*
X338834Y179008D01*
X338848Y178966D01*
X338926Y178830D01*
X338999Y178690D01*
X339027Y178656D01*
X339049Y178617D01*
X339153Y178499D01*
X339251Y178377D01*
X339285Y178348D01*
X339315Y178314D01*
X339440Y178219D01*
X339560Y178119D01*
X339599Y178097D01*
X339635Y178070D01*
X339776Y178002D01*
X339914Y177927D01*
X339957Y177914D01*
X339997Y177894D01*
X340149Y177855D01*
X340299Y177809D01*
X340343Y177804D01*
X340387Y177793D01*
X340648Y177774D01*
X340700Y177769D01*
X340708Y177770D01*
G37*
G36*
X593635Y32552D02*
X593635Y32552D01*
X593648Y32553D01*
X593661Y32552D01*
X593849Y32574D01*
X594036Y32593D01*
X594048Y32597D01*
X594061Y32599D01*
X594240Y32657D01*
X594420Y32713D01*
X594432Y32719D01*
X594444Y32723D01*
X594607Y32815D01*
X594774Y32906D01*
X594783Y32915D01*
X594794Y32921D01*
X594937Y33043D01*
X595082Y33165D01*
X595090Y33175D01*
X595099Y33184D01*
X595215Y33333D01*
X595333Y33480D01*
X595338Y33492D01*
X595346Y33502D01*
X595431Y33672D01*
X595517Y33838D01*
X595520Y33851D01*
X595526Y33862D01*
X595575Y34044D01*
X595626Y34226D01*
X595627Y34239D01*
X595631Y34251D01*
X595658Y34582D01*
X595750Y176206D01*
X595749Y176221D01*
X595750Y176234D01*
X595729Y176421D01*
X595711Y176607D01*
X595707Y176621D01*
X595705Y176635D01*
X595648Y176813D01*
X595593Y176992D01*
X595586Y177004D01*
X595582Y177018D01*
X595490Y177181D01*
X595401Y177346D01*
X595392Y177357D01*
X595385Y177369D01*
X595263Y177512D01*
X595144Y177656D01*
X595133Y177664D01*
X595124Y177675D01*
X594976Y177791D01*
X594830Y177908D01*
X594818Y177915D01*
X594807Y177923D01*
X594639Y178008D01*
X594473Y178094D01*
X594459Y178098D01*
X594447Y178104D01*
X594266Y178154D01*
X594086Y178206D01*
X594072Y178207D01*
X594058Y178210D01*
X593728Y178239D01*
X412009Y179031D01*
X411926Y179023D01*
X411731Y179013D01*
X387855Y175820D01*
X387772Y175800D01*
X387689Y175790D01*
X387577Y175754D01*
X387463Y175727D01*
X387386Y175692D01*
X387306Y175666D01*
X387204Y175608D01*
X387097Y175559D01*
X387029Y175509D01*
X386955Y175468D01*
X386866Y175391D01*
X386772Y175322D01*
X386714Y175260D01*
X386650Y175205D01*
X386579Y175112D01*
X386499Y175025D01*
X386455Y174953D01*
X386404Y174886D01*
X386351Y174781D01*
X386291Y174681D01*
X386262Y174602D01*
X386224Y174526D01*
X386194Y174413D01*
X386154Y174302D01*
X386142Y174219D01*
X386120Y174137D01*
X386108Y173989D01*
X386107Y173981D01*
X373392Y173981D01*
X373375Y173980D01*
X373357Y173981D01*
X373174Y173960D01*
X372992Y173941D01*
X372975Y173936D01*
X372957Y173934D01*
X372782Y173877D01*
X372607Y173823D01*
X372591Y173815D01*
X372574Y173809D01*
X372414Y173719D01*
X372253Y173632D01*
X372239Y173620D01*
X372224Y173611D01*
X372084Y173491D01*
X371944Y173374D01*
X371943Y173374D01*
X371943Y173373D01*
X371932Y173360D01*
X371919Y173348D01*
X371918Y173348D01*
X371806Y173203D01*
X371691Y173060D01*
X371682Y173044D01*
X371672Y173030D01*
X371590Y172865D01*
X371505Y172702D01*
X371500Y172685D01*
X371492Y172669D01*
X371444Y172491D01*
X371394Y172315D01*
X371392Y172298D01*
X371388Y172280D01*
X371361Y171950D01*
X371361Y161281D01*
X360691Y161281D01*
X360691Y162887D01*
X360864Y163533D01*
X361199Y164112D01*
X361250Y164164D01*
X361262Y164177D01*
X361275Y164189D01*
X361389Y164333D01*
X361506Y164475D01*
X361514Y164491D01*
X361525Y164505D01*
X361608Y164669D01*
X361694Y164831D01*
X361699Y164848D01*
X361707Y164864D01*
X361757Y165041D01*
X361809Y165217D01*
X361811Y165234D01*
X361815Y165252D01*
X361829Y165435D01*
X361845Y165618D01*
X361843Y165635D01*
X361845Y165653D01*
X361822Y165836D01*
X361802Y166018D01*
X361797Y166035D01*
X361794Y166053D01*
X361736Y166227D01*
X361681Y166402D01*
X361672Y166417D01*
X361666Y166434D01*
X361575Y166593D01*
X361486Y166754D01*
X361474Y166768D01*
X361465Y166783D01*
X361251Y167036D01*
X361199Y167088D01*
X360864Y167667D01*
X360691Y168313D01*
X360691Y171323D01*
X360689Y171341D01*
X360691Y171359D01*
X360670Y171541D01*
X360651Y171723D01*
X360646Y171741D01*
X360644Y171759D01*
X360587Y171932D01*
X360533Y172108D01*
X360524Y172124D01*
X360519Y172142D01*
X360429Y172301D01*
X360341Y172462D01*
X360330Y172476D01*
X360321Y172492D01*
X360200Y172631D01*
X360084Y172771D01*
X360069Y172783D01*
X360057Y172797D01*
X359912Y172909D01*
X359770Y173024D01*
X359754Y173032D01*
X359739Y173044D01*
X359575Y173125D01*
X359413Y173209D01*
X359395Y173214D01*
X359378Y173223D01*
X359201Y173270D01*
X359026Y173321D01*
X359007Y173322D01*
X358990Y173327D01*
X358807Y173339D01*
X358624Y173354D01*
X358606Y173351D01*
X358588Y173353D01*
X358258Y173314D01*
X354151Y172485D01*
X340798Y169791D01*
X340606Y169732D01*
X340413Y169673D01*
X340246Y169582D01*
X340060Y169481D01*
X340059Y169481D01*
X339914Y169360D01*
X339750Y169223D01*
X339750Y169222D01*
X339588Y169020D01*
X339498Y168909D01*
X339418Y168753D01*
X339313Y168552D01*
X339313Y168551D01*
X339250Y168331D01*
X339202Y168165D01*
X339202Y168164D01*
X339169Y167834D01*
X338169Y107734D01*
X338185Y107541D01*
X338199Y107351D01*
X338201Y107342D01*
X338202Y107333D01*
X338256Y107146D01*
X338307Y106963D01*
X338311Y106955D01*
X338314Y106946D01*
X338404Y106772D01*
X338490Y106604D01*
X338495Y106597D01*
X338500Y106589D01*
X338621Y106438D01*
X338739Y106288D01*
X338747Y106282D01*
X338752Y106275D01*
X338902Y106151D01*
X339047Y106028D01*
X339055Y106024D01*
X339062Y106018D01*
X339232Y105926D01*
X339399Y105833D01*
X339408Y105831D01*
X339416Y105826D01*
X339599Y105770D01*
X339783Y105712D01*
X339793Y105711D01*
X339801Y105708D01*
X339854Y105703D01*
X340112Y105671D01*
X358572Y104872D01*
X358634Y104875D01*
X358696Y104870D01*
X358834Y104886D01*
X358974Y104894D01*
X359034Y104910D01*
X359095Y104917D01*
X359228Y104960D01*
X359364Y104995D01*
X359419Y105022D01*
X359478Y105042D01*
X359600Y105110D01*
X359726Y105172D01*
X359775Y105209D01*
X359829Y105240D01*
X359935Y105331D01*
X360046Y105416D01*
X360087Y105462D01*
X360134Y105503D01*
X360219Y105613D01*
X360312Y105718D01*
X360342Y105772D01*
X360380Y105821D01*
X360443Y105946D01*
X360512Y106067D01*
X360532Y106126D01*
X360560Y106181D01*
X360596Y106317D01*
X360630Y106419D01*
X373392Y106419D01*
X386093Y106419D01*
X386093Y105402D01*
X386097Y105357D01*
X386095Y105311D01*
X386117Y105157D01*
X386133Y105002D01*
X386146Y104958D01*
X386153Y104912D01*
X386205Y104766D01*
X386251Y104617D01*
X386273Y104576D01*
X386288Y104533D01*
X386368Y104400D01*
X386443Y104263D01*
X386472Y104228D01*
X386496Y104188D01*
X386601Y104073D01*
X386700Y103953D01*
X386736Y103925D01*
X386767Y103891D01*
X386893Y103799D01*
X387014Y103701D01*
X387055Y103680D01*
X387092Y103653D01*
X387233Y103587D01*
X387371Y103516D01*
X387415Y103503D01*
X387457Y103484D01*
X387703Y103420D01*
X387758Y103404D01*
X387767Y103403D01*
X387778Y103401D01*
X438027Y94724D01*
X461350Y67187D01*
X461487Y67055D01*
X461619Y66923D01*
X461630Y66916D01*
X461639Y66907D01*
X461799Y66805D01*
X461955Y66702D01*
X461969Y66696D01*
X461978Y66690D01*
X462038Y66667D01*
X462261Y66572D01*
X517366Y48303D01*
X526266Y44348D01*
X534520Y40569D01*
X550387Y32585D01*
X550490Y32546D01*
X550589Y32497D01*
X550677Y32474D01*
X550763Y32441D01*
X550871Y32423D01*
X550978Y32394D01*
X551087Y32386D01*
X551160Y32374D01*
X551222Y32375D01*
X551309Y32369D01*
X593635Y32552D01*
G37*
G36*
X227467Y71023D02*
X227467Y71023D01*
X227606Y71026D01*
X227609Y71027D01*
X227612Y71027D01*
X227745Y71069D01*
X227877Y71109D01*
X227880Y71111D01*
X227884Y71112D01*
X228120Y71269D01*
X228137Y71288D01*
X228154Y71300D01*
X237691Y80567D01*
X237751Y80644D01*
X237817Y80715D01*
X237834Y80751D01*
X237866Y80792D01*
X237929Y80952D01*
X237961Y81018D01*
X238049Y81329D01*
X238935Y81823D01*
X239101Y81950D01*
X239147Y81982D01*
X239875Y82689D01*
X240198Y82684D01*
X240294Y82696D01*
X240391Y82700D01*
X240429Y82713D01*
X240480Y82720D01*
X240638Y82788D01*
X240707Y82813D01*
X245527Y85503D01*
X245593Y85553D01*
X245665Y85595D01*
X245706Y85639D01*
X245753Y85675D01*
X245803Y85741D01*
X245860Y85802D01*
X245888Y85855D01*
X245923Y85903D01*
X245952Y85980D01*
X245991Y86054D01*
X245999Y86105D01*
X246023Y86169D01*
X246034Y86308D01*
X246047Y86385D01*
X246129Y106342D01*
X246113Y106459D01*
X246103Y106577D01*
X246094Y106597D01*
X246091Y106624D01*
X245975Y106884D01*
X245974Y106885D01*
X245974Y106887D01*
X229046Y133839D01*
X228993Y133902D01*
X228963Y133953D01*
X228104Y134974D01*
X228107Y134987D01*
X228096Y135111D01*
X228089Y135237D01*
X228083Y135253D01*
X228081Y135270D01*
X228054Y135335D01*
X227995Y135505D01*
X227967Y135544D01*
X227961Y135559D01*
X228259Y136861D01*
X228266Y136942D01*
X228281Y137000D01*
X230036Y157384D01*
X230031Y157480D01*
X230035Y157576D01*
X230023Y157621D01*
X230021Y157667D01*
X229989Y157759D01*
X229966Y157852D01*
X229943Y157892D01*
X229927Y157936D01*
X229871Y158015D01*
X229823Y158098D01*
X229790Y158130D01*
X229763Y158168D01*
X229688Y158228D01*
X229618Y158295D01*
X229577Y158316D01*
X229541Y158345D01*
X229452Y158382D01*
X229366Y158427D01*
X229326Y158434D01*
X229278Y158454D01*
X229109Y158473D01*
X229036Y158486D01*
X223846Y158541D01*
X223753Y158529D01*
X223661Y158526D01*
X223613Y158510D01*
X223564Y158504D01*
X223478Y158467D01*
X223390Y158438D01*
X223355Y158413D01*
X223303Y158390D01*
X223179Y158288D01*
X223117Y158244D01*
X219283Y154409D01*
X211917Y154409D01*
X206709Y159617D01*
X206709Y166983D01*
X211917Y172191D01*
X219283Y172191D01*
X223493Y167980D01*
X223559Y167931D01*
X223618Y167874D01*
X223672Y167846D01*
X223720Y167809D01*
X223797Y167780D01*
X223870Y167742D01*
X223921Y167733D01*
X223986Y167708D01*
X224123Y167697D01*
X224200Y167683D01*
X229192Y167630D01*
X229282Y167642D01*
X229374Y167645D01*
X229423Y167660D01*
X229474Y167667D01*
X229557Y167704D01*
X229645Y167731D01*
X229687Y167760D01*
X229734Y167781D01*
X229805Y167839D01*
X229881Y167890D01*
X229914Y167929D01*
X229953Y167962D01*
X230005Y168038D01*
X230064Y168108D01*
X230084Y168154D01*
X230113Y168197D01*
X230142Y168284D01*
X230179Y168367D01*
X230184Y168412D01*
X230202Y168467D01*
X230208Y168624D01*
X230216Y168701D01*
X229247Y186346D01*
X229236Y186404D01*
X229234Y186462D01*
X229209Y186542D01*
X229192Y186625D01*
X229165Y186677D01*
X229148Y186733D01*
X229130Y186758D01*
X229135Y188365D01*
X229130Y188398D01*
X229133Y188424D01*
X229045Y190024D01*
X229058Y190064D01*
X229085Y190116D01*
X229096Y190184D01*
X229127Y190279D01*
X229130Y190379D01*
X229141Y190446D01*
X229332Y251011D01*
X229328Y251040D01*
X229331Y251069D01*
X229314Y251146D01*
X229293Y251293D01*
X229268Y251350D01*
X229257Y251397D01*
X229000Y252029D01*
X229259Y252641D01*
X229267Y252672D01*
X229282Y252701D01*
X229295Y252779D01*
X229331Y252916D01*
X229330Y252982D01*
X229339Y253032D01*
X229341Y253696D01*
X229824Y254177D01*
X229842Y254201D01*
X229864Y254219D01*
X229906Y254285D01*
X229996Y254404D01*
X230018Y254462D01*
X230044Y254503D01*
X232591Y260540D01*
X232614Y260627D01*
X232646Y260712D01*
X232650Y260764D01*
X232664Y260814D01*
X232662Y260905D01*
X232669Y260996D01*
X232659Y261040D01*
X232657Y261099D01*
X232611Y261247D01*
X232594Y261323D01*
X231735Y263395D01*
X231735Y266205D01*
X232811Y268802D01*
X234798Y270789D01*
X237395Y271865D01*
X240205Y271865D01*
X242872Y270760D01*
X242895Y270754D01*
X242917Y270743D01*
X243032Y270719D01*
X243147Y270689D01*
X243171Y270690D01*
X243195Y270685D01*
X243313Y270694D01*
X243431Y270697D01*
X243454Y270705D01*
X243478Y270707D01*
X243589Y270748D01*
X243702Y270784D01*
X243722Y270798D01*
X243745Y270806D01*
X243840Y270876D01*
X243938Y270942D01*
X243954Y270961D01*
X243973Y270975D01*
X244045Y271069D01*
X244121Y271160D01*
X244131Y271182D01*
X244146Y271201D01*
X244189Y271312D01*
X244237Y271420D01*
X244240Y271444D01*
X244249Y271466D01*
X244254Y271543D01*
X244276Y271701D01*
X244268Y271757D01*
X244270Y271801D01*
X242462Y289547D01*
X242453Y289584D01*
X242452Y289622D01*
X242426Y289695D01*
X242394Y289823D01*
X242358Y289886D01*
X242339Y289938D01*
X242029Y290495D01*
X242224Y291177D01*
X242227Y291200D01*
X242236Y291223D01*
X242241Y291299D01*
X242263Y291458D01*
X242255Y291514D01*
X242257Y291558D01*
X242186Y292263D01*
X242588Y292757D01*
X242608Y292789D01*
X242634Y292817D01*
X242667Y292888D01*
X242735Y293000D01*
X242754Y293071D01*
X242778Y293120D01*
X253795Y331777D01*
X253801Y331821D01*
X253816Y331862D01*
X253818Y331938D01*
X253834Y332059D01*
X253823Y332138D01*
X253824Y332198D01*
X253739Y332797D01*
X254184Y333389D01*
X254193Y333405D01*
X254205Y333418D01*
X254236Y333483D01*
X254322Y333638D01*
X254333Y333686D01*
X254349Y333721D01*
X254552Y334433D01*
X255081Y334728D01*
X255116Y334754D01*
X255156Y334773D01*
X255211Y334826D01*
X255308Y334899D01*
X255356Y334964D01*
X255399Y335005D01*
X269668Y353983D01*
X269730Y354096D01*
X269796Y354208D01*
X269799Y354221D01*
X269806Y354232D01*
X269834Y354358D01*
X269866Y354483D01*
X269866Y354496D01*
X269869Y354509D01*
X269861Y354639D01*
X269857Y354767D01*
X269853Y354780D01*
X269852Y354793D01*
X269809Y354915D01*
X269769Y355038D01*
X269762Y355048D01*
X269758Y355061D01*
X269593Y355293D01*
X269581Y355302D01*
X269575Y355311D01*
X269263Y355623D01*
X269263Y362777D01*
X274323Y367837D01*
X281477Y367837D01*
X286597Y362717D01*
X286642Y362626D01*
X286693Y362512D01*
X286704Y362499D01*
X286712Y362483D01*
X286796Y362390D01*
X286876Y362295D01*
X286891Y362286D01*
X286903Y362272D01*
X287009Y362207D01*
X287113Y362138D01*
X287130Y362132D01*
X287145Y362123D01*
X287215Y362106D01*
X287384Y362052D01*
X287433Y362051D01*
X287471Y362041D01*
X314532Y359868D01*
X314578Y359871D01*
X314613Y359865D01*
X319546Y359865D01*
X319583Y359870D01*
X319619Y359867D01*
X319723Y359890D01*
X319828Y359905D01*
X319861Y359919D01*
X319897Y359927D01*
X319991Y359977D01*
X320087Y360021D01*
X320115Y360044D01*
X320147Y360062D01*
X320223Y360136D01*
X320304Y360204D01*
X320325Y360235D01*
X320351Y360261D01*
X320403Y360353D01*
X320462Y360441D01*
X320473Y360476D01*
X320491Y360508D01*
X320516Y360611D01*
X320548Y360712D01*
X320549Y360749D01*
X320557Y360784D01*
X320552Y360890D01*
X320555Y360996D01*
X320546Y361032D01*
X320544Y361068D01*
X320510Y361169D01*
X320483Y361271D01*
X320464Y361303D01*
X320453Y361337D01*
X320392Y361425D01*
X320338Y361516D01*
X320311Y361541D01*
X320290Y361571D01*
X320228Y361619D01*
X320131Y361710D01*
X320067Y361743D01*
X320024Y361776D01*
X310130Y367056D01*
X310003Y367102D01*
X309874Y367151D01*
X309868Y367151D01*
X309863Y367153D01*
X309727Y367162D01*
X309591Y367173D01*
X309586Y367172D01*
X309579Y367173D01*
X309301Y367113D01*
X309282Y367102D01*
X309264Y367098D01*
X307905Y366535D01*
X305095Y366535D01*
X302498Y367611D01*
X300511Y369598D01*
X299435Y372195D01*
X299435Y375005D01*
X300511Y377602D01*
X302498Y379589D01*
X305095Y380665D01*
X307905Y380665D01*
X310502Y379589D01*
X312489Y377602D01*
X313574Y374984D01*
X313578Y374952D01*
X313582Y374858D01*
X313598Y374812D01*
X313605Y374765D01*
X313643Y374678D01*
X313674Y374589D01*
X313701Y374549D01*
X313721Y374505D01*
X313782Y374433D01*
X313836Y374355D01*
X313870Y374330D01*
X313904Y374288D01*
X314042Y374197D01*
X314102Y374151D01*
X329604Y365878D01*
X329677Y365852D01*
X329746Y365816D01*
X329801Y365806D01*
X329871Y365781D01*
X330000Y365772D01*
X330077Y365759D01*
X358039Y365630D01*
X358100Y365638D01*
X358160Y365637D01*
X358240Y365658D01*
X358321Y365669D01*
X358377Y365693D01*
X358435Y365709D01*
X358506Y365751D01*
X358581Y365784D01*
X358628Y365823D01*
X358680Y365854D01*
X358736Y365914D01*
X358799Y365966D01*
X358833Y366017D01*
X358874Y366061D01*
X358912Y366134D01*
X358957Y366202D01*
X358976Y366260D01*
X359004Y366314D01*
X359015Y366381D01*
X359045Y366473D01*
X359048Y366576D01*
X359059Y366645D01*
X359059Y374069D01*
X369584Y374069D01*
X369642Y374077D01*
X369700Y374075D01*
X369782Y374097D01*
X369865Y374109D01*
X369919Y374133D01*
X369975Y374147D01*
X370048Y374190D01*
X370125Y374225D01*
X370169Y374263D01*
X370220Y374293D01*
X370277Y374354D01*
X370342Y374409D01*
X370374Y374457D01*
X370414Y374500D01*
X370453Y374575D01*
X370499Y374645D01*
X370517Y374701D01*
X370544Y374753D01*
X370555Y374821D01*
X370585Y374916D01*
X370588Y375016D01*
X370599Y375084D01*
X370599Y376101D01*
X370601Y376101D01*
X370601Y375084D01*
X370609Y375026D01*
X370608Y374968D01*
X370629Y374886D01*
X370641Y374803D01*
X370665Y374749D01*
X370679Y374693D01*
X370722Y374620D01*
X370757Y374543D01*
X370795Y374498D01*
X370825Y374448D01*
X370886Y374390D01*
X370941Y374326D01*
X370989Y374294D01*
X371032Y374254D01*
X371107Y374215D01*
X371177Y374169D01*
X371233Y374151D01*
X371285Y374124D01*
X371353Y374113D01*
X371448Y374083D01*
X371548Y374080D01*
X371616Y374069D01*
X382141Y374069D01*
X382141Y366742D01*
X382128Y366702D01*
X382125Y366606D01*
X382114Y366511D01*
X382121Y366465D01*
X382120Y366418D01*
X382143Y366325D01*
X382159Y366230D01*
X382179Y366188D01*
X382190Y366143D01*
X382239Y366060D01*
X382280Y365973D01*
X382311Y365938D01*
X382334Y365898D01*
X382404Y365831D01*
X382468Y365759D01*
X382507Y365734D01*
X382541Y365702D01*
X382626Y365658D01*
X382707Y365606D01*
X382752Y365593D01*
X382793Y365572D01*
X382867Y365559D01*
X382980Y365526D01*
X383064Y365525D01*
X383124Y365515D01*
X383467Y365513D01*
X383518Y365520D01*
X383569Y365518D01*
X383658Y365539D01*
X383749Y365552D01*
X383796Y365572D01*
X383845Y365584D01*
X383925Y365630D01*
X384009Y365667D01*
X384048Y365700D01*
X384092Y365725D01*
X384156Y365791D01*
X384227Y365849D01*
X384255Y365892D01*
X384291Y365929D01*
X384334Y366009D01*
X384385Y366085D01*
X384401Y366134D01*
X384425Y366179D01*
X384444Y366269D01*
X384472Y366356D01*
X384474Y366407D01*
X384485Y366457D01*
X384478Y366530D01*
X384481Y366640D01*
X384459Y366724D01*
X384459Y374069D01*
X394984Y374069D01*
X395042Y374077D01*
X395100Y374075D01*
X395182Y374097D01*
X395265Y374109D01*
X395319Y374133D01*
X395375Y374147D01*
X395448Y374190D01*
X395525Y374225D01*
X395569Y374263D01*
X395620Y374293D01*
X395677Y374354D01*
X395742Y374409D01*
X395774Y374457D01*
X395814Y374500D01*
X395853Y374575D01*
X395899Y374645D01*
X395917Y374701D01*
X395944Y374753D01*
X395955Y374821D01*
X395985Y374916D01*
X395988Y375016D01*
X395999Y375084D01*
X395999Y376101D01*
X396001Y376101D01*
X396001Y375084D01*
X396009Y375026D01*
X396008Y374968D01*
X396029Y374886D01*
X396041Y374803D01*
X396065Y374749D01*
X396079Y374693D01*
X396122Y374620D01*
X396157Y374543D01*
X396195Y374498D01*
X396225Y374448D01*
X396286Y374390D01*
X396341Y374326D01*
X396389Y374294D01*
X396432Y374254D01*
X396507Y374215D01*
X396577Y374169D01*
X396633Y374151D01*
X396685Y374124D01*
X396753Y374113D01*
X396848Y374083D01*
X396948Y374080D01*
X397016Y374069D01*
X407541Y374069D01*
X407541Y366766D01*
X407517Y366676D01*
X407511Y366630D01*
X407497Y366586D01*
X407494Y366489D01*
X407482Y366394D01*
X407490Y366348D01*
X407488Y366301D01*
X407512Y366208D01*
X407528Y366113D01*
X407547Y366071D01*
X407559Y366026D01*
X407608Y365943D01*
X407649Y365856D01*
X407679Y365821D01*
X407703Y365781D01*
X407773Y365715D01*
X407837Y365642D01*
X407876Y365618D01*
X407909Y365586D01*
X407995Y365541D01*
X408076Y365489D01*
X408121Y365476D01*
X408162Y365455D01*
X408236Y365442D01*
X408349Y365409D01*
X408432Y365408D01*
X408493Y365398D01*
X412544Y365379D01*
X412656Y365395D01*
X412768Y365403D01*
X412796Y365414D01*
X412825Y365418D01*
X412929Y365464D01*
X413035Y365503D01*
X413058Y365521D01*
X413085Y365533D01*
X413172Y365606D01*
X413263Y365673D01*
X413278Y365695D01*
X413303Y365716D01*
X413443Y365923D01*
X413459Y365945D01*
X413723Y366482D01*
X413734Y366515D01*
X413752Y366545D01*
X413778Y366649D01*
X413812Y366752D01*
X413813Y366787D01*
X413822Y366820D01*
X413818Y366928D01*
X413822Y367036D01*
X413814Y367070D01*
X413813Y367105D01*
X413780Y367207D01*
X413754Y367312D01*
X413736Y367342D01*
X413725Y367375D01*
X413680Y367439D01*
X413611Y367558D01*
X413561Y367606D01*
X413530Y367648D01*
X411616Y369563D01*
X409859Y373804D01*
X409859Y378396D01*
X411616Y382637D01*
X414863Y385884D01*
X419104Y387641D01*
X423696Y387641D01*
X427937Y385884D01*
X431184Y382637D01*
X432941Y378396D01*
X432941Y373804D01*
X431184Y369563D01*
X427937Y366316D01*
X423696Y364559D01*
X422471Y364559D01*
X422361Y364544D01*
X422251Y364535D01*
X422221Y364524D01*
X422189Y364519D01*
X422088Y364474D01*
X421984Y364435D01*
X421959Y364416D01*
X421930Y364403D01*
X421845Y364332D01*
X421756Y364265D01*
X421740Y364242D01*
X421713Y364220D01*
X421584Y364026D01*
X421560Y363993D01*
X420246Y361329D01*
X420245Y361324D01*
X420241Y361319D01*
X420200Y361187D01*
X420158Y361059D01*
X420157Y361053D01*
X420156Y361048D01*
X420152Y360910D01*
X420147Y360775D01*
X420149Y360769D01*
X420148Y360764D01*
X420183Y360632D01*
X420216Y360499D01*
X420219Y360494D01*
X420220Y360489D01*
X420289Y360372D01*
X420358Y360253D01*
X420363Y360249D01*
X420365Y360244D01*
X420465Y360151D01*
X420564Y360056D01*
X420569Y360054D01*
X420573Y360050D01*
X420694Y359988D01*
X420815Y359924D01*
X420821Y359923D01*
X420826Y359920D01*
X420867Y359913D01*
X421094Y359867D01*
X421129Y359869D01*
X421157Y359865D01*
X433996Y359865D01*
X434098Y359879D01*
X434201Y359886D01*
X434238Y359899D01*
X434278Y359905D01*
X434371Y359947D01*
X434468Y359981D01*
X434501Y360005D01*
X434537Y360021D01*
X434615Y360087D01*
X434699Y360147D01*
X434720Y360176D01*
X434754Y360204D01*
X434860Y360364D01*
X434899Y360417D01*
X438380Y367203D01*
X438394Y367244D01*
X438416Y367281D01*
X438440Y367378D01*
X438473Y367472D01*
X438475Y367515D01*
X438486Y367557D01*
X438483Y367656D01*
X438488Y367756D01*
X438478Y367798D01*
X438477Y367841D01*
X438446Y367936D01*
X438423Y368033D01*
X438402Y368070D01*
X438389Y368111D01*
X438345Y368174D01*
X438285Y368281D01*
X438228Y368337D01*
X438194Y368385D01*
X437016Y369563D01*
X435259Y373804D01*
X435259Y378396D01*
X436619Y381678D01*
X436643Y381771D01*
X436675Y381862D01*
X436678Y381908D01*
X436690Y381953D01*
X436687Y382049D01*
X436693Y382145D01*
X436683Y382191D01*
X436682Y382238D01*
X436652Y382329D01*
X436632Y382423D01*
X436611Y382459D01*
X436595Y382508D01*
X436501Y382649D01*
X436463Y382713D01*
X428644Y392173D01*
X428566Y392244D01*
X428492Y392321D01*
X428461Y392340D01*
X428434Y392364D01*
X428339Y392411D01*
X428247Y392465D01*
X428212Y392474D01*
X428179Y392490D01*
X428074Y392509D01*
X427972Y392535D01*
X427935Y392534D01*
X427899Y392541D01*
X427793Y392530D01*
X427688Y392526D01*
X427653Y392515D01*
X427617Y392511D01*
X427518Y392471D01*
X427417Y392439D01*
X427390Y392420D01*
X427353Y392405D01*
X427191Y392278D01*
X427144Y392244D01*
X426688Y391788D01*
X422997Y390259D01*
X419003Y390259D01*
X415312Y391788D01*
X412488Y394612D01*
X410959Y398303D01*
X410959Y417297D01*
X412488Y420988D01*
X415312Y423812D01*
X419003Y425341D01*
X422997Y425341D01*
X426688Y423812D01*
X429512Y420988D01*
X431041Y417297D01*
X431041Y402398D01*
X431046Y402359D01*
X431044Y402320D01*
X431066Y402219D01*
X431081Y402117D01*
X431097Y402081D01*
X431105Y402042D01*
X431144Y401975D01*
X431197Y401857D01*
X431245Y401800D01*
X431273Y401752D01*
X434562Y397774D01*
X434619Y397722D01*
X434669Y397663D01*
X434723Y397626D01*
X434772Y397582D01*
X434841Y397548D01*
X434905Y397505D01*
X434968Y397485D01*
X435026Y397456D01*
X435103Y397443D01*
X435176Y397419D01*
X435242Y397418D01*
X435306Y397406D01*
X435383Y397414D01*
X435460Y397412D01*
X435524Y397429D01*
X435589Y397435D01*
X435661Y397464D01*
X435735Y397484D01*
X435792Y397517D01*
X435853Y397542D01*
X435913Y397590D01*
X435980Y397629D01*
X436025Y397677D01*
X436076Y397718D01*
X436121Y397780D01*
X436174Y397837D01*
X436204Y397895D01*
X436243Y397948D01*
X436269Y398021D01*
X436304Y398090D01*
X436313Y398145D01*
X436338Y398216D01*
X436346Y398344D01*
X436359Y398421D01*
X436359Y417297D01*
X437888Y420988D01*
X440712Y423812D01*
X441909Y424308D01*
X441910Y424308D01*
X441911Y424309D01*
X442028Y424378D01*
X442153Y424452D01*
X442155Y424453D01*
X442156Y424454D01*
X442250Y424554D01*
X442349Y424659D01*
X442349Y424660D01*
X442350Y424661D01*
X442415Y424787D01*
X442479Y424911D01*
X442479Y424913D01*
X442480Y424914D01*
X442482Y424929D01*
X442534Y425190D01*
X442531Y425221D01*
X442535Y425246D01*
X442535Y448516D01*
X442527Y448573D01*
X442529Y448629D01*
X442508Y448713D01*
X442495Y448798D01*
X442472Y448850D01*
X442458Y448905D01*
X442414Y448979D01*
X442379Y449057D01*
X442343Y449101D01*
X442314Y449150D01*
X442251Y449209D01*
X442196Y449274D01*
X442148Y449306D01*
X442107Y449345D01*
X442030Y449384D01*
X441959Y449432D01*
X441905Y449449D01*
X441854Y449475D01*
X441785Y449487D01*
X441688Y449518D01*
X441591Y449520D01*
X441523Y449532D01*
X329003Y449915D01*
X328910Y449902D01*
X328817Y449899D01*
X328770Y449883D01*
X328722Y449876D01*
X328636Y449838D01*
X328547Y449809D01*
X328512Y449783D01*
X328462Y449761D01*
X328337Y449656D01*
X328275Y449611D01*
X274975Y395311D01*
X274909Y395221D01*
X274858Y395167D01*
X245758Y351967D01*
X245735Y351920D01*
X245710Y351888D01*
X201610Y271488D01*
X201579Y271408D01*
X201540Y271331D01*
X201532Y271282D01*
X201509Y271222D01*
X201498Y271077D01*
X201485Y271000D01*
X201485Y256348D01*
X201493Y256290D01*
X201491Y256232D01*
X201513Y256150D01*
X201525Y256066D01*
X201549Y256013D01*
X201563Y255957D01*
X201606Y255884D01*
X201641Y255807D01*
X201679Y255762D01*
X201709Y255712D01*
X201770Y255654D01*
X201825Y255590D01*
X201873Y255558D01*
X201916Y255518D01*
X201991Y255479D01*
X202061Y255432D01*
X202117Y255415D01*
X202169Y255388D01*
X202237Y255377D01*
X202332Y255347D01*
X202432Y255344D01*
X202500Y255333D01*
X203288Y255333D01*
X209548Y252740D01*
X214340Y247948D01*
X216933Y241688D01*
X216933Y234912D01*
X214340Y228652D01*
X209548Y223860D01*
X203288Y221267D01*
X202500Y221267D01*
X202442Y221259D01*
X202384Y221261D01*
X202302Y221239D01*
X202219Y221227D01*
X202165Y221204D01*
X202109Y221189D01*
X202036Y221146D01*
X201959Y221111D01*
X201914Y221073D01*
X201864Y221044D01*
X201806Y220982D01*
X201742Y220928D01*
X201710Y220879D01*
X201670Y220836D01*
X201631Y220761D01*
X201585Y220691D01*
X201567Y220635D01*
X201540Y220583D01*
X201529Y220515D01*
X201499Y220420D01*
X201496Y220320D01*
X201485Y220252D01*
X201485Y198960D01*
X201465Y198952D01*
X201409Y198937D01*
X201336Y198894D01*
X201259Y198859D01*
X201214Y198821D01*
X201164Y198792D01*
X201106Y198730D01*
X201042Y198676D01*
X201010Y198627D01*
X200970Y198584D01*
X200931Y198509D01*
X200885Y198439D01*
X200867Y198383D01*
X200840Y198331D01*
X200829Y198263D01*
X200799Y198168D01*
X200796Y198068D01*
X200785Y198000D01*
X200785Y161000D01*
X200788Y160980D01*
X200786Y160961D01*
X200807Y160840D01*
X200825Y160719D01*
X200833Y160700D01*
X200836Y160681D01*
X200871Y160615D01*
X200941Y160459D01*
X200974Y160420D01*
X200993Y160384D01*
X232442Y119181D01*
X235880Y99439D01*
X235524Y92573D01*
X230599Y91136D01*
X227118Y90121D01*
X220156Y88091D01*
X219416Y87875D01*
X219415Y87875D01*
X219282Y87814D01*
X219157Y87758D01*
X219156Y87757D01*
X219055Y87671D01*
X218940Y87573D01*
X218939Y87572D01*
X218783Y87336D01*
X218775Y87309D01*
X218762Y87288D01*
X218119Y85736D01*
X218119Y85735D01*
X218118Y85734D01*
X218085Y85603D01*
X218048Y85461D01*
X218048Y85459D01*
X218048Y85458D01*
X218052Y85323D01*
X218056Y85177D01*
X218057Y85175D01*
X218057Y85174D01*
X218100Y85040D01*
X218143Y84906D01*
X218144Y84905D01*
X218144Y84903D01*
X218153Y84891D01*
X218301Y84670D01*
X218325Y84650D01*
X218339Y84630D01*
X224461Y78509D01*
X224461Y76331D01*
X219613Y76331D01*
X219530Y76319D01*
X219446Y76317D01*
X219390Y76300D01*
X219331Y76291D01*
X219255Y76257D01*
X219175Y76232D01*
X219126Y76199D01*
X219072Y76175D01*
X219008Y76121D01*
X218938Y76075D01*
X218900Y76030D01*
X218855Y75991D01*
X218808Y75922D01*
X218754Y75858D01*
X218730Y75804D01*
X218697Y75755D01*
X218672Y75675D01*
X218638Y75599D01*
X218629Y75540D01*
X218611Y75484D01*
X218609Y75400D01*
X218597Y75318D01*
X218606Y75259D01*
X218604Y75200D01*
X218625Y75119D01*
X218637Y75036D01*
X218661Y74982D01*
X218676Y74925D01*
X218718Y74853D01*
X218753Y74776D01*
X218791Y74731D01*
X218821Y74680D01*
X218882Y74623D01*
X218936Y74559D01*
X218979Y74532D01*
X219028Y74486D01*
X219153Y74422D01*
X219220Y74380D01*
X224061Y72348D01*
X224094Y72339D01*
X224123Y72324D01*
X224201Y72311D01*
X224336Y72276D01*
X224404Y72277D01*
X224454Y72269D01*
X224655Y72269D01*
X224708Y72206D01*
X224799Y72098D01*
X224800Y72098D01*
X224800Y72097D01*
X225037Y71940D01*
X225064Y71931D01*
X225083Y71919D01*
X227053Y71092D01*
X227189Y71056D01*
X227321Y71021D01*
X227325Y71021D01*
X227328Y71020D01*
X227467Y71023D01*
G37*
G36*
X253739Y268608D02*
X253739Y268608D01*
X253859Y268612D01*
X253881Y268619D01*
X253903Y268621D01*
X254016Y268662D01*
X254130Y268699D01*
X254147Y268711D01*
X254170Y268720D01*
X254398Y268889D01*
X254401Y268892D01*
X254403Y268894D01*
X256398Y270889D01*
X258995Y271965D01*
X261805Y271965D01*
X264402Y270889D01*
X264500Y270791D01*
X264557Y270748D01*
X264608Y270697D01*
X264670Y270663D01*
X264727Y270620D01*
X264794Y270595D01*
X264857Y270560D01*
X264926Y270544D01*
X264993Y270519D01*
X265064Y270513D01*
X265134Y270497D01*
X265194Y270502D01*
X265276Y270496D01*
X265393Y270519D01*
X265469Y270525D01*
X286140Y275798D01*
X286259Y275847D01*
X286378Y275892D01*
X286390Y275901D01*
X286403Y275906D01*
X286504Y275986D01*
X286606Y276063D01*
X286614Y276074D01*
X286626Y276083D01*
X286700Y276187D01*
X286777Y276290D01*
X286782Y276303D01*
X286791Y276315D01*
X286833Y276435D01*
X286879Y276555D01*
X286880Y276569D01*
X286885Y276583D01*
X286892Y276711D01*
X286903Y276838D01*
X286900Y276851D01*
X286901Y276867D01*
X286838Y277144D01*
X286831Y277155D01*
X286829Y277166D01*
X277695Y299532D01*
X277692Y299535D01*
X277691Y299539D01*
X277621Y299658D01*
X277551Y299777D01*
X277548Y299780D01*
X277546Y299784D01*
X277445Y299879D01*
X277346Y299974D01*
X277342Y299976D01*
X277339Y299978D01*
X277217Y300041D01*
X277093Y300105D01*
X277089Y300106D01*
X277086Y300108D01*
X277054Y300113D01*
X276815Y300161D01*
X276781Y300159D01*
X276755Y300163D01*
X274723Y300163D01*
X269663Y305223D01*
X269663Y312377D01*
X274723Y317437D01*
X279882Y317437D01*
X280007Y317454D01*
X280133Y317468D01*
X280148Y317474D01*
X280164Y317477D01*
X280279Y317528D01*
X280396Y317576D01*
X280407Y317586D01*
X280423Y317593D01*
X280640Y317776D01*
X280646Y317785D01*
X280653Y317791D01*
X284276Y322017D01*
X284289Y322039D01*
X284308Y322057D01*
X284365Y322158D01*
X284428Y322257D01*
X284436Y322281D01*
X284448Y322304D01*
X284465Y322379D01*
X284509Y322530D01*
X284509Y322560D01*
X285530Y323492D01*
X285575Y323547D01*
X285616Y323581D01*
X286514Y324629D01*
X286608Y324655D01*
X286722Y324680D01*
X286744Y324692D01*
X286769Y324699D01*
X286834Y324741D01*
X286972Y324816D01*
X287013Y324856D01*
X287051Y324881D01*
X292023Y329421D01*
X292024Y329422D01*
X292026Y329423D01*
X292037Y329438D01*
X292204Y329640D01*
X292216Y329668D01*
X292232Y329688D01*
X296339Y337300D01*
X296388Y337431D01*
X296436Y337561D01*
X296437Y337564D01*
X296438Y337567D01*
X296448Y337705D01*
X296459Y337844D01*
X296458Y337847D01*
X296459Y337851D01*
X296400Y338129D01*
X296388Y338151D01*
X296384Y338171D01*
X295835Y339495D01*
X295835Y342305D01*
X296911Y344902D01*
X298898Y346889D01*
X301495Y347965D01*
X304305Y347965D01*
X306902Y346889D01*
X308889Y344902D01*
X309068Y344470D01*
X309107Y344403D01*
X309137Y344333D01*
X309179Y344282D01*
X309213Y344225D01*
X309268Y344172D01*
X309317Y344113D01*
X309371Y344075D01*
X309419Y344030D01*
X309488Y343994D01*
X309551Y343951D01*
X309613Y343930D01*
X309672Y343899D01*
X309747Y343885D01*
X309820Y343860D01*
X309886Y343857D01*
X309951Y343844D01*
X310028Y343851D01*
X310104Y343848D01*
X310168Y343863D01*
X310234Y343869D01*
X310306Y343896D01*
X310381Y343914D01*
X310438Y343947D01*
X310500Y343971D01*
X310561Y344017D01*
X310627Y344055D01*
X310674Y344103D01*
X310726Y344142D01*
X310772Y344204D01*
X310826Y344259D01*
X310857Y344317D01*
X310897Y344370D01*
X310924Y344442D01*
X310960Y344510D01*
X310970Y344565D01*
X310997Y344636D01*
X311007Y344763D01*
X311021Y344840D01*
X311097Y348987D01*
X511702Y349385D01*
X511776Y349395D01*
X511850Y349396D01*
X511916Y349415D01*
X511983Y349425D01*
X512051Y349456D01*
X512122Y349477D01*
X512180Y349514D01*
X512243Y349542D01*
X512299Y349590D01*
X512362Y349630D01*
X512407Y349682D01*
X512459Y349726D01*
X512500Y349788D01*
X512549Y349844D01*
X512579Y349906D01*
X512616Y349963D01*
X512639Y350034D01*
X512670Y350101D01*
X512678Y350159D01*
X512702Y350234D01*
X512705Y350358D01*
X512715Y350434D01*
X509815Y437434D01*
X509809Y437468D01*
X509809Y437493D01*
X509794Y437551D01*
X509766Y437714D01*
X509760Y437725D01*
X509759Y437734D01*
X505959Y448634D01*
X505945Y448660D01*
X505938Y448688D01*
X505880Y448786D01*
X505828Y448887D01*
X505809Y448908D01*
X505794Y448933D01*
X505711Y449011D01*
X505633Y449094D01*
X505608Y449108D01*
X505587Y449128D01*
X505486Y449180D01*
X505388Y449238D01*
X505360Y449245D01*
X505334Y449259D01*
X505257Y449272D01*
X505113Y449309D01*
X505051Y449307D01*
X505003Y449315D01*
X451683Y449497D01*
X451624Y449489D01*
X451564Y449490D01*
X451484Y449469D01*
X451402Y449458D01*
X451347Y449434D01*
X451289Y449419D01*
X451218Y449376D01*
X451142Y449343D01*
X451096Y449304D01*
X451044Y449273D01*
X450988Y449213D01*
X450924Y449160D01*
X450891Y449110D01*
X450850Y449066D01*
X450812Y448992D01*
X450766Y448924D01*
X450748Y448866D01*
X450720Y448813D01*
X450709Y448746D01*
X450679Y448653D01*
X450676Y448551D01*
X450665Y448482D01*
X450665Y425080D01*
X450665Y425078D01*
X450665Y425077D01*
X450685Y424937D01*
X450705Y424798D01*
X450705Y424797D01*
X450705Y424795D01*
X450762Y424669D01*
X450821Y424539D01*
X450822Y424538D01*
X450823Y424536D01*
X450915Y424428D01*
X451004Y424322D01*
X451006Y424321D01*
X451007Y424320D01*
X451020Y424312D01*
X451241Y424164D01*
X451270Y424155D01*
X451291Y424142D01*
X452088Y423812D01*
X454912Y420988D01*
X456441Y417297D01*
X456441Y398303D01*
X454912Y394612D01*
X452088Y391788D01*
X448397Y390259D01*
X444403Y390259D01*
X442656Y390983D01*
X442620Y390992D01*
X442585Y391009D01*
X442482Y391028D01*
X442381Y391054D01*
X442343Y391052D01*
X442306Y391059D01*
X442201Y391048D01*
X442097Y391045D01*
X442061Y391034D01*
X442023Y391030D01*
X441926Y390991D01*
X441826Y390959D01*
X441795Y390938D01*
X441759Y390923D01*
X441677Y390859D01*
X441590Y390800D01*
X441566Y390771D01*
X441536Y390748D01*
X441474Y390663D01*
X441407Y390583D01*
X441392Y390548D01*
X441369Y390517D01*
X441334Y390419D01*
X441292Y390323D01*
X441286Y390285D01*
X441274Y390250D01*
X441267Y390145D01*
X441253Y390042D01*
X441258Y390004D01*
X441256Y389966D01*
X441278Y389864D01*
X441293Y389760D01*
X441309Y389726D01*
X441317Y389688D01*
X441356Y389621D01*
X441410Y389501D01*
X441458Y389445D01*
X441485Y389398D01*
X442859Y387736D01*
X442896Y387702D01*
X442926Y387662D01*
X443001Y387607D01*
X443069Y387544D01*
X443114Y387522D01*
X443154Y387492D01*
X443241Y387459D01*
X443324Y387418D01*
X443374Y387409D01*
X443420Y387392D01*
X443513Y387384D01*
X443604Y387368D01*
X443654Y387373D01*
X443703Y387369D01*
X443775Y387386D01*
X443887Y387397D01*
X443969Y387430D01*
X444031Y387444D01*
X444504Y387641D01*
X449096Y387641D01*
X453337Y385884D01*
X456584Y382637D01*
X458341Y378396D01*
X458341Y373804D01*
X456584Y369563D01*
X453337Y366316D01*
X449096Y364559D01*
X446780Y364559D01*
X446679Y364545D01*
X446576Y364538D01*
X446538Y364525D01*
X446499Y364519D01*
X446405Y364477D01*
X446308Y364443D01*
X446276Y364419D01*
X446239Y364403D01*
X446161Y364337D01*
X446077Y364277D01*
X446056Y364248D01*
X446022Y364220D01*
X445916Y364060D01*
X445877Y364007D01*
X441277Y355037D01*
X441253Y354969D01*
X441220Y354904D01*
X441210Y354845D01*
X441184Y354768D01*
X441177Y354648D01*
X441165Y354573D01*
X441165Y354116D01*
X440538Y353490D01*
X440367Y353263D01*
X440361Y353247D01*
X440353Y353235D01*
X439949Y352447D01*
X439514Y352307D01*
X439449Y352276D01*
X439380Y352253D01*
X439331Y352218D01*
X439258Y352183D01*
X439169Y352102D01*
X439107Y352058D01*
X438784Y351735D01*
X437898Y351735D01*
X437616Y351695D01*
X437601Y351688D01*
X437587Y351686D01*
X436743Y351415D01*
X436337Y351623D01*
X436269Y351647D01*
X436204Y351680D01*
X436145Y351690D01*
X436068Y351716D01*
X435948Y351723D01*
X435873Y351735D01*
X319204Y351735D01*
X319118Y351723D01*
X319030Y351720D01*
X318978Y351703D01*
X318923Y351695D01*
X318843Y351660D01*
X318760Y351633D01*
X318720Y351605D01*
X318663Y351579D01*
X318580Y351508D01*
X318488Y351495D01*
X318445Y351476D01*
X318399Y351465D01*
X318335Y351427D01*
X318297Y351410D01*
X316777Y351532D01*
X316732Y351529D01*
X316696Y351535D01*
X315173Y351535D01*
X315121Y351575D01*
X315077Y351591D01*
X315037Y351616D01*
X314964Y351634D01*
X314855Y351676D01*
X314771Y351683D01*
X314711Y351698D01*
X285466Y354047D01*
X285338Y354039D01*
X285211Y354035D01*
X285197Y354030D01*
X285182Y354030D01*
X285062Y353987D01*
X284940Y353947D01*
X284929Y353940D01*
X284914Y353934D01*
X284683Y353769D01*
X284675Y353759D01*
X284667Y353753D01*
X281477Y350563D01*
X277775Y350563D01*
X277758Y350561D01*
X277742Y350563D01*
X277618Y350541D01*
X277493Y350523D01*
X277478Y350517D01*
X277462Y350514D01*
X277349Y350459D01*
X277234Y350407D01*
X277221Y350397D01*
X277207Y350389D01*
X277156Y350341D01*
X277017Y350224D01*
X276991Y350184D01*
X276963Y350158D01*
X270227Y341198D01*
X270192Y341136D01*
X270149Y341079D01*
X270124Y341012D01*
X270089Y340949D01*
X270074Y340880D01*
X270048Y340813D01*
X270042Y340742D01*
X270026Y340672D01*
X270031Y340601D01*
X270025Y340530D01*
X270039Y340460D01*
X270043Y340388D01*
X270066Y340321D01*
X270080Y340251D01*
X270113Y340188D01*
X270137Y340120D01*
X270179Y340062D01*
X270211Y339999D01*
X270261Y339947D01*
X270302Y339889D01*
X270358Y339844D01*
X270407Y339793D01*
X270469Y339757D01*
X270525Y339712D01*
X270591Y339685D01*
X270653Y339649D01*
X270722Y339631D01*
X270788Y339604D01*
X270859Y339596D01*
X270928Y339579D01*
X271000Y339581D01*
X271071Y339573D01*
X271141Y339586D01*
X271212Y339588D01*
X271280Y339610D01*
X271351Y339622D01*
X271415Y339653D01*
X271483Y339675D01*
X271532Y339711D01*
X271606Y339747D01*
X271677Y339814D01*
X271756Y339870D01*
X274323Y342437D01*
X275869Y342437D01*
X275869Y335831D01*
X269263Y335831D01*
X269263Y336877D01*
X269255Y336933D01*
X269257Y336983D01*
X269247Y337021D01*
X269243Y337077D01*
X269229Y337117D01*
X269223Y337159D01*
X269193Y337226D01*
X269185Y337258D01*
X269172Y337280D01*
X269149Y337345D01*
X269124Y337379D01*
X269107Y337418D01*
X269049Y337487D01*
X269040Y337503D01*
X269031Y337511D01*
X268984Y337577D01*
X268951Y337603D01*
X268924Y337635D01*
X268840Y337691D01*
X268834Y337695D01*
X268832Y337697D01*
X268831Y337698D01*
X268761Y337753D01*
X268722Y337769D01*
X268687Y337793D01*
X268591Y337823D01*
X268498Y337861D01*
X268456Y337866D01*
X268416Y337878D01*
X268315Y337881D01*
X268215Y337892D01*
X268174Y337885D01*
X268132Y337886D01*
X268035Y337860D01*
X267935Y337843D01*
X267897Y337824D01*
X267857Y337814D01*
X267770Y337763D01*
X267680Y337718D01*
X267653Y337693D01*
X267612Y337669D01*
X267537Y337589D01*
X267482Y337542D01*
X267461Y337511D01*
X267437Y337487D01*
X261816Y330011D01*
X261807Y329995D01*
X261795Y329982D01*
X261764Y329917D01*
X261678Y329762D01*
X261667Y329714D01*
X261651Y329679D01*
X250576Y290823D01*
X250573Y290800D01*
X250564Y290777D01*
X250559Y290701D01*
X250537Y290542D01*
X250545Y290486D01*
X250543Y290442D01*
X252675Y269509D01*
X252704Y269393D01*
X252728Y269275D01*
X252738Y269255D01*
X252744Y269233D01*
X252803Y269129D01*
X252859Y269023D01*
X252874Y269007D01*
X252886Y268987D01*
X252972Y268904D01*
X253055Y268817D01*
X253074Y268805D01*
X253090Y268790D01*
X253196Y268734D01*
X253300Y268673D01*
X253322Y268668D01*
X253342Y268657D01*
X253459Y268633D01*
X253575Y268603D01*
X253598Y268604D01*
X253620Y268599D01*
X253739Y268608D01*
G37*
G36*
X419136Y3882D02*
X419136Y3882D01*
X419257Y3894D01*
X419276Y3902D01*
X419296Y3905D01*
X419408Y3955D01*
X419521Y4000D01*
X419537Y4013D01*
X419556Y4021D01*
X419649Y4100D01*
X419745Y4175D01*
X419757Y4191D01*
X419773Y4204D01*
X419840Y4306D01*
X419912Y4405D01*
X419918Y4423D01*
X419930Y4441D01*
X420016Y4712D01*
X420016Y4719D01*
X420018Y4724D01*
X431003Y75344D01*
X431003Y75365D01*
X431009Y75385D01*
X431005Y75507D01*
X431007Y75628D01*
X431002Y75648D01*
X431001Y75669D01*
X430964Y75785D01*
X430932Y75902D01*
X430921Y75920D01*
X430915Y75940D01*
X430847Y76041D01*
X430784Y76145D01*
X430769Y76159D01*
X430757Y76176D01*
X430699Y76223D01*
X430574Y76337D01*
X430527Y76361D01*
X430495Y76386D01*
X408295Y88786D01*
X408206Y88821D01*
X408121Y88863D01*
X408079Y88870D01*
X408030Y88889D01*
X407863Y88904D01*
X407789Y88915D01*
X306334Y87826D01*
X307473Y150264D01*
X307471Y150275D01*
X307473Y150285D01*
X307454Y150415D01*
X307438Y150546D01*
X307434Y150556D01*
X307432Y150567D01*
X307378Y150686D01*
X307327Y150807D01*
X307320Y150816D01*
X307315Y150826D01*
X307230Y150926D01*
X307147Y151028D01*
X307138Y151034D01*
X307131Y151042D01*
X307080Y151074D01*
X306913Y151190D01*
X306874Y151203D01*
X306846Y151220D01*
X305439Y151803D01*
X304035Y152741D01*
X302841Y153935D01*
X301903Y155339D01*
X301257Y156899D01*
X301157Y157401D01*
X306606Y157401D01*
X306655Y157408D01*
X306704Y157405D01*
X306795Y157427D01*
X306888Y157441D01*
X306932Y157461D01*
X306980Y157472D01*
X307062Y157519D01*
X307147Y157557D01*
X307185Y157589D01*
X307227Y157613D01*
X307293Y157680D01*
X307364Y157740D01*
X307391Y157781D01*
X307426Y157817D01*
X307470Y157899D01*
X307522Y157977D01*
X307536Y158024D01*
X307560Y158067D01*
X307573Y158140D01*
X307607Y158248D01*
X307610Y158335D01*
X307621Y158397D01*
X307657Y160366D01*
X307649Y160433D01*
X307651Y160500D01*
X307632Y160573D01*
X307622Y160648D01*
X307596Y160710D01*
X307579Y160775D01*
X307540Y160840D01*
X307511Y160909D01*
X307468Y160962D01*
X307433Y161020D01*
X307379Y161071D01*
X307331Y161129D01*
X307276Y161168D01*
X307226Y161214D01*
X307159Y161249D01*
X307097Y161291D01*
X307033Y161313D01*
X306973Y161344D01*
X306911Y161354D01*
X306828Y161382D01*
X306715Y161387D01*
X306642Y161399D01*
X301157Y161399D01*
X301257Y161901D01*
X301903Y163461D01*
X302841Y164865D01*
X304035Y166059D01*
X305439Y166997D01*
X307020Y167652D01*
X307077Y167672D01*
X307167Y167694D01*
X307211Y167719D01*
X307259Y167735D01*
X307334Y167789D01*
X307414Y167834D01*
X307449Y167871D01*
X307491Y167900D01*
X307548Y167972D01*
X307612Y168038D01*
X307636Y168083D01*
X307668Y168123D01*
X307703Y168208D01*
X307746Y168289D01*
X307754Y168333D01*
X307776Y168385D01*
X307793Y168543D01*
X307808Y168619D01*
X307817Y169121D01*
X307815Y169132D01*
X307817Y169143D01*
X307798Y169273D01*
X307782Y169403D01*
X307778Y169413D01*
X307776Y169424D01*
X307722Y169544D01*
X307671Y169665D01*
X307664Y169673D01*
X307659Y169683D01*
X307574Y169784D01*
X307491Y169885D01*
X307482Y169891D01*
X307475Y169900D01*
X307424Y169932D01*
X307257Y170047D01*
X307218Y170060D01*
X307190Y170078D01*
X304644Y171132D01*
X303312Y172464D01*
X303268Y172498D01*
X303229Y172538D01*
X303154Y172583D01*
X303085Y172635D01*
X303033Y172655D01*
X302985Y172683D01*
X302901Y172705D01*
X302819Y172736D01*
X302763Y172741D01*
X302710Y172755D01*
X302623Y172753D01*
X302536Y172760D01*
X302481Y172749D01*
X302425Y172747D01*
X302342Y172721D01*
X302257Y172704D01*
X302208Y172678D01*
X302154Y172661D01*
X302097Y172621D01*
X302005Y172573D01*
X301935Y172507D01*
X301880Y172468D01*
X297208Y167844D01*
X297162Y167784D01*
X297108Y167730D01*
X297076Y167671D01*
X297036Y167618D01*
X297008Y167547D01*
X296972Y167480D01*
X296961Y167424D01*
X296933Y167353D01*
X296922Y167227D01*
X296907Y167151D01*
X296566Y154785D01*
X296568Y154763D01*
X296566Y154746D01*
X297048Y108718D01*
X297068Y108583D01*
X297087Y108448D01*
X297090Y108443D01*
X297091Y108437D01*
X297210Y108178D01*
X297224Y108162D01*
X297232Y108145D01*
X297294Y108056D01*
X297085Y106860D01*
X297081Y106747D01*
X297069Y106674D01*
X297082Y105459D01*
X297006Y105382D01*
X296925Y105272D01*
X296843Y105163D01*
X296842Y105158D01*
X296838Y105153D01*
X296739Y104886D01*
X296738Y104864D01*
X296732Y104847D01*
X295020Y95082D01*
X295019Y95049D01*
X295010Y95017D01*
X295014Y94908D01*
X295010Y94798D01*
X295018Y94766D01*
X295020Y94733D01*
X295053Y94629D01*
X295080Y94523D01*
X295097Y94494D01*
X295107Y94462D01*
X295153Y94399D01*
X295223Y94277D01*
X295272Y94231D01*
X295302Y94189D01*
X295489Y94002D01*
X296565Y91405D01*
X296565Y88595D01*
X295489Y85998D01*
X295487Y85996D01*
X295483Y85991D01*
X295478Y85986D01*
X295397Y85876D01*
X295316Y85769D01*
X295314Y85762D01*
X295310Y85757D01*
X295263Y85629D01*
X295215Y85503D01*
X295214Y85496D01*
X295212Y85490D01*
X295210Y85443D01*
X295191Y85220D01*
X295198Y85184D01*
X295197Y85155D01*
X297030Y70195D01*
X297065Y70066D01*
X297098Y69935D01*
X297102Y69928D01*
X297104Y69921D01*
X297173Y69806D01*
X297241Y69690D01*
X297247Y69684D01*
X297251Y69677D01*
X297350Y69586D01*
X297446Y69494D01*
X297453Y69490D01*
X297459Y69484D01*
X297714Y69357D01*
X297733Y69353D01*
X297748Y69346D01*
X303917Y67508D01*
X303939Y67504D01*
X303956Y67497D01*
X305582Y67083D01*
X306381Y65607D01*
X306394Y65588D01*
X306401Y65571D01*
X309375Y60565D01*
X309409Y60522D01*
X309436Y60475D01*
X309498Y60412D01*
X309553Y60343D01*
X309598Y60312D01*
X309636Y60273D01*
X309713Y60230D01*
X309786Y60180D01*
X309837Y60162D01*
X309885Y60135D01*
X309955Y60121D01*
X310054Y60087D01*
X310149Y60082D01*
X310214Y60069D01*
X325151Y59565D01*
X325170Y59567D01*
X325185Y59565D01*
X333912Y59565D01*
X334193Y59605D01*
X334207Y59611D01*
X334219Y59612D01*
X335073Y59884D01*
X335470Y59678D01*
X335540Y59654D01*
X335605Y59620D01*
X335663Y59611D01*
X335738Y59584D01*
X335861Y59577D01*
X335937Y59565D01*
X336395Y59565D01*
X336463Y59519D01*
X336553Y59451D01*
X336581Y59441D01*
X336605Y59425D01*
X336713Y59390D01*
X336819Y59350D01*
X336848Y59348D01*
X336876Y59339D01*
X336990Y59336D01*
X337102Y59327D01*
X337131Y59332D01*
X337160Y59332D01*
X337270Y59360D01*
X337381Y59382D01*
X337407Y59396D01*
X337435Y59403D01*
X337533Y59461D01*
X337633Y59513D01*
X337655Y59534D01*
X337680Y59549D01*
X337757Y59631D01*
X337839Y59709D01*
X337854Y59735D01*
X337874Y59756D01*
X337926Y59857D01*
X337983Y59955D01*
X337990Y59983D01*
X338004Y60009D01*
X338017Y60086D01*
X338053Y60230D01*
X338051Y60293D01*
X338059Y60340D01*
X338059Y64169D01*
X347569Y64169D01*
X347569Y54035D01*
X347583Y53935D01*
X347589Y53834D01*
X347603Y53795D01*
X347609Y53754D01*
X347650Y53662D01*
X347684Y53566D01*
X347708Y53532D01*
X347725Y53494D01*
X347790Y53417D01*
X347849Y53335D01*
X347878Y53313D01*
X347909Y53277D01*
X348062Y53175D01*
X348117Y53133D01*
X349747Y52290D01*
X349821Y52264D01*
X349892Y52229D01*
X349946Y52220D01*
X350015Y52196D01*
X350146Y52189D01*
X350223Y52177D01*
X366329Y52331D01*
X366349Y52334D01*
X366370Y52332D01*
X366489Y52355D01*
X366610Y52373D01*
X366628Y52382D01*
X366649Y52386D01*
X366757Y52441D01*
X366868Y52492D01*
X366884Y52505D01*
X366902Y52515D01*
X366991Y52598D01*
X367083Y52678D01*
X367095Y52695D01*
X367110Y52709D01*
X367146Y52774D01*
X367239Y52916D01*
X367254Y52966D01*
X367274Y53002D01*
X367381Y53300D01*
X367400Y53389D01*
X367428Y53476D01*
X367429Y53528D01*
X367439Y53578D01*
X367433Y53669D01*
X367435Y53760D01*
X367422Y53810D01*
X367418Y53862D01*
X367386Y53947D01*
X367363Y54035D01*
X367337Y54080D01*
X367319Y54128D01*
X367264Y54201D01*
X367218Y54280D01*
X367180Y54315D01*
X367150Y54356D01*
X367077Y54412D01*
X367011Y54474D01*
X366965Y54498D01*
X366924Y54529D01*
X366839Y54562D01*
X366757Y54604D01*
X366713Y54611D01*
X366659Y54632D01*
X366503Y54646D01*
X366426Y54659D01*
X364948Y54659D01*
X363459Y56148D01*
X363459Y76252D01*
X364948Y77741D01*
X385052Y77741D01*
X386541Y76252D01*
X386541Y56148D01*
X385052Y54659D01*
X377226Y54659D01*
X377201Y54656D01*
X377176Y54658D01*
X377061Y54636D01*
X376945Y54619D01*
X376922Y54609D01*
X376897Y54604D01*
X376792Y54551D01*
X376685Y54503D01*
X376666Y54487D01*
X376643Y54475D01*
X376558Y54395D01*
X376468Y54320D01*
X376454Y54298D01*
X376436Y54281D01*
X376398Y54213D01*
X376311Y54083D01*
X376302Y54055D01*
X376299Y54051D01*
X376290Y54022D01*
X376271Y53988D01*
X374033Y47780D01*
X374031Y47768D01*
X374026Y47758D01*
X374016Y47696D01*
X373975Y47502D01*
X373979Y47460D01*
X373973Y47426D01*
X373981Y46655D01*
X373578Y46245D01*
X373549Y46205D01*
X373512Y46171D01*
X373476Y46107D01*
X373409Y46016D01*
X373384Y45948D01*
X373372Y45929D01*
X373365Y45910D01*
X373348Y45878D01*
X373153Y45338D01*
X372455Y45010D01*
X372445Y45003D01*
X372434Y44999D01*
X372383Y44963D01*
X372217Y44854D01*
X372190Y44822D01*
X372162Y44802D01*
X371623Y44252D01*
X371048Y44246D01*
X370999Y44239D01*
X370949Y44240D01*
X370878Y44220D01*
X370767Y44204D01*
X370687Y44167D01*
X370626Y44150D01*
X370106Y43905D01*
X369380Y44167D01*
X369368Y44169D01*
X369358Y44174D01*
X369296Y44184D01*
X369102Y44225D01*
X369060Y44221D01*
X369026Y44227D01*
X349802Y44043D01*
X349521Y44000D01*
X349512Y43996D01*
X349504Y43995D01*
X348447Y43659D01*
X348393Y43662D01*
X348322Y43646D01*
X348250Y43640D01*
X348184Y43614D01*
X348115Y43599D01*
X348052Y43564D01*
X347984Y43538D01*
X347928Y43495D01*
X347867Y43461D01*
X347815Y43410D01*
X347758Y43366D01*
X347716Y43310D01*
X347666Y43260D01*
X347631Y43196D01*
X347588Y43138D01*
X347563Y43072D01*
X347529Y43011D01*
X347513Y42940D01*
X347487Y42872D01*
X347482Y42802D01*
X347466Y42733D01*
X347470Y42661D01*
X347464Y42589D01*
X347478Y42531D01*
X347483Y42450D01*
X347523Y42336D01*
X347540Y42262D01*
X349221Y38204D01*
X349221Y30796D01*
X346386Y23952D01*
X341148Y18714D01*
X335941Y16557D01*
X335871Y16516D01*
X335796Y16483D01*
X335749Y16444D01*
X335696Y16413D01*
X335640Y16354D01*
X335578Y16302D01*
X335543Y16251D01*
X335501Y16206D01*
X335464Y16134D01*
X335418Y16067D01*
X335399Y16008D01*
X335371Y15953D01*
X335355Y15874D01*
X335330Y15796D01*
X335328Y15735D01*
X335316Y15674D01*
X335323Y15594D01*
X335320Y15512D01*
X335335Y15452D01*
X335340Y15391D01*
X335369Y15315D01*
X335389Y15237D01*
X335420Y15183D01*
X335442Y15126D01*
X335491Y15061D01*
X335532Y14991D01*
X335577Y14948D01*
X335614Y14899D01*
X335679Y14851D01*
X335738Y14794D01*
X335792Y14766D01*
X335841Y14729D01*
X335917Y14700D01*
X335989Y14663D01*
X336042Y14653D01*
X336107Y14629D01*
X336243Y14618D01*
X336320Y14604D01*
X340434Y14566D01*
X340479Y14572D01*
X340515Y14569D01*
X389817Y18058D01*
X389921Y18080D01*
X390025Y18094D01*
X390059Y18109D01*
X390095Y18117D01*
X390188Y18167D01*
X390285Y18210D01*
X390313Y18234D01*
X390346Y18252D01*
X390421Y18325D01*
X390502Y18393D01*
X390523Y18424D01*
X390549Y18450D01*
X390602Y18542D01*
X390660Y18630D01*
X390670Y18661D01*
X390690Y18697D01*
X390729Y18861D01*
X390750Y18926D01*
X390750Y18938D01*
X390754Y18952D01*
X394818Y53526D01*
X394815Y53643D01*
X394818Y53760D01*
X394812Y53785D01*
X394811Y53810D01*
X394776Y53922D01*
X394746Y54035D01*
X394733Y54057D01*
X394726Y54081D01*
X394661Y54179D01*
X394601Y54280D01*
X394582Y54297D01*
X394569Y54318D01*
X394479Y54394D01*
X394393Y54474D01*
X394371Y54486D01*
X394352Y54502D01*
X394245Y54550D01*
X394140Y54604D01*
X394118Y54607D01*
X394093Y54619D01*
X393811Y54659D01*
X393810Y54659D01*
X393809Y54659D01*
X390348Y54659D01*
X388859Y56148D01*
X388859Y76252D01*
X390348Y77741D01*
X410452Y77741D01*
X411941Y76252D01*
X411941Y56148D01*
X410452Y54659D01*
X404039Y54659D01*
X403905Y54640D01*
X403760Y54620D01*
X403759Y54620D01*
X403758Y54619D01*
X403633Y54564D01*
X403500Y54504D01*
X403499Y54504D01*
X403498Y54503D01*
X403392Y54413D01*
X403283Y54321D01*
X403282Y54320D01*
X403281Y54320D01*
X403202Y54201D01*
X403125Y54085D01*
X403124Y54084D01*
X403124Y54083D01*
X403038Y53812D01*
X403037Y53790D01*
X403034Y53780D01*
X403034Y53773D01*
X403031Y53763D01*
X398393Y14300D01*
X398395Y14184D01*
X398388Y14110D01*
X398473Y12907D01*
X398396Y12818D01*
X398323Y12705D01*
X398248Y12593D01*
X398246Y12586D01*
X398241Y12579D01*
X398159Y12307D01*
X398159Y12287D01*
X398154Y12271D01*
X398140Y12153D01*
X397194Y11406D01*
X397114Y11322D01*
X397057Y11275D01*
X396266Y10364D01*
X396148Y10356D01*
X396017Y10328D01*
X395885Y10302D01*
X395879Y10298D01*
X395870Y10296D01*
X395620Y10162D01*
X395605Y10148D01*
X395591Y10140D01*
X395498Y10067D01*
X394300Y10207D01*
X394184Y10205D01*
X394110Y10212D01*
X342753Y6577D01*
X342706Y6568D01*
X342659Y6566D01*
X342568Y6538D01*
X342475Y6518D01*
X342433Y6496D01*
X342388Y6481D01*
X342327Y6439D01*
X342291Y6420D01*
X340765Y6434D01*
X340720Y6428D01*
X340684Y6431D01*
X339164Y6324D01*
X339110Y6359D01*
X339065Y6372D01*
X339023Y6394D01*
X338949Y6407D01*
X338838Y6441D01*
X338753Y6442D01*
X338692Y6453D01*
X320692Y6618D01*
X320635Y6610D01*
X320577Y6612D01*
X320495Y6592D01*
X320410Y6581D01*
X320357Y6558D01*
X320301Y6544D01*
X320270Y6524D01*
X318672Y6634D01*
X318638Y6632D01*
X318611Y6637D01*
X317019Y6651D01*
X316972Y6670D01*
X316923Y6699D01*
X316855Y6716D01*
X316761Y6752D01*
X316663Y6762D01*
X316596Y6777D01*
X274412Y9683D01*
X274404Y9683D01*
X274396Y9684D01*
X274344Y9679D01*
X274128Y9663D01*
X274093Y9650D01*
X274062Y9647D01*
X273302Y9429D01*
X272817Y9698D01*
X272767Y9717D01*
X272721Y9744D01*
X272651Y9761D01*
X272551Y9799D01*
X272459Y9807D01*
X272395Y9822D01*
X271841Y9861D01*
X271322Y10457D01*
X271316Y10462D01*
X271311Y10469D01*
X271271Y10501D01*
X271107Y10643D01*
X271072Y10659D01*
X271048Y10678D01*
X256012Y19011D01*
X256004Y19014D01*
X255997Y19019D01*
X255948Y19036D01*
X255747Y19113D01*
X255708Y19116D01*
X255679Y19126D01*
X251501Y19789D01*
X251419Y19790D01*
X251339Y19802D01*
X251278Y19793D01*
X251217Y19794D01*
X251138Y19773D01*
X251057Y19761D01*
X251001Y19736D01*
X250942Y19720D01*
X250872Y19677D01*
X250798Y19644D01*
X250752Y19604D01*
X250699Y19572D01*
X250644Y19512D01*
X250582Y19459D01*
X250554Y19415D01*
X250506Y19363D01*
X250445Y19241D01*
X250404Y19175D01*
X250289Y18898D01*
X248302Y16911D01*
X245705Y15835D01*
X242895Y15835D01*
X240298Y16911D01*
X238311Y18898D01*
X237235Y21495D01*
X237235Y24305D01*
X238311Y26902D01*
X240298Y28889D01*
X242895Y29965D01*
X245191Y29965D01*
X245220Y29969D01*
X245249Y29966D01*
X245360Y29989D01*
X245473Y30005D01*
X245499Y30017D01*
X245528Y30022D01*
X245629Y30075D01*
X245732Y30121D01*
X245754Y30140D01*
X245780Y30153D01*
X245863Y30231D01*
X245949Y30304D01*
X245965Y30329D01*
X245987Y30349D01*
X246044Y30447D01*
X246107Y30541D01*
X246115Y30569D01*
X246130Y30594D01*
X246158Y30704D01*
X246192Y30812D01*
X246193Y30842D01*
X246200Y30870D01*
X246197Y30983D01*
X246200Y31096D01*
X246192Y31125D01*
X246191Y31154D01*
X246156Y31262D01*
X246128Y31371D01*
X246113Y31397D01*
X246104Y31425D01*
X246058Y31489D01*
X245983Y31616D01*
X245937Y31659D01*
X245909Y31698D01*
X244659Y32948D01*
X244659Y33188D01*
X244643Y33303D01*
X244633Y33418D01*
X244623Y33443D01*
X244619Y33469D01*
X244572Y33575D01*
X244530Y33683D01*
X244514Y33705D01*
X244503Y33729D01*
X244428Y33817D01*
X244358Y33910D01*
X244337Y33925D01*
X244320Y33946D01*
X244223Y34010D01*
X244130Y34079D01*
X244105Y34089D01*
X244083Y34103D01*
X243972Y34139D01*
X243864Y34179D01*
X243840Y34180D01*
X243812Y34189D01*
X243533Y34196D01*
X243529Y34197D01*
X243528Y34196D01*
X234559Y33170D01*
X234424Y33135D01*
X234288Y33101D01*
X234286Y33099D01*
X234283Y33099D01*
X234163Y33027D01*
X234043Y32957D01*
X234041Y32955D01*
X234039Y32954D01*
X233944Y32853D01*
X233847Y32751D01*
X233846Y32748D01*
X233844Y32746D01*
X233781Y32623D01*
X233716Y32498D01*
X233716Y32496D01*
X233714Y32493D01*
X233660Y32214D01*
X233662Y32189D01*
X233659Y32168D01*
X233491Y4886D01*
X233499Y4825D01*
X233497Y4764D01*
X233518Y4685D01*
X233529Y4605D01*
X233554Y4548D01*
X233569Y4489D01*
X233611Y4419D01*
X233644Y4344D01*
X233683Y4297D01*
X233715Y4244D01*
X233774Y4189D01*
X233826Y4126D01*
X233877Y4092D01*
X233922Y4050D01*
X233994Y4013D01*
X234062Y3967D01*
X234120Y3948D01*
X234175Y3920D01*
X234241Y3909D01*
X234332Y3880D01*
X234436Y3876D01*
X234506Y3865D01*
X419015Y3865D01*
X419136Y3882D01*
G37*
G36*
X300470Y40969D02*
X300470Y40969D01*
X300575Y40975D01*
X300610Y40987D01*
X300646Y40992D01*
X300744Y41034D01*
X300844Y41069D01*
X300873Y41090D01*
X300907Y41105D01*
X300989Y41173D01*
X301075Y41234D01*
X301098Y41263D01*
X301126Y41286D01*
X301186Y41373D01*
X301252Y41457D01*
X301266Y41491D01*
X301287Y41521D01*
X301309Y41596D01*
X301360Y41719D01*
X301368Y41791D01*
X301384Y41842D01*
X303047Y54880D01*
X303046Y54905D01*
X303052Y54930D01*
X303044Y55047D01*
X303043Y55164D01*
X303035Y55189D01*
X303034Y55214D01*
X303006Y55286D01*
X302960Y55436D01*
X302929Y55485D01*
X302912Y55527D01*
X300374Y59800D01*
X300332Y59852D01*
X300298Y59910D01*
X300243Y59963D01*
X300196Y60022D01*
X300141Y60060D01*
X300092Y60107D01*
X300035Y60135D01*
X299963Y60185D01*
X299857Y60222D01*
X299791Y60254D01*
X293255Y62202D01*
X293215Y62208D01*
X293177Y62222D01*
X293100Y62225D01*
X292974Y62244D01*
X292899Y62234D01*
X292842Y62237D01*
X292223Y62161D01*
X291654Y62606D01*
X291635Y62616D01*
X291620Y62631D01*
X291553Y62664D01*
X291407Y62748D01*
X291356Y62761D01*
X291318Y62779D01*
X290626Y62985D01*
X290329Y63534D01*
X290305Y63566D01*
X290288Y63603D01*
X290236Y63660D01*
X290160Y63762D01*
X290100Y63809D01*
X290061Y63851D01*
X289570Y64234D01*
X289482Y64952D01*
X289477Y64973D01*
X289476Y64994D01*
X289452Y65065D01*
X289409Y65226D01*
X289381Y65272D01*
X289368Y65311D01*
X289024Y65947D01*
X289202Y66545D01*
X289208Y66585D01*
X289222Y66623D01*
X289223Y66641D01*
X289223Y66642D01*
X289223Y66658D01*
X289225Y66700D01*
X289244Y66826D01*
X289234Y66901D01*
X289237Y66958D01*
X287307Y82703D01*
X287286Y82783D01*
X287274Y82865D01*
X287249Y82920D01*
X287233Y82978D01*
X287191Y83049D01*
X287157Y83124D01*
X287118Y83170D01*
X287087Y83221D01*
X287026Y83277D01*
X286973Y83340D01*
X286928Y83368D01*
X286878Y83414D01*
X286755Y83476D01*
X286688Y83518D01*
X285498Y84011D01*
X283511Y85998D01*
X282435Y88595D01*
X282435Y91405D01*
X283511Y94002D01*
X285498Y95989D01*
X286522Y96413D01*
X286570Y96442D01*
X286623Y96462D01*
X286692Y96514D01*
X286767Y96558D01*
X286805Y96599D01*
X286850Y96632D01*
X286902Y96702D01*
X286962Y96764D01*
X286988Y96814D01*
X287021Y96859D01*
X287045Y96926D01*
X287092Y97017D01*
X287111Y97112D01*
X287133Y97176D01*
X288915Y107340D01*
X288919Y107453D01*
X288931Y107526D01*
X288456Y152766D01*
X288446Y152833D01*
X288446Y152901D01*
X288425Y152973D01*
X288414Y153047D01*
X288387Y153105D01*
X288434Y154815D01*
X288432Y154837D01*
X288434Y154854D01*
X288417Y156555D01*
X288427Y156574D01*
X288439Y156635D01*
X288469Y156716D01*
X288477Y156830D01*
X288492Y156903D01*
X288835Y169355D01*
X288834Y169368D01*
X288836Y169378D01*
X288844Y171058D01*
X290065Y172214D01*
X290073Y172223D01*
X290081Y172229D01*
X293867Y175976D01*
X293942Y176074D01*
X294021Y176171D01*
X294028Y176187D01*
X294039Y176202D01*
X294084Y176318D01*
X294133Y176432D01*
X294135Y176450D01*
X294142Y176467D01*
X294153Y176591D01*
X294168Y176714D01*
X294165Y176732D01*
X294167Y176750D01*
X294143Y176872D01*
X294124Y176995D01*
X294116Y177011D01*
X294112Y177029D01*
X294056Y177140D01*
X294003Y177252D01*
X293991Y177266D01*
X293983Y177282D01*
X293897Y177373D01*
X293816Y177466D01*
X293802Y177475D01*
X293788Y177489D01*
X293544Y177634D01*
X293535Y177637D01*
X293529Y177640D01*
X287952Y179863D01*
X287928Y179869D01*
X287907Y179880D01*
X287831Y179892D01*
X287676Y179930D01*
X287619Y179928D01*
X287576Y179935D01*
X286410Y179935D01*
X286379Y179953D01*
X286316Y179966D01*
X286233Y179998D01*
X286122Y180007D01*
X286051Y180022D01*
X285714Y180037D01*
X285606Y180026D01*
X285497Y180023D01*
X285465Y180012D01*
X285431Y180009D01*
X285330Y179968D01*
X285227Y179935D01*
X285202Y179917D01*
X285167Y179904D01*
X284994Y179769D01*
X284953Y179740D01*
X284231Y179018D01*
X284196Y178971D01*
X284153Y178931D01*
X284111Y178858D01*
X284060Y178791D01*
X284039Y178736D01*
X284010Y178686D01*
X283989Y178604D01*
X283959Y178525D01*
X283954Y178467D01*
X283940Y178410D01*
X283942Y178326D01*
X283935Y178242D01*
X283947Y178184D01*
X283949Y178126D01*
X283975Y178046D01*
X283991Y177963D01*
X284018Y177911D01*
X284036Y177855D01*
X284076Y177799D01*
X284122Y177711D01*
X284191Y177638D01*
X284231Y177582D01*
X285509Y176304D01*
X285509Y167596D01*
X284231Y166318D01*
X284196Y166271D01*
X284153Y166231D01*
X284111Y166158D01*
X284060Y166091D01*
X284039Y166036D01*
X284010Y165986D01*
X283989Y165904D01*
X283959Y165825D01*
X283954Y165767D01*
X283940Y165710D01*
X283942Y165626D01*
X283935Y165542D01*
X283947Y165484D01*
X283949Y165426D01*
X283975Y165346D01*
X283991Y165263D01*
X284018Y165211D01*
X284036Y165155D01*
X284076Y165099D01*
X284122Y165011D01*
X284191Y164938D01*
X284231Y164882D01*
X285509Y163604D01*
X285509Y154896D01*
X284231Y153618D01*
X284196Y153571D01*
X284153Y153531D01*
X284111Y153458D01*
X284060Y153391D01*
X284039Y153336D01*
X284010Y153286D01*
X283989Y153204D01*
X283959Y153125D01*
X283954Y153067D01*
X283940Y153010D01*
X283942Y152926D01*
X283935Y152842D01*
X283947Y152784D01*
X283949Y152726D01*
X283975Y152646D01*
X283991Y152563D01*
X284018Y152511D01*
X284036Y152455D01*
X284076Y152399D01*
X284122Y152311D01*
X284191Y152238D01*
X284231Y152182D01*
X285509Y150904D01*
X285509Y142196D01*
X284177Y140864D01*
X284147Y140825D01*
X284111Y140792D01*
X284062Y140712D01*
X284006Y140636D01*
X283988Y140591D01*
X283963Y140549D01*
X283938Y140459D01*
X283905Y140371D01*
X283901Y140322D01*
X283888Y140275D01*
X283889Y140181D01*
X283881Y140087D01*
X283891Y140040D01*
X283891Y139991D01*
X283919Y139901D01*
X283937Y139809D01*
X283959Y139765D01*
X283974Y139719D01*
X284025Y139640D01*
X284068Y139556D01*
X284102Y139521D01*
X284128Y139480D01*
X284185Y139433D01*
X284264Y139350D01*
X284339Y139306D01*
X284387Y139266D01*
X284528Y139185D01*
X285001Y138712D01*
X285336Y138133D01*
X285509Y137486D01*
X285509Y135500D01*
X273443Y135500D01*
X273385Y135492D01*
X273327Y135494D01*
X273245Y135472D01*
X273162Y135460D01*
X273108Y135437D01*
X273052Y135422D01*
X272979Y135379D01*
X272902Y135344D01*
X272858Y135306D01*
X272807Y135277D01*
X272804Y135273D01*
X272800Y135275D01*
X272757Y135315D01*
X272682Y135354D01*
X272612Y135401D01*
X272556Y135418D01*
X272504Y135445D01*
X272436Y135456D01*
X272341Y135486D01*
X272241Y135489D01*
X272173Y135500D01*
X260107Y135500D01*
X260107Y137486D01*
X260280Y138133D01*
X260615Y138712D01*
X261088Y139185D01*
X261229Y139266D01*
X261267Y139297D01*
X261311Y139319D01*
X261379Y139384D01*
X261453Y139442D01*
X261481Y139481D01*
X261517Y139515D01*
X261564Y139596D01*
X261619Y139672D01*
X261636Y139718D01*
X261661Y139760D01*
X261684Y139851D01*
X261715Y139940D01*
X261719Y139988D01*
X261731Y140036D01*
X261728Y140129D01*
X261734Y140223D01*
X261723Y140271D01*
X261722Y140320D01*
X261693Y140409D01*
X261672Y140501D01*
X261649Y140544D01*
X261634Y140590D01*
X261591Y140651D01*
X261537Y140751D01*
X261476Y140813D01*
X261439Y140864D01*
X260107Y142196D01*
X260107Y150904D01*
X261385Y152182D01*
X261420Y152229D01*
X261463Y152269D01*
X261505Y152342D01*
X261556Y152409D01*
X261577Y152464D01*
X261606Y152514D01*
X261627Y152596D01*
X261657Y152675D01*
X261662Y152733D01*
X261676Y152790D01*
X261674Y152874D01*
X261681Y152958D01*
X261669Y153016D01*
X261667Y153074D01*
X261641Y153154D01*
X261625Y153237D01*
X261598Y153289D01*
X261580Y153345D01*
X261540Y153401D01*
X261494Y153489D01*
X261425Y153562D01*
X261385Y153618D01*
X260107Y154896D01*
X260107Y163604D01*
X261385Y164882D01*
X261420Y164929D01*
X261463Y164969D01*
X261505Y165042D01*
X261556Y165109D01*
X261577Y165164D01*
X261606Y165214D01*
X261627Y165296D01*
X261657Y165375D01*
X261662Y165433D01*
X261676Y165490D01*
X261674Y165574D01*
X261681Y165658D01*
X261669Y165716D01*
X261667Y165774D01*
X261641Y165854D01*
X261625Y165937D01*
X261598Y165989D01*
X261580Y166045D01*
X261540Y166101D01*
X261494Y166189D01*
X261425Y166262D01*
X261385Y166318D01*
X260107Y167596D01*
X260107Y176304D01*
X261385Y177582D01*
X261420Y177629D01*
X261463Y177669D01*
X261505Y177742D01*
X261556Y177809D01*
X261577Y177864D01*
X261606Y177914D01*
X261627Y177996D01*
X261657Y178075D01*
X261662Y178133D01*
X261676Y178190D01*
X261674Y178274D01*
X261681Y178358D01*
X261669Y178416D01*
X261667Y178474D01*
X261641Y178554D01*
X261625Y178637D01*
X261598Y178689D01*
X261580Y178745D01*
X261540Y178801D01*
X261494Y178889D01*
X261425Y178962D01*
X261385Y179018D01*
X260516Y179887D01*
X260443Y179942D01*
X260377Y180003D01*
X260330Y180027D01*
X260289Y180058D01*
X260204Y180090D01*
X260123Y180131D01*
X260078Y180138D01*
X260023Y180159D01*
X259868Y180172D01*
X259791Y180184D01*
X253445Y180143D01*
X253375Y180133D01*
X253305Y180133D01*
X253246Y180114D01*
X253164Y180102D01*
X253057Y180053D01*
X252985Y180030D01*
X252572Y179816D01*
X251735Y180082D01*
X251455Y180130D01*
X251436Y180128D01*
X251421Y180130D01*
X250543Y180124D01*
X250212Y180451D01*
X250155Y180493D01*
X250105Y180543D01*
X250051Y180571D01*
X249984Y180621D01*
X249873Y180662D01*
X249806Y180696D01*
X238886Y184171D01*
X238788Y184187D01*
X238691Y184212D01*
X238648Y184211D01*
X238606Y184218D01*
X238507Y184207D01*
X238407Y184204D01*
X238366Y184191D01*
X238323Y184186D01*
X238231Y184148D01*
X238136Y184117D01*
X238101Y184093D01*
X238061Y184077D01*
X237983Y184014D01*
X237900Y183959D01*
X237873Y183926D01*
X237839Y183899D01*
X237782Y183817D01*
X237717Y183741D01*
X237700Y183702D01*
X237675Y183667D01*
X237642Y183572D01*
X237602Y183481D01*
X237598Y183443D01*
X237582Y183398D01*
X237573Y183218D01*
X237565Y183148D01*
X238512Y165901D01*
X238522Y165848D01*
X238523Y165793D01*
X238550Y165709D01*
X238567Y165622D01*
X238592Y165574D01*
X238608Y165522D01*
X238649Y165464D01*
X238697Y165370D01*
X238762Y165301D01*
X238800Y165247D01*
X239193Y164846D01*
X239152Y161058D01*
X238722Y160637D01*
X238692Y160598D01*
X238656Y160565D01*
X238606Y160485D01*
X238549Y160411D01*
X238531Y160365D01*
X238505Y160323D01*
X238487Y160252D01*
X238445Y160147D01*
X238437Y160060D01*
X238421Y159998D01*
X236496Y137647D01*
X236497Y137630D01*
X236493Y137613D01*
X236505Y137488D01*
X236511Y137363D01*
X236517Y137347D01*
X236518Y137330D01*
X236546Y137264D01*
X236605Y137095D01*
X236633Y137056D01*
X236648Y137020D01*
X253343Y110438D01*
X253437Y110327D01*
X253482Y110263D01*
X254272Y109467D01*
X254271Y109258D01*
X254287Y109141D01*
X254297Y109023D01*
X254306Y109003D01*
X254309Y108976D01*
X254425Y108716D01*
X254426Y108715D01*
X254426Y108713D01*
X254538Y108536D01*
X254288Y107443D01*
X254276Y107299D01*
X254262Y107221D01*
X254170Y84716D01*
X254183Y84625D01*
X254186Y84533D01*
X254201Y84491D01*
X254209Y84435D01*
X254273Y84290D01*
X254299Y84217D01*
X254470Y83911D01*
X254200Y82960D01*
X254168Y82722D01*
X254162Y82688D01*
X254158Y81700D01*
X253909Y81453D01*
X253853Y81379D01*
X253791Y81312D01*
X253771Y81272D01*
X253737Y81226D01*
X253680Y81079D01*
X253647Y81009D01*
X253551Y80671D01*
X252689Y80190D01*
X252497Y80044D01*
X252468Y80024D01*
X251767Y79328D01*
X251416Y79330D01*
X251325Y79317D01*
X251233Y79314D01*
X251191Y79299D01*
X251135Y79291D01*
X250990Y79227D01*
X250917Y79201D01*
X244065Y75377D01*
X243899Y75251D01*
X243853Y75218D01*
X234169Y65810D01*
X234113Y65738D01*
X234050Y65671D01*
X234026Y65626D01*
X233995Y65585D01*
X233961Y65500D01*
X233919Y65419D01*
X233911Y65375D01*
X233890Y65321D01*
X233875Y65164D01*
X233861Y65088D01*
X233722Y42401D01*
X233729Y42346D01*
X233729Y42328D01*
X233735Y42304D01*
X233738Y42283D01*
X233748Y42165D01*
X233757Y42143D01*
X233760Y42119D01*
X233808Y42011D01*
X233851Y41900D01*
X233865Y41881D01*
X233874Y41859D01*
X233951Y41768D01*
X234023Y41673D01*
X234042Y41659D01*
X234057Y41641D01*
X234156Y41575D01*
X234251Y41504D01*
X234273Y41495D01*
X234292Y41482D01*
X234406Y41446D01*
X234517Y41404D01*
X234538Y41403D01*
X234563Y41395D01*
X234847Y41386D01*
X234850Y41386D01*
X234852Y41386D01*
X243759Y42406D01*
X243760Y42406D01*
X243895Y42441D01*
X244035Y42477D01*
X244146Y42543D01*
X244279Y42622D01*
X244280Y42623D01*
X244378Y42727D01*
X244474Y42829D01*
X244474Y42830D01*
X244541Y42961D01*
X244603Y43082D01*
X244604Y43083D01*
X244605Y43088D01*
X244643Y43284D01*
X244645Y43292D01*
X244645Y43297D01*
X244658Y43361D01*
X244655Y43390D01*
X244659Y43414D01*
X244659Y46052D01*
X246148Y47541D01*
X246920Y47541D01*
X246978Y47549D01*
X247036Y47547D01*
X247118Y47569D01*
X247202Y47581D01*
X247255Y47604D01*
X247311Y47619D01*
X247384Y47662D01*
X247461Y47697D01*
X247506Y47735D01*
X247556Y47764D01*
X247614Y47826D01*
X247678Y47880D01*
X247710Y47929D01*
X247750Y47972D01*
X247789Y48047D01*
X247836Y48117D01*
X247853Y48173D01*
X247880Y48225D01*
X247891Y48293D01*
X247921Y48388D01*
X247924Y48488D01*
X247935Y48556D01*
X247935Y51744D01*
X247927Y51802D01*
X247929Y51860D01*
X247907Y51942D01*
X247895Y52026D01*
X247872Y52079D01*
X247857Y52135D01*
X247814Y52208D01*
X247779Y52285D01*
X247741Y52330D01*
X247712Y52380D01*
X247650Y52438D01*
X247596Y52502D01*
X247547Y52534D01*
X247504Y52574D01*
X247429Y52613D01*
X247359Y52660D01*
X247303Y52677D01*
X247251Y52704D01*
X247183Y52715D01*
X247088Y52745D01*
X246988Y52748D01*
X246920Y52759D01*
X246148Y52759D01*
X244659Y54248D01*
X244659Y67352D01*
X246148Y68841D01*
X258252Y68841D01*
X259741Y67352D01*
X259741Y67186D01*
X259742Y67176D01*
X259741Y67166D01*
X259762Y67035D01*
X259781Y66904D01*
X259785Y66896D01*
X259786Y66886D01*
X259843Y66766D01*
X259897Y66645D01*
X259903Y66638D01*
X259907Y66629D01*
X259995Y66529D01*
X260080Y66428D01*
X260089Y66423D01*
X260095Y66415D01*
X260207Y66344D01*
X260317Y66270D01*
X260326Y66267D01*
X260335Y66262D01*
X260462Y66225D01*
X260588Y66185D01*
X260598Y66184D01*
X260607Y66182D01*
X260740Y66181D01*
X260872Y66177D01*
X260882Y66180D01*
X260892Y66180D01*
X261020Y66216D01*
X261147Y66249D01*
X261156Y66254D01*
X261165Y66257D01*
X261278Y66327D01*
X261392Y66394D01*
X261399Y66402D01*
X261407Y66407D01*
X261495Y66505D01*
X261586Y66602D01*
X261591Y66611D01*
X261597Y66618D01*
X261621Y66669D01*
X261716Y66855D01*
X261722Y66890D01*
X261737Y66923D01*
X261832Y67281D01*
X262167Y67860D01*
X262640Y68333D01*
X263219Y68668D01*
X263866Y68841D01*
X267169Y68841D01*
X267169Y61816D01*
X267177Y61758D01*
X267175Y61700D01*
X267197Y61618D01*
X267209Y61535D01*
X267233Y61481D01*
X267247Y61425D01*
X267290Y61352D01*
X267325Y61275D01*
X267363Y61231D01*
X267393Y61180D01*
X267454Y61123D01*
X267509Y61058D01*
X267557Y61026D01*
X267600Y60986D01*
X267675Y60947D01*
X267745Y60901D01*
X267801Y60883D01*
X267853Y60856D01*
X267921Y60845D01*
X268016Y60815D01*
X268116Y60812D01*
X268184Y60801D01*
X269201Y60801D01*
X269201Y60799D01*
X268184Y60799D01*
X268126Y60791D01*
X268068Y60792D01*
X267986Y60771D01*
X267903Y60759D01*
X267849Y60735D01*
X267793Y60721D01*
X267720Y60678D01*
X267643Y60643D01*
X267598Y60605D01*
X267548Y60575D01*
X267490Y60514D01*
X267426Y60459D01*
X267394Y60411D01*
X267354Y60368D01*
X267315Y60293D01*
X267269Y60223D01*
X267251Y60167D01*
X267224Y60115D01*
X267213Y60047D01*
X267183Y59952D01*
X267180Y59852D01*
X267169Y59784D01*
X267169Y52759D01*
X263866Y52759D01*
X263219Y52932D01*
X262640Y53267D01*
X262167Y53740D01*
X261832Y54319D01*
X261737Y54677D01*
X261733Y54686D01*
X261731Y54696D01*
X261677Y54817D01*
X261625Y54938D01*
X261619Y54946D01*
X261615Y54955D01*
X261529Y55056D01*
X261446Y55159D01*
X261438Y55164D01*
X261431Y55172D01*
X261321Y55245D01*
X261212Y55321D01*
X261203Y55324D01*
X261195Y55330D01*
X261069Y55370D01*
X260943Y55412D01*
X260933Y55412D01*
X260924Y55415D01*
X260791Y55419D01*
X260659Y55425D01*
X260650Y55422D01*
X260640Y55423D01*
X260511Y55389D01*
X260383Y55358D01*
X260374Y55353D01*
X260365Y55351D01*
X260251Y55283D01*
X260135Y55218D01*
X260129Y55211D01*
X260120Y55206D01*
X260030Y55109D01*
X259937Y55014D01*
X259932Y55005D01*
X259926Y54998D01*
X259865Y54880D01*
X259803Y54764D01*
X259801Y54754D01*
X259796Y54745D01*
X259787Y54689D01*
X259743Y54486D01*
X259747Y54450D01*
X259741Y54414D01*
X259741Y54248D01*
X258252Y52759D01*
X257080Y52759D01*
X257022Y52751D01*
X256964Y52753D01*
X256882Y52731D01*
X256798Y52719D01*
X256745Y52696D01*
X256689Y52681D01*
X256616Y52638D01*
X256539Y52603D01*
X256494Y52565D01*
X256444Y52536D01*
X256386Y52474D01*
X256322Y52420D01*
X256290Y52371D01*
X256250Y52328D01*
X256211Y52253D01*
X256164Y52183D01*
X256147Y52127D01*
X256120Y52075D01*
X256109Y52007D01*
X256079Y51912D01*
X256076Y51812D01*
X256065Y51744D01*
X256065Y48556D01*
X256073Y48498D01*
X256071Y48440D01*
X256093Y48358D01*
X256105Y48274D01*
X256128Y48221D01*
X256143Y48165D01*
X256186Y48092D01*
X256221Y48015D01*
X256259Y47970D01*
X256288Y47920D01*
X256350Y47862D01*
X256404Y47798D01*
X256453Y47766D01*
X256496Y47726D01*
X256571Y47687D01*
X256641Y47640D01*
X256697Y47623D01*
X256749Y47596D01*
X256817Y47585D01*
X256912Y47555D01*
X257012Y47552D01*
X257080Y47541D01*
X258252Y47541D01*
X259982Y45811D01*
X260029Y45776D01*
X260069Y45733D01*
X260142Y45691D01*
X260209Y45640D01*
X260264Y45619D01*
X260314Y45590D01*
X260396Y45569D01*
X260475Y45539D01*
X260533Y45534D01*
X260590Y45520D01*
X260674Y45522D01*
X260758Y45515D01*
X260816Y45527D01*
X260874Y45529D01*
X260954Y45555D01*
X261037Y45571D01*
X261089Y45598D01*
X261145Y45616D01*
X261201Y45656D01*
X261289Y45702D01*
X261362Y45771D01*
X261418Y45811D01*
X263148Y47541D01*
X275252Y47541D01*
X276741Y46052D01*
X276741Y43877D01*
X276743Y43861D01*
X276741Y43846D01*
X276763Y43721D01*
X276781Y43595D01*
X276787Y43581D01*
X276790Y43566D01*
X276845Y43452D01*
X276897Y43336D01*
X276907Y43324D01*
X276914Y43310D01*
X276999Y43216D01*
X277080Y43119D01*
X277094Y43110D01*
X277104Y43099D01*
X277212Y43032D01*
X277317Y42961D01*
X277332Y42957D01*
X277345Y42948D01*
X277412Y42931D01*
X277588Y42876D01*
X277635Y42875D01*
X277671Y42865D01*
X300291Y40959D01*
X300328Y40961D01*
X300364Y40956D01*
X300470Y40969D01*
G37*
G36*
X56821Y3869D02*
X56821Y3869D01*
X56850Y3866D01*
X56961Y3889D01*
X57074Y3905D01*
X57100Y3917D01*
X57129Y3922D01*
X57230Y3974D01*
X57333Y4021D01*
X57355Y4040D01*
X57381Y4053D01*
X57463Y4131D01*
X57550Y4204D01*
X57566Y4229D01*
X57588Y4249D01*
X57645Y4347D01*
X57708Y4441D01*
X57716Y4469D01*
X57731Y4494D01*
X57759Y4604D01*
X57793Y4712D01*
X57794Y4742D01*
X57801Y4770D01*
X57798Y4883D01*
X57801Y4996D01*
X57793Y5025D01*
X57792Y5054D01*
X57757Y5162D01*
X57729Y5271D01*
X57714Y5297D01*
X57705Y5325D01*
X57659Y5388D01*
X57584Y5516D01*
X57538Y5559D01*
X57510Y5598D01*
X52913Y10195D01*
X50167Y16823D01*
X50167Y23997D01*
X52913Y30625D01*
X57985Y35697D01*
X64613Y38443D01*
X71787Y38443D01*
X78415Y35697D01*
X83487Y30625D01*
X86233Y23997D01*
X86233Y16823D01*
X83487Y10195D01*
X78890Y5598D01*
X78872Y5574D01*
X78850Y5555D01*
X78787Y5461D01*
X78719Y5371D01*
X78709Y5343D01*
X78692Y5319D01*
X78658Y5211D01*
X78618Y5105D01*
X78615Y5076D01*
X78607Y5048D01*
X78604Y4934D01*
X78594Y4822D01*
X78600Y4793D01*
X78599Y4764D01*
X78628Y4654D01*
X78650Y4543D01*
X78664Y4517D01*
X78671Y4489D01*
X78729Y4391D01*
X78781Y4291D01*
X78801Y4269D01*
X78816Y4244D01*
X78899Y4167D01*
X78977Y4085D01*
X79002Y4070D01*
X79024Y4050D01*
X79125Y3998D01*
X79222Y3941D01*
X79251Y3934D01*
X79277Y3920D01*
X79354Y3907D01*
X79498Y3871D01*
X79560Y3873D01*
X79608Y3865D01*
X160599Y3865D01*
X160642Y3871D01*
X160686Y3868D01*
X160783Y3891D01*
X160881Y3905D01*
X160920Y3922D01*
X160963Y3932D01*
X161050Y3980D01*
X161140Y4021D01*
X161173Y4049D01*
X161211Y4070D01*
X161281Y4140D01*
X161357Y4204D01*
X161381Y4241D01*
X161412Y4272D01*
X161447Y4339D01*
X161515Y4441D01*
X161539Y4517D01*
X161566Y4570D01*
X165644Y17284D01*
X165656Y17352D01*
X165678Y17418D01*
X165680Y17491D01*
X165693Y17564D01*
X165685Y17633D01*
X165687Y17702D01*
X165669Y17773D01*
X165661Y17846D01*
X165635Y17910D01*
X165618Y17978D01*
X165580Y18041D01*
X165552Y18109D01*
X165509Y18163D01*
X165474Y18223D01*
X165421Y18274D01*
X165375Y18331D01*
X165319Y18372D01*
X165268Y18419D01*
X165204Y18453D01*
X165143Y18496D01*
X165078Y18519D01*
X165016Y18551D01*
X164955Y18562D01*
X164875Y18590D01*
X164759Y18596D01*
X164686Y18609D01*
X164422Y18611D01*
X164415Y18610D01*
X164409Y18611D01*
X164364Y18603D01*
X164140Y18574D01*
X164133Y18570D01*
X163263Y18619D01*
X163236Y18617D01*
X163214Y18621D01*
X162321Y18628D01*
X162122Y18681D01*
X162114Y18680D01*
X161329Y19058D01*
X161303Y19067D01*
X161284Y19078D01*
X160462Y19427D01*
X160298Y19552D01*
X160265Y19565D01*
X160241Y19582D01*
X139094Y29756D01*
X139066Y29765D01*
X139040Y29780D01*
X138931Y29808D01*
X138823Y29842D01*
X138793Y29843D01*
X138764Y29850D01*
X138652Y29847D01*
X138539Y29850D01*
X138510Y29842D01*
X138480Y29841D01*
X138373Y29807D01*
X138264Y29779D01*
X138238Y29763D01*
X138210Y29754D01*
X138193Y29742D01*
X134053Y28027D01*
X129707Y28027D01*
X125693Y29690D01*
X122620Y32763D01*
X120957Y36777D01*
X120957Y41123D01*
X122620Y45137D01*
X125693Y48210D01*
X129707Y49873D01*
X134053Y49873D01*
X136329Y48930D01*
X136349Y48925D01*
X136368Y48915D01*
X136487Y48889D01*
X136604Y48859D01*
X136625Y48860D01*
X136646Y48855D01*
X136767Y48864D01*
X136888Y48867D01*
X136908Y48874D01*
X136930Y48875D01*
X137043Y48917D01*
X137159Y48954D01*
X137177Y48966D01*
X137197Y48973D01*
X137294Y49045D01*
X137395Y49112D01*
X137409Y49129D01*
X137426Y49141D01*
X137500Y49237D01*
X137578Y49330D01*
X137587Y49349D01*
X137600Y49366D01*
X137644Y49479D01*
X137693Y49590D01*
X137696Y49611D01*
X137704Y49631D01*
X137716Y49751D01*
X137732Y49871D01*
X137729Y49892D01*
X137731Y49914D01*
X137709Y50033D01*
X137692Y50153D01*
X137683Y50172D01*
X137679Y50193D01*
X137643Y50259D01*
X137575Y50412D01*
X137540Y50452D01*
X137520Y50489D01*
X135386Y53249D01*
X135339Y53295D01*
X135299Y53348D01*
X135237Y53394D01*
X135183Y53447D01*
X135124Y53479D01*
X135071Y53518D01*
X135000Y53545D01*
X134932Y53582D01*
X134867Y53595D01*
X134805Y53619D01*
X134729Y53625D01*
X134654Y53641D01*
X134588Y53636D01*
X134522Y53641D01*
X134459Y53627D01*
X134370Y53621D01*
X134266Y53583D01*
X134195Y53566D01*
X134053Y53507D01*
X129707Y53507D01*
X125693Y55170D01*
X122620Y58243D01*
X120957Y62257D01*
X120957Y64232D01*
X120939Y64359D01*
X120924Y64488D01*
X120919Y64500D01*
X120917Y64513D01*
X120865Y64631D01*
X120815Y64750D01*
X120807Y64760D01*
X120801Y64773D01*
X120718Y64871D01*
X120637Y64972D01*
X120626Y64979D01*
X120618Y64990D01*
X120510Y65061D01*
X120405Y65135D01*
X120392Y65140D01*
X120381Y65147D01*
X120258Y65186D01*
X120136Y65228D01*
X120124Y65229D01*
X120110Y65233D01*
X119826Y65240D01*
X119812Y65237D01*
X119800Y65237D01*
X118158Y65005D01*
X118142Y65001D01*
X118129Y65001D01*
X108727Y63390D01*
X108641Y63363D01*
X108553Y63344D01*
X108506Y63320D01*
X108456Y63304D01*
X108381Y63253D01*
X108301Y63211D01*
X108264Y63174D01*
X108220Y63145D01*
X108162Y63076D01*
X108097Y63013D01*
X108071Y62968D01*
X108037Y62928D01*
X108001Y62845D01*
X107956Y62766D01*
X107946Y62722D01*
X107922Y62668D01*
X107901Y62514D01*
X107884Y62438D01*
X106875Y41465D01*
X106880Y41410D01*
X106876Y41355D01*
X106882Y41329D01*
X106881Y41313D01*
X106894Y41265D01*
X106902Y41182D01*
X106936Y41093D01*
X106951Y41027D01*
X107665Y39305D01*
X107665Y36495D01*
X106589Y33898D01*
X104602Y31911D01*
X102005Y30835D01*
X99195Y30835D01*
X96598Y31911D01*
X94611Y33898D01*
X93535Y36495D01*
X93535Y39305D01*
X94631Y41952D01*
X94633Y41958D01*
X94636Y41963D01*
X94646Y42006D01*
X94702Y42227D01*
X94701Y42263D01*
X94707Y42291D01*
X95554Y59881D01*
X95551Y59908D01*
X95555Y59934D01*
X95538Y60049D01*
X95528Y60165D01*
X95518Y60189D01*
X95514Y60215D01*
X95466Y60321D01*
X95424Y60429D01*
X95408Y60450D01*
X95397Y60474D01*
X95322Y60562D01*
X95251Y60655D01*
X95230Y60670D01*
X95213Y60691D01*
X95116Y60755D01*
X95022Y60824D01*
X94997Y60833D01*
X94975Y60847D01*
X94865Y60882D01*
X94756Y60922D01*
X94729Y60924D01*
X94704Y60932D01*
X94626Y60932D01*
X94472Y60943D01*
X94414Y60931D01*
X94368Y60931D01*
X38729Y51401D01*
X38622Y51367D01*
X38515Y51339D01*
X38488Y51323D01*
X38458Y51314D01*
X38365Y51252D01*
X38269Y51196D01*
X38248Y51173D01*
X38222Y51156D01*
X38150Y51070D01*
X38073Y50989D01*
X38059Y50962D01*
X38039Y50938D01*
X37994Y50836D01*
X37942Y50737D01*
X37938Y50710D01*
X37924Y50678D01*
X37891Y50443D01*
X37885Y50406D01*
X37597Y4886D01*
X37606Y4825D01*
X37604Y4764D01*
X37624Y4685D01*
X37635Y4605D01*
X37660Y4548D01*
X37676Y4489D01*
X37717Y4419D01*
X37750Y4345D01*
X37790Y4297D01*
X37821Y4244D01*
X37880Y4189D01*
X37932Y4126D01*
X37983Y4092D01*
X38028Y4050D01*
X38101Y4013D01*
X38168Y3967D01*
X38227Y3948D01*
X38281Y3920D01*
X38348Y3909D01*
X38438Y3880D01*
X38543Y3876D01*
X38613Y3865D01*
X56792Y3865D01*
X56821Y3869D01*
G37*
G36*
X301787Y183204D02*
X301787Y183204D01*
X301923Y183208D01*
X301928Y183210D01*
X301933Y183210D01*
X302064Y183254D01*
X302194Y183296D01*
X302198Y183299D01*
X302203Y183300D01*
X302437Y183462D01*
X302452Y183480D01*
X302467Y183491D01*
X303520Y184544D01*
X303538Y184568D01*
X303560Y184587D01*
X303623Y184681D01*
X303691Y184771D01*
X303702Y184799D01*
X303718Y184823D01*
X303752Y184931D01*
X303793Y185037D01*
X303795Y185066D01*
X303804Y185094D01*
X303807Y185208D01*
X303816Y185320D01*
X303810Y185349D01*
X303811Y185378D01*
X303783Y185488D01*
X303760Y185599D01*
X303747Y185625D01*
X303739Y185653D01*
X303682Y185751D01*
X303629Y185851D01*
X303609Y185873D01*
X303594Y185898D01*
X303512Y185975D01*
X303433Y186057D01*
X303408Y186072D01*
X303387Y186092D01*
X303286Y186144D01*
X303188Y186201D01*
X303160Y186208D01*
X303134Y186222D01*
X303056Y186235D01*
X302913Y186271D01*
X302850Y186269D01*
X302803Y186277D01*
X300666Y186277D01*
X299177Y187766D01*
X299177Y206822D01*
X299197Y206875D01*
X299204Y206952D01*
X299220Y207028D01*
X299216Y207093D01*
X299221Y207158D01*
X299206Y207235D01*
X299201Y207312D01*
X299180Y207364D01*
X299165Y207437D01*
X299106Y207552D01*
X299077Y207624D01*
X290761Y221434D01*
X290632Y221592D01*
X290597Y221640D01*
X289864Y222348D01*
X289859Y222666D01*
X289844Y222763D01*
X289837Y222860D01*
X289822Y222897D01*
X289814Y222947D01*
X289740Y223105D01*
X289714Y223173D01*
X289549Y223445D01*
X289795Y224434D01*
X289816Y224638D01*
X289825Y224696D01*
X289187Y262397D01*
X289179Y262446D01*
X289181Y262486D01*
X288721Y266867D01*
X288688Y266996D01*
X288659Y267123D01*
X288654Y267133D01*
X288651Y267143D01*
X288586Y267257D01*
X288522Y267372D01*
X288514Y267380D01*
X288509Y267389D01*
X288414Y267479D01*
X288321Y267573D01*
X288311Y267578D01*
X288303Y267586D01*
X288187Y267647D01*
X288072Y267710D01*
X288061Y267713D01*
X288052Y267718D01*
X287923Y267744D01*
X287794Y267773D01*
X287785Y267772D01*
X287773Y267775D01*
X287490Y267752D01*
X287474Y267746D01*
X287460Y267745D01*
X267564Y262670D01*
X267547Y262663D01*
X267530Y262661D01*
X267417Y262610D01*
X267301Y262562D01*
X267287Y262551D01*
X267271Y262544D01*
X267176Y262463D01*
X267078Y262385D01*
X267068Y262371D01*
X267055Y262359D01*
X267017Y262299D01*
X266913Y262154D01*
X266897Y262108D01*
X266877Y262075D01*
X266389Y260898D01*
X264402Y258911D01*
X261805Y257835D01*
X258995Y257835D01*
X256398Y258911D01*
X254475Y260834D01*
X254379Y260906D01*
X254287Y260982D01*
X254266Y260991D01*
X254248Y261005D01*
X254136Y261048D01*
X254026Y261095D01*
X254003Y261098D01*
X253982Y261106D01*
X253863Y261116D01*
X253744Y261131D01*
X253722Y261128D01*
X253699Y261130D01*
X253582Y261106D01*
X253463Y261088D01*
X253442Y261078D01*
X253420Y261074D01*
X253314Y261019D01*
X253205Y260968D01*
X253188Y260953D01*
X253168Y260943D01*
X253081Y260860D01*
X252991Y260782D01*
X252978Y260763D01*
X252962Y260747D01*
X252901Y260644D01*
X252836Y260543D01*
X252831Y260523D01*
X252818Y260502D01*
X252748Y260226D01*
X252748Y260223D01*
X252747Y260220D01*
X252347Y256317D01*
X252347Y256310D01*
X252346Y256304D01*
X252195Y254630D01*
X250891Y253568D01*
X250887Y253563D01*
X250881Y253560D01*
X244198Y247978D01*
X244114Y247884D01*
X244026Y247793D01*
X244019Y247779D01*
X244008Y247767D01*
X243953Y247653D01*
X243894Y247542D01*
X243891Y247527D01*
X243883Y247511D01*
X243834Y247231D01*
X243835Y247220D01*
X243834Y247212D01*
X243114Y192112D01*
X243120Y192061D01*
X243117Y192010D01*
X243138Y191921D01*
X243150Y191830D01*
X243170Y191783D01*
X243182Y191733D01*
X243226Y191653D01*
X243263Y191569D01*
X243295Y191530D01*
X243320Y191485D01*
X243385Y191420D01*
X243443Y191350D01*
X243486Y191321D01*
X243522Y191285D01*
X243587Y191251D01*
X243678Y191189D01*
X243763Y191161D01*
X243821Y191132D01*
X252665Y188318D01*
X252945Y188270D01*
X252964Y188272D01*
X252979Y188270D01*
X259099Y188310D01*
X259153Y188318D01*
X259208Y188316D01*
X259293Y188338D01*
X259380Y188351D01*
X259430Y188374D01*
X259483Y188388D01*
X259559Y188433D01*
X259638Y188469D01*
X259680Y188505D01*
X259728Y188533D01*
X259788Y188597D01*
X259854Y188654D01*
X259885Y188700D01*
X259922Y188741D01*
X259962Y188819D01*
X260010Y188892D01*
X260017Y188915D01*
X261385Y190282D01*
X261420Y190329D01*
X261463Y190369D01*
X261505Y190442D01*
X261556Y190509D01*
X261577Y190564D01*
X261606Y190614D01*
X261627Y190696D01*
X261657Y190775D01*
X261662Y190833D01*
X261676Y190890D01*
X261674Y190974D01*
X261681Y191058D01*
X261669Y191116D01*
X261667Y191174D01*
X261641Y191254D01*
X261625Y191337D01*
X261598Y191389D01*
X261580Y191445D01*
X261540Y191501D01*
X261494Y191589D01*
X261425Y191662D01*
X261385Y191718D01*
X260107Y192996D01*
X260107Y201704D01*
X261385Y202982D01*
X261420Y203029D01*
X261463Y203069D01*
X261505Y203142D01*
X261556Y203209D01*
X261577Y203264D01*
X261606Y203314D01*
X261627Y203396D01*
X261657Y203475D01*
X261662Y203533D01*
X261676Y203590D01*
X261674Y203674D01*
X261681Y203758D01*
X261669Y203816D01*
X261667Y203874D01*
X261641Y203954D01*
X261625Y204037D01*
X261598Y204089D01*
X261580Y204145D01*
X261540Y204201D01*
X261494Y204289D01*
X261425Y204362D01*
X261385Y204418D01*
X260107Y205696D01*
X260107Y214404D01*
X261439Y215736D01*
X261469Y215775D01*
X261505Y215808D01*
X261554Y215888D01*
X261610Y215964D01*
X261628Y216009D01*
X261653Y216051D01*
X261678Y216141D01*
X261711Y216229D01*
X261715Y216278D01*
X261728Y216325D01*
X261727Y216419D01*
X261735Y216513D01*
X261725Y216560D01*
X261725Y216609D01*
X261697Y216699D01*
X261679Y216791D01*
X261657Y216835D01*
X261642Y216881D01*
X261591Y216960D01*
X261548Y217044D01*
X261514Y217079D01*
X261488Y217120D01*
X261431Y217167D01*
X261352Y217250D01*
X261277Y217294D01*
X261229Y217334D01*
X261088Y217415D01*
X260615Y217888D01*
X260280Y218467D01*
X260107Y219114D01*
X260107Y221100D01*
X272173Y221100D01*
X272231Y221108D01*
X272289Y221106D01*
X272371Y221128D01*
X272454Y221140D01*
X272508Y221163D01*
X272564Y221178D01*
X272637Y221221D01*
X272714Y221256D01*
X272758Y221294D01*
X272809Y221323D01*
X272812Y221327D01*
X272816Y221325D01*
X272859Y221285D01*
X272934Y221246D01*
X273004Y221199D01*
X273060Y221182D01*
X273112Y221155D01*
X273180Y221144D01*
X273275Y221114D01*
X273375Y221111D01*
X273443Y221100D01*
X285509Y221100D01*
X285509Y219114D01*
X285336Y218467D01*
X285001Y217888D01*
X284528Y217415D01*
X284387Y217334D01*
X284349Y217303D01*
X284305Y217281D01*
X284237Y217216D01*
X284163Y217158D01*
X284135Y217119D01*
X284099Y217085D01*
X284052Y217004D01*
X283997Y216928D01*
X283980Y216882D01*
X283955Y216840D01*
X283932Y216749D01*
X283901Y216660D01*
X283897Y216612D01*
X283885Y216564D01*
X283888Y216471D01*
X283882Y216377D01*
X283893Y216329D01*
X283894Y216280D01*
X283923Y216191D01*
X283944Y216099D01*
X283967Y216056D01*
X283982Y216010D01*
X284025Y215949D01*
X284079Y215849D01*
X284140Y215787D01*
X284177Y215736D01*
X285509Y214404D01*
X285509Y205696D01*
X284231Y204418D01*
X284196Y204371D01*
X284153Y204331D01*
X284111Y204258D01*
X284060Y204191D01*
X284039Y204136D01*
X284010Y204086D01*
X283989Y204004D01*
X283959Y203925D01*
X283954Y203867D01*
X283940Y203810D01*
X283942Y203726D01*
X283935Y203642D01*
X283947Y203584D01*
X283949Y203526D01*
X283975Y203446D01*
X283991Y203363D01*
X284018Y203311D01*
X284036Y203255D01*
X284076Y203199D01*
X284122Y203111D01*
X284191Y203038D01*
X284231Y202982D01*
X285509Y201704D01*
X285509Y192996D01*
X284231Y191718D01*
X284196Y191671D01*
X284153Y191631D01*
X284111Y191558D01*
X284060Y191491D01*
X284039Y191436D01*
X284010Y191386D01*
X283989Y191304D01*
X283959Y191225D01*
X283954Y191167D01*
X283940Y191110D01*
X283942Y191026D01*
X283935Y190942D01*
X283947Y190884D01*
X283949Y190826D01*
X283975Y190746D01*
X283991Y190663D01*
X284018Y190611D01*
X284036Y190555D01*
X284076Y190499D01*
X284122Y190411D01*
X284191Y190338D01*
X284231Y190282D01*
X285538Y188976D01*
X285549Y188898D01*
X285572Y188845D01*
X285587Y188789D01*
X285630Y188716D01*
X285665Y188639D01*
X285703Y188594D01*
X285732Y188544D01*
X285794Y188486D01*
X285848Y188422D01*
X285897Y188390D01*
X285940Y188350D01*
X286015Y188311D01*
X286085Y188264D01*
X286141Y188247D01*
X286193Y188220D01*
X286261Y188209D01*
X286356Y188179D01*
X286456Y188176D01*
X286524Y188165D01*
X287254Y188165D01*
X287291Y188170D01*
X287329Y188168D01*
X287405Y188186D01*
X287535Y188205D01*
X287602Y188234D01*
X287655Y188247D01*
X288241Y188499D01*
X288899Y188237D01*
X288923Y188231D01*
X288944Y188220D01*
X289020Y188208D01*
X289175Y188170D01*
X289232Y188172D01*
X289275Y188165D01*
X289984Y188165D01*
X290435Y187714D01*
X290465Y187691D01*
X290490Y187663D01*
X290556Y187622D01*
X290662Y187543D01*
X290730Y187517D01*
X290777Y187489D01*
X301373Y183265D01*
X301506Y183233D01*
X301639Y183199D01*
X301644Y183199D01*
X301649Y183198D01*
X301787Y183204D01*
G37*
G36*
X307667Y210238D02*
X307667Y210238D01*
X307668Y210238D01*
X307803Y210271D01*
X307942Y210304D01*
X307943Y210305D01*
X307944Y210305D01*
X308060Y210371D01*
X308190Y210445D01*
X308191Y210446D01*
X308280Y210537D01*
X308388Y210648D01*
X308389Y210649D01*
X308457Y210777D01*
X308523Y210899D01*
X308523Y210900D01*
X308525Y210909D01*
X308582Y211176D01*
X308580Y211206D01*
X308585Y211230D01*
X310870Y336559D01*
X310859Y336653D01*
X310856Y336748D01*
X310841Y336794D01*
X310836Y336841D01*
X310798Y336928D01*
X310769Y337019D01*
X310743Y337059D01*
X310724Y337102D01*
X310664Y337176D01*
X310611Y337255D01*
X310575Y337286D01*
X310544Y337323D01*
X310466Y337377D01*
X310393Y337438D01*
X310350Y337458D01*
X310311Y337485D01*
X310220Y337515D01*
X310134Y337554D01*
X310087Y337560D01*
X310041Y337575D01*
X309946Y337580D01*
X309852Y337593D01*
X309805Y337586D01*
X309757Y337588D01*
X309665Y337566D01*
X309571Y337552D01*
X309527Y337532D01*
X309481Y337521D01*
X309398Y337474D01*
X309312Y337435D01*
X309275Y337404D01*
X309234Y337380D01*
X309168Y337312D01*
X309095Y337250D01*
X309073Y337215D01*
X309036Y337177D01*
X308957Y337030D01*
X308917Y336966D01*
X308889Y336898D01*
X306902Y334911D01*
X304301Y333834D01*
X304221Y333822D01*
X304129Y333819D01*
X304081Y333803D01*
X304031Y333795D01*
X303947Y333758D01*
X303859Y333728D01*
X303818Y333700D01*
X303772Y333679D01*
X303701Y333620D01*
X303625Y333567D01*
X303598Y333532D01*
X303555Y333496D01*
X303466Y333363D01*
X303419Y333302D01*
X299529Y326092D01*
X299508Y326036D01*
X299478Y325984D01*
X299464Y325917D01*
X299430Y325825D01*
X299422Y325724D01*
X299408Y325656D01*
X299384Y325133D01*
X298777Y324579D01*
X298776Y324578D01*
X298774Y324577D01*
X298762Y324561D01*
X298596Y324360D01*
X298584Y324332D01*
X298568Y324312D01*
X298178Y323588D01*
X297677Y323438D01*
X297623Y323413D01*
X297565Y323398D01*
X297508Y323361D01*
X297419Y323320D01*
X297342Y323253D01*
X297283Y323215D01*
X291470Y317908D01*
X291425Y317853D01*
X291384Y317819D01*
X287181Y312916D01*
X287155Y312874D01*
X287122Y312839D01*
X287079Y312755D01*
X287028Y312676D01*
X287014Y312629D01*
X286992Y312586D01*
X286980Y312513D01*
X286948Y312403D01*
X286947Y312317D01*
X286937Y312255D01*
X286937Y305223D01*
X285436Y303722D01*
X285350Y303607D01*
X285266Y303497D01*
X285266Y303496D01*
X285266Y303495D01*
X285215Y303361D01*
X285165Y303231D01*
X285165Y303230D01*
X285164Y303229D01*
X285153Y303089D01*
X285141Y302948D01*
X285141Y302947D01*
X285141Y302946D01*
X285197Y302667D01*
X285209Y302643D01*
X285214Y302621D01*
X295170Y278244D01*
X295214Y278169D01*
X295249Y278090D01*
X295281Y278053D01*
X295313Y277998D01*
X295419Y277897D01*
X295471Y277839D01*
X295766Y277599D01*
X295867Y276645D01*
X295936Y276369D01*
X295936Y276368D01*
X295937Y276367D01*
X296320Y275427D01*
X296319Y275421D01*
X296322Y275297D01*
X296315Y275221D01*
X296417Y273956D01*
X296439Y273857D01*
X296445Y273787D01*
X296755Y272573D01*
X296720Y272515D01*
X296720Y272514D01*
X296719Y272513D01*
X296665Y272382D01*
X296611Y272253D01*
X296611Y272251D01*
X296610Y272250D01*
X296609Y272235D01*
X296578Y271970D01*
X296584Y271940D01*
X296581Y271915D01*
X297145Y264927D01*
X297157Y264873D01*
X297159Y264817D01*
X297188Y264735D01*
X297207Y264650D01*
X297234Y264601D01*
X297251Y264548D01*
X297282Y264508D01*
X297307Y262981D01*
X297315Y262932D01*
X297313Y262892D01*
X297476Y261342D01*
X297433Y261275D01*
X297418Y261222D01*
X297393Y261172D01*
X297383Y261102D01*
X297354Y261002D01*
X297354Y260907D01*
X297344Y260840D01*
X297941Y225534D01*
X297956Y225437D01*
X297963Y225340D01*
X297978Y225303D01*
X297986Y225253D01*
X298060Y225095D01*
X298086Y225027D01*
X306700Y210725D01*
X306700Y210724D01*
X306701Y210723D01*
X306787Y210618D01*
X306879Y210504D01*
X306880Y210504D01*
X306880Y210503D01*
X307002Y210419D01*
X307113Y210342D01*
X307114Y210341D01*
X307259Y210293D01*
X307382Y210251D01*
X307383Y210251D01*
X307384Y210251D01*
X307529Y210244D01*
X307666Y210238D01*
X307667Y210238D01*
G37*
%LPC*%
G36*
X477813Y391067D02*
X477813Y391067D01*
X471185Y393813D01*
X466113Y398885D01*
X463367Y405513D01*
X463367Y412687D01*
X466113Y419315D01*
X471185Y424387D01*
X477813Y427133D01*
X484987Y427133D01*
X491615Y424387D01*
X496687Y419315D01*
X499433Y412687D01*
X499433Y405513D01*
X496687Y398885D01*
X491615Y393813D01*
X484987Y391067D01*
X477813Y391067D01*
G37*
%LPD*%
%LPC*%
G36*
X357813Y391067D02*
X357813Y391067D01*
X351185Y393813D01*
X346113Y398885D01*
X343367Y405513D01*
X343367Y412687D01*
X346113Y419315D01*
X351185Y424387D01*
X357813Y427133D01*
X364987Y427133D01*
X371615Y424387D01*
X376687Y419315D01*
X379433Y412687D01*
X379433Y405513D01*
X376687Y398885D01*
X371615Y393813D01*
X364987Y391067D01*
X357813Y391067D01*
G37*
%LPD*%
G36*
X324692Y14724D02*
X324692Y14724D01*
X324782Y14726D01*
X324832Y14742D01*
X324884Y14749D01*
X324967Y14785D01*
X325053Y14813D01*
X325096Y14842D01*
X325144Y14863D01*
X325214Y14921D01*
X325289Y14971D01*
X325323Y15011D01*
X325363Y15044D01*
X325414Y15119D01*
X325472Y15189D01*
X325493Y15236D01*
X325522Y15280D01*
X325551Y15366D01*
X325587Y15448D01*
X325595Y15500D01*
X325611Y15550D01*
X325614Y15640D01*
X325626Y15730D01*
X325619Y15782D01*
X325621Y15834D01*
X325599Y15922D01*
X325586Y16011D01*
X325564Y16059D01*
X325551Y16110D01*
X325506Y16188D01*
X325469Y16270D01*
X325435Y16310D01*
X325408Y16355D01*
X325343Y16418D01*
X325284Y16487D01*
X325245Y16511D01*
X325203Y16552D01*
X325065Y16624D01*
X325000Y16665D01*
X320052Y18714D01*
X314814Y23952D01*
X311979Y30796D01*
X311979Y38204D01*
X314814Y45048D01*
X319673Y49906D01*
X319680Y49916D01*
X319690Y49924D01*
X319765Y50029D01*
X319844Y50134D01*
X319848Y50145D01*
X319855Y50155D01*
X319899Y50278D01*
X319945Y50399D01*
X319946Y50411D01*
X319950Y50423D01*
X319958Y50553D01*
X319968Y50683D01*
X319966Y50694D01*
X319967Y50707D01*
X319938Y50834D01*
X319913Y50961D01*
X319907Y50972D01*
X319904Y50984D01*
X319841Y51098D01*
X319782Y51214D01*
X319773Y51222D01*
X319767Y51233D01*
X319675Y51325D01*
X319586Y51420D01*
X319575Y51426D01*
X319567Y51434D01*
X319453Y51498D01*
X319340Y51563D01*
X319329Y51566D01*
X319318Y51572D01*
X319256Y51585D01*
X319065Y51634D01*
X319023Y51632D01*
X318989Y51639D01*
X311788Y51882D01*
X311777Y51881D01*
X311766Y51882D01*
X311636Y51865D01*
X311505Y51851D01*
X311495Y51847D01*
X311484Y51846D01*
X311364Y51794D01*
X311242Y51744D01*
X311233Y51737D01*
X311223Y51733D01*
X311122Y51649D01*
X311019Y51568D01*
X311013Y51559D01*
X311004Y51552D01*
X310930Y51443D01*
X310853Y51336D01*
X310850Y51326D01*
X310844Y51317D01*
X310826Y51259D01*
X310759Y51068D01*
X310756Y51027D01*
X310747Y50995D01*
X308846Y36094D01*
X308846Y36070D01*
X308841Y36050D01*
X308700Y34379D01*
X307374Y33352D01*
X307357Y33335D01*
X307340Y33325D01*
X306058Y32242D01*
X304394Y32454D01*
X304370Y32454D01*
X304350Y32459D01*
X277841Y34693D01*
X277741Y34687D01*
X277640Y34690D01*
X277599Y34679D01*
X277557Y34677D01*
X277462Y34643D01*
X277365Y34618D01*
X277329Y34596D01*
X277289Y34583D01*
X277207Y34524D01*
X277120Y34473D01*
X277092Y34442D01*
X277057Y34418D01*
X276995Y34339D01*
X276926Y34265D01*
X276907Y34228D01*
X276881Y34195D01*
X276842Y34102D01*
X276796Y34012D01*
X276790Y33976D01*
X276772Y33932D01*
X276752Y33749D01*
X276741Y33681D01*
X276741Y32948D01*
X275252Y31459D01*
X263148Y31459D01*
X261418Y33189D01*
X261371Y33224D01*
X261331Y33267D01*
X261258Y33309D01*
X261191Y33360D01*
X261136Y33381D01*
X261086Y33410D01*
X261004Y33431D01*
X260925Y33461D01*
X260867Y33466D01*
X260810Y33480D01*
X260726Y33478D01*
X260642Y33485D01*
X260584Y33473D01*
X260526Y33471D01*
X260446Y33445D01*
X260363Y33429D01*
X260311Y33402D01*
X260255Y33384D01*
X260199Y33344D01*
X260111Y33298D01*
X260038Y33229D01*
X259982Y33189D01*
X258252Y31459D01*
X247201Y31459D01*
X247116Y31447D01*
X247030Y31445D01*
X246976Y31427D01*
X246920Y31419D01*
X246841Y31384D01*
X246759Y31358D01*
X246712Y31326D01*
X246660Y31303D01*
X246595Y31248D01*
X246523Y31200D01*
X246487Y31156D01*
X246443Y31120D01*
X246396Y31048D01*
X246340Y30982D01*
X246317Y30930D01*
X246286Y30883D01*
X246260Y30801D01*
X246225Y30722D01*
X246217Y30666D01*
X246200Y30612D01*
X246198Y30526D01*
X246186Y30441D01*
X246194Y30385D01*
X246193Y30328D01*
X246214Y30245D01*
X246227Y30160D01*
X246250Y30108D01*
X246264Y30053D01*
X246308Y29979D01*
X246344Y29900D01*
X246381Y29857D01*
X246410Y29808D01*
X246472Y29749D01*
X246528Y29684D01*
X246570Y29658D01*
X246617Y29614D01*
X246746Y29548D01*
X246813Y29506D01*
X248302Y28889D01*
X248704Y28487D01*
X248788Y28424D01*
X248797Y28416D01*
X248803Y28412D01*
X248894Y28338D01*
X248914Y28329D01*
X248931Y28316D01*
X249044Y28273D01*
X249155Y28225D01*
X249177Y28222D01*
X249197Y28215D01*
X249318Y28205D01*
X249437Y28190D01*
X249459Y28193D01*
X249480Y28191D01*
X249599Y28215D01*
X249718Y28234D01*
X249736Y28242D01*
X249759Y28247D01*
X249832Y28285D01*
X250721Y28144D01*
X251005Y28139D01*
X251028Y28145D01*
X251047Y28145D01*
X251893Y28286D01*
X252289Y28003D01*
X252347Y27973D01*
X252401Y27934D01*
X252462Y27913D01*
X252541Y27872D01*
X252650Y27850D01*
X252719Y27827D01*
X256724Y27191D01*
X256777Y27190D01*
X256829Y27180D01*
X256901Y27188D01*
X257008Y27186D01*
X257097Y27211D01*
X257163Y27218D01*
X257698Y27371D01*
X258388Y26989D01*
X258396Y26986D01*
X258403Y26981D01*
X258453Y26964D01*
X258653Y26887D01*
X258692Y26884D01*
X258721Y26874D01*
X259500Y26751D01*
X259827Y26300D01*
X259864Y26262D01*
X259894Y26218D01*
X259950Y26173D01*
X260025Y26096D01*
X260105Y26050D01*
X260156Y26009D01*
X274783Y17902D01*
X274833Y17883D01*
X274879Y17856D01*
X274949Y17839D01*
X275049Y17801D01*
X275141Y17793D01*
X275205Y17778D01*
X318928Y14766D01*
X318962Y14768D01*
X318989Y14763D01*
X324602Y14712D01*
X324692Y14724D01*
G37*
%LPC*%
G36*
X272800Y224175D02*
X272800Y224175D01*
X272757Y224215D01*
X272682Y224254D01*
X272612Y224301D01*
X272556Y224318D01*
X272504Y224345D01*
X272436Y224356D01*
X272341Y224386D01*
X272241Y224389D01*
X272173Y224400D01*
X260107Y224400D01*
X260107Y226386D01*
X260280Y227033D01*
X260615Y227612D01*
X261088Y228085D01*
X261229Y228166D01*
X261267Y228197D01*
X261311Y228219D01*
X261379Y228284D01*
X261453Y228342D01*
X261481Y228381D01*
X261517Y228415D01*
X261564Y228496D01*
X261619Y228572D01*
X261636Y228618D01*
X261661Y228660D01*
X261684Y228751D01*
X261715Y228840D01*
X261719Y228888D01*
X261731Y228936D01*
X261728Y229029D01*
X261734Y229123D01*
X261723Y229171D01*
X261722Y229220D01*
X261693Y229309D01*
X261672Y229401D01*
X261649Y229444D01*
X261634Y229490D01*
X261591Y229551D01*
X261537Y229651D01*
X261476Y229713D01*
X261439Y229764D01*
X260107Y231096D01*
X260107Y239804D01*
X261385Y241082D01*
X261420Y241129D01*
X261463Y241169D01*
X261505Y241242D01*
X261556Y241309D01*
X261577Y241364D01*
X261606Y241414D01*
X261627Y241496D01*
X261657Y241575D01*
X261662Y241633D01*
X261676Y241690D01*
X261674Y241774D01*
X261681Y241858D01*
X261669Y241916D01*
X261667Y241974D01*
X261641Y242054D01*
X261625Y242137D01*
X261598Y242189D01*
X261580Y242245D01*
X261540Y242301D01*
X261494Y242389D01*
X261425Y242462D01*
X261385Y242518D01*
X260107Y243796D01*
X260107Y252504D01*
X261596Y253993D01*
X284020Y253993D01*
X285509Y252504D01*
X285509Y243796D01*
X284231Y242518D01*
X284196Y242471D01*
X284153Y242431D01*
X284111Y242358D01*
X284060Y242291D01*
X284039Y242236D01*
X284010Y242186D01*
X283989Y242104D01*
X283959Y242025D01*
X283954Y241967D01*
X283940Y241910D01*
X283942Y241826D01*
X283935Y241742D01*
X283947Y241684D01*
X283949Y241626D01*
X283975Y241546D01*
X283991Y241463D01*
X284018Y241411D01*
X284036Y241355D01*
X284076Y241299D01*
X284122Y241211D01*
X284191Y241138D01*
X284231Y241082D01*
X285509Y239804D01*
X285509Y231096D01*
X284177Y229764D01*
X284147Y229725D01*
X284111Y229692D01*
X284062Y229612D01*
X284006Y229536D01*
X283988Y229491D01*
X283963Y229449D01*
X283938Y229359D01*
X283905Y229271D01*
X283901Y229222D01*
X283888Y229175D01*
X283889Y229081D01*
X283881Y228987D01*
X283891Y228940D01*
X283891Y228891D01*
X283919Y228801D01*
X283937Y228709D01*
X283959Y228665D01*
X283974Y228619D01*
X284025Y228540D01*
X284068Y228456D01*
X284102Y228421D01*
X284128Y228380D01*
X284185Y228333D01*
X284264Y228250D01*
X284339Y228206D01*
X284387Y228166D01*
X284528Y228085D01*
X285001Y227612D01*
X285336Y227033D01*
X285509Y226386D01*
X285509Y224400D01*
X273443Y224400D01*
X273385Y224392D01*
X273327Y224394D01*
X273245Y224372D01*
X273162Y224360D01*
X273108Y224337D01*
X273052Y224322D01*
X272979Y224279D01*
X272902Y224244D01*
X272858Y224206D01*
X272807Y224177D01*
X272804Y224173D01*
X272800Y224175D01*
G37*
%LPD*%
%LPC*%
G36*
X261596Y102607D02*
X261596Y102607D01*
X260107Y104096D01*
X260107Y112804D01*
X261385Y114082D01*
X261420Y114129D01*
X261463Y114169D01*
X261505Y114242D01*
X261556Y114309D01*
X261577Y114364D01*
X261606Y114414D01*
X261627Y114496D01*
X261657Y114575D01*
X261662Y114633D01*
X261676Y114690D01*
X261674Y114774D01*
X261681Y114858D01*
X261669Y114916D01*
X261667Y114974D01*
X261641Y115054D01*
X261625Y115137D01*
X261598Y115189D01*
X261580Y115245D01*
X261540Y115301D01*
X261494Y115389D01*
X261425Y115462D01*
X261385Y115518D01*
X260107Y116796D01*
X260107Y125504D01*
X261439Y126836D01*
X261469Y126875D01*
X261505Y126908D01*
X261554Y126988D01*
X261610Y127064D01*
X261628Y127109D01*
X261653Y127151D01*
X261678Y127241D01*
X261711Y127329D01*
X261715Y127378D01*
X261728Y127425D01*
X261727Y127519D01*
X261735Y127613D01*
X261725Y127660D01*
X261725Y127709D01*
X261697Y127799D01*
X261679Y127891D01*
X261657Y127935D01*
X261642Y127981D01*
X261591Y128060D01*
X261548Y128144D01*
X261514Y128179D01*
X261488Y128220D01*
X261431Y128267D01*
X261352Y128350D01*
X261277Y128394D01*
X261229Y128434D01*
X261088Y128515D01*
X260615Y128988D01*
X260280Y129567D01*
X260107Y130214D01*
X260107Y132200D01*
X272173Y132200D01*
X272231Y132208D01*
X272289Y132206D01*
X272371Y132228D01*
X272454Y132240D01*
X272508Y132263D01*
X272564Y132278D01*
X272637Y132321D01*
X272714Y132356D01*
X272758Y132394D01*
X272809Y132423D01*
X272812Y132427D01*
X272816Y132425D01*
X272859Y132385D01*
X272934Y132346D01*
X273004Y132299D01*
X273060Y132282D01*
X273112Y132255D01*
X273180Y132244D01*
X273275Y132214D01*
X273375Y132211D01*
X273443Y132200D01*
X285509Y132200D01*
X285509Y130214D01*
X285336Y129567D01*
X285001Y128988D01*
X284528Y128515D01*
X284387Y128434D01*
X284349Y128403D01*
X284305Y128381D01*
X284237Y128316D01*
X284163Y128258D01*
X284135Y128219D01*
X284099Y128185D01*
X284052Y128104D01*
X283997Y128028D01*
X283980Y127982D01*
X283955Y127940D01*
X283932Y127849D01*
X283901Y127760D01*
X283897Y127712D01*
X283885Y127664D01*
X283888Y127571D01*
X283882Y127477D01*
X283893Y127429D01*
X283894Y127380D01*
X283923Y127291D01*
X283944Y127199D01*
X283967Y127156D01*
X283982Y127110D01*
X284025Y127049D01*
X284079Y126949D01*
X284140Y126887D01*
X284177Y126836D01*
X285509Y125504D01*
X285509Y116796D01*
X284231Y115518D01*
X284196Y115471D01*
X284153Y115431D01*
X284111Y115358D01*
X284060Y115291D01*
X284039Y115236D01*
X284010Y115186D01*
X283989Y115104D01*
X283959Y115025D01*
X283954Y114967D01*
X283940Y114910D01*
X283942Y114826D01*
X283935Y114742D01*
X283947Y114684D01*
X283949Y114626D01*
X283975Y114546D01*
X283991Y114463D01*
X284018Y114411D01*
X284036Y114355D01*
X284076Y114299D01*
X284122Y114211D01*
X284191Y114138D01*
X284231Y114082D01*
X285509Y112804D01*
X285509Y104096D01*
X284020Y102607D01*
X261596Y102607D01*
G37*
%LPD*%
%LPC*%
G36*
X177995Y270035D02*
X177995Y270035D01*
X175398Y271111D01*
X173411Y273098D01*
X173166Y273688D01*
X173108Y273787D01*
X173055Y273889D01*
X173036Y273909D01*
X173022Y273933D01*
X172939Y274012D01*
X172859Y274095D01*
X172835Y274109D01*
X172815Y274128D01*
X172713Y274181D01*
X172614Y274239D01*
X172587Y274246D01*
X172563Y274258D01*
X172450Y274281D01*
X172339Y274309D01*
X172311Y274308D01*
X172284Y274313D01*
X172169Y274303D01*
X172054Y274300D01*
X172028Y274291D01*
X172000Y274289D01*
X171893Y274248D01*
X171784Y274212D01*
X171764Y274198D01*
X171735Y274187D01*
X171523Y274026D01*
X171511Y274017D01*
X170052Y272559D01*
X155948Y272559D01*
X154459Y274048D01*
X154459Y288152D01*
X155948Y289641D01*
X170052Y289641D01*
X171541Y288152D01*
X171541Y286085D01*
X171551Y286012D01*
X171551Y285939D01*
X171571Y285872D01*
X171581Y285803D01*
X171611Y285736D01*
X171631Y285666D01*
X171668Y285607D01*
X171697Y285544D01*
X171744Y285488D01*
X171784Y285426D01*
X171836Y285380D01*
X171880Y285327D01*
X171942Y285286D01*
X171997Y285238D01*
X172059Y285208D01*
X172117Y285169D01*
X172187Y285147D01*
X172253Y285116D01*
X172322Y285105D01*
X172388Y285084D01*
X172462Y285082D01*
X172534Y285070D01*
X172592Y285078D01*
X172672Y285076D01*
X172742Y285095D01*
X173267Y284825D01*
X173315Y284808D01*
X173359Y284783D01*
X173431Y284768D01*
X173535Y284732D01*
X173625Y284727D01*
X173688Y284714D01*
X174255Y284689D01*
X174781Y284117D01*
X174789Y284110D01*
X174795Y284101D01*
X174843Y284066D01*
X175001Y283936D01*
X175038Y283920D01*
X175064Y283900D01*
X175669Y283590D01*
X175790Y283547D01*
X175911Y283502D01*
X175925Y283501D01*
X175937Y283496D01*
X176065Y283489D01*
X176195Y283479D01*
X176207Y283482D01*
X176221Y283481D01*
X176498Y283545D01*
X176510Y283552D01*
X176522Y283555D01*
X177995Y284165D01*
X180805Y284165D01*
X183402Y283089D01*
X185389Y281102D01*
X186465Y278505D01*
X186465Y275695D01*
X185389Y273098D01*
X183402Y271111D01*
X180805Y270035D01*
X177995Y270035D01*
G37*
%LPD*%
%LPC*%
G36*
X134948Y272559D02*
X134948Y272559D01*
X133459Y274048D01*
X133459Y275217D01*
X133455Y275246D01*
X133458Y275275D01*
X133435Y275387D01*
X133419Y275499D01*
X133407Y275525D01*
X133402Y275554D01*
X133349Y275655D01*
X133303Y275758D01*
X133284Y275780D01*
X133271Y275807D01*
X133193Y275889D01*
X133120Y275975D01*
X133095Y275991D01*
X133075Y276013D01*
X132977Y276070D01*
X132883Y276133D01*
X132855Y276142D01*
X132830Y276156D01*
X132720Y276184D01*
X132612Y276218D01*
X132582Y276219D01*
X132554Y276226D01*
X132441Y276223D01*
X132328Y276226D01*
X132299Y276218D01*
X132270Y276217D01*
X132162Y276183D01*
X132053Y276154D01*
X132027Y276139D01*
X131999Y276130D01*
X131935Y276084D01*
X131808Y276009D01*
X131765Y275963D01*
X131726Y275935D01*
X130902Y275111D01*
X128305Y274035D01*
X125495Y274035D01*
X122898Y275111D01*
X120911Y277098D01*
X119835Y279695D01*
X119835Y282505D01*
X120911Y285102D01*
X122898Y287089D01*
X125495Y288165D01*
X128305Y288165D01*
X130902Y287089D01*
X131726Y286265D01*
X131750Y286247D01*
X131769Y286225D01*
X131863Y286162D01*
X131953Y286094D01*
X131981Y286084D01*
X132005Y286067D01*
X132113Y286033D01*
X132219Y285993D01*
X132248Y285990D01*
X132276Y285982D01*
X132390Y285979D01*
X132502Y285969D01*
X132531Y285975D01*
X132560Y285974D01*
X132670Y286003D01*
X132781Y286025D01*
X132807Y286039D01*
X132835Y286046D01*
X132933Y286104D01*
X133033Y286156D01*
X133055Y286176D01*
X133080Y286191D01*
X133157Y286274D01*
X133239Y286352D01*
X133254Y286377D01*
X133274Y286399D01*
X133326Y286500D01*
X133383Y286597D01*
X133390Y286626D01*
X133404Y286652D01*
X133417Y286729D01*
X133453Y286873D01*
X133451Y286935D01*
X133459Y286983D01*
X133459Y288152D01*
X134948Y289641D01*
X149052Y289641D01*
X150541Y288152D01*
X150541Y274048D01*
X149052Y272559D01*
X134948Y272559D01*
G37*
%LPD*%
%LPC*%
G36*
X152648Y158259D02*
X152648Y158259D01*
X151159Y159748D01*
X151159Y173852D01*
X152648Y175341D01*
X152917Y175341D01*
X152946Y175345D01*
X152976Y175342D01*
X153087Y175365D01*
X153199Y175381D01*
X153225Y175393D01*
X153254Y175398D01*
X153355Y175451D01*
X153458Y175497D01*
X153480Y175516D01*
X153507Y175529D01*
X153589Y175607D01*
X153675Y175680D01*
X153691Y175705D01*
X153713Y175725D01*
X153770Y175823D01*
X153833Y175917D01*
X153842Y175945D01*
X153856Y175970D01*
X153884Y176080D01*
X153918Y176188D01*
X153919Y176217D01*
X153926Y176246D01*
X153923Y176359D01*
X153926Y176472D01*
X153918Y176501D01*
X153917Y176530D01*
X153882Y176638D01*
X153854Y176747D01*
X153839Y176773D01*
X153830Y176801D01*
X153784Y176865D01*
X153709Y176992D01*
X153663Y177035D01*
X153635Y177074D01*
X153611Y177098D01*
X152535Y179695D01*
X152535Y182505D01*
X153611Y185102D01*
X155598Y187089D01*
X158195Y188165D01*
X161005Y188165D01*
X163602Y187089D01*
X165589Y185102D01*
X166665Y182505D01*
X166665Y179695D01*
X165589Y177098D01*
X165565Y177074D01*
X165547Y177050D01*
X165525Y177031D01*
X165462Y176937D01*
X165394Y176847D01*
X165384Y176819D01*
X165367Y176795D01*
X165333Y176687D01*
X165293Y176581D01*
X165290Y176552D01*
X165282Y176524D01*
X165279Y176411D01*
X165269Y176298D01*
X165275Y176269D01*
X165274Y176240D01*
X165303Y176130D01*
X165325Y176019D01*
X165339Y175993D01*
X165346Y175965D01*
X165404Y175867D01*
X165456Y175767D01*
X165476Y175745D01*
X165491Y175720D01*
X165574Y175643D01*
X165652Y175561D01*
X165677Y175546D01*
X165699Y175526D01*
X165799Y175474D01*
X165897Y175417D01*
X165926Y175410D01*
X165952Y175396D01*
X166029Y175383D01*
X166173Y175347D01*
X166235Y175349D01*
X166283Y175341D01*
X166752Y175341D01*
X168241Y173852D01*
X168241Y159748D01*
X166752Y158259D01*
X152648Y158259D01*
G37*
%LPD*%
%LPC*%
G36*
X26765Y315169D02*
X26765Y315169D01*
X20069Y321865D01*
X20069Y331335D01*
X26765Y338031D01*
X36235Y338031D01*
X42931Y331335D01*
X42931Y321865D01*
X36235Y315169D01*
X26765Y315169D01*
G37*
%LPD*%
%LPC*%
G36*
X128365Y315169D02*
X128365Y315169D01*
X121669Y321865D01*
X121669Y331335D01*
X128365Y338031D01*
X137835Y338031D01*
X144531Y331335D01*
X144531Y321865D01*
X137835Y315169D01*
X128365Y315169D01*
G37*
%LPD*%
%LPC*%
G36*
X469904Y364559D02*
X469904Y364559D01*
X465663Y366316D01*
X462416Y369563D01*
X460659Y373804D01*
X460659Y378396D01*
X462416Y382637D01*
X465663Y385884D01*
X469904Y387641D01*
X474496Y387641D01*
X478737Y385884D01*
X481984Y382637D01*
X483741Y378396D01*
X483741Y373804D01*
X481984Y369563D01*
X478737Y366316D01*
X474496Y364559D01*
X469904Y364559D01*
G37*
%LPD*%
G36*
X145924Y53709D02*
X145924Y53709D01*
X146029Y53717D01*
X146064Y53730D01*
X146101Y53735D01*
X146197Y53778D01*
X146296Y53815D01*
X146326Y53837D01*
X146360Y53852D01*
X146440Y53920D01*
X146525Y53983D01*
X146548Y54012D01*
X146576Y54036D01*
X146618Y54103D01*
X146699Y54208D01*
X146725Y54275D01*
X146754Y54321D01*
X148020Y57377D01*
X151093Y60450D01*
X155107Y62113D01*
X159453Y62113D01*
X163290Y60523D01*
X163329Y60513D01*
X163365Y60496D01*
X163466Y60478D01*
X163565Y60452D01*
X163605Y60454D01*
X163645Y60447D01*
X163747Y60458D01*
X163849Y60461D01*
X163888Y60473D01*
X163928Y60477D01*
X163999Y60508D01*
X164120Y60547D01*
X164183Y60590D01*
X164235Y60612D01*
X170309Y64596D01*
X170415Y64689D01*
X170479Y64736D01*
X171269Y65545D01*
X171468Y65547D01*
X171586Y65565D01*
X171705Y65578D01*
X171724Y65587D01*
X171749Y65590D01*
X172007Y65710D01*
X172010Y65712D01*
X172013Y65713D01*
X172179Y65822D01*
X173287Y65592D01*
X173427Y65583D01*
X173505Y65571D01*
X180737Y65655D01*
X180760Y65658D01*
X180783Y65656D01*
X180900Y65680D01*
X181018Y65698D01*
X181039Y65708D01*
X181062Y65712D01*
X181168Y65767D01*
X181276Y65817D01*
X181293Y65832D01*
X181314Y65843D01*
X181401Y65925D01*
X181491Y66003D01*
X181503Y66023D01*
X181520Y66039D01*
X181580Y66142D01*
X181645Y66242D01*
X181652Y66264D01*
X181664Y66284D01*
X181693Y66400D01*
X181728Y66514D01*
X181728Y66537D01*
X181734Y66560D01*
X181730Y66679D01*
X181732Y66798D01*
X181726Y66821D01*
X181725Y66844D01*
X181688Y66957D01*
X181657Y67072D01*
X181645Y67092D01*
X181638Y67115D01*
X181593Y67177D01*
X181509Y67315D01*
X181468Y67353D01*
X181443Y67388D01*
X178739Y70091D01*
X178739Y72269D01*
X187884Y72269D01*
X187942Y72277D01*
X188000Y72275D01*
X188082Y72297D01*
X188165Y72309D01*
X188219Y72333D01*
X188275Y72347D01*
X188348Y72390D01*
X188425Y72425D01*
X188469Y72463D01*
X188520Y72493D01*
X188577Y72554D01*
X188642Y72609D01*
X188674Y72657D01*
X188714Y72700D01*
X188753Y72775D01*
X188799Y72845D01*
X188817Y72901D01*
X188844Y72953D01*
X188855Y73021D01*
X188885Y73116D01*
X188888Y73216D01*
X188899Y73284D01*
X188899Y75316D01*
X188891Y75374D01*
X188892Y75432D01*
X188871Y75514D01*
X188859Y75597D01*
X188835Y75651D01*
X188821Y75707D01*
X188778Y75780D01*
X188743Y75857D01*
X188705Y75902D01*
X188675Y75952D01*
X188614Y76010D01*
X188559Y76074D01*
X188511Y76106D01*
X188468Y76146D01*
X188393Y76185D01*
X188323Y76231D01*
X188267Y76249D01*
X188215Y76276D01*
X188147Y76287D01*
X188052Y76317D01*
X187952Y76320D01*
X187884Y76331D01*
X178739Y76331D01*
X178739Y77844D01*
X178722Y77967D01*
X178709Y78091D01*
X178702Y78107D01*
X178699Y78125D01*
X178649Y78239D01*
X178602Y78354D01*
X178590Y78368D01*
X178583Y78385D01*
X178503Y78480D01*
X178426Y78577D01*
X178411Y78588D01*
X178400Y78602D01*
X178296Y78671D01*
X178195Y78743D01*
X178178Y78749D01*
X178163Y78759D01*
X178044Y78797D01*
X177927Y78838D01*
X177909Y78840D01*
X177892Y78845D01*
X177767Y78848D01*
X177643Y78856D01*
X177627Y78852D01*
X177608Y78852D01*
X177333Y78780D01*
X177325Y78776D01*
X177317Y78774D01*
X168726Y75019D01*
X168660Y74978D01*
X168589Y74946D01*
X168539Y74904D01*
X168484Y74870D01*
X168432Y74812D01*
X168372Y74762D01*
X168343Y74714D01*
X168293Y74659D01*
X168236Y74543D01*
X168194Y74477D01*
X166540Y70483D01*
X163467Y67410D01*
X159453Y65747D01*
X155107Y65747D01*
X151093Y67410D01*
X149487Y69016D01*
X149474Y69025D01*
X149464Y69038D01*
X149360Y69111D01*
X149260Y69187D01*
X149245Y69192D01*
X149232Y69202D01*
X149112Y69243D01*
X148994Y69288D01*
X148978Y69289D01*
X148963Y69295D01*
X148893Y69296D01*
X148711Y69311D01*
X148665Y69302D01*
X148627Y69303D01*
X143365Y68561D01*
X143323Y68549D01*
X143279Y68545D01*
X143187Y68510D01*
X143092Y68482D01*
X143055Y68459D01*
X143013Y68443D01*
X142935Y68383D01*
X142851Y68331D01*
X142822Y68298D01*
X142787Y68271D01*
X142728Y68192D01*
X142662Y68119D01*
X142643Y68079D01*
X142617Y68044D01*
X142582Y67951D01*
X142539Y67862D01*
X142532Y67819D01*
X142516Y67778D01*
X142508Y67679D01*
X142492Y67582D01*
X142497Y67538D01*
X142494Y67494D01*
X142511Y67420D01*
X142524Y67300D01*
X142556Y67225D01*
X142569Y67167D01*
X142803Y66603D01*
X142803Y62257D01*
X141596Y59344D01*
X141576Y59267D01*
X141547Y59192D01*
X141541Y59130D01*
X141525Y59068D01*
X141527Y58989D01*
X141520Y58909D01*
X141531Y58847D01*
X141533Y58784D01*
X141557Y58708D01*
X141572Y58630D01*
X141598Y58582D01*
X141620Y58513D01*
X141694Y58403D01*
X141731Y58334D01*
X145013Y54089D01*
X145040Y54063D01*
X145060Y54032D01*
X145141Y53964D01*
X145217Y53890D01*
X145249Y53873D01*
X145278Y53849D01*
X145374Y53806D01*
X145467Y53756D01*
X145504Y53748D01*
X145538Y53733D01*
X145642Y53719D01*
X145745Y53697D01*
X145783Y53699D01*
X145819Y53694D01*
X145924Y53709D01*
G37*
%LPC*%
G36*
X93431Y290531D02*
X93431Y290531D01*
X93431Y306086D01*
X93779Y306031D01*
X95300Y305536D01*
X96725Y304810D01*
X98019Y303870D01*
X99150Y302739D01*
X100090Y301445D01*
X100816Y300020D01*
X101311Y298499D01*
X101561Y296920D01*
X101561Y290531D01*
X93431Y290531D01*
G37*
%LPD*%
%LPC*%
G36*
X93431Y286469D02*
X93431Y286469D01*
X101561Y286469D01*
X101561Y280080D01*
X101311Y278501D01*
X100816Y276980D01*
X100090Y275555D01*
X99150Y274261D01*
X98019Y273130D01*
X96725Y272190D01*
X95300Y271464D01*
X93779Y270969D01*
X93431Y270914D01*
X93431Y286469D01*
G37*
%LPD*%
%LPC*%
G36*
X81239Y290531D02*
X81239Y290531D01*
X81239Y296920D01*
X81489Y298499D01*
X81984Y300020D01*
X82710Y301445D01*
X83650Y302739D01*
X84781Y303870D01*
X86075Y304810D01*
X87500Y305536D01*
X89021Y306031D01*
X89369Y306086D01*
X89369Y290531D01*
X81239Y290531D01*
G37*
%LPD*%
%LPC*%
G36*
X89021Y270969D02*
X89021Y270969D01*
X87500Y271464D01*
X86075Y272190D01*
X84781Y273130D01*
X83650Y274261D01*
X82710Y275555D01*
X81984Y276980D01*
X81489Y278501D01*
X81239Y280080D01*
X81239Y286469D01*
X89369Y286469D01*
X89369Y270914D01*
X89021Y270969D01*
G37*
%LPD*%
%LPC*%
G36*
X397631Y409831D02*
X397631Y409831D01*
X397631Y425144D01*
X397951Y425093D01*
X399454Y424605D01*
X400863Y423888D01*
X402141Y422959D01*
X403259Y421841D01*
X404188Y420563D01*
X404905Y419154D01*
X405393Y417651D01*
X405641Y416090D01*
X405641Y409831D01*
X397631Y409831D01*
G37*
%LPD*%
%LPC*%
G36*
X99931Y167731D02*
X99931Y167731D01*
X99931Y183044D01*
X100251Y182993D01*
X101754Y182505D01*
X103163Y181788D01*
X104441Y180859D01*
X105559Y179741D01*
X106488Y178463D01*
X107205Y177054D01*
X107693Y175551D01*
X107941Y173990D01*
X107941Y167731D01*
X99931Y167731D01*
G37*
%LPD*%
%LPC*%
G36*
X397631Y405769D02*
X397631Y405769D01*
X405641Y405769D01*
X405641Y399510D01*
X405393Y397949D01*
X404905Y396446D01*
X404188Y395037D01*
X403259Y393759D01*
X402141Y392641D01*
X400863Y391712D01*
X399454Y390995D01*
X397951Y390507D01*
X397631Y390456D01*
X397631Y405769D01*
G37*
%LPD*%
%LPC*%
G36*
X99931Y163669D02*
X99931Y163669D01*
X107941Y163669D01*
X107941Y157410D01*
X107693Y155849D01*
X107205Y154346D01*
X106488Y152937D01*
X105559Y151659D01*
X104441Y150541D01*
X103163Y149612D01*
X101754Y148895D01*
X100251Y148407D01*
X99931Y148356D01*
X99931Y163669D01*
G37*
%LPD*%
%LPC*%
G36*
X87859Y167731D02*
X87859Y167731D01*
X87859Y173990D01*
X88107Y175551D01*
X88595Y177054D01*
X89312Y178463D01*
X90241Y179741D01*
X91359Y180859D01*
X92637Y181788D01*
X94046Y182505D01*
X95549Y182993D01*
X95869Y183044D01*
X95869Y167731D01*
X87859Y167731D01*
G37*
%LPD*%
%LPC*%
G36*
X385559Y409831D02*
X385559Y409831D01*
X385559Y416090D01*
X385807Y417651D01*
X386295Y419154D01*
X387012Y420563D01*
X387941Y421841D01*
X389059Y422959D01*
X390337Y423888D01*
X391746Y424605D01*
X393249Y425093D01*
X393569Y425144D01*
X393569Y409831D01*
X385559Y409831D01*
G37*
%LPD*%
%LPC*%
G36*
X393249Y390507D02*
X393249Y390507D01*
X391746Y390995D01*
X390337Y391712D01*
X389059Y392641D01*
X387941Y393759D01*
X387012Y395037D01*
X386295Y396446D01*
X385807Y397949D01*
X385559Y399510D01*
X385559Y405769D01*
X393569Y405769D01*
X393569Y390456D01*
X393249Y390507D01*
G37*
%LPD*%
%LPC*%
G36*
X95549Y148407D02*
X95549Y148407D01*
X94046Y148895D01*
X92637Y149612D01*
X91359Y150541D01*
X90241Y151659D01*
X89312Y152937D01*
X88595Y154346D01*
X88107Y155849D01*
X87859Y157410D01*
X87859Y163669D01*
X95869Y163669D01*
X95869Y148356D01*
X95549Y148407D01*
G37*
%LPD*%
%LPC*%
G36*
X351631Y68231D02*
X351631Y68231D01*
X351631Y77741D01*
X358934Y77741D01*
X359581Y77568D01*
X360160Y77233D01*
X360633Y76760D01*
X360968Y76181D01*
X361141Y75534D01*
X361141Y68231D01*
X351631Y68231D01*
G37*
%LPD*%
%LPC*%
G36*
X372631Y378131D02*
X372631Y378131D01*
X372631Y387641D01*
X379934Y387641D01*
X380581Y387468D01*
X381160Y387133D01*
X381633Y386660D01*
X381968Y386081D01*
X382141Y385434D01*
X382141Y378131D01*
X372631Y378131D01*
G37*
%LPD*%
%LPC*%
G36*
X398031Y378131D02*
X398031Y378131D01*
X398031Y387641D01*
X405334Y387641D01*
X405981Y387468D01*
X406560Y387133D01*
X407033Y386660D01*
X407368Y386081D01*
X407541Y385434D01*
X407541Y378131D01*
X398031Y378131D01*
G37*
%LPD*%
%LPC*%
G36*
X384459Y378131D02*
X384459Y378131D01*
X384459Y385434D01*
X384632Y386081D01*
X384967Y386660D01*
X385440Y387133D01*
X386019Y387468D01*
X386666Y387641D01*
X393969Y387641D01*
X393969Y378131D01*
X384459Y378131D01*
G37*
%LPD*%
%LPC*%
G36*
X338059Y68231D02*
X338059Y68231D01*
X338059Y75534D01*
X338232Y76181D01*
X338567Y76760D01*
X339040Y77233D01*
X339619Y77568D01*
X340266Y77741D01*
X347569Y77741D01*
X347569Y68231D01*
X338059Y68231D01*
G37*
%LPD*%
%LPC*%
G36*
X359059Y378131D02*
X359059Y378131D01*
X359059Y385434D01*
X359232Y386081D01*
X359567Y386660D01*
X360040Y387133D01*
X360619Y387468D01*
X361266Y387641D01*
X368569Y387641D01*
X368569Y378131D01*
X359059Y378131D01*
G37*
%LPD*%
%LPC*%
G36*
X351631Y54659D02*
X351631Y54659D01*
X351631Y64169D01*
X361141Y64169D01*
X361141Y56866D01*
X360968Y56219D01*
X360633Y55640D01*
X360160Y55167D01*
X359581Y54832D01*
X358934Y54659D01*
X351631Y54659D01*
G37*
%LPD*%
%LPC*%
G36*
X375423Y237481D02*
X375423Y237481D01*
X375423Y246119D01*
X386093Y246119D01*
X386093Y244513D01*
X385920Y243867D01*
X385585Y243288D01*
X385533Y243236D01*
X385522Y243222D01*
X385508Y243211D01*
X385394Y243067D01*
X385278Y242925D01*
X385270Y242909D01*
X385259Y242895D01*
X385176Y242731D01*
X385090Y242569D01*
X385085Y242552D01*
X385077Y242536D01*
X385027Y242359D01*
X384975Y242183D01*
X384973Y242165D01*
X384969Y242148D01*
X384955Y241966D01*
X384939Y241782D01*
X384941Y241764D01*
X384939Y241747D01*
X384962Y241566D01*
X384982Y241382D01*
X384987Y241365D01*
X384990Y241347D01*
X385048Y241173D01*
X385103Y240998D01*
X385112Y240982D01*
X385118Y240965D01*
X385210Y240806D01*
X385298Y240646D01*
X385310Y240632D01*
X385319Y240617D01*
X385534Y240364D01*
X385585Y240312D01*
X385920Y239733D01*
X386093Y239087D01*
X386093Y237481D01*
X375423Y237481D01*
G37*
%LPD*%
%LPC*%
G36*
X375423Y110481D02*
X375423Y110481D01*
X375423Y119119D01*
X386093Y119119D01*
X386093Y117513D01*
X385920Y116867D01*
X385585Y116288D01*
X385533Y116236D01*
X385522Y116222D01*
X385508Y116211D01*
X385394Y116067D01*
X385278Y115925D01*
X385270Y115909D01*
X385259Y115895D01*
X385176Y115731D01*
X385090Y115569D01*
X385085Y115552D01*
X385077Y115536D01*
X385027Y115359D01*
X384975Y115183D01*
X384973Y115165D01*
X384969Y115148D01*
X384955Y114966D01*
X384939Y114782D01*
X384941Y114764D01*
X384939Y114747D01*
X384962Y114566D01*
X384982Y114382D01*
X384987Y114365D01*
X384990Y114347D01*
X385048Y114173D01*
X385103Y113998D01*
X385112Y113982D01*
X385118Y113965D01*
X385210Y113806D01*
X385298Y113646D01*
X385310Y113632D01*
X385319Y113617D01*
X385534Y113364D01*
X385585Y113312D01*
X385920Y112733D01*
X386093Y112087D01*
X386093Y110481D01*
X375423Y110481D01*
G37*
%LPD*%
%LPC*%
G36*
X375423Y135881D02*
X375423Y135881D01*
X375423Y144519D01*
X386093Y144519D01*
X386093Y142913D01*
X385920Y142267D01*
X385585Y141688D01*
X385533Y141636D01*
X385522Y141622D01*
X385508Y141611D01*
X385394Y141467D01*
X385278Y141325D01*
X385270Y141309D01*
X385259Y141295D01*
X385176Y141131D01*
X385090Y140969D01*
X385085Y140952D01*
X385077Y140936D01*
X385027Y140759D01*
X384975Y140583D01*
X384973Y140565D01*
X384969Y140548D01*
X384955Y140366D01*
X384939Y140182D01*
X384941Y140164D01*
X384939Y140147D01*
X384962Y139966D01*
X384982Y139782D01*
X384987Y139765D01*
X384990Y139747D01*
X385048Y139573D01*
X385103Y139398D01*
X385112Y139382D01*
X385118Y139365D01*
X385210Y139206D01*
X385298Y139046D01*
X385310Y139032D01*
X385319Y139017D01*
X385534Y138764D01*
X385585Y138712D01*
X385920Y138133D01*
X386093Y137487D01*
X386093Y135881D01*
X375423Y135881D01*
G37*
%LPD*%
%LPC*%
G36*
X375423Y148581D02*
X375423Y148581D01*
X375423Y157219D01*
X386093Y157219D01*
X386093Y155613D01*
X385920Y154967D01*
X385585Y154388D01*
X385533Y154336D01*
X385522Y154322D01*
X385508Y154311D01*
X385394Y154167D01*
X385278Y154025D01*
X385270Y154009D01*
X385259Y153995D01*
X385176Y153831D01*
X385090Y153669D01*
X385085Y153652D01*
X385077Y153636D01*
X385027Y153459D01*
X384975Y153283D01*
X384973Y153265D01*
X384969Y153248D01*
X384955Y153066D01*
X384939Y152882D01*
X384941Y152864D01*
X384939Y152847D01*
X384962Y152666D01*
X384982Y152482D01*
X384987Y152465D01*
X384990Y152447D01*
X385048Y152273D01*
X385103Y152098D01*
X385112Y152082D01*
X385118Y152065D01*
X385210Y151906D01*
X385298Y151746D01*
X385310Y151732D01*
X385319Y151717D01*
X385534Y151464D01*
X385585Y151412D01*
X385920Y150833D01*
X386093Y150187D01*
X386093Y148581D01*
X375423Y148581D01*
G37*
%LPD*%
%LPC*%
G36*
X375423Y161281D02*
X375423Y161281D01*
X375423Y169919D01*
X386093Y169919D01*
X386093Y168313D01*
X385920Y167667D01*
X385585Y167088D01*
X385533Y167036D01*
X385522Y167022D01*
X385508Y167011D01*
X385394Y166867D01*
X385278Y166725D01*
X385270Y166709D01*
X385259Y166695D01*
X385176Y166531D01*
X385090Y166369D01*
X385085Y166352D01*
X385077Y166336D01*
X385027Y166159D01*
X384975Y165983D01*
X384973Y165965D01*
X384969Y165948D01*
X384955Y165766D01*
X384939Y165582D01*
X384941Y165564D01*
X384939Y165547D01*
X384962Y165366D01*
X384982Y165182D01*
X384987Y165165D01*
X384990Y165147D01*
X385048Y164973D01*
X385103Y164798D01*
X385112Y164782D01*
X385118Y164765D01*
X385210Y164606D01*
X385298Y164446D01*
X385310Y164432D01*
X385319Y164417D01*
X385534Y164164D01*
X385585Y164112D01*
X385920Y163533D01*
X386093Y162887D01*
X386093Y161281D01*
X375423Y161281D01*
G37*
%LPD*%
%LPC*%
G36*
X375423Y199381D02*
X375423Y199381D01*
X375423Y208019D01*
X386093Y208019D01*
X386093Y206413D01*
X385920Y205767D01*
X385585Y205188D01*
X385533Y205136D01*
X385522Y205122D01*
X385508Y205111D01*
X385394Y204967D01*
X385278Y204825D01*
X385270Y204809D01*
X385259Y204795D01*
X385176Y204631D01*
X385090Y204469D01*
X385085Y204452D01*
X385077Y204436D01*
X385027Y204259D01*
X384975Y204083D01*
X384973Y204065D01*
X384969Y204048D01*
X384955Y203866D01*
X384939Y203682D01*
X384941Y203664D01*
X384939Y203647D01*
X384962Y203466D01*
X384982Y203282D01*
X384987Y203265D01*
X384990Y203247D01*
X385048Y203073D01*
X385103Y202898D01*
X385112Y202882D01*
X385118Y202865D01*
X385210Y202706D01*
X385298Y202546D01*
X385310Y202532D01*
X385319Y202517D01*
X385534Y202264D01*
X385585Y202212D01*
X385920Y201633D01*
X386093Y200987D01*
X386093Y199381D01*
X375423Y199381D01*
G37*
%LPD*%
%LPC*%
G36*
X375423Y212081D02*
X375423Y212081D01*
X375423Y220719D01*
X386093Y220719D01*
X386093Y219113D01*
X385920Y218467D01*
X385585Y217888D01*
X385533Y217836D01*
X385522Y217822D01*
X385508Y217811D01*
X385394Y217667D01*
X385278Y217525D01*
X385270Y217509D01*
X385259Y217495D01*
X385176Y217331D01*
X385090Y217169D01*
X385085Y217152D01*
X385077Y217136D01*
X385027Y216959D01*
X384975Y216783D01*
X384973Y216765D01*
X384969Y216748D01*
X384955Y216566D01*
X384939Y216382D01*
X384941Y216364D01*
X384939Y216347D01*
X384962Y216166D01*
X384982Y215982D01*
X384987Y215965D01*
X384990Y215947D01*
X385048Y215773D01*
X385103Y215598D01*
X385112Y215582D01*
X385118Y215565D01*
X385210Y215406D01*
X385298Y215246D01*
X385310Y215232D01*
X385319Y215217D01*
X385534Y214964D01*
X385585Y214912D01*
X385920Y214333D01*
X386093Y213687D01*
X386093Y212081D01*
X375423Y212081D01*
G37*
%LPD*%
%LPC*%
G36*
X375423Y224781D02*
X375423Y224781D01*
X375423Y233419D01*
X386093Y233419D01*
X386093Y231813D01*
X385920Y231167D01*
X385585Y230588D01*
X385533Y230536D01*
X385522Y230522D01*
X385508Y230511D01*
X385394Y230367D01*
X385278Y230225D01*
X385270Y230209D01*
X385259Y230195D01*
X385176Y230031D01*
X385090Y229869D01*
X385085Y229852D01*
X385077Y229836D01*
X385027Y229659D01*
X384975Y229483D01*
X384973Y229465D01*
X384969Y229448D01*
X384955Y229266D01*
X384939Y229082D01*
X384941Y229064D01*
X384939Y229047D01*
X384962Y228866D01*
X384982Y228682D01*
X384987Y228665D01*
X384990Y228647D01*
X385048Y228473D01*
X385103Y228298D01*
X385112Y228282D01*
X385118Y228265D01*
X385210Y228106D01*
X385298Y227946D01*
X385310Y227932D01*
X385319Y227917D01*
X385534Y227664D01*
X385585Y227612D01*
X385920Y227033D01*
X386093Y226387D01*
X386093Y224781D01*
X375423Y224781D01*
G37*
%LPD*%
%LPC*%
G36*
X375423Y123181D02*
X375423Y123181D01*
X375423Y131819D01*
X386093Y131819D01*
X386093Y130213D01*
X385920Y129567D01*
X385585Y128988D01*
X385534Y128936D01*
X385522Y128923D01*
X385509Y128911D01*
X385395Y128767D01*
X385278Y128625D01*
X385270Y128609D01*
X385259Y128595D01*
X385176Y128431D01*
X385090Y128269D01*
X385085Y128252D01*
X385077Y128236D01*
X385027Y128059D01*
X384975Y127883D01*
X384973Y127866D01*
X384969Y127848D01*
X384955Y127665D01*
X384939Y127482D01*
X384941Y127465D01*
X384939Y127447D01*
X384962Y127264D01*
X384982Y127082D01*
X384987Y127065D01*
X384990Y127047D01*
X385048Y126873D01*
X385103Y126698D01*
X385112Y126683D01*
X385118Y126666D01*
X385209Y126507D01*
X385298Y126346D01*
X385310Y126332D01*
X385319Y126317D01*
X385533Y126064D01*
X385585Y126012D01*
X385920Y125433D01*
X386093Y124787D01*
X386093Y123181D01*
X375423Y123181D01*
G37*
%LPD*%
%LPC*%
G36*
X375423Y186681D02*
X375423Y186681D01*
X375423Y195319D01*
X386093Y195319D01*
X386093Y193713D01*
X385920Y193067D01*
X385585Y192488D01*
X385534Y192436D01*
X385522Y192423D01*
X385509Y192411D01*
X385395Y192267D01*
X385278Y192125D01*
X385270Y192109D01*
X385259Y192095D01*
X385176Y191931D01*
X385090Y191769D01*
X385085Y191752D01*
X385077Y191736D01*
X385027Y191559D01*
X384975Y191383D01*
X384973Y191366D01*
X384969Y191348D01*
X384955Y191165D01*
X384939Y190982D01*
X384941Y190965D01*
X384939Y190947D01*
X384962Y190764D01*
X384982Y190582D01*
X384987Y190565D01*
X384990Y190547D01*
X385048Y190373D01*
X385103Y190198D01*
X385112Y190183D01*
X385118Y190166D01*
X385209Y190007D01*
X385298Y189846D01*
X385310Y189832D01*
X385319Y189817D01*
X385533Y189564D01*
X385585Y189512D01*
X385920Y188933D01*
X386093Y188287D01*
X386093Y186681D01*
X375423Y186681D01*
G37*
%LPD*%
%LPC*%
G36*
X360691Y123181D02*
X360691Y123181D01*
X360691Y124787D01*
X360864Y125433D01*
X361199Y126012D01*
X361251Y126064D01*
X361262Y126078D01*
X361276Y126089D01*
X361390Y126233D01*
X361506Y126375D01*
X361514Y126391D01*
X361525Y126405D01*
X361608Y126569D01*
X361694Y126731D01*
X361699Y126748D01*
X361707Y126764D01*
X361757Y126941D01*
X361809Y127117D01*
X361811Y127135D01*
X361815Y127152D01*
X361829Y127334D01*
X361845Y127518D01*
X361843Y127536D01*
X361845Y127553D01*
X361822Y127734D01*
X361802Y127918D01*
X361797Y127935D01*
X361794Y127953D01*
X361736Y128127D01*
X361681Y128302D01*
X361672Y128318D01*
X361666Y128335D01*
X361574Y128494D01*
X361486Y128654D01*
X361474Y128668D01*
X361465Y128683D01*
X361250Y128936D01*
X361199Y128988D01*
X360864Y129567D01*
X360691Y130213D01*
X360691Y131819D01*
X371361Y131819D01*
X371361Y123181D01*
X360691Y123181D01*
G37*
%LPD*%
%LPC*%
G36*
X360691Y186681D02*
X360691Y186681D01*
X360691Y188287D01*
X360864Y188933D01*
X361199Y189512D01*
X361251Y189564D01*
X361262Y189578D01*
X361276Y189589D01*
X361390Y189733D01*
X361506Y189875D01*
X361514Y189891D01*
X361525Y189905D01*
X361608Y190069D01*
X361694Y190231D01*
X361699Y190248D01*
X361707Y190264D01*
X361757Y190441D01*
X361809Y190617D01*
X361811Y190635D01*
X361815Y190652D01*
X361829Y190834D01*
X361845Y191018D01*
X361843Y191036D01*
X361845Y191053D01*
X361822Y191234D01*
X361802Y191418D01*
X361797Y191435D01*
X361794Y191453D01*
X361736Y191627D01*
X361681Y191802D01*
X361672Y191818D01*
X361666Y191835D01*
X361574Y191994D01*
X361486Y192154D01*
X361474Y192168D01*
X361465Y192183D01*
X361250Y192436D01*
X361199Y192488D01*
X360864Y193067D01*
X360691Y193713D01*
X360691Y195319D01*
X371361Y195319D01*
X371361Y186681D01*
X360691Y186681D01*
G37*
%LPD*%
%LPC*%
G36*
X360691Y224781D02*
X360691Y224781D01*
X360691Y226387D01*
X360864Y227033D01*
X361199Y227612D01*
X361250Y227664D01*
X361262Y227677D01*
X361275Y227689D01*
X361389Y227833D01*
X361506Y227975D01*
X361514Y227991D01*
X361525Y228005D01*
X361608Y228169D01*
X361694Y228331D01*
X361699Y228348D01*
X361707Y228364D01*
X361757Y228541D01*
X361809Y228717D01*
X361811Y228734D01*
X361815Y228752D01*
X361829Y228935D01*
X361845Y229118D01*
X361843Y229135D01*
X361845Y229153D01*
X361822Y229336D01*
X361802Y229518D01*
X361797Y229535D01*
X361794Y229553D01*
X361736Y229727D01*
X361681Y229902D01*
X361672Y229917D01*
X361666Y229934D01*
X361575Y230093D01*
X361486Y230254D01*
X361474Y230268D01*
X361465Y230283D01*
X361251Y230536D01*
X361199Y230588D01*
X360864Y231167D01*
X360691Y231813D01*
X360691Y233419D01*
X371361Y233419D01*
X371361Y224781D01*
X360691Y224781D01*
G37*
%LPD*%
%LPC*%
G36*
X360691Y135881D02*
X360691Y135881D01*
X360691Y137487D01*
X360864Y138133D01*
X361199Y138712D01*
X361250Y138764D01*
X361262Y138777D01*
X361275Y138789D01*
X361389Y138933D01*
X361506Y139075D01*
X361514Y139091D01*
X361525Y139105D01*
X361608Y139269D01*
X361694Y139431D01*
X361699Y139448D01*
X361707Y139464D01*
X361757Y139641D01*
X361809Y139817D01*
X361811Y139834D01*
X361815Y139852D01*
X361829Y140035D01*
X361845Y140218D01*
X361843Y140235D01*
X361845Y140253D01*
X361822Y140436D01*
X361802Y140618D01*
X361797Y140635D01*
X361794Y140653D01*
X361736Y140827D01*
X361681Y141002D01*
X361672Y141017D01*
X361666Y141034D01*
X361575Y141193D01*
X361486Y141354D01*
X361474Y141368D01*
X361465Y141383D01*
X361251Y141636D01*
X361199Y141688D01*
X360864Y142267D01*
X360691Y142913D01*
X360691Y144519D01*
X371361Y144519D01*
X371361Y135881D01*
X360691Y135881D01*
G37*
%LPD*%
%LPC*%
G36*
X360691Y148581D02*
X360691Y148581D01*
X360691Y150187D01*
X360864Y150833D01*
X361199Y151412D01*
X361250Y151464D01*
X361262Y151477D01*
X361275Y151489D01*
X361389Y151633D01*
X361506Y151775D01*
X361514Y151791D01*
X361525Y151805D01*
X361608Y151969D01*
X361694Y152131D01*
X361699Y152148D01*
X361707Y152164D01*
X361757Y152341D01*
X361809Y152517D01*
X361811Y152534D01*
X361815Y152552D01*
X361829Y152735D01*
X361845Y152918D01*
X361843Y152935D01*
X361845Y152953D01*
X361822Y153136D01*
X361802Y153318D01*
X361797Y153335D01*
X361794Y153353D01*
X361736Y153527D01*
X361681Y153702D01*
X361672Y153717D01*
X361666Y153734D01*
X361575Y153893D01*
X361486Y154054D01*
X361474Y154068D01*
X361465Y154083D01*
X361251Y154336D01*
X361199Y154388D01*
X360864Y154967D01*
X360691Y155613D01*
X360691Y157219D01*
X371361Y157219D01*
X371361Y148581D01*
X360691Y148581D01*
G37*
%LPD*%
%LPC*%
G36*
X360691Y110481D02*
X360691Y110481D01*
X360691Y112087D01*
X360864Y112733D01*
X361199Y113312D01*
X361250Y113364D01*
X361262Y113377D01*
X361275Y113389D01*
X361389Y113533D01*
X361506Y113675D01*
X361514Y113691D01*
X361525Y113705D01*
X361608Y113869D01*
X361694Y114031D01*
X361699Y114048D01*
X361707Y114064D01*
X361757Y114241D01*
X361809Y114417D01*
X361811Y114434D01*
X361815Y114452D01*
X361829Y114635D01*
X361845Y114818D01*
X361843Y114835D01*
X361845Y114853D01*
X361822Y115036D01*
X361802Y115218D01*
X361797Y115235D01*
X361794Y115253D01*
X361736Y115427D01*
X361681Y115602D01*
X361672Y115617D01*
X361666Y115634D01*
X361575Y115793D01*
X361486Y115954D01*
X361474Y115968D01*
X361465Y115983D01*
X361251Y116236D01*
X361199Y116288D01*
X360864Y116867D01*
X360691Y117513D01*
X360691Y119119D01*
X371361Y119119D01*
X371361Y110481D01*
X360691Y110481D01*
G37*
%LPD*%
%LPC*%
G36*
X360691Y237481D02*
X360691Y237481D01*
X360691Y239087D01*
X360864Y239733D01*
X361199Y240312D01*
X361250Y240364D01*
X361262Y240377D01*
X361275Y240389D01*
X361389Y240533D01*
X361506Y240675D01*
X361514Y240691D01*
X361525Y240705D01*
X361608Y240869D01*
X361694Y241031D01*
X361699Y241048D01*
X361707Y241064D01*
X361757Y241241D01*
X361809Y241417D01*
X361811Y241434D01*
X361815Y241452D01*
X361829Y241635D01*
X361845Y241818D01*
X361843Y241835D01*
X361845Y241853D01*
X361822Y242036D01*
X361802Y242218D01*
X361797Y242235D01*
X361794Y242253D01*
X361736Y242427D01*
X361681Y242602D01*
X361672Y242617D01*
X361666Y242634D01*
X361575Y242793D01*
X361486Y242954D01*
X361474Y242968D01*
X361465Y242983D01*
X361251Y243236D01*
X361199Y243288D01*
X360864Y243867D01*
X360691Y244513D01*
X360691Y246119D01*
X371361Y246119D01*
X371361Y237481D01*
X360691Y237481D01*
G37*
%LPD*%
%LPC*%
G36*
X360691Y212081D02*
X360691Y212081D01*
X360691Y213687D01*
X360864Y214333D01*
X361199Y214912D01*
X361250Y214964D01*
X361262Y214977D01*
X361275Y214989D01*
X361389Y215133D01*
X361506Y215275D01*
X361514Y215291D01*
X361525Y215305D01*
X361608Y215469D01*
X361694Y215631D01*
X361699Y215648D01*
X361707Y215664D01*
X361757Y215841D01*
X361809Y216017D01*
X361811Y216034D01*
X361815Y216052D01*
X361829Y216235D01*
X361845Y216418D01*
X361843Y216435D01*
X361845Y216453D01*
X361822Y216636D01*
X361802Y216818D01*
X361797Y216835D01*
X361794Y216853D01*
X361736Y217027D01*
X361681Y217202D01*
X361672Y217217D01*
X361666Y217234D01*
X361575Y217393D01*
X361486Y217554D01*
X361474Y217568D01*
X361465Y217583D01*
X361251Y217836D01*
X361199Y217888D01*
X360864Y218467D01*
X360691Y219113D01*
X360691Y220719D01*
X371361Y220719D01*
X371361Y212081D01*
X360691Y212081D01*
G37*
%LPD*%
%LPC*%
G36*
X360691Y199381D02*
X360691Y199381D01*
X360691Y200987D01*
X360864Y201633D01*
X361199Y202212D01*
X361250Y202264D01*
X361262Y202277D01*
X361275Y202289D01*
X361389Y202433D01*
X361506Y202575D01*
X361514Y202591D01*
X361525Y202605D01*
X361608Y202769D01*
X361694Y202931D01*
X361699Y202948D01*
X361707Y202964D01*
X361757Y203141D01*
X361809Y203317D01*
X361811Y203334D01*
X361815Y203352D01*
X361829Y203535D01*
X361845Y203718D01*
X361843Y203735D01*
X361845Y203753D01*
X361822Y203936D01*
X361802Y204118D01*
X361797Y204135D01*
X361794Y204153D01*
X361736Y204327D01*
X361681Y204502D01*
X361672Y204517D01*
X361666Y204534D01*
X361575Y204693D01*
X361486Y204854D01*
X361474Y204868D01*
X361465Y204883D01*
X361251Y205136D01*
X361199Y205188D01*
X360864Y205767D01*
X360691Y206413D01*
X360691Y208019D01*
X371361Y208019D01*
X371361Y199381D01*
X360691Y199381D01*
G37*
%LPD*%
%LPC*%
G36*
X109131Y346331D02*
X109131Y346331D01*
X109131Y354841D01*
X112434Y354841D01*
X113081Y354668D01*
X113660Y354333D01*
X114133Y353860D01*
X114468Y353281D01*
X114641Y352634D01*
X114641Y346331D01*
X109131Y346331D01*
G37*
%LPD*%
%LPC*%
G36*
X109131Y333759D02*
X109131Y333759D01*
X109131Y342269D01*
X114641Y342269D01*
X114641Y335966D01*
X114468Y335319D01*
X114133Y334740D01*
X113660Y334267D01*
X113081Y333932D01*
X112434Y333759D01*
X109131Y333759D01*
G37*
%LPD*%
%LPC*%
G36*
X99559Y346331D02*
X99559Y346331D01*
X99559Y352634D01*
X99732Y353281D01*
X100067Y353860D01*
X100540Y354333D01*
X101119Y354668D01*
X101766Y354841D01*
X105069Y354841D01*
X105069Y346331D01*
X99559Y346331D01*
G37*
%LPD*%
%LPC*%
G36*
X101766Y333759D02*
X101766Y333759D01*
X101119Y333932D01*
X100540Y334267D01*
X100067Y334740D01*
X99732Y335319D01*
X99559Y335966D01*
X99559Y342269D01*
X105069Y342269D01*
X105069Y333759D01*
X101766Y333759D01*
G37*
%LPD*%
%LPC*%
G36*
X217377Y190477D02*
X217377Y190477D01*
X217377Y197591D01*
X219283Y197591D01*
X224491Y192383D01*
X224491Y190477D01*
X217377Y190477D01*
G37*
%LPD*%
%LPC*%
G36*
X163877Y239577D02*
X163877Y239577D01*
X163877Y246691D01*
X165783Y246691D01*
X170991Y241483D01*
X170991Y239577D01*
X163877Y239577D01*
G37*
%LPD*%
%LPC*%
G36*
X153209Y239577D02*
X153209Y239577D01*
X153209Y241483D01*
X158417Y246691D01*
X160323Y246691D01*
X160323Y239577D01*
X153209Y239577D01*
G37*
%LPD*%
%LPC*%
G36*
X206709Y190477D02*
X206709Y190477D01*
X206709Y192383D01*
X211917Y197591D01*
X213823Y197591D01*
X213823Y190477D01*
X206709Y190477D01*
G37*
%LPD*%
%LPC*%
G36*
X163877Y228909D02*
X163877Y228909D01*
X163877Y236023D01*
X170991Y236023D01*
X170991Y234117D01*
X165783Y228909D01*
X163877Y228909D01*
G37*
%LPD*%
%LPC*%
G36*
X217377Y179809D02*
X217377Y179809D01*
X217377Y186923D01*
X224491Y186923D01*
X224491Y185017D01*
X219283Y179809D01*
X217377Y179809D01*
G37*
%LPD*%
%LPC*%
G36*
X211917Y179809D02*
X211917Y179809D01*
X206709Y185017D01*
X206709Y186923D01*
X213823Y186923D01*
X213823Y179809D01*
X211917Y179809D01*
G37*
%LPD*%
%LPC*%
G36*
X158417Y228909D02*
X158417Y228909D01*
X153209Y234117D01*
X153209Y236023D01*
X160323Y236023D01*
X160323Y228909D01*
X158417Y228909D01*
G37*
%LPD*%
%LPC*%
G36*
X271231Y62831D02*
X271231Y62831D01*
X271231Y68841D01*
X274534Y68841D01*
X275181Y68668D01*
X275760Y68333D01*
X276233Y67860D01*
X276568Y67281D01*
X276741Y66634D01*
X276741Y62831D01*
X271231Y62831D01*
G37*
%LPD*%
%LPC*%
G36*
X271231Y52759D02*
X271231Y52759D01*
X271231Y58769D01*
X276741Y58769D01*
X276741Y54966D01*
X276568Y54319D01*
X276233Y53740D01*
X275760Y53267D01*
X275181Y52932D01*
X274534Y52759D01*
X271231Y52759D01*
G37*
%LPD*%
%LPC*%
G36*
X279931Y335831D02*
X279931Y335831D01*
X279931Y342437D01*
X281477Y342437D01*
X286537Y337377D01*
X286537Y335831D01*
X279931Y335831D01*
G37*
%LPD*%
%LPC*%
G36*
X279931Y325163D02*
X279931Y325163D01*
X279931Y331769D01*
X286537Y331769D01*
X286537Y330223D01*
X281477Y325163D01*
X279931Y325163D01*
G37*
%LPD*%
%LPC*%
G36*
X274323Y325163D02*
X274323Y325163D01*
X269263Y330223D01*
X269263Y331769D01*
X275869Y331769D01*
X275869Y325163D01*
X274323Y325163D01*
G37*
%LPD*%
%LPC*%
G36*
X100674Y252874D02*
X100674Y252874D01*
X100674Y260041D01*
X102384Y260041D01*
X103031Y259868D01*
X103610Y259533D01*
X104083Y259060D01*
X104418Y258481D01*
X104591Y257834D01*
X104591Y252874D01*
X100674Y252874D01*
G37*
%LPD*%
%LPC*%
G36*
X100674Y242959D02*
X100674Y242959D01*
X100674Y250126D01*
X104591Y250126D01*
X104591Y245166D01*
X104418Y244519D01*
X104083Y243940D01*
X103610Y243467D01*
X103031Y243132D01*
X102384Y242959D01*
X100674Y242959D01*
G37*
%LPD*%
%LPC*%
G36*
X94009Y252874D02*
X94009Y252874D01*
X94009Y257834D01*
X94182Y258481D01*
X94517Y259060D01*
X94990Y259533D01*
X95569Y259868D01*
X96216Y260041D01*
X97926Y260041D01*
X97926Y252874D01*
X94009Y252874D01*
G37*
%LPD*%
%LPC*%
G36*
X96216Y242959D02*
X96216Y242959D01*
X95569Y243132D01*
X94990Y243467D01*
X94517Y243940D01*
X94182Y244519D01*
X94009Y245166D01*
X94009Y250126D01*
X97926Y250126D01*
X97926Y242959D01*
X96216Y242959D01*
G37*
%LPD*%
%LPC*%
G36*
X97899Y165699D02*
X97899Y165699D01*
X97899Y165701D01*
X97901Y165701D01*
X97901Y165699D01*
X97899Y165699D01*
G37*
%LPD*%
%LPC*%
G36*
X395599Y407799D02*
X395599Y407799D01*
X395599Y407801D01*
X395601Y407801D01*
X395601Y407799D01*
X395599Y407799D01*
G37*
%LPD*%
%LPC*%
G36*
X277899Y333799D02*
X277899Y333799D01*
X277899Y333801D01*
X277901Y333801D01*
X277901Y333799D01*
X277899Y333799D01*
G37*
%LPD*%
%LPC*%
G36*
X349599Y66199D02*
X349599Y66199D01*
X349599Y66201D01*
X349601Y66201D01*
X349601Y66199D01*
X349599Y66199D01*
G37*
%LPD*%
%LPC*%
G36*
X91399Y288499D02*
X91399Y288499D01*
X91399Y288501D01*
X91401Y288501D01*
X91401Y288499D01*
X91399Y288499D01*
G37*
%LPD*%
%LPC*%
G36*
X107099Y344299D02*
X107099Y344299D01*
X107099Y344301D01*
X107101Y344301D01*
X107101Y344299D01*
X107099Y344299D01*
G37*
%LPD*%
D10*
X40600Y280880D02*
X40600Y296120D01*
X66000Y296120D02*
X66000Y280880D01*
X91400Y280880D02*
X91400Y296120D01*
D11*
X80300Y225500D03*
X89800Y225500D03*
X99300Y225500D03*
X99300Y251500D03*
X80300Y251500D03*
D12*
X31500Y326600D03*
X133100Y326600D03*
D13*
X72500Y173200D02*
X72500Y158200D01*
X97900Y158200D02*
X97900Y173200D01*
X123300Y173200D02*
X123300Y158200D01*
D14*
X131880Y89910D03*
D15*
X157280Y102150D03*
D14*
X131880Y64430D03*
X157280Y76670D03*
X131880Y38950D03*
X157280Y51190D03*
D16*
X269200Y60800D03*
X252200Y60800D03*
X252200Y39500D03*
X269200Y39500D03*
D17*
X349600Y66200D03*
X375000Y66200D03*
X400400Y66200D03*
X421355Y320835D03*
X328645Y320200D03*
D15*
X310100Y197200D03*
D18*
X309500Y178400D03*
X309500Y159400D03*
D17*
X370600Y376100D03*
X396000Y376100D03*
D19*
X421400Y376100D03*
X446800Y376100D03*
X472200Y376100D03*
D13*
X446400Y400300D02*
X446400Y415300D01*
X421000Y415300D02*
X421000Y400300D01*
X395600Y400300D02*
X395600Y415300D01*
D20*
X215600Y163300D03*
X215600Y188700D03*
D21*
X136700Y237800D03*
X162100Y237800D03*
D22*
X84300Y417300D03*
D23*
X61500Y344300D03*
X107100Y344300D03*
D16*
X41900Y247200D03*
X58900Y247200D03*
D24*
X27400Y226600D03*
X27400Y209600D03*
D25*
X373392Y108450D03*
X373392Y121150D03*
X373392Y133850D03*
X373392Y146550D03*
X373392Y159250D03*
X373392Y171950D03*
X373392Y184650D03*
X373392Y197350D03*
X272808Y197350D03*
X272808Y184650D03*
X272808Y171950D03*
X272808Y159250D03*
X272808Y146550D03*
X272808Y133850D03*
X272808Y121150D03*
X272808Y108450D03*
X272808Y210050D03*
X272808Y222750D03*
X272808Y235450D03*
X272808Y248150D03*
X373392Y210050D03*
X373392Y222750D03*
X373392Y235450D03*
X373392Y248150D03*
D16*
X534400Y386400D03*
X551400Y386400D03*
D26*
X526600Y414500D03*
X526600Y435500D03*
X163000Y281100D03*
X142000Y281100D03*
X159700Y166800D03*
X159700Y145800D03*
D27*
X173300Y202500D03*
D13*
X366100Y310100D02*
X366100Y325100D01*
X391500Y325100D02*
X391500Y310100D01*
D28*
X188900Y125100D03*
X214300Y125100D03*
X188900Y99700D03*
X214300Y99700D03*
X188900Y74300D03*
X214300Y74300D03*
X188900Y48900D03*
X214300Y48900D03*
X188900Y23500D03*
X214300Y23500D03*
D29*
X277900Y359200D03*
X277900Y333800D03*
X278300Y308800D03*
D30*
X450600Y325500D03*
X330600Y34500D03*
D31*
X286600Y54900D02*
X269200Y60800D01*
D32*
X91500Y264700D02*
X91400Y288500D01*
X99300Y253500D02*
X99300Y251500D01*
X99300Y253500D02*
X91500Y264700D01*
X521100Y386400D02*
X534400Y386400D01*
X499700Y380200D02*
X499000Y380200D01*
X521100Y386400D01*
D33*
X180000Y86600D02*
X157280Y76670D01*
D34*
X180000Y86600D02*
X203000Y87000D01*
D33*
X214200Y75300D02*
X214300Y74300D01*
X214200Y75300D02*
X203000Y87000D01*
D31*
X279000Y387200D02*
X279400Y387100D01*
D35*
X286600Y54900D03*
X301100Y300300D03*
X303100Y282500D03*
X304600Y265400D03*
X304600Y244800D03*
X305100Y229200D03*
X305600Y140800D03*
X305600Y126700D03*
X304300Y111600D03*
X304600Y95600D03*
X313900Y84300D03*
X333600Y83200D03*
X388000Y84000D03*
X362300Y83400D03*
X321000Y69100D03*
X406600Y83800D03*
X421000Y73500D03*
X420400Y57500D03*
X384200Y43000D03*
X251600Y201800D03*
X251600Y240400D03*
X246300Y145200D03*
X264700Y291000D03*
X220900Y284900D03*
X317900Y404800D03*
X336300Y437400D03*
X493600Y440100D03*
X432600Y442700D03*
X501400Y356400D03*
X475800Y355500D03*
X456100Y356800D03*
X344900Y381100D03*
X317900Y381900D03*
X499700Y380200D03*
D36*
X244000Y427000D03*
D35*
X252300Y395100D03*
X240800Y381700D03*
X279000Y387200D03*
X260200Y355000D03*
X240100Y325200D03*
X249800Y339900D03*
X232000Y309900D03*
X212700Y337000D03*
X203000Y320000D03*
X194800Y306000D03*
X114700Y261400D03*
X114700Y244000D03*
X12500Y260800D03*
X178900Y178100D03*
X11500Y241200D03*
X287200Y25800D03*
X249200Y10000D03*
X240200Y90000D03*
X240000Y104200D03*
X251400Y127700D03*
X220200Y142900D03*
X460000Y442000D03*
X179100Y152000D03*
X86800Y186300D03*
X53800Y165600D03*
X24100Y109300D03*
D37*
X61400Y323800D02*
X61500Y344300D01*
X61400Y323800D02*
X41400Y297000D01*
X40600Y288500D02*
X40790Y280902D01*
X40800Y280500D01*
X41400Y297000D01*
D31*
X27500Y235600D02*
X27400Y226600D01*
X27500Y235600D02*
X33800Y246900D01*
X41800Y246600D02*
X41900Y247200D01*
X41800Y246600D02*
X33800Y246900D01*
D38*
X41900Y247200D02*
X41600Y257600D01*
X41000Y264000D01*
D31*
X40700Y280900D02*
X40790Y280902D01*
D38*
X40700Y280900D02*
X41000Y264000D01*
D31*
X293900Y224100D02*
X310100Y197200D01*
X293900Y224100D02*
X293247Y262689D01*
X291900Y275500D01*
X278300Y308800D01*
X232300Y136300D02*
X250200Y107800D01*
X232300Y136300D02*
X234600Y163000D01*
X233200Y188500D01*
X233400Y252000D01*
X238800Y264800D01*
X257900Y264400D02*
X260400Y264900D01*
X293247Y262689D02*
X292400Y273200D01*
X257900Y264400D01*
X288500Y320700D02*
X295400Y327000D01*
X302900Y340900D01*
X306500Y373600D02*
X328800Y361700D01*
X415700Y361300D01*
X421400Y376100D02*
X422900Y375900D01*
X415700Y361300D01*
X400400Y66200D02*
X394300Y14300D01*
X273800Y13800D02*
X257200Y23000D01*
X273800Y13800D02*
X318800Y10700D01*
X340600Y10500D01*
X394300Y14300D01*
X250100Y83400D02*
X241500Y78600D01*
X250100Y83400D02*
X250200Y107800D01*
D34*
X215700Y163200D02*
X215600Y163300D01*
X215700Y163200D02*
X234600Y163000D01*
D31*
X519700Y454200D02*
X526800Y448400D01*
X519700Y454200D02*
X446600Y454400D01*
X446400Y407800D02*
X446600Y407100D01*
X446600Y454400D01*
X224611Y62191D02*
X223900Y61500D01*
X224611Y62191D02*
X241500Y78600D01*
X173000Y61500D02*
X157280Y51190D01*
X224611Y62191D02*
X224700Y62100D01*
X173000Y61500D01*
X250900Y24000D02*
X257200Y23000D01*
X250900Y24000D02*
X244300Y22900D01*
X526600Y435300D02*
X526600Y435500D01*
X526600Y435300D02*
X526800Y448400D01*
X288500Y320700D02*
X278300Y308800D01*
D35*
X238800Y264800D03*
X260400Y264900D03*
X302900Y340900D03*
X306500Y373600D03*
X244300Y22900D03*
D31*
X269200Y39500D02*
X304800Y36500D01*
X307300Y56100D01*
X325100Y55500D01*
X334700Y55500D01*
X349000Y48100D01*
X369900Y48300D01*
X376100Y65500D02*
X375000Y66200D01*
X376100Y65500D02*
X369900Y48300D01*
X246400Y291000D02*
X258000Y331700D01*
X239800Y249600D02*
X239000Y188400D01*
X239800Y249600D02*
X248300Y256700D01*
X249100Y264500D01*
X246400Y291000D01*
X239000Y188400D02*
X252200Y184200D01*
X267600Y184300D01*
X302100Y178600D02*
X302494Y178589D01*
X309500Y178400D01*
X302100Y178600D02*
X288300Y184100D01*
X302854Y63583D02*
X307300Y56100D01*
X290300Y91700D02*
X293000Y107100D01*
X292500Y154800D01*
X292900Y169300D01*
X302494Y178589D02*
X302500Y178800D01*
X292900Y169300D01*
X316700Y355800D02*
X316900Y355800D01*
X437100Y355800D01*
X447100Y375300D02*
X446800Y376100D01*
X447100Y375300D02*
X437100Y355800D01*
X447700Y375500D02*
X446800Y376100D01*
X447700Y375500D02*
X421000Y407800D01*
X302854Y63583D02*
X293400Y66400D01*
X290300Y91700D01*
X272900Y184400D02*
X272808Y184650D01*
X272900Y184400D02*
X267600Y184300D01*
X288200Y184000D02*
X288300Y184100D01*
X288200Y184000D02*
X272808Y184650D01*
X290300Y91700D02*
X289500Y90000D01*
X278300Y358700D02*
X277900Y359200D01*
X278300Y358700D02*
X258000Y331700D01*
X316900Y355600D02*
X316900Y355800D01*
X316900Y355600D02*
X278300Y358700D01*
D35*
X289500Y90000D03*
D39*
X517800Y230100D03*
D35*
X458600Y270800D03*
X452200Y259800D03*
X449400Y244400D03*
X450400Y230700D03*
X452800Y218600D03*
X458600Y205900D03*
X469700Y280500D03*
X481200Y287000D03*
X495200Y293500D03*
X508400Y299000D03*
X522600Y305500D03*
X535100Y311700D03*
X549600Y317800D03*
X587800Y317400D03*
X589600Y277100D03*
X588100Y262400D03*
X586200Y249500D03*
X583800Y234900D03*
X580000Y220700D03*
X575900Y208600D03*
X467200Y196600D03*
X570800Y197700D03*
D40*
X567000Y296300D03*
D35*
X478800Y186500D03*
X494900Y186800D03*
X509000Y186200D03*
X523800Y185900D03*
X537900Y185600D03*
X551900Y186500D03*
X563200Y188900D03*
D39*
X518400Y127000D03*
D35*
X453600Y96100D03*
X450200Y109200D03*
X448200Y122900D03*
X447200Y138700D03*
X450600Y155200D03*
X457400Y166000D03*
X470100Y171700D03*
X462500Y84500D03*
X472700Y72200D03*
X490000Y67300D03*
X504700Y60000D03*
X518900Y54900D03*
X532300Y50000D03*
X545500Y45000D03*
X553700Y172500D03*
X487800Y172400D03*
X588200Y89300D03*
X587200Y106000D03*
X585200Y121500D03*
X583300Y135100D03*
X581300Y148800D03*
X577900Y162700D03*
X568000Y170900D03*
D40*
X570800Y66200D03*
D35*
X588800Y44800D03*
X501500Y172700D03*
X515200Y173000D03*
X528900Y172700D03*
X541100Y173000D03*
X558900Y39500D03*
X574500Y40400D03*
D33*
X123300Y165700D02*
X131300Y192900D01*
X133800Y213000D01*
X132400Y232000D01*
X136700Y237800D02*
X136700Y239200D01*
X132400Y232000D01*
D31*
X89800Y225500D02*
X89600Y215700D01*
X90500Y211400D01*
X136600Y237900D02*
X136700Y237800D01*
D38*
X136600Y237900D02*
X108100Y212200D01*
D31*
X126900Y281100D02*
X142000Y281100D01*
D32*
X137300Y238200D02*
X136700Y237800D01*
X137300Y238200D02*
X173300Y202500D01*
D35*
X90500Y211400D03*
X108100Y212200D03*
X106600Y200600D03*
X126900Y281100D03*
D36*
X195200Y375000D03*
D41*
X157500Y427400D02*
X155600Y428000D01*
X84300Y417300D01*
D36*
X157500Y427400D03*
D33*
X104300Y114800D02*
X100600Y37900D01*
X104300Y114800D02*
X91500Y134800D01*
D31*
X72500Y165700D02*
X72700Y166000D01*
D33*
X73000Y148300D02*
X91500Y134800D01*
X73000Y148300D02*
X72700Y166000D01*
D35*
X100600Y37900D03*
D31*
X159700Y166800D02*
X159600Y181100D01*
D35*
X159600Y181100D03*
D31*
X163000Y281100D02*
X172400Y280700D01*
X179400Y277100D01*
D35*
X179400Y277100D03*
D31*
X527600Y405700D02*
X526600Y414500D01*
X527600Y405700D02*
X551400Y405500D01*
X551400Y386400D02*
X551500Y385900D01*
X551400Y405500D01*
D35*
X115100Y52600D03*
X87500Y51600D03*
D32*
X54600Y226500D02*
X59000Y236200D01*
X59300Y247100D02*
X58900Y247200D01*
X59300Y247100D02*
X59000Y236200D01*
X80300Y251500D02*
X80100Y259600D01*
X59700Y259900D01*
D31*
X59600Y247200D02*
X58900Y247200D01*
D32*
X59600Y247200D02*
X59700Y259900D01*
D35*
X54600Y226500D03*
D31*
X25500Y178700D02*
X43100Y135100D01*
X99300Y225500D02*
X99800Y225500D01*
X27400Y209600D02*
X27500Y209000D01*
X26220Y189612D02*
X25500Y178700D01*
X26220Y189612D02*
X27500Y209000D01*
X99600Y215600D02*
X99300Y225500D01*
X99600Y215600D02*
X98600Y203600D01*
X90500Y199900D01*
X36300Y197800D01*
X26400Y189600D02*
X26220Y189612D01*
X26400Y189600D02*
X36300Y197800D01*
X34300Y177000D02*
X34400Y176800D01*
X25500Y178700D01*
X43100Y135100D02*
X47500Y88000D01*
X51300Y86200D01*
X177100Y113500D02*
X188900Y99700D01*
X177100Y113500D02*
X159500Y134200D01*
X159700Y145800D02*
X159600Y146900D01*
X159507Y135109D02*
X159500Y134200D01*
X159507Y135109D02*
X159600Y146900D01*
X137000Y118500D02*
X131880Y89910D01*
X159507Y135109D02*
X160600Y135100D01*
X137000Y118500D01*
D35*
X34300Y177000D03*
X51300Y86200D03*
D31*
X251500Y39200D02*
X252200Y39500D01*
X251500Y39200D02*
X231400Y36900D01*
X252000Y38500D02*
X252000Y43700D01*
X252000Y58700D01*
X252000Y62500D01*
X252000Y58700D02*
X250900Y58700D01*
X252200Y60800D01*
X252000Y43700D02*
X250900Y43700D01*
X252200Y39500D01*
X231400Y36900D02*
X195000Y36700D01*
X188900Y48900D02*
X188700Y49000D01*
X195000Y36700D01*
X143500Y49400D02*
X131880Y64430D01*
X143500Y49400D02*
X147100Y40900D01*
X155200Y37100D01*
X169600Y36900D01*
X188900Y48900D02*
X188900Y49400D01*
X169600Y36900D01*
D32*
X163400Y23700D02*
X188900Y23500D01*
X131880Y38950D02*
X131600Y39000D01*
X163400Y23700D01*
M02*
