M48
;GenerationSoftware,Autodesk,EAGLE,8.6.3*%
;CreationDate,2018-07-14T15:57:13Z*%
FMAT,2
ICI,OFF
METRIC,TZ,000.000
T15C0.600
T14C0.711
T13C0.800
T12C0.813
T11C0.889
T10C1.000
T9C1.016
T8C1.100
T7C1.200
T6C2.200
T5C3.000
T4C3.200
T3C3.600
T2C6.600
%
G90
M71
T2
X51840Y12700
X51780Y23010
T3
X24400Y42700
X19520Y37500
X15750Y42740
T4
X56700Y29630
X57080Y6620
X6820Y12069
X6820Y2041
X48140Y40910
X36140Y40910
T5
X19990Y23830
X2800Y7710
X51460Y2560
X2800Y43200
X57200Y43200
T6
X33060Y3450
X45060Y32550
T7
X34960Y6620
X37500Y6620
X40040Y6620
X42136Y32083
X32865Y32020
X47220Y37610
X44680Y37610
X42140Y37610
X39600Y37610
X37060Y37610
T8
X13188Y3895
T9
X4060Y28850
X9140Y28850
X6600Y28850
X18890Y7430
X21430Y2350
X21430Y9970
X18890Y9970
X21430Y12510
X18890Y2350
X18890Y12510
X21430Y4890
X21430Y7430
X18890Y4890
T10
X12330Y16570
X39150Y31760
X36610Y31760
X17330Y20250
X7250Y16570
X9790Y16570
X13188Y8991
X15728Y10215
X13188Y6443
X15728Y7667
X15728Y5119
X39560Y40780
X42100Y40780
X44640Y40780
T11
X13310Y32660
X3150Y32660
T12
X27790Y35920
X27830Y30880
X27790Y33380
T13
X30950Y17840
X31010Y19720
X30950Y15940
T14
X16210Y23780
X21560Y16330
X21560Y18870
X13670Y23780
T15
X58820Y8930
X47010Y17170
X56800Y17090
X57790Y16270
X58130Y14880
X58330Y13510
X46250Y8450
X58520Y12150
X58720Y10600
X48780Y17240
X55370Y17250
X47270Y7220
X49000Y6730
X54550Y4500
X53230Y5000
X50470Y6000
X51890Y5490
X12690Y28110
X44720Y13870
X5130Y8620
X3430Y17700
X5460Y22650
X8750Y5160
X11510Y5260
X17940Y27710
X15960Y18110
X10060Y3790
X58880Y4480
X10660Y20060
X10810Y21220
X9050Y21140
X57450Y4040
X55890Y3950
X54110Y17300
X52890Y17270
X51520Y17300
X50150Y17270
X24010Y32520
X49360Y44010
X43260Y44270
X50140Y35640
X47580Y35550
X45610Y35680
X34490Y38110
X31790Y38190
X49970Y38020
X25230Y39510
X24080Y38170
X27900Y38720
X26020Y35500
X33630Y43740
X24980Y33990
X23200Y30990
X21270Y33700
X20300Y32000
X19480Y30600
X11470Y26140
X11470Y24400
X1250Y26080
X17890Y17810
X1150Y24120
X28720Y2580
X36230Y8340
X30110Y30030
X30310Y28250
X30460Y26540
X30460Y24480
X30510Y22920
X30560Y14080
X30560Y12670
X30430Y11160
X30460Y9560
X31390Y8430
X33360Y8320
X38800Y8400
X24920Y1000
X32100Y6910
X40660Y8380
X42100Y7350
X42040Y5750
X38420Y4300
X25160Y20180
X25160Y24040
X24630Y14520
X26470Y29100
X22090Y28490
X31790Y40480
X47880Y18650
X52260Y30550
X53510Y31170
X54960Y31780
X58780Y31740
X58960Y27710
X58810Y26240
X58620Y24950
X58380Y23490
X58000Y22070
X57590Y20860
X46720Y19660
X57080Y19770
X50840Y29900
X49490Y18680
X50900Y18620
X52380Y18590
X53790Y18560
X55190Y18650
X56320Y18890
X45360Y9610
X45020Y10920
X44820Y12290
X28660Y5490
X45060Y15520
X30650Y37360
X24020Y9000
X24000Y10420
X25140Y12770
X22020Y14290
X46000Y44200
X17910Y15200
X8680Y18630
X5380Y16560
X2410Y10930
X23880Y26480
X26040Y26490
X30290Y34090
X45740Y16600
X24430Y2290
X28950Y9000
X45860Y27080
X45220Y25980
X44940Y24440
X45040Y23070
X45280Y21860
X45860Y20590
X46970Y28050
X48120Y28700
X49520Y29350
M30