G04 EAGLE Gerber X2 export*
%TF.Part,Single*%
%TF.FileFunction,Profile,NP*%
%TF.FilePolarity,Positive*%
%TF.GenerationSoftware,Autodesk,EAGLE,8.6.3*%
%TF.CreationDate,2018-07-14T15:57:14Z*%
G75*
%MOMM*%
%FSLAX34Y34*%
%LPD*%
%AMOC8*
5,1,8,0,0,1.08239X$1,22.5*%
G01*
%ADD10C,0.254000*%


D10*
X-100Y-200D02*
X599700Y-200D01*
X600000Y460000D01*
X100Y459900D01*
X-100Y-200D01*
X43000Y431464D02*
X42924Y430396D01*
X42771Y429335D01*
X42543Y428288D01*
X42241Y427260D01*
X41867Y426256D01*
X41422Y425281D01*
X40908Y424341D01*
X40329Y423440D01*
X39687Y422582D01*
X38985Y421772D01*
X38228Y421015D01*
X37418Y420313D01*
X36560Y419671D01*
X35659Y419092D01*
X34719Y418578D01*
X33744Y418133D01*
X32740Y417759D01*
X31712Y417457D01*
X30665Y417229D01*
X29604Y417076D01*
X28536Y417000D01*
X27464Y417000D01*
X26396Y417076D01*
X25335Y417229D01*
X24288Y417457D01*
X23260Y417759D01*
X22256Y418133D01*
X21281Y418578D01*
X20341Y419092D01*
X19440Y419671D01*
X18582Y420313D01*
X17772Y421015D01*
X17015Y421772D01*
X16313Y422582D01*
X15671Y423440D01*
X15092Y424341D01*
X14578Y425281D01*
X14133Y426256D01*
X13759Y427260D01*
X13457Y428288D01*
X13229Y429335D01*
X13076Y430396D01*
X13000Y431464D01*
X13000Y432536D01*
X13076Y433604D01*
X13229Y434665D01*
X13457Y435712D01*
X13759Y436740D01*
X14133Y437744D01*
X14578Y438719D01*
X15092Y439659D01*
X15671Y440560D01*
X16313Y441418D01*
X17015Y442228D01*
X17772Y442985D01*
X18582Y443687D01*
X19440Y444329D01*
X20341Y444908D01*
X21281Y445422D01*
X22256Y445867D01*
X23260Y446241D01*
X24288Y446543D01*
X25335Y446771D01*
X26396Y446924D01*
X27464Y447000D01*
X28536Y447000D01*
X29604Y446924D01*
X30665Y446771D01*
X31712Y446543D01*
X32740Y446241D01*
X33744Y445867D01*
X34719Y445422D01*
X35659Y444908D01*
X36560Y444329D01*
X37418Y443687D01*
X38228Y442985D01*
X38985Y442228D01*
X39687Y441418D01*
X40329Y440560D01*
X40908Y439659D01*
X41422Y438719D01*
X41867Y437744D01*
X42241Y436740D01*
X42543Y435712D01*
X42771Y434665D01*
X42924Y433604D01*
X43000Y432536D01*
X43000Y431464D01*
X587000Y431464D02*
X586924Y430396D01*
X586771Y429335D01*
X586543Y428288D01*
X586241Y427260D01*
X585867Y426256D01*
X585422Y425281D01*
X584908Y424341D01*
X584329Y423440D01*
X583687Y422582D01*
X582985Y421772D01*
X582228Y421015D01*
X581418Y420313D01*
X580560Y419671D01*
X579659Y419092D01*
X578719Y418578D01*
X577744Y418133D01*
X576740Y417759D01*
X575712Y417457D01*
X574665Y417229D01*
X573604Y417076D01*
X572536Y417000D01*
X571464Y417000D01*
X570396Y417076D01*
X569335Y417229D01*
X568288Y417457D01*
X567260Y417759D01*
X566256Y418133D01*
X565281Y418578D01*
X564341Y419092D01*
X563440Y419671D01*
X562582Y420313D01*
X561772Y421015D01*
X561015Y421772D01*
X560313Y422582D01*
X559671Y423440D01*
X559092Y424341D01*
X558578Y425281D01*
X558133Y426256D01*
X557759Y427260D01*
X557457Y428288D01*
X557229Y429335D01*
X557076Y430396D01*
X557000Y431464D01*
X557000Y432536D01*
X557076Y433604D01*
X557229Y434665D01*
X557457Y435712D01*
X557759Y436740D01*
X558133Y437744D01*
X558578Y438719D01*
X559092Y439659D01*
X559671Y440560D01*
X560313Y441418D01*
X561015Y442228D01*
X561772Y442985D01*
X562582Y443687D01*
X563440Y444329D01*
X564341Y444908D01*
X565281Y445422D01*
X566256Y445867D01*
X567260Y446241D01*
X568288Y446543D01*
X569335Y446771D01*
X570396Y446924D01*
X571464Y447000D01*
X572536Y447000D01*
X573604Y446924D01*
X574665Y446771D01*
X575712Y446543D01*
X576740Y446241D01*
X577744Y445867D01*
X578719Y445422D01*
X579659Y444908D01*
X580560Y444329D01*
X581418Y443687D01*
X582228Y442985D01*
X582985Y442228D01*
X583687Y441418D01*
X584329Y440560D01*
X584908Y439659D01*
X585422Y438719D01*
X585867Y437744D01*
X586241Y436740D01*
X586543Y435712D01*
X586771Y434665D01*
X586924Y433604D01*
X587000Y432536D01*
X587000Y431464D01*
X529600Y25064D02*
X529524Y23996D01*
X529371Y22935D01*
X529143Y21888D01*
X528841Y20860D01*
X528467Y19856D01*
X528022Y18881D01*
X527508Y17941D01*
X526929Y17040D01*
X526287Y16182D01*
X525585Y15372D01*
X524828Y14615D01*
X524018Y13913D01*
X523160Y13271D01*
X522259Y12692D01*
X521319Y12178D01*
X520344Y11733D01*
X519340Y11359D01*
X518312Y11057D01*
X517265Y10829D01*
X516204Y10676D01*
X515136Y10600D01*
X514064Y10600D01*
X512996Y10676D01*
X511935Y10829D01*
X510888Y11057D01*
X509860Y11359D01*
X508856Y11733D01*
X507881Y12178D01*
X506941Y12692D01*
X506040Y13271D01*
X505182Y13913D01*
X504372Y14615D01*
X503615Y15372D01*
X502913Y16182D01*
X502271Y17040D01*
X501692Y17941D01*
X501178Y18881D01*
X500733Y19856D01*
X500359Y20860D01*
X500057Y21888D01*
X499829Y22935D01*
X499676Y23996D01*
X499600Y25064D01*
X499600Y26136D01*
X499676Y27204D01*
X499829Y28265D01*
X500057Y29312D01*
X500359Y30340D01*
X500733Y31344D01*
X501178Y32319D01*
X501692Y33259D01*
X502271Y34160D01*
X502913Y35018D01*
X503615Y35828D01*
X504372Y36585D01*
X505182Y37287D01*
X506040Y37929D01*
X506941Y38508D01*
X507881Y39022D01*
X508856Y39467D01*
X509860Y39841D01*
X510888Y40143D01*
X511935Y40371D01*
X512996Y40524D01*
X514064Y40600D01*
X515136Y40600D01*
X516204Y40524D01*
X517265Y40371D01*
X518312Y40143D01*
X519340Y39841D01*
X520344Y39467D01*
X521319Y39022D01*
X522259Y38508D01*
X523160Y37929D01*
X524018Y37287D01*
X524828Y36585D01*
X525585Y35828D01*
X526287Y35018D01*
X526929Y34160D01*
X527508Y33259D01*
X528022Y32319D01*
X528467Y31344D01*
X528841Y30340D01*
X529143Y29312D01*
X529371Y28265D01*
X529524Y27204D01*
X529600Y26136D01*
X529600Y25064D01*
X214900Y237764D02*
X214824Y236696D01*
X214671Y235635D01*
X214443Y234588D01*
X214141Y233560D01*
X213767Y232556D01*
X213322Y231581D01*
X212808Y230641D01*
X212229Y229740D01*
X211587Y228882D01*
X210885Y228072D01*
X210128Y227315D01*
X209318Y226613D01*
X208460Y225971D01*
X207559Y225392D01*
X206619Y224878D01*
X205644Y224433D01*
X204640Y224059D01*
X203612Y223757D01*
X202565Y223529D01*
X201504Y223376D01*
X200436Y223300D01*
X199364Y223300D01*
X198296Y223376D01*
X197235Y223529D01*
X196188Y223757D01*
X195160Y224059D01*
X194156Y224433D01*
X193181Y224878D01*
X192241Y225392D01*
X191340Y225971D01*
X190482Y226613D01*
X189672Y227315D01*
X188915Y228072D01*
X188213Y228882D01*
X187571Y229740D01*
X186992Y230641D01*
X186478Y231581D01*
X186033Y232556D01*
X185659Y233560D01*
X185357Y234588D01*
X185129Y235635D01*
X184976Y236696D01*
X184900Y237764D01*
X184900Y238836D01*
X184976Y239904D01*
X185129Y240965D01*
X185357Y242012D01*
X185659Y243040D01*
X186033Y244044D01*
X186478Y245019D01*
X186992Y245959D01*
X187571Y246860D01*
X188213Y247718D01*
X188915Y248528D01*
X189672Y249285D01*
X190482Y249987D01*
X191340Y250629D01*
X192241Y251208D01*
X193181Y251722D01*
X194156Y252167D01*
X195160Y252541D01*
X196188Y252843D01*
X197235Y253071D01*
X198296Y253224D01*
X199364Y253300D01*
X200436Y253300D01*
X201504Y253224D01*
X202565Y253071D01*
X203612Y252843D01*
X204640Y252541D01*
X205644Y252167D01*
X206619Y251722D01*
X207559Y251208D01*
X208460Y250629D01*
X209318Y249987D01*
X210128Y249285D01*
X210885Y248528D01*
X211587Y247718D01*
X212229Y246860D01*
X212808Y245959D01*
X213322Y245019D01*
X213767Y244044D01*
X214141Y243040D01*
X214443Y242012D01*
X214671Y240965D01*
X214824Y239904D01*
X214900Y238836D01*
X214900Y237764D01*
X43000Y76564D02*
X42924Y75496D01*
X42771Y74435D01*
X42543Y73388D01*
X42241Y72360D01*
X41867Y71356D01*
X41422Y70381D01*
X40908Y69441D01*
X40329Y68540D01*
X39687Y67682D01*
X38985Y66872D01*
X38228Y66115D01*
X37418Y65413D01*
X36560Y64771D01*
X35659Y64192D01*
X34719Y63678D01*
X33744Y63233D01*
X32740Y62859D01*
X31712Y62557D01*
X30665Y62329D01*
X29604Y62176D01*
X28536Y62100D01*
X27464Y62100D01*
X26396Y62176D01*
X25335Y62329D01*
X24288Y62557D01*
X23260Y62859D01*
X22256Y63233D01*
X21281Y63678D01*
X20341Y64192D01*
X19440Y64771D01*
X18582Y65413D01*
X17772Y66115D01*
X17015Y66872D01*
X16313Y67682D01*
X15671Y68540D01*
X15092Y69441D01*
X14578Y70381D01*
X14133Y71356D01*
X13759Y72360D01*
X13457Y73388D01*
X13229Y74435D01*
X13076Y75496D01*
X13000Y76564D01*
X13000Y77636D01*
X13076Y78704D01*
X13229Y79765D01*
X13457Y80812D01*
X13759Y81840D01*
X14133Y82844D01*
X14578Y83819D01*
X15092Y84759D01*
X15671Y85660D01*
X16313Y86518D01*
X17015Y87328D01*
X17772Y88085D01*
X18582Y88787D01*
X19440Y89429D01*
X20341Y90008D01*
X21281Y90522D01*
X22256Y90967D01*
X23260Y91341D01*
X24288Y91643D01*
X25335Y91871D01*
X26396Y92024D01*
X27464Y92100D01*
X28536Y92100D01*
X29604Y92024D01*
X30665Y91871D01*
X31712Y91643D01*
X32740Y91341D01*
X33744Y90967D01*
X34719Y90522D01*
X35659Y90008D01*
X36560Y89429D01*
X37418Y88787D01*
X38228Y88085D01*
X38985Y87328D01*
X39687Y86518D01*
X40329Y85660D01*
X40908Y84759D01*
X41422Y83819D01*
X41867Y82844D01*
X42241Y81840D01*
X42543Y80812D01*
X42771Y79765D01*
X42924Y78704D01*
X43000Y77636D01*
X43000Y76564D01*
X43000Y431464D02*
X42924Y430396D01*
X42771Y429335D01*
X42543Y428288D01*
X42241Y427260D01*
X41867Y426256D01*
X41422Y425281D01*
X40908Y424341D01*
X40329Y423440D01*
X39687Y422582D01*
X38985Y421772D01*
X38228Y421015D01*
X37418Y420313D01*
X36560Y419671D01*
X35659Y419092D01*
X34719Y418578D01*
X33744Y418133D01*
X32740Y417759D01*
X31712Y417457D01*
X30665Y417229D01*
X29604Y417076D01*
X28536Y417000D01*
X27464Y417000D01*
X26396Y417076D01*
X25335Y417229D01*
X24288Y417457D01*
X23260Y417759D01*
X22256Y418133D01*
X21281Y418578D01*
X20341Y419092D01*
X19440Y419671D01*
X18582Y420313D01*
X17772Y421015D01*
X17015Y421772D01*
X16313Y422582D01*
X15671Y423440D01*
X15092Y424341D01*
X14578Y425281D01*
X14133Y426256D01*
X13759Y427260D01*
X13457Y428288D01*
X13229Y429335D01*
X13076Y430396D01*
X13000Y431464D01*
X13000Y432536D01*
X13076Y433604D01*
X13229Y434665D01*
X13457Y435712D01*
X13759Y436740D01*
X14133Y437744D01*
X14578Y438719D01*
X15092Y439659D01*
X15671Y440560D01*
X16313Y441418D01*
X17015Y442228D01*
X17772Y442985D01*
X18582Y443687D01*
X19440Y444329D01*
X20341Y444908D01*
X21281Y445422D01*
X22256Y445867D01*
X23260Y446241D01*
X24288Y446543D01*
X25335Y446771D01*
X26396Y446924D01*
X27464Y447000D01*
X28536Y447000D01*
X29604Y446924D01*
X30665Y446771D01*
X31712Y446543D01*
X32740Y446241D01*
X33744Y445867D01*
X34719Y445422D01*
X35659Y444908D01*
X36560Y444329D01*
X37418Y443687D01*
X38228Y442985D01*
X38985Y442228D01*
X39687Y441418D01*
X40329Y440560D01*
X40908Y439659D01*
X41422Y438719D01*
X41867Y437744D01*
X42241Y436740D01*
X42543Y435712D01*
X42771Y434665D01*
X42924Y433604D01*
X43000Y432536D01*
X43000Y431464D01*
X587000Y431464D02*
X586924Y430396D01*
X586771Y429335D01*
X586543Y428288D01*
X586241Y427260D01*
X585867Y426256D01*
X585422Y425281D01*
X584908Y424341D01*
X584329Y423440D01*
X583687Y422582D01*
X582985Y421772D01*
X582228Y421015D01*
X581418Y420313D01*
X580560Y419671D01*
X579659Y419092D01*
X578719Y418578D01*
X577744Y418133D01*
X576740Y417759D01*
X575712Y417457D01*
X574665Y417229D01*
X573604Y417076D01*
X572536Y417000D01*
X571464Y417000D01*
X570396Y417076D01*
X569335Y417229D01*
X568288Y417457D01*
X567260Y417759D01*
X566256Y418133D01*
X565281Y418578D01*
X564341Y419092D01*
X563440Y419671D01*
X562582Y420313D01*
X561772Y421015D01*
X561015Y421772D01*
X560313Y422582D01*
X559671Y423440D01*
X559092Y424341D01*
X558578Y425281D01*
X558133Y426256D01*
X557759Y427260D01*
X557457Y428288D01*
X557229Y429335D01*
X557076Y430396D01*
X557000Y431464D01*
X557000Y432536D01*
X557076Y433604D01*
X557229Y434665D01*
X557457Y435712D01*
X557759Y436740D01*
X558133Y437744D01*
X558578Y438719D01*
X559092Y439659D01*
X559671Y440560D01*
X560313Y441418D01*
X561015Y442228D01*
X561772Y442985D01*
X562582Y443687D01*
X563440Y444329D01*
X564341Y444908D01*
X565281Y445422D01*
X566256Y445867D01*
X567260Y446241D01*
X568288Y446543D01*
X569335Y446771D01*
X570396Y446924D01*
X571464Y447000D01*
X572536Y447000D01*
X573604Y446924D01*
X574665Y446771D01*
X575712Y446543D01*
X576740Y446241D01*
X577744Y445867D01*
X578719Y445422D01*
X579659Y444908D01*
X580560Y444329D01*
X581418Y443687D01*
X582228Y442985D01*
X582985Y442228D01*
X583687Y441418D01*
X584329Y440560D01*
X584908Y439659D01*
X585422Y438719D01*
X585867Y437744D01*
X586241Y436740D01*
X586543Y435712D01*
X586771Y434665D01*
X586924Y433604D01*
X587000Y432536D01*
X587000Y431464D01*
X529600Y25064D02*
X529524Y23996D01*
X529371Y22935D01*
X529143Y21888D01*
X528841Y20860D01*
X528467Y19856D01*
X528022Y18881D01*
X527508Y17941D01*
X526929Y17040D01*
X526287Y16182D01*
X525585Y15372D01*
X524828Y14615D01*
X524018Y13913D01*
X523160Y13271D01*
X522259Y12692D01*
X521319Y12178D01*
X520344Y11733D01*
X519340Y11359D01*
X518312Y11057D01*
X517265Y10829D01*
X516204Y10676D01*
X515136Y10600D01*
X514064Y10600D01*
X512996Y10676D01*
X511935Y10829D01*
X510888Y11057D01*
X509860Y11359D01*
X508856Y11733D01*
X507881Y12178D01*
X506941Y12692D01*
X506040Y13271D01*
X505182Y13913D01*
X504372Y14615D01*
X503615Y15372D01*
X502913Y16182D01*
X502271Y17040D01*
X501692Y17941D01*
X501178Y18881D01*
X500733Y19856D01*
X500359Y20860D01*
X500057Y21888D01*
X499829Y22935D01*
X499676Y23996D01*
X499600Y25064D01*
X499600Y26136D01*
X499676Y27204D01*
X499829Y28265D01*
X500057Y29312D01*
X500359Y30340D01*
X500733Y31344D01*
X501178Y32319D01*
X501692Y33259D01*
X502271Y34160D01*
X502913Y35018D01*
X503615Y35828D01*
X504372Y36585D01*
X505182Y37287D01*
X506040Y37929D01*
X506941Y38508D01*
X507881Y39022D01*
X508856Y39467D01*
X509860Y39841D01*
X510888Y40143D01*
X511935Y40371D01*
X512996Y40524D01*
X514064Y40600D01*
X515136Y40600D01*
X516204Y40524D01*
X517265Y40371D01*
X518312Y40143D01*
X519340Y39841D01*
X520344Y39467D01*
X521319Y39022D01*
X522259Y38508D01*
X523160Y37929D01*
X524018Y37287D01*
X524828Y36585D01*
X525585Y35828D01*
X526287Y35018D01*
X526929Y34160D01*
X527508Y33259D01*
X528022Y32319D01*
X528467Y31344D01*
X528841Y30340D01*
X529143Y29312D01*
X529371Y28265D01*
X529524Y27204D01*
X529600Y26136D01*
X529600Y25064D01*
X214900Y237764D02*
X214824Y236696D01*
X214671Y235635D01*
X214443Y234588D01*
X214141Y233560D01*
X213767Y232556D01*
X213322Y231581D01*
X212808Y230641D01*
X212229Y229740D01*
X211587Y228882D01*
X210885Y228072D01*
X210128Y227315D01*
X209318Y226613D01*
X208460Y225971D01*
X207559Y225392D01*
X206619Y224878D01*
X205644Y224433D01*
X204640Y224059D01*
X203612Y223757D01*
X202565Y223529D01*
X201504Y223376D01*
X200436Y223300D01*
X199364Y223300D01*
X198296Y223376D01*
X197235Y223529D01*
X196188Y223757D01*
X195160Y224059D01*
X194156Y224433D01*
X193181Y224878D01*
X192241Y225392D01*
X191340Y225971D01*
X190482Y226613D01*
X189672Y227315D01*
X188915Y228072D01*
X188213Y228882D01*
X187571Y229740D01*
X186992Y230641D01*
X186478Y231581D01*
X186033Y232556D01*
X185659Y233560D01*
X185357Y234588D01*
X185129Y235635D01*
X184976Y236696D01*
X184900Y237764D01*
X184900Y238836D01*
X184976Y239904D01*
X185129Y240965D01*
X185357Y242012D01*
X185659Y243040D01*
X186033Y244044D01*
X186478Y245019D01*
X186992Y245959D01*
X187571Y246860D01*
X188213Y247718D01*
X188915Y248528D01*
X189672Y249285D01*
X190482Y249987D01*
X191340Y250629D01*
X192241Y251208D01*
X193181Y251722D01*
X194156Y252167D01*
X195160Y252541D01*
X196188Y252843D01*
X197235Y253071D01*
X198296Y253224D01*
X199364Y253300D01*
X200436Y253300D01*
X201504Y253224D01*
X202565Y253071D01*
X203612Y252843D01*
X204640Y252541D01*
X205644Y252167D01*
X206619Y251722D01*
X207559Y251208D01*
X208460Y250629D01*
X209318Y249987D01*
X210128Y249285D01*
X210885Y248528D01*
X211587Y247718D01*
X212229Y246860D01*
X212808Y245959D01*
X213322Y245019D01*
X213767Y244044D01*
X214141Y243040D01*
X214443Y242012D01*
X214671Y240965D01*
X214824Y239904D01*
X214900Y238836D01*
X214900Y237764D01*
X43000Y76564D02*
X42924Y75496D01*
X42771Y74435D01*
X42543Y73388D01*
X42241Y72360D01*
X41867Y71356D01*
X41422Y70381D01*
X40908Y69441D01*
X40329Y68540D01*
X39687Y67682D01*
X38985Y66872D01*
X38228Y66115D01*
X37418Y65413D01*
X36560Y64771D01*
X35659Y64192D01*
X34719Y63678D01*
X33744Y63233D01*
X32740Y62859D01*
X31712Y62557D01*
X30665Y62329D01*
X29604Y62176D01*
X28536Y62100D01*
X27464Y62100D01*
X26396Y62176D01*
X25335Y62329D01*
X24288Y62557D01*
X23260Y62859D01*
X22256Y63233D01*
X21281Y63678D01*
X20341Y64192D01*
X19440Y64771D01*
X18582Y65413D01*
X17772Y66115D01*
X17015Y66872D01*
X16313Y67682D01*
X15671Y68540D01*
X15092Y69441D01*
X14578Y70381D01*
X14133Y71356D01*
X13759Y72360D01*
X13457Y73388D01*
X13229Y74435D01*
X13076Y75496D01*
X13000Y76564D01*
X13000Y77636D01*
X13076Y78704D01*
X13229Y79765D01*
X13457Y80812D01*
X13759Y81840D01*
X14133Y82844D01*
X14578Y83819D01*
X15092Y84759D01*
X15671Y85660D01*
X16313Y86518D01*
X17015Y87328D01*
X17772Y88085D01*
X18582Y88787D01*
X19440Y89429D01*
X20341Y90008D01*
X21281Y90522D01*
X22256Y90967D01*
X23260Y91341D01*
X24288Y91643D01*
X25335Y91871D01*
X26396Y92024D01*
X27464Y92100D01*
X28536Y92100D01*
X29604Y92024D01*
X30665Y91871D01*
X31712Y91643D01*
X32740Y91341D01*
X33744Y90967D01*
X34719Y90522D01*
X35659Y90008D01*
X36560Y89429D01*
X37418Y88787D01*
X38228Y88085D01*
X38985Y87328D01*
X39687Y86518D01*
X40329Y85660D01*
X40908Y84759D01*
X41422Y83819D01*
X41867Y82844D01*
X42241Y81840D01*
X42543Y80812D01*
X42771Y79765D01*
X42924Y78704D01*
X43000Y77636D01*
X43000Y76564D01*
X67676Y104690D02*
X66631Y104759D01*
X65592Y104895D01*
X64565Y105100D01*
X63553Y105371D01*
X62561Y105707D01*
X61593Y106108D01*
X60654Y106572D01*
X59746Y107096D01*
X58875Y107678D01*
X58044Y108315D01*
X57257Y109006D01*
X56516Y109747D01*
X55825Y110534D01*
X55188Y111365D01*
X54606Y112236D01*
X54082Y113144D01*
X53618Y114083D01*
X53217Y115051D01*
X52881Y116043D01*
X52610Y117055D01*
X52405Y118082D01*
X52269Y119121D01*
X52200Y120166D01*
X52200Y121214D01*
X52269Y122259D01*
X52405Y123298D01*
X52610Y124325D01*
X52881Y125337D01*
X53217Y126329D01*
X53618Y127297D01*
X54082Y128236D01*
X54606Y129144D01*
X55188Y130015D01*
X55825Y130846D01*
X56516Y131633D01*
X57257Y132374D01*
X58044Y133065D01*
X58875Y133703D01*
X59746Y134285D01*
X60654Y134808D01*
X61593Y135272D01*
X62561Y135673D01*
X63553Y136009D01*
X64565Y136280D01*
X65592Y136485D01*
X66631Y136622D01*
X67676Y136690D01*
X68724Y136690D01*
X69769Y136622D01*
X70808Y136485D01*
X71835Y136280D01*
X72847Y136009D01*
X73839Y135673D01*
X74807Y135272D01*
X75746Y134808D01*
X76654Y134285D01*
X77525Y133703D01*
X78356Y133065D01*
X79143Y132374D01*
X79884Y131633D01*
X80575Y130846D01*
X81213Y130015D01*
X81795Y129144D01*
X82318Y128236D01*
X82782Y127297D01*
X83183Y126329D01*
X83519Y125337D01*
X83790Y124325D01*
X83995Y123298D01*
X84132Y122259D01*
X84200Y121214D01*
X84200Y120166D01*
X84132Y119121D01*
X83995Y118082D01*
X83790Y117055D01*
X83519Y116043D01*
X83183Y115051D01*
X82782Y114083D01*
X82318Y113144D01*
X81795Y112236D01*
X81213Y111365D01*
X80575Y110534D01*
X79884Y109747D01*
X79143Y109006D01*
X78356Y108315D01*
X77525Y107678D01*
X76654Y107096D01*
X75746Y106572D01*
X74807Y106108D01*
X73839Y105707D01*
X72847Y105371D01*
X71835Y105100D01*
X70808Y104895D01*
X69769Y104759D01*
X68724Y104690D01*
X67676Y104690D01*
X67676Y4410D02*
X66631Y4479D01*
X65592Y4615D01*
X64565Y4820D01*
X63553Y5091D01*
X62561Y5427D01*
X61593Y5828D01*
X60654Y6292D01*
X59746Y6816D01*
X58875Y7398D01*
X58044Y8035D01*
X57257Y8726D01*
X56516Y9467D01*
X55825Y10254D01*
X55188Y11085D01*
X54606Y11956D01*
X54082Y12864D01*
X53618Y13803D01*
X53217Y14771D01*
X52881Y15763D01*
X52610Y16775D01*
X52405Y17802D01*
X52269Y18841D01*
X52200Y19886D01*
X52200Y20934D01*
X52269Y21979D01*
X52405Y23018D01*
X52610Y24045D01*
X52881Y25057D01*
X53217Y26049D01*
X53618Y27017D01*
X54082Y27956D01*
X54606Y28864D01*
X55188Y29735D01*
X55825Y30566D01*
X56516Y31353D01*
X57257Y32094D01*
X58044Y32785D01*
X58875Y33423D01*
X59746Y34005D01*
X60654Y34528D01*
X61593Y34992D01*
X62561Y35393D01*
X63553Y35729D01*
X64565Y36000D01*
X65592Y36205D01*
X66631Y36342D01*
X67676Y36410D01*
X68724Y36410D01*
X69769Y36342D01*
X70808Y36205D01*
X71835Y36000D01*
X72847Y35729D01*
X73839Y35393D01*
X74807Y34992D01*
X75746Y34528D01*
X76654Y34005D01*
X77525Y33423D01*
X78356Y32785D01*
X79143Y32094D01*
X79884Y31353D01*
X80575Y30566D01*
X81213Y29735D01*
X81795Y28864D01*
X82318Y27956D01*
X82782Y27017D01*
X83183Y26049D01*
X83519Y25057D01*
X83790Y24045D01*
X83995Y23018D01*
X84132Y21979D01*
X84200Y20934D01*
X84200Y19886D01*
X84132Y18841D01*
X83995Y17802D01*
X83790Y16775D01*
X83519Y15763D01*
X83183Y14771D01*
X82782Y13803D01*
X82318Y12864D01*
X81795Y11956D01*
X81213Y11085D01*
X80575Y10254D01*
X79884Y9467D01*
X79143Y8726D01*
X78356Y8035D01*
X77525Y7398D01*
X76654Y6816D01*
X75746Y6292D01*
X74807Y5828D01*
X73839Y5427D01*
X72847Y5091D01*
X71835Y4820D01*
X70808Y4615D01*
X69769Y4479D01*
X68724Y4410D01*
X67676Y4410D01*
X497400Y408576D02*
X497332Y407531D01*
X497195Y406492D01*
X496990Y405465D01*
X496719Y404453D01*
X496383Y403461D01*
X495982Y402493D01*
X495518Y401554D01*
X494995Y400646D01*
X494413Y399775D01*
X493775Y398944D01*
X493084Y398157D01*
X492343Y397416D01*
X491556Y396725D01*
X490725Y396088D01*
X489854Y395506D01*
X488946Y394982D01*
X488007Y394518D01*
X487039Y394117D01*
X486047Y393781D01*
X485035Y393510D01*
X484008Y393305D01*
X482969Y393169D01*
X481924Y393100D01*
X480876Y393100D01*
X479831Y393169D01*
X478792Y393305D01*
X477765Y393510D01*
X476753Y393781D01*
X475761Y394117D01*
X474793Y394518D01*
X473854Y394982D01*
X472946Y395506D01*
X472075Y396088D01*
X471244Y396725D01*
X470457Y397416D01*
X469716Y398157D01*
X469025Y398944D01*
X468388Y399775D01*
X467806Y400646D01*
X467282Y401554D01*
X466818Y402493D01*
X466417Y403461D01*
X466081Y404453D01*
X465810Y405465D01*
X465605Y406492D01*
X465469Y407531D01*
X465400Y408576D01*
X465400Y409624D01*
X465469Y410669D01*
X465605Y411708D01*
X465810Y412735D01*
X466081Y413747D01*
X466417Y414739D01*
X466818Y415707D01*
X467282Y416646D01*
X467806Y417554D01*
X468388Y418425D01*
X469025Y419256D01*
X469716Y420043D01*
X470457Y420784D01*
X471244Y421475D01*
X472075Y422113D01*
X472946Y422695D01*
X473854Y423218D01*
X474793Y423682D01*
X475761Y424083D01*
X476753Y424419D01*
X477765Y424690D01*
X478792Y424895D01*
X479831Y425032D01*
X480876Y425100D01*
X481924Y425100D01*
X482969Y425032D01*
X484008Y424895D01*
X485035Y424690D01*
X486047Y424419D01*
X487039Y424083D01*
X488007Y423682D01*
X488946Y423218D01*
X489854Y422695D01*
X490725Y422113D01*
X491556Y421475D01*
X492343Y420784D01*
X493084Y420043D01*
X493775Y419256D01*
X494413Y418425D01*
X494995Y417554D01*
X495518Y416646D01*
X495982Y415707D01*
X496383Y414739D01*
X496719Y413747D01*
X496990Y412735D01*
X497195Y411708D01*
X497332Y410669D01*
X497400Y409624D01*
X497400Y408576D01*
X377400Y408576D02*
X377332Y407531D01*
X377195Y406492D01*
X376990Y405465D01*
X376719Y404453D01*
X376383Y403461D01*
X375982Y402493D01*
X375518Y401554D01*
X374995Y400646D01*
X374413Y399775D01*
X373775Y398944D01*
X373084Y398157D01*
X372343Y397416D01*
X371556Y396725D01*
X370725Y396088D01*
X369854Y395506D01*
X368946Y394982D01*
X368007Y394518D01*
X367039Y394117D01*
X366047Y393781D01*
X365035Y393510D01*
X364008Y393305D01*
X362969Y393169D01*
X361924Y393100D01*
X360876Y393100D01*
X359831Y393169D01*
X358792Y393305D01*
X357765Y393510D01*
X356753Y393781D01*
X355761Y394117D01*
X354793Y394518D01*
X353854Y394982D01*
X352946Y395506D01*
X352075Y396088D01*
X351244Y396725D01*
X350457Y397416D01*
X349716Y398157D01*
X349025Y398944D01*
X348388Y399775D01*
X347806Y400646D01*
X347282Y401554D01*
X346818Y402493D01*
X346417Y403461D01*
X346081Y404453D01*
X345810Y405465D01*
X345605Y406492D01*
X345469Y407531D01*
X345400Y408576D01*
X345400Y409624D01*
X345469Y410669D01*
X345605Y411708D01*
X345810Y412735D01*
X346081Y413747D01*
X346417Y414739D01*
X346818Y415707D01*
X347282Y416646D01*
X347806Y417554D01*
X348388Y418425D01*
X349025Y419256D01*
X349716Y420043D01*
X350457Y420784D01*
X351244Y421475D01*
X352075Y422113D01*
X352946Y422695D01*
X353854Y423218D01*
X354793Y423682D01*
X355761Y424083D01*
X356753Y424419D01*
X357765Y424690D01*
X358792Y424895D01*
X359831Y425032D01*
X360876Y425100D01*
X361924Y425100D01*
X362969Y425032D01*
X364008Y424895D01*
X365035Y424690D01*
X366047Y424419D01*
X367039Y424083D01*
X368007Y423682D01*
X368946Y423218D01*
X369854Y422695D01*
X370725Y422113D01*
X371556Y421475D01*
X372343Y420784D01*
X373084Y420043D01*
X373775Y419256D01*
X374413Y418425D01*
X374995Y417554D01*
X375518Y416646D01*
X375982Y415707D01*
X376383Y414739D01*
X376719Y413747D01*
X376990Y412735D01*
X377195Y411708D01*
X377332Y410669D01*
X377400Y409624D01*
X377400Y408576D01*
M02*
