G04 EAGLE Gerber X2 export*
%TF.Part,Single*%
%TF.FileFunction,Paste,Top*%
%TF.FilePolarity,Positive*%
%TF.GenerationSoftware,Autodesk,EAGLE,8.6.3*%
%TF.CreationDate,2018-07-14T15:57:14Z*%
G75*
%MOMM*%
%FSLAX34Y34*%
%LPD*%
%AMOC8*
5,1,8,0,0,1.08239X$1,22.5*%
G01*
%ADD10R,0.550000X1.200000*%
%ADD11R,1.000000X1.100000*%
%ADD12R,5.400000X6.200000*%
%ADD13R,1.000000X1.600000*%
%ADD14R,1.100000X1.000000*%
%ADD15R,2.032000X0.660400*%
%ADD16R,1.200000X1.200000*%


D10*
X80300Y225500D03*
X89800Y225500D03*
X99300Y225500D03*
X99300Y251500D03*
X80300Y251500D03*
D11*
X269200Y60800D03*
X252200Y60800D03*
X252200Y39500D03*
X269200Y39500D03*
D12*
X84300Y417300D03*
D13*
X61500Y344300D03*
X107100Y344300D03*
D11*
X41900Y247200D03*
X58900Y247200D03*
D14*
X27400Y226600D03*
X27400Y209600D03*
D15*
X373392Y108450D03*
X373392Y121150D03*
X373392Y133850D03*
X373392Y146550D03*
X373392Y159250D03*
X373392Y171950D03*
X373392Y184650D03*
X373392Y197350D03*
X272808Y197350D03*
X272808Y184650D03*
X272808Y171950D03*
X272808Y159250D03*
X272808Y146550D03*
X272808Y133850D03*
X272808Y121150D03*
X272808Y108450D03*
X272808Y210050D03*
X272808Y222750D03*
X272808Y235450D03*
X272808Y248150D03*
X373392Y210050D03*
X373392Y222750D03*
X373392Y235450D03*
X373392Y248150D03*
D11*
X534400Y386400D03*
X551400Y386400D03*
D16*
X526600Y414500D03*
X526600Y435500D03*
X163000Y281100D03*
X142000Y281100D03*
X159700Y166800D03*
X159700Y145800D03*
M02*
