G04 EAGLE Gerber X2 export*
%TF.Part,Single*%
%TF.FileFunction,Soldermask,Top,1*%
%TF.FilePolarity,Negative*%
%TF.GenerationSoftware,Autodesk,EAGLE,8.6.3*%
%TF.CreationDate,2018-07-14T15:57:14Z*%
G75*
%MOMM*%
%FSLAX34Y34*%
%LPD*%
%AMOC8*
5,1,8,0,0,1.08239X$1,22.5*%
G01*
%ADD10C,3.203200*%
%ADD11C,1.727200*%
%ADD12R,0.753200X1.403200*%
%ADD13P,2.144431X8X22.500000*%
%ADD14C,1.703200*%
%ADD15C,1.879600*%
%ADD16R,1.879600X1.879600*%
%ADD17C,3.403200*%
%ADD18R,1.203200X1.303200*%
%ADD19R,2.003200X2.003200*%
%ADD20C,1.409600*%
%ADD21C,2.003200*%
%ADD22P,1.594577X8X112.500000*%
%ADD23P,1.594577X8X22.500000*%
%ADD24R,5.603200X6.403200*%
%ADD25R,1.203200X1.803200*%
%ADD26R,1.303200X1.203200*%
%ADD27R,2.235200X0.863600*%
%ADD28R,1.403200X1.403200*%
%ADD29P,1.843527X8X22.500000*%
%ADD30P,1.869504X8X292.500000*%
%ADD31P,1.539592X8X292.500000*%
%ADD32C,3.419200*%
%ADD33C,1.209600*%
%ADD34C,4.819200*%
%ADD35R,8.203200X8.203200*%
%ADD36C,4.419200*%


D10*
X28000Y432000D03*
X572000Y432000D03*
X514600Y25600D03*
X199900Y238300D03*
X28000Y77100D03*
D11*
X40600Y280880D02*
X40600Y296120D01*
X66000Y296120D02*
X66000Y280880D01*
X91400Y280880D02*
X91400Y296120D01*
D12*
X80300Y225500D03*
X89800Y225500D03*
X99300Y225500D03*
X99300Y251500D03*
X80300Y251500D03*
D13*
X31500Y326600D03*
X133100Y326600D03*
D14*
X72500Y173200D02*
X72500Y158200D01*
X97900Y158200D02*
X97900Y173200D01*
X123300Y173200D02*
X123300Y158200D01*
D15*
X131880Y89910D03*
D16*
X157280Y102150D03*
D15*
X131880Y64430D03*
X157280Y76670D03*
X131880Y38950D03*
X157280Y51190D03*
D17*
X68200Y120690D03*
X68200Y20410D03*
D18*
X269200Y60800D03*
X252200Y60800D03*
X252200Y39500D03*
X269200Y39500D03*
D19*
X349600Y66200D03*
X375000Y66200D03*
X400400Y66200D03*
X421355Y320835D03*
X328645Y320200D03*
D16*
X310100Y197200D03*
D20*
X309500Y178400D03*
X309500Y159400D03*
D19*
X370600Y376100D03*
X396000Y376100D03*
D21*
X421400Y376100D03*
X446800Y376100D03*
X472200Y376100D03*
D17*
X481400Y409100D03*
X361400Y409100D03*
D14*
X446400Y415300D02*
X446400Y400300D01*
X421000Y400300D02*
X421000Y415300D01*
X395600Y415300D02*
X395600Y400300D01*
D22*
X215600Y163300D03*
X215600Y188700D03*
D23*
X136700Y237800D03*
X162100Y237800D03*
D24*
X84300Y417300D03*
D25*
X61500Y344300D03*
X107100Y344300D03*
D18*
X41900Y247200D03*
X58900Y247200D03*
D26*
X27400Y226600D03*
X27400Y209600D03*
D27*
X373392Y108450D03*
X373392Y121150D03*
X373392Y133850D03*
X373392Y146550D03*
X373392Y159250D03*
X373392Y171950D03*
X373392Y184650D03*
X373392Y197350D03*
X272808Y197350D03*
X272808Y184650D03*
X272808Y171950D03*
X272808Y159250D03*
X272808Y146550D03*
X272808Y133850D03*
X272808Y121150D03*
X272808Y108450D03*
X272808Y210050D03*
X272808Y222750D03*
X272808Y235450D03*
X272808Y248150D03*
X373392Y210050D03*
X373392Y222750D03*
X373392Y235450D03*
X373392Y248150D03*
D18*
X534400Y386400D03*
X551400Y386400D03*
D28*
X526600Y414500D03*
X526600Y435500D03*
X163000Y281100D03*
X142000Y281100D03*
X159700Y166800D03*
X159700Y145800D03*
D29*
X173300Y202500D03*
D14*
X366100Y310100D02*
X366100Y325100D01*
X391500Y325100D02*
X391500Y310100D01*
D30*
X188900Y125100D03*
X214300Y125100D03*
X188900Y99700D03*
X214300Y99700D03*
X188900Y74300D03*
X214300Y74300D03*
X188900Y48900D03*
X214300Y48900D03*
X188900Y23500D03*
X214300Y23500D03*
D31*
X277900Y359200D03*
X277900Y333800D03*
X278300Y308800D03*
D32*
X450600Y325500D03*
X330600Y34500D03*
D33*
X286600Y54900D03*
X301100Y300300D03*
X303100Y282500D03*
X304600Y265400D03*
X304600Y244800D03*
X305100Y229200D03*
X305600Y140800D03*
X305600Y126700D03*
X304300Y111600D03*
X304600Y95600D03*
X313900Y84300D03*
X333600Y83200D03*
X388000Y84000D03*
X362300Y83400D03*
X321000Y69100D03*
X406600Y83800D03*
X421000Y73500D03*
X420400Y57500D03*
X384200Y43000D03*
X251600Y201800D03*
X251600Y240400D03*
X246300Y145200D03*
X264700Y291000D03*
X220900Y284900D03*
X317900Y404800D03*
X336300Y437400D03*
X493600Y440100D03*
X432600Y442700D03*
X501400Y356400D03*
X475800Y355500D03*
X456100Y356800D03*
X344900Y381100D03*
X317900Y381900D03*
X499700Y380200D03*
D34*
X244000Y427000D03*
D33*
X252300Y395100D03*
X240800Y381700D03*
X279000Y387200D03*
X260200Y355000D03*
X240100Y325200D03*
X249800Y339900D03*
X232000Y309900D03*
X212700Y337000D03*
X203000Y320000D03*
X194800Y306000D03*
X114700Y261400D03*
X114700Y244000D03*
X12500Y260800D03*
X178900Y178100D03*
X11500Y241200D03*
X287200Y25800D03*
X249200Y10000D03*
X240200Y90000D03*
X240000Y104200D03*
X251400Y127700D03*
X220200Y142900D03*
X460000Y442000D03*
X179100Y152000D03*
X86800Y186300D03*
X53800Y165600D03*
X24100Y109300D03*
X238800Y264800D03*
X260400Y264900D03*
X302900Y340900D03*
X306500Y373600D03*
X244300Y22900D03*
X289500Y90000D03*
D35*
X517800Y230100D03*
D33*
X458600Y270800D03*
X452200Y259800D03*
X449400Y244400D03*
X450400Y230700D03*
X452800Y218600D03*
X458600Y205900D03*
X469700Y280500D03*
X481200Y287000D03*
X495200Y293500D03*
X508400Y299000D03*
X522600Y305500D03*
X535100Y311700D03*
X549600Y317800D03*
X587800Y317400D03*
X589600Y277100D03*
X588100Y262400D03*
X586200Y249500D03*
X583800Y234900D03*
X580000Y220700D03*
X575900Y208600D03*
X467200Y196600D03*
X570800Y197700D03*
D36*
X567000Y296300D03*
D33*
X478800Y186500D03*
X494900Y186800D03*
X509000Y186200D03*
X523800Y185900D03*
X537900Y185600D03*
X551900Y186500D03*
X563200Y188900D03*
D35*
X518400Y127000D03*
D33*
X453600Y96100D03*
X450200Y109200D03*
X448200Y122900D03*
X447200Y138700D03*
X450600Y155200D03*
X457400Y166000D03*
X470100Y171700D03*
X462500Y84500D03*
X472700Y72200D03*
X490000Y67300D03*
X504700Y60000D03*
X518900Y54900D03*
X532300Y50000D03*
X545500Y45000D03*
X553700Y172500D03*
X487800Y172400D03*
X588200Y89300D03*
X587200Y106000D03*
X585200Y121500D03*
X583300Y135100D03*
X581300Y148800D03*
X577900Y162700D03*
X568000Y170900D03*
D36*
X570800Y66200D03*
D33*
X588800Y44800D03*
X501500Y172700D03*
X515200Y173000D03*
X528900Y172700D03*
X541100Y173000D03*
X558900Y39500D03*
X574500Y40400D03*
X90500Y211400D03*
X108100Y212200D03*
X106600Y200600D03*
X126900Y281100D03*
D34*
X195200Y375000D03*
X157500Y427400D03*
D33*
X100600Y37900D03*
X159600Y181100D03*
X179400Y277100D03*
X115100Y52600D03*
X87500Y51600D03*
X54600Y226500D03*
X34300Y177000D03*
X51300Y86200D03*
M02*
