M48
;GenerationSoftware,Autodesk,EAGLE,8.6.3*%
;CreationDate,2018-07-14T15:55:53Z*%
FMAT,2
ICI,OFF
METRIC,TZ,000.000
T14C0.600
T13C0.700
T12C0.711
T11C0.889
T10C0.900
T9C1.000
T8C1.016
T7C1.067
T6C1.100
T5C1.800
T4C3.175
T3C3.200
T2C3.400
%
G90
M71
T2
X134120Y33750
X2800Y42000
X135390Y2930
X99910Y6100
X99970Y57670
X106790Y26940
T3
X107261Y42290
X117289Y42290
X121471Y42400
X131499Y42400
X121041Y7150
X131069Y7150
X106761Y6960
X116789Y6960
T4
X7820Y14950
X7980Y20360
X7980Y31790
X7820Y3520
T5
X2060Y47250
X2080Y51550
X2090Y56770
T6
X91530Y38860
X129215Y13518
X94040Y38910
X129645Y48768
X115435Y48658
X12770Y37120
X10260Y37070
X114935Y13328
T7
X14330Y22900
X16870Y24170
X14330Y25440
X16870Y21630
X14330Y27980
X14170Y8600
X16710Y9870
X16710Y7330
X14170Y6060
X14170Y11140
X16710Y12410
X14170Y13680
X16870Y26710
X16710Y4790
X14330Y30520
X16870Y29250
T8
X82440Y26150
X87520Y26150
X82440Y23610
X87520Y28690
X46560Y49380
X82440Y28690
X87520Y23610
X82440Y21070
X87520Y21070
X82440Y18530
X87520Y18530
X82440Y15990
X87520Y15990
X46560Y54460
X46560Y51920
X84980Y31230
X92470Y49810
X89930Y49810
X89930Y52350
X92470Y52350
X89930Y54890
X92470Y54890
X89930Y57430
X92470Y57430
X87520Y31230
X84980Y28690
X84980Y26150
X84980Y23610
X84980Y21070
X84980Y18530
X84980Y15990
X82440Y31230
X61800Y26520
X61800Y49380
X61800Y46840
X61800Y44300
X61800Y41760
X61800Y39220
X61800Y36680
X61800Y34140
X61800Y31600
X61800Y29060
X61800Y51920
X61800Y23980
X61800Y21440
X61800Y18900
X61800Y16360
X61800Y13820
X61800Y11280
X61800Y8740
X61800Y6200
X46560Y23980
X46560Y44300
X46560Y41760
X46560Y39220
X46560Y36680
X46560Y34140
X46560Y31600
X46560Y29060
X46560Y26520
X46560Y46840
X46560Y21440
X46560Y18900
X46560Y16360
X46560Y13820
X46560Y11280
X46560Y8740
X46560Y6200
X61800Y54460
X122530Y58200
X122170Y20500
X135230Y58200
X135230Y55660
X132690Y58200
X132690Y55660
X130150Y58200
X130150Y55660
X127610Y58200
X127610Y55660
X125070Y58200
X125070Y55660
X122170Y23040
X122530Y55660
X119450Y58110
X119450Y55570
X116910Y58110
X116910Y55570
X114370Y58110
X114370Y55570
X111830Y58110
X111830Y55570
X109290Y58110
X109290Y55570
X105460Y20280
X118160Y22820
X118160Y20280
X115620Y22820
X115620Y20280
X113080Y22820
X113080Y20280
X110540Y22820
X110540Y20280
X108000Y22820
X108000Y20280
X105460Y22820
X92470Y47270
X134870Y23040
X134870Y20500
X132330Y23040
X132330Y20500
X129790Y23040
X129790Y20500
X127250Y23040
X127250Y20500
X124710Y23040
X124710Y20500
X87210Y47320
X93030Y9640
X95570Y9640
X93030Y7100
X95570Y7100
X93030Y4560
X95570Y4560
X87210Y57480
X87210Y54940
X87210Y52400
X87210Y49860
X106750Y55570
X87210Y44780
X87210Y42240
X5690Y56790
X5690Y51710
X89930Y42190
X92470Y42190
X89930Y44730
X92470Y44730
X89930Y47270
X106750Y58110
X15360Y50680
X10280Y50680
X12820Y50680
T9
X21480Y2960
X37980Y2960
X21480Y40460
X37980Y40460
X95180Y49820
X109839Y13328
X108615Y15868
X112387Y13328
X111163Y15868
X113711Y15868
X110339Y48658
X26660Y57570
X29200Y57570
X109115Y51198
X112887Y48658
X111663Y51198
X114211Y51198
X99480Y35360
X94400Y35360
X96940Y35360
X19200Y46080
X28650Y45260
X26110Y45260
X95180Y42200
X40630Y15690
X40630Y18230
X16660Y46080
X124119Y13518
X122895Y16058
X126667Y13518
X125443Y16058
X127991Y16058
X31190Y45260
X33730Y45260
X36270Y45260
X38810Y45260
X95180Y44740
X95180Y47280
X128421Y51308
X125873Y51308
X127097Y48768
X123325Y51308
X124549Y48768
X134840Y51280
X135160Y37000
X106120Y33600
X117430Y37210
T10
X19830Y56240
X22370Y56240
X3970Y37120
X6510Y37120
X31920Y57890
X34460Y57890
X20900Y51030
X20900Y48490
T11
X14170Y3030
X16990Y15650
X14830Y19820
X16850Y32360
T12
X83180Y9010
X10740Y44135
X8200Y44135
X85720Y9010
X116570Y30820
X114030Y30820
X124120Y30850
X121580Y30850
T13
X20130Y23880
T14
X78550Y28710
X43400Y12750
X79680Y30880
X68770Y31950
X68840Y25360
X68740Y17960
X68740Y10870
X89830Y17740
X99320Y3280
X103490Y11740
X103510Y54590
X88920Y13690
X91110Y11860
X92190Y21750
X100600Y20470
X20750Y58400
X20920Y53680
X24900Y49230
X32110Y48420
X40320Y56730
X39450Y52360
X76540Y23870
X103520Y44950
X103500Y25210
X103520Y26210
X103520Y27220
X103490Y28230
X103510Y29940
X103510Y34100
X103510Y36010
X103510Y37150
X103490Y38180
X103490Y39950
X103490Y40910
X103480Y41960
X103500Y42980
X103500Y43960
X67160Y34440
X103520Y45960
X103560Y46920
X103550Y47930
X103520Y48910
X103520Y49920
X103530Y50850
X103530Y51820
X103510Y52790
X53170Y24990
X103520Y55660
X103520Y57450
X103480Y58430
X134030Y11620
X136490Y13450
X25610Y2950
X84200Y48190
X83610Y50730
X96960Y13360
X94050Y14050
X100010Y9480
X102280Y9140
X86510Y3400
X88490Y3760
X26580Y22990
X24950Y22660
X23430Y22720
X23380Y19030
X25040Y19030
X26770Y19070
X83660Y53390
X21830Y7880
X39990Y5400
X39060Y9620
X39120Y7610
X36080Y7610
X36080Y9620
X35990Y11580
X36020Y13540
X35990Y15410
X35940Y17490
X111280Y33640
X24320Y5890
X100720Y27610
X11900Y40120
X52870Y40570
X79710Y21170
X74070Y35750
X65640Y50500
X52120Y16930
X78830Y25450
X49820Y20650
X53130Y19390
X103540Y16920
X53100Y27130
X53050Y29150
X52930Y32200
X52910Y34160
X52840Y36340
X52880Y38440
X76640Y16510
X76210Y48930
X73450Y49000
X52980Y43700
X52980Y45710
X52890Y47670
X52920Y49630
X52890Y51500
X52840Y53580
X83000Y39740
X21440Y26010
X21470Y17280
X52690Y4800
X103470Y59410
X83280Y55700
X97570Y25380
X72290Y19230
X72230Y4220
X72200Y11570
X101090Y13680
X99140Y19480
X94640Y19480
X97370Y27650
X97040Y19580
X93560Y27830
X92190Y33470
X87090Y34590
X79410Y34130
X81080Y35970
X84650Y34010
X89220Y33220
X72390Y26580
X79800Y37080
X76830Y34080
X67340Y32720
X92350Y25350
X66560Y39260
X64520Y42860
X103440Y60630
X29150Y50830
X29160Y54670
X68970Y47980
X72110Y35780
X76460Y30890
X78390Y22920
X78350Y15770
X84400Y52000
X112360Y25990
X89790Y19780
X102070Y31340
X98110Y14900
X105510Y14780
X85160Y43500
X111900Y29150
X123480Y18680
X58490Y16460
X77770Y49960
X77650Y38710
X101780Y36690
X85170Y53770
X125180Y53510
X106300Y53640
X78720Y2710
X40810Y59310
X41340Y54990
X101820Y51710
X102230Y54640
X41160Y49730
X49370Y53180
X49480Y42080
X83820Y40980
X72330Y58410
X30930Y52610
X85130Y46160
X80330Y14760
X80950Y12500
X84300Y13780
X103530Y6540
X126550Y30860
X119920Y30800
X118930Y30760
X117940Y30800
X112230Y30830
X111130Y30820
X109390Y30750
X108360Y30780
X106590Y30740
X105550Y30760
X104540Y30790
X103530Y2380
X103510Y3470
X103520Y4550
X103490Y5530
X127580Y30810
X103530Y7580
X103550Y8640
X103470Y9700
X103500Y10740
X103500Y12850
X103540Y13970
X103540Y15800
X100780Y31610
X103510Y17980
X103520Y19040
X103550Y20080
X103550Y21190
X103550Y22260
X103510Y23270
X57290Y12310
X78390Y8500
X88350Y5280
X95250Y27650
X41300Y39150
X40950Y26050
X40980Y34050
X38910Y36560
X36170Y19650
X103530Y1010
X137180Y30840
X137170Y60630
X131080Y25820
X21220Y20360
X20120Y30220
X53210Y22930
X103510Y24230
X52620Y13440
X65130Y5040
X58680Y7360
X58780Y4930
X103500Y31160
X103490Y32320
X135770Y30810
X134770Y30820
X133770Y30820
X132750Y30830
X131720Y30830
X130670Y30810
X129630Y30810
X128590Y30810
M30