G04 EAGLE Gerber X2 export*
%TF.Part,Single*%
%TF.FileFunction,Profile,NP*%
%TF.FilePolarity,Positive*%
%TF.GenerationSoftware,Autodesk,EAGLE,8.6.3*%
%TF.CreationDate,2018-07-14T15:56:02Z*%
G75*
%MOMM*%
%FSLAX34Y34*%
%LPD*%
%AMOC8*
5,1,8,0,0,1.08239X$1,22.5*%
G01*
%ADD10C,0.254000*%


D10*
X0Y200D02*
X1383200Y200D01*
X1383200Y618700D01*
X0Y618700D01*
X0Y200D01*
X1016700Y576143D02*
X1016627Y575033D01*
X1016482Y573929D01*
X1016265Y572838D01*
X1015977Y571763D01*
X1015619Y570709D01*
X1015193Y569680D01*
X1014701Y568682D01*
X1014144Y567718D01*
X1013526Y566793D01*
X1012848Y565910D01*
X1012114Y565073D01*
X1011327Y564286D01*
X1010490Y563552D01*
X1009607Y562874D01*
X1008682Y562256D01*
X1007718Y561699D01*
X1006720Y561207D01*
X1005691Y560781D01*
X1004637Y560423D01*
X1003562Y560135D01*
X1002471Y559918D01*
X1001367Y559773D01*
X1000257Y559700D01*
X999143Y559700D01*
X998033Y559773D01*
X996929Y559918D01*
X995838Y560135D01*
X994763Y560423D01*
X993709Y560781D01*
X992680Y561207D01*
X991682Y561699D01*
X990718Y562256D01*
X989793Y562874D01*
X988910Y563552D01*
X988073Y564286D01*
X987286Y565073D01*
X986552Y565910D01*
X985874Y566793D01*
X985256Y567718D01*
X984699Y568682D01*
X984207Y569680D01*
X983781Y570709D01*
X983423Y571763D01*
X983135Y572838D01*
X982918Y573929D01*
X982773Y575033D01*
X982700Y576143D01*
X982700Y577257D01*
X982773Y578367D01*
X982918Y579471D01*
X983135Y580562D01*
X983423Y581637D01*
X983781Y582691D01*
X984207Y583720D01*
X984699Y584718D01*
X985256Y585682D01*
X985874Y586607D01*
X986552Y587490D01*
X987286Y588327D01*
X988073Y589114D01*
X988910Y589848D01*
X989793Y590526D01*
X990718Y591144D01*
X991682Y591701D01*
X992680Y592193D01*
X993709Y592619D01*
X994763Y592977D01*
X995838Y593265D01*
X996929Y593482D01*
X998033Y593627D01*
X999143Y593700D01*
X1000257Y593700D01*
X1001367Y593627D01*
X1002471Y593482D01*
X1003562Y593265D01*
X1004637Y592977D01*
X1005691Y592619D01*
X1006720Y592193D01*
X1007718Y591701D01*
X1008682Y591144D01*
X1009607Y590526D01*
X1010490Y589848D01*
X1011327Y589114D01*
X1012114Y588327D01*
X1012848Y587490D01*
X1013526Y586607D01*
X1014144Y585682D01*
X1014701Y584718D01*
X1015193Y583720D01*
X1015619Y582691D01*
X1015977Y581637D01*
X1016265Y580562D01*
X1016482Y579471D01*
X1016627Y578367D01*
X1016700Y577257D01*
X1016700Y576143D01*
X1084900Y268843D02*
X1084827Y267733D01*
X1084682Y266629D01*
X1084465Y265538D01*
X1084177Y264463D01*
X1083819Y263409D01*
X1083393Y262380D01*
X1082901Y261382D01*
X1082344Y260418D01*
X1081726Y259493D01*
X1081048Y258610D01*
X1080314Y257773D01*
X1079527Y256986D01*
X1078690Y256252D01*
X1077807Y255574D01*
X1076882Y254956D01*
X1075918Y254399D01*
X1074920Y253907D01*
X1073891Y253481D01*
X1072837Y253123D01*
X1071762Y252835D01*
X1070671Y252618D01*
X1069567Y252473D01*
X1068457Y252400D01*
X1067343Y252400D01*
X1066233Y252473D01*
X1065129Y252618D01*
X1064038Y252835D01*
X1062963Y253123D01*
X1061909Y253481D01*
X1060880Y253907D01*
X1059882Y254399D01*
X1058918Y254956D01*
X1057993Y255574D01*
X1057110Y256252D01*
X1056273Y256986D01*
X1055486Y257773D01*
X1054752Y258610D01*
X1054074Y259493D01*
X1053456Y260418D01*
X1052899Y261382D01*
X1052407Y262380D01*
X1051981Y263409D01*
X1051623Y264463D01*
X1051335Y265538D01*
X1051118Y266629D01*
X1050973Y267733D01*
X1050900Y268843D01*
X1050900Y269957D01*
X1050973Y271067D01*
X1051118Y272171D01*
X1051335Y273262D01*
X1051623Y274337D01*
X1051981Y275391D01*
X1052407Y276420D01*
X1052899Y277418D01*
X1053456Y278382D01*
X1054074Y279307D01*
X1054752Y280190D01*
X1055486Y281027D01*
X1056273Y281814D01*
X1057110Y282548D01*
X1057993Y283226D01*
X1058918Y283844D01*
X1059882Y284401D01*
X1060880Y284893D01*
X1061909Y285319D01*
X1062963Y285677D01*
X1064038Y285965D01*
X1065129Y286182D01*
X1066233Y286327D01*
X1067343Y286400D01*
X1068457Y286400D01*
X1069567Y286327D01*
X1070671Y286182D01*
X1071762Y285965D01*
X1072837Y285677D01*
X1073891Y285319D01*
X1074920Y284893D01*
X1075918Y284401D01*
X1076882Y283844D01*
X1077807Y283226D01*
X1078690Y282548D01*
X1079527Y281814D01*
X1080314Y281027D01*
X1081048Y280190D01*
X1081726Y279307D01*
X1082344Y278382D01*
X1082901Y277418D01*
X1083393Y276420D01*
X1083819Y275391D01*
X1084177Y274337D01*
X1084465Y273262D01*
X1084682Y272171D01*
X1084827Y271067D01*
X1084900Y269957D01*
X1084900Y268843D01*
X1016100Y60443D02*
X1016027Y59333D01*
X1015882Y58229D01*
X1015665Y57138D01*
X1015377Y56063D01*
X1015019Y55009D01*
X1014593Y53980D01*
X1014101Y52982D01*
X1013544Y52018D01*
X1012926Y51093D01*
X1012248Y50210D01*
X1011514Y49373D01*
X1010727Y48586D01*
X1009890Y47852D01*
X1009007Y47174D01*
X1008082Y46556D01*
X1007118Y45999D01*
X1006120Y45507D01*
X1005091Y45081D01*
X1004037Y44723D01*
X1002962Y44435D01*
X1001871Y44218D01*
X1000767Y44073D01*
X999657Y44000D01*
X998543Y44000D01*
X997433Y44073D01*
X996329Y44218D01*
X995238Y44435D01*
X994163Y44723D01*
X993109Y45081D01*
X992080Y45507D01*
X991082Y45999D01*
X990118Y46556D01*
X989193Y47174D01*
X988310Y47852D01*
X987473Y48586D01*
X986686Y49373D01*
X985952Y50210D01*
X985274Y51093D01*
X984656Y52018D01*
X984099Y52982D01*
X983607Y53980D01*
X983181Y55009D01*
X982823Y56063D01*
X982535Y57138D01*
X982318Y58229D01*
X982173Y59333D01*
X982100Y60443D01*
X982100Y61557D01*
X982173Y62667D01*
X982318Y63771D01*
X982535Y64862D01*
X982823Y65937D01*
X983181Y66991D01*
X983607Y68020D01*
X984099Y69018D01*
X984656Y69982D01*
X985274Y70907D01*
X985952Y71790D01*
X986686Y72627D01*
X987473Y73414D01*
X988310Y74148D01*
X989193Y74826D01*
X990118Y75444D01*
X991082Y76001D01*
X992080Y76493D01*
X993109Y76919D01*
X994163Y77277D01*
X995238Y77565D01*
X996329Y77782D01*
X997433Y77927D01*
X998543Y78000D01*
X999657Y78000D01*
X1000767Y77927D01*
X1001871Y77782D01*
X1002962Y77565D01*
X1004037Y77277D01*
X1005091Y76919D01*
X1006120Y76493D01*
X1007118Y76001D01*
X1008082Y75444D01*
X1009007Y74826D01*
X1009890Y74148D01*
X1010727Y73414D01*
X1011514Y72627D01*
X1012248Y71790D01*
X1012926Y70907D01*
X1013544Y69982D01*
X1014101Y69018D01*
X1014593Y68020D01*
X1015019Y66991D01*
X1015377Y65937D01*
X1015665Y64862D01*
X1015882Y63771D01*
X1016027Y62667D01*
X1016100Y61557D01*
X1016100Y60443D01*
X1370900Y28743D02*
X1370827Y27633D01*
X1370682Y26529D01*
X1370465Y25438D01*
X1370177Y24363D01*
X1369819Y23309D01*
X1369393Y22280D01*
X1368901Y21282D01*
X1368344Y20318D01*
X1367726Y19393D01*
X1367048Y18510D01*
X1366314Y17673D01*
X1365527Y16886D01*
X1364690Y16152D01*
X1363807Y15474D01*
X1362882Y14856D01*
X1361918Y14299D01*
X1360920Y13807D01*
X1359891Y13381D01*
X1358837Y13023D01*
X1357762Y12735D01*
X1356671Y12518D01*
X1355567Y12373D01*
X1354457Y12300D01*
X1353343Y12300D01*
X1352233Y12373D01*
X1351129Y12518D01*
X1350038Y12735D01*
X1348963Y13023D01*
X1347909Y13381D01*
X1346880Y13807D01*
X1345882Y14299D01*
X1344918Y14856D01*
X1343993Y15474D01*
X1343110Y16152D01*
X1342273Y16886D01*
X1341486Y17673D01*
X1340752Y18510D01*
X1340074Y19393D01*
X1339456Y20318D01*
X1338899Y21282D01*
X1338407Y22280D01*
X1337981Y23309D01*
X1337623Y24363D01*
X1337335Y25438D01*
X1337118Y26529D01*
X1336973Y27633D01*
X1336900Y28743D01*
X1336900Y29857D01*
X1336973Y30967D01*
X1337118Y32071D01*
X1337335Y33162D01*
X1337623Y34237D01*
X1337981Y35291D01*
X1338407Y36320D01*
X1338899Y37318D01*
X1339456Y38282D01*
X1340074Y39207D01*
X1340752Y40090D01*
X1341486Y40927D01*
X1342273Y41714D01*
X1343110Y42448D01*
X1343993Y43126D01*
X1344918Y43744D01*
X1345882Y44301D01*
X1346880Y44793D01*
X1347909Y45219D01*
X1348963Y45577D01*
X1350038Y45865D01*
X1351129Y46082D01*
X1352233Y46227D01*
X1353343Y46300D01*
X1354457Y46300D01*
X1355567Y46227D01*
X1356671Y46082D01*
X1357762Y45865D01*
X1358837Y45577D01*
X1359891Y45219D01*
X1360920Y44793D01*
X1361918Y44301D01*
X1362882Y43744D01*
X1363807Y43126D01*
X1364690Y42448D01*
X1365527Y41714D01*
X1366314Y40927D01*
X1367048Y40090D01*
X1367726Y39207D01*
X1368344Y38282D01*
X1368901Y37318D01*
X1369393Y36320D01*
X1369819Y35291D01*
X1370177Y34237D01*
X1370465Y33162D01*
X1370682Y32071D01*
X1370827Y30967D01*
X1370900Y29857D01*
X1370900Y28743D01*
X45000Y419443D02*
X44927Y418333D01*
X44782Y417229D01*
X44565Y416138D01*
X44277Y415063D01*
X43919Y414009D01*
X43493Y412980D01*
X43001Y411982D01*
X42444Y411018D01*
X41826Y410093D01*
X41148Y409210D01*
X40414Y408373D01*
X39627Y407586D01*
X38790Y406852D01*
X37907Y406174D01*
X36982Y405556D01*
X36018Y404999D01*
X35020Y404507D01*
X33991Y404081D01*
X32937Y403723D01*
X31862Y403435D01*
X30771Y403218D01*
X29667Y403073D01*
X28557Y403000D01*
X27443Y403000D01*
X26333Y403073D01*
X25229Y403218D01*
X24138Y403435D01*
X23063Y403723D01*
X22009Y404081D01*
X20980Y404507D01*
X19982Y404999D01*
X19018Y405556D01*
X18093Y406174D01*
X17210Y406852D01*
X16373Y407586D01*
X15586Y408373D01*
X14852Y409210D01*
X14174Y410093D01*
X13556Y411018D01*
X12999Y411982D01*
X12507Y412980D01*
X12081Y414009D01*
X11723Y415063D01*
X11435Y416138D01*
X11218Y417229D01*
X11073Y418333D01*
X11000Y419443D01*
X11000Y420557D01*
X11073Y421667D01*
X11218Y422771D01*
X11435Y423862D01*
X11723Y424937D01*
X12081Y425991D01*
X12507Y427020D01*
X12999Y428018D01*
X13556Y428982D01*
X14174Y429907D01*
X14852Y430790D01*
X15586Y431627D01*
X16373Y432414D01*
X17210Y433148D01*
X18093Y433826D01*
X19018Y434444D01*
X19982Y435001D01*
X20980Y435493D01*
X22009Y435919D01*
X23063Y436277D01*
X24138Y436565D01*
X25229Y436782D01*
X26333Y436927D01*
X27443Y437000D01*
X28557Y437000D01*
X29667Y436927D01*
X30771Y436782D01*
X31862Y436565D01*
X32937Y436277D01*
X33991Y435919D01*
X35020Y435493D01*
X36018Y435001D01*
X36982Y434444D01*
X37907Y433826D01*
X38790Y433148D01*
X39627Y432414D01*
X40414Y431627D01*
X41148Y430790D01*
X41826Y429907D01*
X42444Y428982D01*
X43001Y428018D01*
X43493Y427020D01*
X43919Y425991D01*
X44277Y424937D01*
X44565Y423862D01*
X44782Y422771D01*
X44927Y421667D01*
X45000Y420557D01*
X45000Y419443D01*
X1358200Y336943D02*
X1358127Y335833D01*
X1357982Y334729D01*
X1357765Y333638D01*
X1357477Y332563D01*
X1357119Y331509D01*
X1356693Y330480D01*
X1356201Y329482D01*
X1355644Y328518D01*
X1355026Y327593D01*
X1354348Y326710D01*
X1353614Y325873D01*
X1352827Y325086D01*
X1351990Y324352D01*
X1351107Y323674D01*
X1350182Y323056D01*
X1349218Y322499D01*
X1348220Y322007D01*
X1347191Y321581D01*
X1346137Y321223D01*
X1345062Y320935D01*
X1343971Y320718D01*
X1342867Y320573D01*
X1341757Y320500D01*
X1340643Y320500D01*
X1339533Y320573D01*
X1338429Y320718D01*
X1337338Y320935D01*
X1336263Y321223D01*
X1335209Y321581D01*
X1334180Y322007D01*
X1333182Y322499D01*
X1332218Y323056D01*
X1331293Y323674D01*
X1330410Y324352D01*
X1329573Y325086D01*
X1328786Y325873D01*
X1328052Y326710D01*
X1327374Y327593D01*
X1326756Y328518D01*
X1326199Y329482D01*
X1325707Y330480D01*
X1325281Y331509D01*
X1324923Y332563D01*
X1324635Y333638D01*
X1324418Y334729D01*
X1324273Y335833D01*
X1324200Y336943D01*
X1324200Y338057D01*
X1324273Y339167D01*
X1324418Y340271D01*
X1324635Y341362D01*
X1324923Y342437D01*
X1325281Y343491D01*
X1325707Y344520D01*
X1326199Y345518D01*
X1326756Y346482D01*
X1327374Y347407D01*
X1328052Y348290D01*
X1328786Y349127D01*
X1329573Y349914D01*
X1330410Y350648D01*
X1331293Y351326D01*
X1332218Y351944D01*
X1333182Y352501D01*
X1334180Y352993D01*
X1335209Y353419D01*
X1336263Y353777D01*
X1337338Y354065D01*
X1338429Y354282D01*
X1339533Y354427D01*
X1340643Y354500D01*
X1341757Y354500D01*
X1342867Y354427D01*
X1343971Y354282D01*
X1345062Y354065D01*
X1346137Y353777D01*
X1347191Y353419D01*
X1348220Y352993D01*
X1349218Y352501D01*
X1350182Y351944D01*
X1351107Y351326D01*
X1351990Y350648D01*
X1352827Y349914D01*
X1353614Y349127D01*
X1354348Y348290D01*
X1355026Y347407D01*
X1355644Y346482D01*
X1356201Y345518D01*
X1356693Y344520D01*
X1357119Y343491D01*
X1357477Y342437D01*
X1357765Y341362D01*
X1357982Y340271D01*
X1358127Y339167D01*
X1358200Y338057D01*
X1358200Y336943D01*
X1016700Y576143D02*
X1016627Y575033D01*
X1016482Y573929D01*
X1016265Y572838D01*
X1015977Y571763D01*
X1015619Y570709D01*
X1015193Y569680D01*
X1014701Y568682D01*
X1014144Y567718D01*
X1013526Y566793D01*
X1012848Y565910D01*
X1012114Y565073D01*
X1011327Y564286D01*
X1010490Y563552D01*
X1009607Y562874D01*
X1008682Y562256D01*
X1007718Y561699D01*
X1006720Y561207D01*
X1005691Y560781D01*
X1004637Y560423D01*
X1003562Y560135D01*
X1002471Y559918D01*
X1001367Y559773D01*
X1000257Y559700D01*
X999143Y559700D01*
X998033Y559773D01*
X996929Y559918D01*
X995838Y560135D01*
X994763Y560423D01*
X993709Y560781D01*
X992680Y561207D01*
X991682Y561699D01*
X990718Y562256D01*
X989793Y562874D01*
X988910Y563552D01*
X988073Y564286D01*
X987286Y565073D01*
X986552Y565910D01*
X985874Y566793D01*
X985256Y567718D01*
X984699Y568682D01*
X984207Y569680D01*
X983781Y570709D01*
X983423Y571763D01*
X983135Y572838D01*
X982918Y573929D01*
X982773Y575033D01*
X982700Y576143D01*
X982700Y577257D01*
X982773Y578367D01*
X982918Y579471D01*
X983135Y580562D01*
X983423Y581637D01*
X983781Y582691D01*
X984207Y583720D01*
X984699Y584718D01*
X985256Y585682D01*
X985874Y586607D01*
X986552Y587490D01*
X987286Y588327D01*
X988073Y589114D01*
X988910Y589848D01*
X989793Y590526D01*
X990718Y591144D01*
X991682Y591701D01*
X992680Y592193D01*
X993709Y592619D01*
X994763Y592977D01*
X995838Y593265D01*
X996929Y593482D01*
X998033Y593627D01*
X999143Y593700D01*
X1000257Y593700D01*
X1001367Y593627D01*
X1002471Y593482D01*
X1003562Y593265D01*
X1004637Y592977D01*
X1005691Y592619D01*
X1006720Y592193D01*
X1007718Y591701D01*
X1008682Y591144D01*
X1009607Y590526D01*
X1010490Y589848D01*
X1011327Y589114D01*
X1012114Y588327D01*
X1012848Y587490D01*
X1013526Y586607D01*
X1014144Y585682D01*
X1014701Y584718D01*
X1015193Y583720D01*
X1015619Y582691D01*
X1015977Y581637D01*
X1016265Y580562D01*
X1016482Y579471D01*
X1016627Y578367D01*
X1016700Y577257D01*
X1016700Y576143D01*
X1084900Y268843D02*
X1084827Y267733D01*
X1084682Y266629D01*
X1084465Y265538D01*
X1084177Y264463D01*
X1083819Y263409D01*
X1083393Y262380D01*
X1082901Y261382D01*
X1082344Y260418D01*
X1081726Y259493D01*
X1081048Y258610D01*
X1080314Y257773D01*
X1079527Y256986D01*
X1078690Y256252D01*
X1077807Y255574D01*
X1076882Y254956D01*
X1075918Y254399D01*
X1074920Y253907D01*
X1073891Y253481D01*
X1072837Y253123D01*
X1071762Y252835D01*
X1070671Y252618D01*
X1069567Y252473D01*
X1068457Y252400D01*
X1067343Y252400D01*
X1066233Y252473D01*
X1065129Y252618D01*
X1064038Y252835D01*
X1062963Y253123D01*
X1061909Y253481D01*
X1060880Y253907D01*
X1059882Y254399D01*
X1058918Y254956D01*
X1057993Y255574D01*
X1057110Y256252D01*
X1056273Y256986D01*
X1055486Y257773D01*
X1054752Y258610D01*
X1054074Y259493D01*
X1053456Y260418D01*
X1052899Y261382D01*
X1052407Y262380D01*
X1051981Y263409D01*
X1051623Y264463D01*
X1051335Y265538D01*
X1051118Y266629D01*
X1050973Y267733D01*
X1050900Y268843D01*
X1050900Y269957D01*
X1050973Y271067D01*
X1051118Y272171D01*
X1051335Y273262D01*
X1051623Y274337D01*
X1051981Y275391D01*
X1052407Y276420D01*
X1052899Y277418D01*
X1053456Y278382D01*
X1054074Y279307D01*
X1054752Y280190D01*
X1055486Y281027D01*
X1056273Y281814D01*
X1057110Y282548D01*
X1057993Y283226D01*
X1058918Y283844D01*
X1059882Y284401D01*
X1060880Y284893D01*
X1061909Y285319D01*
X1062963Y285677D01*
X1064038Y285965D01*
X1065129Y286182D01*
X1066233Y286327D01*
X1067343Y286400D01*
X1068457Y286400D01*
X1069567Y286327D01*
X1070671Y286182D01*
X1071762Y285965D01*
X1072837Y285677D01*
X1073891Y285319D01*
X1074920Y284893D01*
X1075918Y284401D01*
X1076882Y283844D01*
X1077807Y283226D01*
X1078690Y282548D01*
X1079527Y281814D01*
X1080314Y281027D01*
X1081048Y280190D01*
X1081726Y279307D01*
X1082344Y278382D01*
X1082901Y277418D01*
X1083393Y276420D01*
X1083819Y275391D01*
X1084177Y274337D01*
X1084465Y273262D01*
X1084682Y272171D01*
X1084827Y271067D01*
X1084900Y269957D01*
X1084900Y268843D01*
X1016100Y60443D02*
X1016027Y59333D01*
X1015882Y58229D01*
X1015665Y57138D01*
X1015377Y56063D01*
X1015019Y55009D01*
X1014593Y53980D01*
X1014101Y52982D01*
X1013544Y52018D01*
X1012926Y51093D01*
X1012248Y50210D01*
X1011514Y49373D01*
X1010727Y48586D01*
X1009890Y47852D01*
X1009007Y47174D01*
X1008082Y46556D01*
X1007118Y45999D01*
X1006120Y45507D01*
X1005091Y45081D01*
X1004037Y44723D01*
X1002962Y44435D01*
X1001871Y44218D01*
X1000767Y44073D01*
X999657Y44000D01*
X998543Y44000D01*
X997433Y44073D01*
X996329Y44218D01*
X995238Y44435D01*
X994163Y44723D01*
X993109Y45081D01*
X992080Y45507D01*
X991082Y45999D01*
X990118Y46556D01*
X989193Y47174D01*
X988310Y47852D01*
X987473Y48586D01*
X986686Y49373D01*
X985952Y50210D01*
X985274Y51093D01*
X984656Y52018D01*
X984099Y52982D01*
X983607Y53980D01*
X983181Y55009D01*
X982823Y56063D01*
X982535Y57138D01*
X982318Y58229D01*
X982173Y59333D01*
X982100Y60443D01*
X982100Y61557D01*
X982173Y62667D01*
X982318Y63771D01*
X982535Y64862D01*
X982823Y65937D01*
X983181Y66991D01*
X983607Y68020D01*
X984099Y69018D01*
X984656Y69982D01*
X985274Y70907D01*
X985952Y71790D01*
X986686Y72627D01*
X987473Y73414D01*
X988310Y74148D01*
X989193Y74826D01*
X990118Y75444D01*
X991082Y76001D01*
X992080Y76493D01*
X993109Y76919D01*
X994163Y77277D01*
X995238Y77565D01*
X996329Y77782D01*
X997433Y77927D01*
X998543Y78000D01*
X999657Y78000D01*
X1000767Y77927D01*
X1001871Y77782D01*
X1002962Y77565D01*
X1004037Y77277D01*
X1005091Y76919D01*
X1006120Y76493D01*
X1007118Y76001D01*
X1008082Y75444D01*
X1009007Y74826D01*
X1009890Y74148D01*
X1010727Y73414D01*
X1011514Y72627D01*
X1012248Y71790D01*
X1012926Y70907D01*
X1013544Y69982D01*
X1014101Y69018D01*
X1014593Y68020D01*
X1015019Y66991D01*
X1015377Y65937D01*
X1015665Y64862D01*
X1015882Y63771D01*
X1016027Y62667D01*
X1016100Y61557D01*
X1016100Y60443D01*
X1370900Y28743D02*
X1370827Y27633D01*
X1370682Y26529D01*
X1370465Y25438D01*
X1370177Y24363D01*
X1369819Y23309D01*
X1369393Y22280D01*
X1368901Y21282D01*
X1368344Y20318D01*
X1367726Y19393D01*
X1367048Y18510D01*
X1366314Y17673D01*
X1365527Y16886D01*
X1364690Y16152D01*
X1363807Y15474D01*
X1362882Y14856D01*
X1361918Y14299D01*
X1360920Y13807D01*
X1359891Y13381D01*
X1358837Y13023D01*
X1357762Y12735D01*
X1356671Y12518D01*
X1355567Y12373D01*
X1354457Y12300D01*
X1353343Y12300D01*
X1352233Y12373D01*
X1351129Y12518D01*
X1350038Y12735D01*
X1348963Y13023D01*
X1347909Y13381D01*
X1346880Y13807D01*
X1345882Y14299D01*
X1344918Y14856D01*
X1343993Y15474D01*
X1343110Y16152D01*
X1342273Y16886D01*
X1341486Y17673D01*
X1340752Y18510D01*
X1340074Y19393D01*
X1339456Y20318D01*
X1338899Y21282D01*
X1338407Y22280D01*
X1337981Y23309D01*
X1337623Y24363D01*
X1337335Y25438D01*
X1337118Y26529D01*
X1336973Y27633D01*
X1336900Y28743D01*
X1336900Y29857D01*
X1336973Y30967D01*
X1337118Y32071D01*
X1337335Y33162D01*
X1337623Y34237D01*
X1337981Y35291D01*
X1338407Y36320D01*
X1338899Y37318D01*
X1339456Y38282D01*
X1340074Y39207D01*
X1340752Y40090D01*
X1341486Y40927D01*
X1342273Y41714D01*
X1343110Y42448D01*
X1343993Y43126D01*
X1344918Y43744D01*
X1345882Y44301D01*
X1346880Y44793D01*
X1347909Y45219D01*
X1348963Y45577D01*
X1350038Y45865D01*
X1351129Y46082D01*
X1352233Y46227D01*
X1353343Y46300D01*
X1354457Y46300D01*
X1355567Y46227D01*
X1356671Y46082D01*
X1357762Y45865D01*
X1358837Y45577D01*
X1359891Y45219D01*
X1360920Y44793D01*
X1361918Y44301D01*
X1362882Y43744D01*
X1363807Y43126D01*
X1364690Y42448D01*
X1365527Y41714D01*
X1366314Y40927D01*
X1367048Y40090D01*
X1367726Y39207D01*
X1368344Y38282D01*
X1368901Y37318D01*
X1369393Y36320D01*
X1369819Y35291D01*
X1370177Y34237D01*
X1370465Y33162D01*
X1370682Y32071D01*
X1370827Y30967D01*
X1370900Y29857D01*
X1370900Y28743D01*
X45000Y419443D02*
X44927Y418333D01*
X44782Y417229D01*
X44565Y416138D01*
X44277Y415063D01*
X43919Y414009D01*
X43493Y412980D01*
X43001Y411982D01*
X42444Y411018D01*
X41826Y410093D01*
X41148Y409210D01*
X40414Y408373D01*
X39627Y407586D01*
X38790Y406852D01*
X37907Y406174D01*
X36982Y405556D01*
X36018Y404999D01*
X35020Y404507D01*
X33991Y404081D01*
X32937Y403723D01*
X31862Y403435D01*
X30771Y403218D01*
X29667Y403073D01*
X28557Y403000D01*
X27443Y403000D01*
X26333Y403073D01*
X25229Y403218D01*
X24138Y403435D01*
X23063Y403723D01*
X22009Y404081D01*
X20980Y404507D01*
X19982Y404999D01*
X19018Y405556D01*
X18093Y406174D01*
X17210Y406852D01*
X16373Y407586D01*
X15586Y408373D01*
X14852Y409210D01*
X14174Y410093D01*
X13556Y411018D01*
X12999Y411982D01*
X12507Y412980D01*
X12081Y414009D01*
X11723Y415063D01*
X11435Y416138D01*
X11218Y417229D01*
X11073Y418333D01*
X11000Y419443D01*
X11000Y420557D01*
X11073Y421667D01*
X11218Y422771D01*
X11435Y423862D01*
X11723Y424937D01*
X12081Y425991D01*
X12507Y427020D01*
X12999Y428018D01*
X13556Y428982D01*
X14174Y429907D01*
X14852Y430790D01*
X15586Y431627D01*
X16373Y432414D01*
X17210Y433148D01*
X18093Y433826D01*
X19018Y434444D01*
X19982Y435001D01*
X20980Y435493D01*
X22009Y435919D01*
X23063Y436277D01*
X24138Y436565D01*
X25229Y436782D01*
X26333Y436927D01*
X27443Y437000D01*
X28557Y437000D01*
X29667Y436927D01*
X30771Y436782D01*
X31862Y436565D01*
X32937Y436277D01*
X33991Y435919D01*
X35020Y435493D01*
X36018Y435001D01*
X36982Y434444D01*
X37907Y433826D01*
X38790Y433148D01*
X39627Y432414D01*
X40414Y431627D01*
X41148Y430790D01*
X41826Y429907D01*
X42444Y428982D01*
X43001Y428018D01*
X43493Y427020D01*
X43919Y425991D01*
X44277Y424937D01*
X44565Y423862D01*
X44782Y422771D01*
X44927Y421667D01*
X45000Y420557D01*
X45000Y419443D01*
X1358200Y336943D02*
X1358127Y335833D01*
X1357982Y334729D01*
X1357765Y333638D01*
X1357477Y332563D01*
X1357119Y331509D01*
X1356693Y330480D01*
X1356201Y329482D01*
X1355644Y328518D01*
X1355026Y327593D01*
X1354348Y326710D01*
X1353614Y325873D01*
X1352827Y325086D01*
X1351990Y324352D01*
X1351107Y323674D01*
X1350182Y323056D01*
X1349218Y322499D01*
X1348220Y322007D01*
X1347191Y321581D01*
X1346137Y321223D01*
X1345062Y320935D01*
X1343971Y320718D01*
X1342867Y320573D01*
X1341757Y320500D01*
X1340643Y320500D01*
X1339533Y320573D01*
X1338429Y320718D01*
X1337338Y320935D01*
X1336263Y321223D01*
X1335209Y321581D01*
X1334180Y322007D01*
X1333182Y322499D01*
X1332218Y323056D01*
X1331293Y323674D01*
X1330410Y324352D01*
X1329573Y325086D01*
X1328786Y325873D01*
X1328052Y326710D01*
X1327374Y327593D01*
X1326756Y328518D01*
X1326199Y329482D01*
X1325707Y330480D01*
X1325281Y331509D01*
X1324923Y332563D01*
X1324635Y333638D01*
X1324418Y334729D01*
X1324273Y335833D01*
X1324200Y336943D01*
X1324200Y338057D01*
X1324273Y339167D01*
X1324418Y340271D01*
X1324635Y341362D01*
X1324923Y342437D01*
X1325281Y343491D01*
X1325707Y344520D01*
X1326199Y345518D01*
X1326756Y346482D01*
X1327374Y347407D01*
X1328052Y348290D01*
X1328786Y349127D01*
X1329573Y349914D01*
X1330410Y350648D01*
X1331293Y351326D01*
X1332218Y351944D01*
X1333182Y352501D01*
X1334180Y352993D01*
X1335209Y353419D01*
X1336263Y353777D01*
X1337338Y354065D01*
X1338429Y354282D01*
X1339533Y354427D01*
X1340643Y354500D01*
X1341757Y354500D01*
X1342867Y354427D01*
X1343971Y354282D01*
X1345062Y354065D01*
X1346137Y353777D01*
X1347191Y353419D01*
X1348220Y352993D01*
X1349218Y352501D01*
X1350182Y351944D01*
X1351107Y351326D01*
X1351990Y350648D01*
X1352827Y349914D01*
X1353614Y349127D01*
X1354348Y348290D01*
X1355026Y347407D01*
X1355644Y346482D01*
X1356201Y345518D01*
X1356693Y344520D01*
X1357119Y343491D01*
X1357477Y342437D01*
X1357765Y341362D01*
X1357982Y340271D01*
X1358127Y339167D01*
X1358200Y338057D01*
X1358200Y336943D01*
X77680Y133625D02*
X76643Y133693D01*
X75613Y133829D01*
X74593Y134031D01*
X73589Y134300D01*
X72605Y134635D01*
X71645Y135032D01*
X70713Y135492D01*
X69812Y136012D01*
X68948Y136589D01*
X68124Y137222D01*
X67342Y137907D01*
X66607Y138642D01*
X65922Y139424D01*
X65289Y140248D01*
X64712Y141112D01*
X64192Y142013D01*
X63732Y142945D01*
X63335Y143905D01*
X63000Y144889D01*
X62731Y145893D01*
X62529Y146913D01*
X62393Y147943D01*
X62325Y148980D01*
X62325Y150020D01*
X62393Y151057D01*
X62529Y152087D01*
X62731Y153107D01*
X63000Y154111D01*
X63335Y155095D01*
X63732Y156055D01*
X64192Y156987D01*
X64712Y157888D01*
X65289Y158752D01*
X65922Y159576D01*
X66607Y160358D01*
X67342Y161093D01*
X68124Y161778D01*
X68948Y162411D01*
X69812Y162988D01*
X70713Y163508D01*
X71645Y163968D01*
X72605Y164365D01*
X73589Y164700D01*
X74593Y164969D01*
X75613Y165171D01*
X76643Y165307D01*
X77680Y165375D01*
X78720Y165375D01*
X79757Y165307D01*
X80787Y165171D01*
X81807Y164969D01*
X82811Y164700D01*
X83795Y164365D01*
X84755Y163968D01*
X85687Y163508D01*
X86588Y162988D01*
X87452Y162411D01*
X88276Y161778D01*
X89058Y161093D01*
X89793Y160358D01*
X90478Y159576D01*
X91111Y158752D01*
X91688Y157888D01*
X92208Y156987D01*
X92668Y156055D01*
X93065Y155095D01*
X93400Y154111D01*
X93669Y153107D01*
X93871Y152087D01*
X94007Y151057D01*
X94075Y150020D01*
X94075Y148980D01*
X94007Y147943D01*
X93871Y146913D01*
X93669Y145893D01*
X93400Y144889D01*
X93065Y143905D01*
X92668Y142945D01*
X92208Y142013D01*
X91688Y141112D01*
X91111Y140248D01*
X90478Y139424D01*
X89793Y138642D01*
X89058Y137907D01*
X88276Y137222D01*
X87452Y136589D01*
X86588Y136012D01*
X85687Y135492D01*
X84755Y135032D01*
X83795Y134635D01*
X82811Y134300D01*
X81807Y134031D01*
X80787Y133829D01*
X79757Y133693D01*
X78720Y133625D01*
X77680Y133625D01*
X77680Y19325D02*
X76643Y19393D01*
X75613Y19529D01*
X74593Y19731D01*
X73589Y20000D01*
X72605Y20335D01*
X71645Y20732D01*
X70713Y21192D01*
X69812Y21712D01*
X68948Y22289D01*
X68124Y22922D01*
X67342Y23607D01*
X66607Y24342D01*
X65922Y25124D01*
X65289Y25948D01*
X64712Y26812D01*
X64192Y27713D01*
X63732Y28645D01*
X63335Y29605D01*
X63000Y30589D01*
X62731Y31593D01*
X62529Y32613D01*
X62393Y33643D01*
X62325Y34680D01*
X62325Y35720D01*
X62393Y36757D01*
X62529Y37787D01*
X62731Y38807D01*
X63000Y39811D01*
X63335Y40795D01*
X63732Y41755D01*
X64192Y42687D01*
X64712Y43588D01*
X65289Y44452D01*
X65922Y45276D01*
X66607Y46058D01*
X67342Y46793D01*
X68124Y47478D01*
X68948Y48111D01*
X69812Y48688D01*
X70713Y49208D01*
X71645Y49668D01*
X72605Y50065D01*
X73589Y50400D01*
X74593Y50669D01*
X75613Y50871D01*
X76643Y51007D01*
X77680Y51075D01*
X78720Y51075D01*
X79757Y51007D01*
X80787Y50871D01*
X81807Y50669D01*
X82811Y50400D01*
X83795Y50065D01*
X84755Y49668D01*
X85687Y49208D01*
X86588Y48688D01*
X87452Y48111D01*
X88276Y47478D01*
X89058Y46793D01*
X89793Y46058D01*
X90478Y45276D01*
X91111Y44452D01*
X91688Y43588D01*
X92208Y42687D01*
X92668Y41755D01*
X93065Y40795D01*
X93400Y39811D01*
X93669Y38807D01*
X93871Y37787D01*
X94007Y36757D01*
X94075Y35720D01*
X94075Y34680D01*
X94007Y33643D01*
X93871Y32613D01*
X93669Y31593D01*
X93400Y30589D01*
X93065Y29605D01*
X92668Y28645D01*
X92208Y27713D01*
X91688Y26812D01*
X91111Y25948D01*
X90478Y25124D01*
X89793Y24342D01*
X89058Y23607D01*
X88276Y22922D01*
X87452Y22289D01*
X86588Y21712D01*
X85687Y21192D01*
X84755Y20732D01*
X83795Y20335D01*
X82811Y20000D01*
X81807Y19731D01*
X80787Y19529D01*
X79757Y19393D01*
X78720Y19325D01*
X77680Y19325D01*
X79280Y302025D02*
X78243Y302093D01*
X77213Y302229D01*
X76193Y302431D01*
X75189Y302700D01*
X74205Y303035D01*
X73245Y303432D01*
X72313Y303892D01*
X71412Y304412D01*
X70548Y304989D01*
X69724Y305622D01*
X68942Y306307D01*
X68207Y307042D01*
X67522Y307824D01*
X66889Y308648D01*
X66312Y309512D01*
X65792Y310413D01*
X65332Y311345D01*
X64935Y312305D01*
X64600Y313289D01*
X64331Y314293D01*
X64129Y315313D01*
X63993Y316343D01*
X63925Y317380D01*
X63925Y318420D01*
X63993Y319457D01*
X64129Y320487D01*
X64331Y321507D01*
X64600Y322511D01*
X64935Y323495D01*
X65332Y324455D01*
X65792Y325387D01*
X66312Y326288D01*
X66889Y327152D01*
X67522Y327976D01*
X68207Y328758D01*
X68942Y329493D01*
X69724Y330178D01*
X70548Y330811D01*
X71412Y331388D01*
X72313Y331908D01*
X73245Y332368D01*
X74205Y332765D01*
X75189Y333100D01*
X76193Y333369D01*
X77213Y333571D01*
X78243Y333707D01*
X79280Y333775D01*
X80320Y333775D01*
X81357Y333707D01*
X82387Y333571D01*
X83407Y333369D01*
X84411Y333100D01*
X85395Y332765D01*
X86355Y332368D01*
X87287Y331908D01*
X88188Y331388D01*
X89052Y330811D01*
X89876Y330178D01*
X90658Y329493D01*
X91393Y328758D01*
X92078Y327976D01*
X92711Y327152D01*
X93288Y326288D01*
X93808Y325387D01*
X94268Y324455D01*
X94665Y323495D01*
X95000Y322511D01*
X95269Y321507D01*
X95471Y320487D01*
X95607Y319457D01*
X95675Y318420D01*
X95675Y317380D01*
X95607Y316343D01*
X95471Y315313D01*
X95269Y314293D01*
X95000Y313289D01*
X94665Y312305D01*
X94268Y311345D01*
X93808Y310413D01*
X93288Y309512D01*
X92711Y308648D01*
X92078Y307824D01*
X91393Y307042D01*
X90658Y306307D01*
X89876Y305622D01*
X89052Y304989D01*
X88188Y304412D01*
X87287Y303892D01*
X86355Y303432D01*
X85395Y303035D01*
X84411Y302700D01*
X83407Y302431D01*
X82387Y302229D01*
X81357Y302093D01*
X80320Y302025D01*
X79280Y302025D01*
X79280Y187725D02*
X78243Y187793D01*
X77213Y187929D01*
X76193Y188131D01*
X75189Y188400D01*
X74205Y188735D01*
X73245Y189132D01*
X72313Y189592D01*
X71412Y190112D01*
X70548Y190689D01*
X69724Y191322D01*
X68942Y192007D01*
X68207Y192742D01*
X67522Y193524D01*
X66889Y194348D01*
X66312Y195212D01*
X65792Y196113D01*
X65332Y197045D01*
X64935Y198005D01*
X64600Y198989D01*
X64331Y199993D01*
X64129Y201013D01*
X63993Y202043D01*
X63925Y203080D01*
X63925Y204120D01*
X63993Y205157D01*
X64129Y206187D01*
X64331Y207207D01*
X64600Y208211D01*
X64935Y209195D01*
X65332Y210155D01*
X65792Y211087D01*
X66312Y211988D01*
X66889Y212852D01*
X67522Y213676D01*
X68207Y214458D01*
X68942Y215193D01*
X69724Y215878D01*
X70548Y216511D01*
X71412Y217088D01*
X72313Y217608D01*
X73245Y218068D01*
X74205Y218465D01*
X75189Y218800D01*
X76193Y219069D01*
X77213Y219271D01*
X78243Y219407D01*
X79280Y219475D01*
X80320Y219475D01*
X81357Y219407D01*
X82387Y219271D01*
X83407Y219069D01*
X84411Y218800D01*
X85395Y218465D01*
X86355Y218068D01*
X87287Y217608D01*
X88188Y217088D01*
X89052Y216511D01*
X89876Y215878D01*
X90658Y215193D01*
X91393Y214458D01*
X92078Y213676D01*
X92711Y212852D01*
X93288Y211988D01*
X93808Y211087D01*
X94268Y210155D01*
X94665Y209195D01*
X95000Y208211D01*
X95269Y207207D01*
X95471Y206187D01*
X95607Y205157D01*
X95675Y204120D01*
X95675Y203080D01*
X95607Y202043D01*
X95471Y201013D01*
X95269Y199993D01*
X95000Y198989D01*
X94665Y198005D01*
X94268Y197045D01*
X93808Y196113D01*
X93288Y195212D01*
X92711Y194348D01*
X92078Y193524D01*
X91393Y192742D01*
X90658Y192007D01*
X89876Y191322D01*
X89052Y190689D01*
X88188Y190112D01*
X87287Y189592D01*
X86355Y189132D01*
X85395Y188735D01*
X84411Y188400D01*
X83407Y188131D01*
X82387Y187929D01*
X81357Y187793D01*
X80320Y187725D01*
X79280Y187725D01*
X1088610Y422376D02*
X1088542Y421331D01*
X1088405Y420292D01*
X1088200Y419265D01*
X1087929Y418253D01*
X1087593Y417261D01*
X1087192Y416293D01*
X1086728Y415354D01*
X1086205Y414446D01*
X1085623Y413575D01*
X1084985Y412744D01*
X1084294Y411957D01*
X1083553Y411216D01*
X1082766Y410525D01*
X1081935Y409888D01*
X1081064Y409306D01*
X1080156Y408782D01*
X1079217Y408318D01*
X1078249Y407917D01*
X1077257Y407581D01*
X1076245Y407310D01*
X1075218Y407105D01*
X1074179Y406969D01*
X1073134Y406900D01*
X1072086Y406900D01*
X1071041Y406969D01*
X1070002Y407105D01*
X1068975Y407310D01*
X1067963Y407581D01*
X1066971Y407917D01*
X1066003Y408318D01*
X1065064Y408782D01*
X1064156Y409306D01*
X1063285Y409888D01*
X1062454Y410525D01*
X1061667Y411216D01*
X1060926Y411957D01*
X1060235Y412744D01*
X1059598Y413575D01*
X1059016Y414446D01*
X1058492Y415354D01*
X1058028Y416293D01*
X1057627Y417261D01*
X1057291Y418253D01*
X1057020Y419265D01*
X1056815Y420292D01*
X1056679Y421331D01*
X1056610Y422376D01*
X1056610Y423424D01*
X1056679Y424469D01*
X1056815Y425508D01*
X1057020Y426535D01*
X1057291Y427547D01*
X1057627Y428539D01*
X1058028Y429507D01*
X1058492Y430446D01*
X1059016Y431354D01*
X1059598Y432225D01*
X1060235Y433056D01*
X1060926Y433843D01*
X1061667Y434584D01*
X1062454Y435275D01*
X1063285Y435913D01*
X1064156Y436495D01*
X1065064Y437018D01*
X1066003Y437482D01*
X1066971Y437883D01*
X1067963Y438219D01*
X1068975Y438490D01*
X1070002Y438695D01*
X1071041Y438832D01*
X1072086Y438900D01*
X1073134Y438900D01*
X1074179Y438832D01*
X1075218Y438695D01*
X1076245Y438490D01*
X1077257Y438219D01*
X1078249Y437883D01*
X1079217Y437482D01*
X1080156Y437018D01*
X1081064Y436495D01*
X1081935Y435913D01*
X1082766Y435275D01*
X1083553Y434584D01*
X1084294Y433843D01*
X1084985Y433056D01*
X1085623Y432225D01*
X1086205Y431354D01*
X1086728Y430446D01*
X1087192Y429507D01*
X1087593Y428539D01*
X1087929Y427547D01*
X1088200Y426535D01*
X1088405Y425508D01*
X1088542Y424469D01*
X1088610Y423424D01*
X1088610Y422376D01*
X1188890Y422376D02*
X1188822Y421331D01*
X1188685Y420292D01*
X1188480Y419265D01*
X1188209Y418253D01*
X1187873Y417261D01*
X1187472Y416293D01*
X1187008Y415354D01*
X1186485Y414446D01*
X1185903Y413575D01*
X1185265Y412744D01*
X1184574Y411957D01*
X1183833Y411216D01*
X1183046Y410525D01*
X1182215Y409888D01*
X1181344Y409306D01*
X1180436Y408782D01*
X1179497Y408318D01*
X1178529Y407917D01*
X1177537Y407581D01*
X1176525Y407310D01*
X1175498Y407105D01*
X1174459Y406969D01*
X1173414Y406900D01*
X1172366Y406900D01*
X1171321Y406969D01*
X1170282Y407105D01*
X1169255Y407310D01*
X1168243Y407581D01*
X1167251Y407917D01*
X1166283Y408318D01*
X1165344Y408782D01*
X1164436Y409306D01*
X1163565Y409888D01*
X1162734Y410525D01*
X1161947Y411216D01*
X1161206Y411957D01*
X1160515Y412744D01*
X1159878Y413575D01*
X1159296Y414446D01*
X1158772Y415354D01*
X1158308Y416293D01*
X1157907Y417261D01*
X1157571Y418253D01*
X1157300Y419265D01*
X1157095Y420292D01*
X1156959Y421331D01*
X1156890Y422376D01*
X1156890Y423424D01*
X1156959Y424469D01*
X1157095Y425508D01*
X1157300Y426535D01*
X1157571Y427547D01*
X1157907Y428539D01*
X1158308Y429507D01*
X1158772Y430446D01*
X1159296Y431354D01*
X1159878Y432225D01*
X1160515Y433056D01*
X1161206Y433843D01*
X1161947Y434584D01*
X1162734Y435275D01*
X1163565Y435913D01*
X1164436Y436495D01*
X1165344Y437018D01*
X1166283Y437482D01*
X1167251Y437883D01*
X1168243Y438219D01*
X1169255Y438490D01*
X1170282Y438695D01*
X1171321Y438832D01*
X1172366Y438900D01*
X1173414Y438900D01*
X1174459Y438832D01*
X1175498Y438695D01*
X1176525Y438490D01*
X1177537Y438219D01*
X1178529Y437883D01*
X1179497Y437482D01*
X1180436Y437018D01*
X1181344Y436495D01*
X1182215Y435913D01*
X1183046Y435275D01*
X1183833Y434584D01*
X1184574Y433843D01*
X1185265Y433056D01*
X1185903Y432225D01*
X1186485Y431354D01*
X1187008Y430446D01*
X1187472Y429507D01*
X1187873Y428539D01*
X1188209Y427547D01*
X1188480Y426535D01*
X1188685Y425508D01*
X1188822Y424469D01*
X1188890Y423424D01*
X1188890Y422376D01*
X1230710Y423476D02*
X1230642Y422431D01*
X1230505Y421392D01*
X1230300Y420365D01*
X1230029Y419353D01*
X1229693Y418361D01*
X1229292Y417393D01*
X1228828Y416454D01*
X1228305Y415546D01*
X1227723Y414675D01*
X1227085Y413844D01*
X1226394Y413057D01*
X1225653Y412316D01*
X1224866Y411625D01*
X1224035Y410988D01*
X1223164Y410406D01*
X1222256Y409882D01*
X1221317Y409418D01*
X1220349Y409017D01*
X1219357Y408681D01*
X1218345Y408410D01*
X1217318Y408205D01*
X1216279Y408069D01*
X1215234Y408000D01*
X1214186Y408000D01*
X1213141Y408069D01*
X1212102Y408205D01*
X1211075Y408410D01*
X1210063Y408681D01*
X1209071Y409017D01*
X1208103Y409418D01*
X1207164Y409882D01*
X1206256Y410406D01*
X1205385Y410988D01*
X1204554Y411625D01*
X1203767Y412316D01*
X1203026Y413057D01*
X1202335Y413844D01*
X1201698Y414675D01*
X1201116Y415546D01*
X1200592Y416454D01*
X1200128Y417393D01*
X1199727Y418361D01*
X1199391Y419353D01*
X1199120Y420365D01*
X1198915Y421392D01*
X1198779Y422431D01*
X1198710Y423476D01*
X1198710Y424524D01*
X1198779Y425569D01*
X1198915Y426608D01*
X1199120Y427635D01*
X1199391Y428647D01*
X1199727Y429639D01*
X1200128Y430607D01*
X1200592Y431546D01*
X1201116Y432454D01*
X1201698Y433325D01*
X1202335Y434156D01*
X1203026Y434943D01*
X1203767Y435684D01*
X1204554Y436375D01*
X1205385Y437013D01*
X1206256Y437595D01*
X1207164Y438118D01*
X1208103Y438582D01*
X1209071Y438983D01*
X1210063Y439319D01*
X1211075Y439590D01*
X1212102Y439795D01*
X1213141Y439932D01*
X1214186Y440000D01*
X1215234Y440000D01*
X1216279Y439932D01*
X1217318Y439795D01*
X1218345Y439590D01*
X1219357Y439319D01*
X1220349Y438983D01*
X1221317Y438582D01*
X1222256Y438118D01*
X1223164Y437595D01*
X1224035Y437013D01*
X1224866Y436375D01*
X1225653Y435684D01*
X1226394Y434943D01*
X1227085Y434156D01*
X1227723Y433325D01*
X1228305Y432454D01*
X1228828Y431546D01*
X1229292Y430607D01*
X1229693Y429639D01*
X1230029Y428647D01*
X1230300Y427635D01*
X1230505Y426608D01*
X1230642Y425569D01*
X1230710Y424524D01*
X1230710Y423476D01*
X1330990Y423476D02*
X1330922Y422431D01*
X1330785Y421392D01*
X1330580Y420365D01*
X1330309Y419353D01*
X1329973Y418361D01*
X1329572Y417393D01*
X1329108Y416454D01*
X1328585Y415546D01*
X1328003Y414675D01*
X1327365Y413844D01*
X1326674Y413057D01*
X1325933Y412316D01*
X1325146Y411625D01*
X1324315Y410988D01*
X1323444Y410406D01*
X1322536Y409882D01*
X1321597Y409418D01*
X1320629Y409017D01*
X1319637Y408681D01*
X1318625Y408410D01*
X1317598Y408205D01*
X1316559Y408069D01*
X1315514Y408000D01*
X1314466Y408000D01*
X1313421Y408069D01*
X1312382Y408205D01*
X1311355Y408410D01*
X1310343Y408681D01*
X1309351Y409017D01*
X1308383Y409418D01*
X1307444Y409882D01*
X1306536Y410406D01*
X1305665Y410988D01*
X1304834Y411625D01*
X1304047Y412316D01*
X1303306Y413057D01*
X1302615Y413844D01*
X1301978Y414675D01*
X1301396Y415546D01*
X1300872Y416454D01*
X1300408Y417393D01*
X1300007Y418361D01*
X1299671Y419353D01*
X1299400Y420365D01*
X1299195Y421392D01*
X1299059Y422431D01*
X1298990Y423476D01*
X1298990Y424524D01*
X1299059Y425569D01*
X1299195Y426608D01*
X1299400Y427635D01*
X1299671Y428647D01*
X1300007Y429639D01*
X1300408Y430607D01*
X1300872Y431546D01*
X1301396Y432454D01*
X1301978Y433325D01*
X1302615Y434156D01*
X1303306Y434943D01*
X1304047Y435684D01*
X1304834Y436375D01*
X1305665Y437013D01*
X1306536Y437595D01*
X1307444Y438118D01*
X1308383Y438582D01*
X1309351Y438983D01*
X1310343Y439319D01*
X1311355Y439590D01*
X1312382Y439795D01*
X1313421Y439932D01*
X1314466Y440000D01*
X1315514Y440000D01*
X1316559Y439932D01*
X1317598Y439795D01*
X1318625Y439590D01*
X1319637Y439319D01*
X1320629Y438983D01*
X1321597Y438582D01*
X1322536Y438118D01*
X1323444Y437595D01*
X1324315Y437013D01*
X1325146Y436375D01*
X1325933Y435684D01*
X1326674Y434943D01*
X1327365Y434156D01*
X1328003Y433325D01*
X1328585Y432454D01*
X1329108Y431546D01*
X1329572Y430607D01*
X1329973Y429639D01*
X1330309Y428647D01*
X1330580Y427635D01*
X1330785Y426608D01*
X1330922Y425569D01*
X1330990Y424524D01*
X1330990Y423476D01*
X1226410Y70976D02*
X1226342Y69931D01*
X1226205Y68892D01*
X1226000Y67865D01*
X1225729Y66853D01*
X1225393Y65861D01*
X1224992Y64893D01*
X1224528Y63954D01*
X1224005Y63046D01*
X1223423Y62175D01*
X1222785Y61344D01*
X1222094Y60557D01*
X1221353Y59816D01*
X1220566Y59125D01*
X1219735Y58488D01*
X1218864Y57906D01*
X1217956Y57382D01*
X1217017Y56918D01*
X1216049Y56517D01*
X1215057Y56181D01*
X1214045Y55910D01*
X1213018Y55705D01*
X1211979Y55569D01*
X1210934Y55500D01*
X1209886Y55500D01*
X1208841Y55569D01*
X1207802Y55705D01*
X1206775Y55910D01*
X1205763Y56181D01*
X1204771Y56517D01*
X1203803Y56918D01*
X1202864Y57382D01*
X1201956Y57906D01*
X1201085Y58488D01*
X1200254Y59125D01*
X1199467Y59816D01*
X1198726Y60557D01*
X1198035Y61344D01*
X1197398Y62175D01*
X1196816Y63046D01*
X1196292Y63954D01*
X1195828Y64893D01*
X1195427Y65861D01*
X1195091Y66853D01*
X1194820Y67865D01*
X1194615Y68892D01*
X1194479Y69931D01*
X1194410Y70976D01*
X1194410Y72024D01*
X1194479Y73069D01*
X1194615Y74108D01*
X1194820Y75135D01*
X1195091Y76147D01*
X1195427Y77139D01*
X1195828Y78107D01*
X1196292Y79046D01*
X1196816Y79954D01*
X1197398Y80825D01*
X1198035Y81656D01*
X1198726Y82443D01*
X1199467Y83184D01*
X1200254Y83875D01*
X1201085Y84513D01*
X1201956Y85095D01*
X1202864Y85618D01*
X1203803Y86082D01*
X1204771Y86483D01*
X1205763Y86819D01*
X1206775Y87090D01*
X1207802Y87295D01*
X1208841Y87432D01*
X1209886Y87500D01*
X1210934Y87500D01*
X1211979Y87432D01*
X1213018Y87295D01*
X1214045Y87090D01*
X1215057Y86819D01*
X1216049Y86483D01*
X1217017Y86082D01*
X1217956Y85618D01*
X1218864Y85095D01*
X1219735Y84513D01*
X1220566Y83875D01*
X1221353Y83184D01*
X1222094Y82443D01*
X1222785Y81656D01*
X1223423Y80825D01*
X1224005Y79954D01*
X1224528Y79046D01*
X1224992Y78107D01*
X1225393Y77139D01*
X1225729Y76147D01*
X1226000Y75135D01*
X1226205Y74108D01*
X1226342Y73069D01*
X1226410Y72024D01*
X1226410Y70976D01*
X1326690Y70976D02*
X1326622Y69931D01*
X1326485Y68892D01*
X1326280Y67865D01*
X1326009Y66853D01*
X1325673Y65861D01*
X1325272Y64893D01*
X1324808Y63954D01*
X1324285Y63046D01*
X1323703Y62175D01*
X1323065Y61344D01*
X1322374Y60557D01*
X1321633Y59816D01*
X1320846Y59125D01*
X1320015Y58488D01*
X1319144Y57906D01*
X1318236Y57382D01*
X1317297Y56918D01*
X1316329Y56517D01*
X1315337Y56181D01*
X1314325Y55910D01*
X1313298Y55705D01*
X1312259Y55569D01*
X1311214Y55500D01*
X1310166Y55500D01*
X1309121Y55569D01*
X1308082Y55705D01*
X1307055Y55910D01*
X1306043Y56181D01*
X1305051Y56517D01*
X1304083Y56918D01*
X1303144Y57382D01*
X1302236Y57906D01*
X1301365Y58488D01*
X1300534Y59125D01*
X1299747Y59816D01*
X1299006Y60557D01*
X1298315Y61344D01*
X1297678Y62175D01*
X1297096Y63046D01*
X1296572Y63954D01*
X1296108Y64893D01*
X1295707Y65861D01*
X1295371Y66853D01*
X1295100Y67865D01*
X1294895Y68892D01*
X1294759Y69931D01*
X1294690Y70976D01*
X1294690Y72024D01*
X1294759Y73069D01*
X1294895Y74108D01*
X1295100Y75135D01*
X1295371Y76147D01*
X1295707Y77139D01*
X1296108Y78107D01*
X1296572Y79046D01*
X1297096Y79954D01*
X1297678Y80825D01*
X1298315Y81656D01*
X1299006Y82443D01*
X1299747Y83184D01*
X1300534Y83875D01*
X1301365Y84513D01*
X1302236Y85095D01*
X1303144Y85618D01*
X1304083Y86082D01*
X1305051Y86483D01*
X1306043Y86819D01*
X1307055Y87090D01*
X1308082Y87295D01*
X1309121Y87432D01*
X1310166Y87500D01*
X1311214Y87500D01*
X1312259Y87432D01*
X1313298Y87295D01*
X1314325Y87090D01*
X1315337Y86819D01*
X1316329Y86483D01*
X1317297Y86082D01*
X1318236Y85618D01*
X1319144Y85095D01*
X1320015Y84513D01*
X1320846Y83875D01*
X1321633Y83184D01*
X1322374Y82443D01*
X1323065Y81656D01*
X1323703Y80825D01*
X1324285Y79954D01*
X1324808Y79046D01*
X1325272Y78107D01*
X1325673Y77139D01*
X1326009Y76147D01*
X1326280Y75135D01*
X1326485Y74108D01*
X1326622Y73069D01*
X1326690Y72024D01*
X1326690Y70976D01*
X1083610Y69076D02*
X1083542Y68031D01*
X1083405Y66992D01*
X1083200Y65965D01*
X1082929Y64953D01*
X1082593Y63961D01*
X1082192Y62993D01*
X1081728Y62054D01*
X1081205Y61146D01*
X1080623Y60275D01*
X1079985Y59444D01*
X1079294Y58657D01*
X1078553Y57916D01*
X1077766Y57225D01*
X1076935Y56588D01*
X1076064Y56006D01*
X1075156Y55482D01*
X1074217Y55018D01*
X1073249Y54617D01*
X1072257Y54281D01*
X1071245Y54010D01*
X1070218Y53805D01*
X1069179Y53669D01*
X1068134Y53600D01*
X1067086Y53600D01*
X1066041Y53669D01*
X1065002Y53805D01*
X1063975Y54010D01*
X1062963Y54281D01*
X1061971Y54617D01*
X1061003Y55018D01*
X1060064Y55482D01*
X1059156Y56006D01*
X1058285Y56588D01*
X1057454Y57225D01*
X1056667Y57916D01*
X1055926Y58657D01*
X1055235Y59444D01*
X1054598Y60275D01*
X1054016Y61146D01*
X1053492Y62054D01*
X1053028Y62993D01*
X1052627Y63961D01*
X1052291Y64953D01*
X1052020Y65965D01*
X1051815Y66992D01*
X1051679Y68031D01*
X1051610Y69076D01*
X1051610Y70124D01*
X1051679Y71169D01*
X1051815Y72208D01*
X1052020Y73235D01*
X1052291Y74247D01*
X1052627Y75239D01*
X1053028Y76207D01*
X1053492Y77146D01*
X1054016Y78054D01*
X1054598Y78925D01*
X1055235Y79756D01*
X1055926Y80543D01*
X1056667Y81284D01*
X1057454Y81975D01*
X1058285Y82613D01*
X1059156Y83195D01*
X1060064Y83718D01*
X1061003Y84182D01*
X1061971Y84583D01*
X1062963Y84919D01*
X1063975Y85190D01*
X1065002Y85395D01*
X1066041Y85532D01*
X1067086Y85600D01*
X1068134Y85600D01*
X1069179Y85532D01*
X1070218Y85395D01*
X1071245Y85190D01*
X1072257Y84919D01*
X1073249Y84583D01*
X1074217Y84182D01*
X1075156Y83718D01*
X1076064Y83195D01*
X1076935Y82613D01*
X1077766Y81975D01*
X1078553Y81284D01*
X1079294Y80543D01*
X1079985Y79756D01*
X1080623Y78925D01*
X1081205Y78054D01*
X1081728Y77146D01*
X1082192Y76207D01*
X1082593Y75239D01*
X1082929Y74247D01*
X1083200Y73235D01*
X1083405Y72208D01*
X1083542Y71169D01*
X1083610Y70124D01*
X1083610Y69076D01*
X1183890Y69076D02*
X1183822Y68031D01*
X1183685Y66992D01*
X1183480Y65965D01*
X1183209Y64953D01*
X1182873Y63961D01*
X1182472Y62993D01*
X1182008Y62054D01*
X1181485Y61146D01*
X1180903Y60275D01*
X1180265Y59444D01*
X1179574Y58657D01*
X1178833Y57916D01*
X1178046Y57225D01*
X1177215Y56588D01*
X1176344Y56006D01*
X1175436Y55482D01*
X1174497Y55018D01*
X1173529Y54617D01*
X1172537Y54281D01*
X1171525Y54010D01*
X1170498Y53805D01*
X1169459Y53669D01*
X1168414Y53600D01*
X1167366Y53600D01*
X1166321Y53669D01*
X1165282Y53805D01*
X1164255Y54010D01*
X1163243Y54281D01*
X1162251Y54617D01*
X1161283Y55018D01*
X1160344Y55482D01*
X1159436Y56006D01*
X1158565Y56588D01*
X1157734Y57225D01*
X1156947Y57916D01*
X1156206Y58657D01*
X1155515Y59444D01*
X1154878Y60275D01*
X1154296Y61146D01*
X1153772Y62054D01*
X1153308Y62993D01*
X1152907Y63961D01*
X1152571Y64953D01*
X1152300Y65965D01*
X1152095Y66992D01*
X1151959Y68031D01*
X1151890Y69076D01*
X1151890Y70124D01*
X1151959Y71169D01*
X1152095Y72208D01*
X1152300Y73235D01*
X1152571Y74247D01*
X1152907Y75239D01*
X1153308Y76207D01*
X1153772Y77146D01*
X1154296Y78054D01*
X1154878Y78925D01*
X1155515Y79756D01*
X1156206Y80543D01*
X1156947Y81284D01*
X1157734Y81975D01*
X1158565Y82613D01*
X1159436Y83195D01*
X1160344Y83718D01*
X1161283Y84182D01*
X1162251Y84583D01*
X1163243Y84919D01*
X1164255Y85190D01*
X1165282Y85395D01*
X1166321Y85532D01*
X1167366Y85600D01*
X1168414Y85600D01*
X1169459Y85532D01*
X1170498Y85395D01*
X1171525Y85190D01*
X1172537Y84919D01*
X1173529Y84583D01*
X1174497Y84182D01*
X1175436Y83718D01*
X1176344Y83195D01*
X1177215Y82613D01*
X1178046Y81975D01*
X1178833Y81284D01*
X1179574Y80543D01*
X1180265Y79756D01*
X1180903Y78925D01*
X1181485Y78054D01*
X1182008Y77146D01*
X1182472Y76207D01*
X1182873Y75239D01*
X1183209Y74247D01*
X1183480Y73235D01*
X1183685Y72208D01*
X1183822Y71169D01*
X1183890Y70124D01*
X1183890Y69076D01*
M02*
