G04 EAGLE Gerber X2 export*
%TF.Part,Single*%
%TF.FileFunction,Legend,Top,1*%
%TF.FilePolarity,Positive*%
%TF.GenerationSoftware,Autodesk,EAGLE,8.6.3*%
%TF.CreationDate,2018-07-14T15:56:02Z*%
G75*
%MOMM*%
%FSLAX34Y34*%
%LPD*%
%AMOC8*
5,1,8,0,0,1.08239X$1,22.5*%
G01*
%ADD10C,0.152400*%
%ADD11C,0.127000*%
%ADD12R,0.508000X3.048000*%
%ADD13C,0.101600*%
%ADD14C,0.050800*%
%ADD15C,0.508000*%
%ADD16R,0.762000X10.668000*%
%ADD17R,0.508000X1.905000*%
%ADD18R,0.508000X3.302000*%
%ADD19R,0.200000X0.200000*%
%ADD20C,0.203200*%
%ADD21R,0.762000X0.863600*%
%ADD22R,10.668000X0.762000*%
%ADD23R,1.905000X0.508000*%
%ADD24R,0.762000X0.508000*%


D10*
X6562Y588297D02*
X17409Y588297D01*
X11985Y593720D02*
X11985Y582874D01*
X4662Y548832D02*
X4662Y532562D01*
X12797Y532562D01*
X15509Y535274D01*
X15509Y546120D01*
X12797Y548832D01*
X4662Y548832D01*
X12797Y502632D02*
X15509Y499920D01*
X12797Y502632D02*
X7374Y502632D01*
X4662Y499920D01*
X4662Y489074D01*
X7374Y486362D01*
X12797Y486362D01*
X15509Y489074D01*
X15509Y494497D01*
X10085Y494497D01*
X179497Y597132D02*
X182209Y594420D01*
X179497Y597132D02*
X174074Y597132D01*
X171362Y594420D01*
X171362Y583574D01*
X174074Y580862D01*
X179497Y580862D01*
X182209Y583574D01*
X182209Y588997D01*
X176785Y588997D01*
D11*
X101050Y456590D02*
X95970Y456590D01*
X95970Y426110D01*
X101050Y426110D01*
X108670Y450240D02*
X108670Y457860D01*
X112480Y454050D02*
X104860Y454050D01*
X101050Y456590D02*
X101050Y426110D01*
X69300Y441350D02*
X69308Y441973D01*
X69331Y442596D01*
X69369Y443219D01*
X69422Y443840D01*
X69491Y444459D01*
X69575Y445077D01*
X69674Y445692D01*
X69788Y446305D01*
X69917Y446915D01*
X70061Y447522D01*
X70220Y448125D01*
X70394Y448723D01*
X70582Y449318D01*
X70785Y449907D01*
X71002Y450491D01*
X71233Y451070D01*
X71479Y451643D01*
X71739Y452210D01*
X72012Y452770D01*
X72299Y453323D01*
X72600Y453870D01*
X72914Y454408D01*
X73241Y454939D01*
X73581Y455461D01*
X73933Y455976D01*
X74299Y456481D01*
X74676Y456977D01*
X75066Y457464D01*
X75467Y457941D01*
X75880Y458408D01*
X76304Y458864D01*
X76739Y459311D01*
X77186Y459746D01*
X77642Y460170D01*
X78109Y460583D01*
X78586Y460984D01*
X79073Y461374D01*
X79569Y461751D01*
X80074Y462117D01*
X80589Y462469D01*
X81111Y462809D01*
X81642Y463136D01*
X82180Y463450D01*
X82727Y463751D01*
X83280Y464038D01*
X83840Y464311D01*
X84407Y464571D01*
X84980Y464817D01*
X85559Y465048D01*
X86143Y465265D01*
X86732Y465468D01*
X87327Y465656D01*
X87925Y465830D01*
X88528Y465989D01*
X89135Y466133D01*
X89745Y466262D01*
X90358Y466376D01*
X90973Y466475D01*
X91591Y466559D01*
X92210Y466628D01*
X92831Y466681D01*
X93454Y466719D01*
X94077Y466742D01*
X94700Y466750D01*
X95323Y466742D01*
X95946Y466719D01*
X96569Y466681D01*
X97190Y466628D01*
X97809Y466559D01*
X98427Y466475D01*
X99042Y466376D01*
X99655Y466262D01*
X100265Y466133D01*
X100872Y465989D01*
X101475Y465830D01*
X102073Y465656D01*
X102668Y465468D01*
X103257Y465265D01*
X103841Y465048D01*
X104420Y464817D01*
X104993Y464571D01*
X105560Y464311D01*
X106120Y464038D01*
X106673Y463751D01*
X107220Y463450D01*
X107758Y463136D01*
X108289Y462809D01*
X108811Y462469D01*
X109326Y462117D01*
X109831Y461751D01*
X110327Y461374D01*
X110814Y460984D01*
X111291Y460583D01*
X111758Y460170D01*
X112214Y459746D01*
X112661Y459311D01*
X113096Y458864D01*
X113520Y458408D01*
X113933Y457941D01*
X114334Y457464D01*
X114724Y456977D01*
X115101Y456481D01*
X115467Y455976D01*
X115819Y455461D01*
X116159Y454939D01*
X116486Y454408D01*
X116800Y453870D01*
X117101Y453323D01*
X117388Y452770D01*
X117661Y452210D01*
X117921Y451643D01*
X118167Y451070D01*
X118398Y450491D01*
X118615Y449907D01*
X118818Y449318D01*
X119006Y448723D01*
X119180Y448125D01*
X119339Y447522D01*
X119483Y446915D01*
X119612Y446305D01*
X119726Y445692D01*
X119825Y445077D01*
X119909Y444459D01*
X119978Y443840D01*
X120031Y443219D01*
X120069Y442596D01*
X120092Y441973D01*
X120100Y441350D01*
X120092Y440727D01*
X120069Y440104D01*
X120031Y439481D01*
X119978Y438860D01*
X119909Y438241D01*
X119825Y437623D01*
X119726Y437008D01*
X119612Y436395D01*
X119483Y435785D01*
X119339Y435178D01*
X119180Y434575D01*
X119006Y433977D01*
X118818Y433382D01*
X118615Y432793D01*
X118398Y432209D01*
X118167Y431630D01*
X117921Y431057D01*
X117661Y430490D01*
X117388Y429930D01*
X117101Y429377D01*
X116800Y428830D01*
X116486Y428292D01*
X116159Y427761D01*
X115819Y427239D01*
X115467Y426724D01*
X115101Y426219D01*
X114724Y425723D01*
X114334Y425236D01*
X113933Y424759D01*
X113520Y424292D01*
X113096Y423836D01*
X112661Y423389D01*
X112214Y422954D01*
X111758Y422530D01*
X111291Y422117D01*
X110814Y421716D01*
X110327Y421326D01*
X109831Y420949D01*
X109326Y420583D01*
X108811Y420231D01*
X108289Y419891D01*
X107758Y419564D01*
X107220Y419250D01*
X106673Y418949D01*
X106120Y418662D01*
X105560Y418389D01*
X104993Y418129D01*
X104420Y417883D01*
X103841Y417652D01*
X103257Y417435D01*
X102668Y417232D01*
X102073Y417044D01*
X101475Y416870D01*
X100872Y416711D01*
X100265Y416567D01*
X99655Y416438D01*
X99042Y416324D01*
X98427Y416225D01*
X97809Y416141D01*
X97190Y416072D01*
X96569Y416019D01*
X95946Y415981D01*
X95323Y415958D01*
X94700Y415950D01*
X94077Y415958D01*
X93454Y415981D01*
X92831Y416019D01*
X92210Y416072D01*
X91591Y416141D01*
X90973Y416225D01*
X90358Y416324D01*
X89745Y416438D01*
X89135Y416567D01*
X88528Y416711D01*
X87925Y416870D01*
X87327Y417044D01*
X86732Y417232D01*
X86143Y417435D01*
X85559Y417652D01*
X84980Y417883D01*
X84407Y418129D01*
X83840Y418389D01*
X83280Y418662D01*
X82727Y418949D01*
X82180Y419250D01*
X81642Y419564D01*
X81111Y419891D01*
X80589Y420231D01*
X80074Y420583D01*
X79569Y420949D01*
X79073Y421326D01*
X78586Y421716D01*
X78109Y422117D01*
X77642Y422530D01*
X77186Y422954D01*
X76739Y423389D01*
X76304Y423836D01*
X75880Y424292D01*
X75467Y424759D01*
X75066Y425236D01*
X74676Y425723D01*
X74299Y426219D01*
X73933Y426724D01*
X73581Y427239D01*
X73241Y427761D01*
X72914Y428292D01*
X72600Y428830D01*
X72299Y429377D01*
X72012Y429930D01*
X71739Y430490D01*
X71479Y431057D01*
X71233Y431630D01*
X71002Y432209D01*
X70785Y432793D01*
X70582Y433382D01*
X70394Y433977D01*
X70220Y434575D01*
X70061Y435178D01*
X69917Y435785D01*
X69788Y436395D01*
X69674Y437008D01*
X69575Y437623D01*
X69491Y438241D01*
X69422Y438860D01*
X69369Y439481D01*
X69331Y440104D01*
X69308Y440727D01*
X69300Y441350D01*
D12*
X89620Y441350D03*
D10*
X128400Y371200D02*
X128400Y371200D01*
X128400Y371200D01*
X127750Y371200D02*
X122400Y371200D01*
X112240Y364850D02*
X112240Y377550D01*
X122400Y371200D01*
X109160Y371200D01*
X112240Y364850D02*
X122400Y371200D01*
X122400Y364850D01*
X122400Y371200D02*
X122400Y377550D01*
D11*
X112763Y371700D02*
X112767Y372059D01*
X112781Y372418D01*
X112803Y372777D01*
X112833Y373135D01*
X112873Y373492D01*
X112921Y373848D01*
X112978Y374202D01*
X113044Y374556D01*
X113119Y374907D01*
X113202Y375257D01*
X113293Y375604D01*
X113393Y375949D01*
X113502Y376291D01*
X113619Y376631D01*
X113744Y376968D01*
X113877Y377301D01*
X114019Y377632D01*
X114168Y377958D01*
X114326Y378281D01*
X114491Y378600D01*
X114665Y378915D01*
X114845Y379225D01*
X115034Y379531D01*
X115230Y379832D01*
X115433Y380128D01*
X115643Y380419D01*
X115861Y380705D01*
X116085Y380986D01*
X116317Y381260D01*
X116555Y381530D01*
X116799Y381793D01*
X117050Y382050D01*
X117307Y382301D01*
X117570Y382545D01*
X117840Y382783D01*
X118114Y383015D01*
X118395Y383239D01*
X118681Y383457D01*
X118972Y383667D01*
X119268Y383870D01*
X119569Y384066D01*
X119875Y384255D01*
X120185Y384435D01*
X120500Y384609D01*
X120819Y384774D01*
X121142Y384932D01*
X121468Y385081D01*
X121799Y385223D01*
X122132Y385356D01*
X122469Y385481D01*
X122809Y385598D01*
X123151Y385707D01*
X123496Y385807D01*
X123843Y385898D01*
X124193Y385981D01*
X124544Y386056D01*
X124898Y386122D01*
X125252Y386179D01*
X125608Y386227D01*
X125965Y386267D01*
X126323Y386297D01*
X126682Y386319D01*
X127041Y386333D01*
X127400Y386337D01*
X127759Y386333D01*
X128118Y386319D01*
X128477Y386297D01*
X128835Y386267D01*
X129192Y386227D01*
X129548Y386179D01*
X129902Y386122D01*
X130256Y386056D01*
X130607Y385981D01*
X130957Y385898D01*
X131304Y385807D01*
X131649Y385707D01*
X131991Y385598D01*
X132331Y385481D01*
X132668Y385356D01*
X133001Y385223D01*
X133332Y385081D01*
X133658Y384932D01*
X133981Y384774D01*
X134300Y384609D01*
X134615Y384435D01*
X134925Y384255D01*
X135231Y384066D01*
X135532Y383870D01*
X135828Y383667D01*
X136119Y383457D01*
X136405Y383239D01*
X136686Y383015D01*
X136960Y382783D01*
X137230Y382545D01*
X137493Y382301D01*
X137750Y382050D01*
X138001Y381793D01*
X138245Y381530D01*
X138483Y381260D01*
X138715Y380986D01*
X138939Y380705D01*
X139157Y380419D01*
X139367Y380128D01*
X139570Y379832D01*
X139766Y379531D01*
X139955Y379225D01*
X140135Y378915D01*
X140309Y378600D01*
X140474Y378281D01*
X140632Y377958D01*
X140781Y377632D01*
X140923Y377301D01*
X141056Y376968D01*
X141181Y376631D01*
X141298Y376291D01*
X141407Y375949D01*
X141507Y375604D01*
X141598Y375257D01*
X141681Y374907D01*
X141756Y374556D01*
X141822Y374202D01*
X141879Y373848D01*
X141927Y373492D01*
X141967Y373135D01*
X141997Y372777D01*
X142019Y372418D01*
X142033Y372059D01*
X142037Y371700D01*
X142033Y371341D01*
X142019Y370982D01*
X141997Y370623D01*
X141967Y370265D01*
X141927Y369908D01*
X141879Y369552D01*
X141822Y369198D01*
X141756Y368844D01*
X141681Y368493D01*
X141598Y368143D01*
X141507Y367796D01*
X141407Y367451D01*
X141298Y367109D01*
X141181Y366769D01*
X141056Y366432D01*
X140923Y366099D01*
X140781Y365768D01*
X140632Y365442D01*
X140474Y365119D01*
X140309Y364800D01*
X140135Y364485D01*
X139955Y364175D01*
X139766Y363869D01*
X139570Y363568D01*
X139367Y363272D01*
X139157Y362981D01*
X138939Y362695D01*
X138715Y362414D01*
X138483Y362140D01*
X138245Y361870D01*
X138001Y361607D01*
X137750Y361350D01*
X137493Y361099D01*
X137230Y360855D01*
X136960Y360617D01*
X136686Y360385D01*
X136405Y360161D01*
X136119Y359943D01*
X135828Y359733D01*
X135532Y359530D01*
X135231Y359334D01*
X134925Y359145D01*
X134615Y358965D01*
X134300Y358791D01*
X133981Y358626D01*
X133658Y358468D01*
X133332Y358319D01*
X133001Y358177D01*
X132668Y358044D01*
X132331Y357919D01*
X131991Y357802D01*
X131649Y357693D01*
X131304Y357593D01*
X130957Y357502D01*
X130607Y357419D01*
X130256Y357344D01*
X129902Y357278D01*
X129548Y357221D01*
X129192Y357173D01*
X128835Y357133D01*
X128477Y357103D01*
X128118Y357081D01*
X127759Y357067D01*
X127400Y357063D01*
X127041Y357067D01*
X126682Y357081D01*
X126323Y357103D01*
X125965Y357133D01*
X125608Y357173D01*
X125252Y357221D01*
X124898Y357278D01*
X124544Y357344D01*
X124193Y357419D01*
X123843Y357502D01*
X123496Y357593D01*
X123151Y357693D01*
X122809Y357802D01*
X122469Y357919D01*
X122132Y358044D01*
X121799Y358177D01*
X121468Y358319D01*
X121142Y358468D01*
X120819Y358626D01*
X120500Y358791D01*
X120185Y358965D01*
X119875Y359145D01*
X119569Y359334D01*
X119268Y359530D01*
X118972Y359733D01*
X118681Y359943D01*
X118395Y360161D01*
X118114Y360385D01*
X117840Y360617D01*
X117570Y360855D01*
X117307Y361099D01*
X117050Y361350D01*
X116799Y361607D01*
X116555Y361870D01*
X116317Y362140D01*
X116085Y362414D01*
X115861Y362695D01*
X115643Y362981D01*
X115433Y363272D01*
X115230Y363568D01*
X115034Y363869D01*
X114845Y364175D01*
X114665Y364485D01*
X114491Y364800D01*
X114326Y365119D01*
X114168Y365442D01*
X114019Y365768D01*
X113877Y366099D01*
X113744Y366432D01*
X113619Y366769D01*
X113502Y367109D01*
X113393Y367451D01*
X113293Y367796D01*
X113202Y368143D01*
X113119Y368493D01*
X113044Y368844D01*
X112978Y369198D01*
X112921Y369552D01*
X112873Y369908D01*
X112833Y370265D01*
X112803Y370623D01*
X112781Y370982D01*
X112767Y371341D01*
X112763Y371700D01*
X97561Y383925D02*
X97561Y395365D01*
X97561Y383925D02*
X103281Y383925D01*
X105188Y385832D01*
X105188Y393458D01*
X103281Y395365D01*
X97561Y395365D01*
X56210Y371200D02*
X48590Y371200D01*
X52400Y371200D02*
X52404Y371512D01*
X52415Y371823D01*
X52434Y372134D01*
X52461Y372445D01*
X52496Y372755D01*
X52537Y373063D01*
X52587Y373371D01*
X52644Y373678D01*
X52709Y373983D01*
X52781Y374286D01*
X52860Y374587D01*
X52947Y374887D01*
X53041Y375184D01*
X53142Y375479D01*
X53251Y375771D01*
X53367Y376060D01*
X53490Y376347D01*
X53619Y376630D01*
X53756Y376910D01*
X53900Y377187D01*
X54050Y377460D01*
X54207Y377729D01*
X54370Y377994D01*
X54540Y378256D01*
X54717Y378513D01*
X54899Y378765D01*
X55088Y379013D01*
X55283Y379257D01*
X55483Y379495D01*
X55690Y379729D01*
X55902Y379957D01*
X56120Y380180D01*
X56343Y380398D01*
X56571Y380610D01*
X56805Y380817D01*
X57043Y381017D01*
X57287Y381212D01*
X57535Y381401D01*
X57787Y381583D01*
X58044Y381760D01*
X58306Y381930D01*
X58571Y382093D01*
X58840Y382250D01*
X59113Y382400D01*
X59390Y382544D01*
X59670Y382681D01*
X59953Y382810D01*
X60240Y382933D01*
X60529Y383049D01*
X60821Y383158D01*
X61116Y383259D01*
X61413Y383353D01*
X61713Y383440D01*
X62014Y383519D01*
X62317Y383591D01*
X62622Y383656D01*
X62929Y383713D01*
X63237Y383763D01*
X63545Y383804D01*
X63855Y383839D01*
X64166Y383866D01*
X64477Y383885D01*
X64788Y383896D01*
X65100Y383900D01*
X65412Y383896D01*
X65723Y383885D01*
X66034Y383866D01*
X66345Y383839D01*
X66655Y383804D01*
X66963Y383763D01*
X67271Y383713D01*
X67578Y383656D01*
X67883Y383591D01*
X68186Y383519D01*
X68487Y383440D01*
X68787Y383353D01*
X69084Y383259D01*
X69379Y383158D01*
X69671Y383049D01*
X69960Y382933D01*
X70247Y382810D01*
X70530Y382681D01*
X70810Y382544D01*
X71087Y382400D01*
X71360Y382250D01*
X71629Y382093D01*
X71894Y381930D01*
X72156Y381760D01*
X72413Y381583D01*
X72665Y381401D01*
X72913Y381212D01*
X73157Y381017D01*
X73395Y380817D01*
X73629Y380610D01*
X73857Y380398D01*
X74080Y380180D01*
X74298Y379957D01*
X74510Y379729D01*
X74717Y379495D01*
X74917Y379257D01*
X75112Y379013D01*
X75301Y378765D01*
X75483Y378513D01*
X75660Y378256D01*
X75830Y377994D01*
X75993Y377729D01*
X76150Y377460D01*
X76300Y377187D01*
X76444Y376910D01*
X76581Y376630D01*
X76710Y376347D01*
X76833Y376060D01*
X76949Y375771D01*
X77058Y375479D01*
X77159Y375184D01*
X77253Y374887D01*
X77340Y374587D01*
X77419Y374286D01*
X77491Y373983D01*
X77556Y373678D01*
X77613Y373371D01*
X77663Y373063D01*
X77704Y372755D01*
X77739Y372445D01*
X77766Y372134D01*
X77785Y371823D01*
X77796Y371512D01*
X77800Y371200D01*
X77796Y370888D01*
X77785Y370577D01*
X77766Y370266D01*
X77739Y369955D01*
X77704Y369645D01*
X77663Y369337D01*
X77613Y369029D01*
X77556Y368722D01*
X77491Y368417D01*
X77419Y368114D01*
X77340Y367813D01*
X77253Y367513D01*
X77159Y367216D01*
X77058Y366921D01*
X76949Y366629D01*
X76833Y366340D01*
X76710Y366053D01*
X76581Y365770D01*
X76444Y365490D01*
X76300Y365213D01*
X76150Y364940D01*
X75993Y364671D01*
X75830Y364406D01*
X75660Y364144D01*
X75483Y363887D01*
X75301Y363635D01*
X75112Y363387D01*
X74917Y363143D01*
X74717Y362905D01*
X74510Y362671D01*
X74298Y362443D01*
X74080Y362220D01*
X73857Y362002D01*
X73629Y361790D01*
X73395Y361583D01*
X73157Y361383D01*
X72913Y361188D01*
X72665Y360999D01*
X72413Y360817D01*
X72156Y360640D01*
X71894Y360470D01*
X71629Y360307D01*
X71360Y360150D01*
X71087Y360000D01*
X70810Y359856D01*
X70530Y359719D01*
X70247Y359590D01*
X69960Y359467D01*
X69671Y359351D01*
X69379Y359242D01*
X69084Y359141D01*
X68787Y359047D01*
X68487Y358960D01*
X68186Y358881D01*
X67883Y358809D01*
X67578Y358744D01*
X67271Y358687D01*
X66963Y358637D01*
X66655Y358596D01*
X66345Y358561D01*
X66034Y358534D01*
X65723Y358515D01*
X65412Y358504D01*
X65100Y358500D01*
X64788Y358504D01*
X64477Y358515D01*
X64166Y358534D01*
X63855Y358561D01*
X63545Y358596D01*
X63237Y358637D01*
X62929Y358687D01*
X62622Y358744D01*
X62317Y358809D01*
X62014Y358881D01*
X61713Y358960D01*
X61413Y359047D01*
X61116Y359141D01*
X60821Y359242D01*
X60529Y359351D01*
X60240Y359467D01*
X59953Y359590D01*
X59670Y359719D01*
X59390Y359856D01*
X59113Y360000D01*
X58840Y360150D01*
X58571Y360307D01*
X58306Y360470D01*
X58044Y360640D01*
X57787Y360817D01*
X57535Y360999D01*
X57287Y361188D01*
X57043Y361383D01*
X56805Y361583D01*
X56571Y361790D01*
X56343Y362002D01*
X56120Y362220D01*
X55902Y362443D01*
X55690Y362671D01*
X55483Y362905D01*
X55283Y363143D01*
X55088Y363387D01*
X54899Y363635D01*
X54717Y363887D01*
X54540Y364144D01*
X54370Y364406D01*
X54207Y364671D01*
X54050Y364940D01*
X53900Y365213D01*
X53756Y365490D01*
X53619Y365770D01*
X53490Y366053D01*
X53367Y366340D01*
X53251Y366629D01*
X53142Y366921D01*
X53041Y367216D01*
X52947Y367513D01*
X52860Y367813D01*
X52781Y368114D01*
X52709Y368417D01*
X52644Y368722D01*
X52587Y369029D01*
X52537Y369337D01*
X52496Y369645D01*
X52461Y369955D01*
X52434Y370266D01*
X52415Y370577D01*
X52404Y370888D01*
X52400Y371200D01*
X43547Y390355D02*
X43547Y401795D01*
X49267Y401795D01*
X51174Y399888D01*
X51174Y396075D01*
X49267Y394168D01*
X43547Y394168D01*
X47360Y394168D02*
X51174Y390355D01*
X55241Y397982D02*
X59054Y401795D01*
X59054Y390355D01*
X55241Y390355D02*
X62868Y390355D01*
D10*
X393220Y425470D02*
X391380Y10470D01*
X201380Y11430D01*
X199080Y426430D01*
D11*
X220035Y351513D02*
X220035Y342615D01*
X224484Y342615D01*
X225967Y344098D01*
X225967Y350030D01*
X224484Y351513D01*
X220035Y351513D01*
X233839Y351513D02*
X235322Y350030D01*
X233839Y351513D02*
X230873Y351513D01*
X229390Y350030D01*
X229390Y344098D01*
X230873Y342615D01*
X233839Y342615D01*
X235322Y344098D01*
X238745Y347064D02*
X244677Y347064D01*
X248101Y351513D02*
X248101Y342615D01*
X252549Y342615D01*
X254032Y344098D01*
X254032Y350030D01*
X252549Y351513D01*
X248101Y351513D01*
X261905Y351513D02*
X263387Y350030D01*
X261905Y351513D02*
X258939Y351513D01*
X257456Y350030D01*
X257456Y344098D01*
X258939Y342615D01*
X261905Y342615D01*
X263387Y344098D01*
X2000Y174900D02*
X2000Y136800D01*
X2000Y47900D01*
X2000Y9800D01*
X2000Y174900D02*
X192500Y174900D01*
X192500Y9800D01*
X2000Y9800D01*
X2000Y136800D02*
X116300Y136800D01*
X116300Y47900D01*
X2000Y47900D01*
X3600Y305200D02*
X3600Y343300D01*
X3600Y305200D02*
X3600Y216300D01*
X3600Y178200D01*
X3600Y343300D02*
X194100Y343300D01*
X194100Y178200D01*
X3600Y178200D01*
X3600Y305200D02*
X117900Y305200D01*
X117900Y216300D01*
X3600Y216300D01*
D13*
X120608Y415719D02*
X132302Y415719D01*
X120608Y415719D02*
X120608Y421566D01*
X122557Y423515D01*
X126455Y423515D01*
X128404Y421566D01*
X128404Y415719D01*
X128404Y419617D02*
X132302Y423515D01*
X132302Y427413D02*
X132302Y435209D01*
X132302Y427413D02*
X124506Y435209D01*
X122557Y435209D01*
X120608Y433260D01*
X120608Y429362D01*
X122557Y427413D01*
D11*
X838150Y74860D02*
X843230Y74860D01*
X843230Y105340D01*
X838150Y105340D01*
X830530Y81210D02*
X830530Y73590D01*
X826720Y77400D02*
X834340Y77400D01*
X838150Y74860D02*
X838150Y105340D01*
X819100Y90100D02*
X819108Y90723D01*
X819131Y91346D01*
X819169Y91969D01*
X819222Y92590D01*
X819291Y93209D01*
X819375Y93827D01*
X819474Y94442D01*
X819588Y95055D01*
X819717Y95665D01*
X819861Y96272D01*
X820020Y96875D01*
X820194Y97473D01*
X820382Y98068D01*
X820585Y98657D01*
X820802Y99241D01*
X821033Y99820D01*
X821279Y100393D01*
X821539Y100960D01*
X821812Y101520D01*
X822099Y102073D01*
X822400Y102620D01*
X822714Y103158D01*
X823041Y103689D01*
X823381Y104211D01*
X823733Y104726D01*
X824099Y105231D01*
X824476Y105727D01*
X824866Y106214D01*
X825267Y106691D01*
X825680Y107158D01*
X826104Y107614D01*
X826539Y108061D01*
X826986Y108496D01*
X827442Y108920D01*
X827909Y109333D01*
X828386Y109734D01*
X828873Y110124D01*
X829369Y110501D01*
X829874Y110867D01*
X830389Y111219D01*
X830911Y111559D01*
X831442Y111886D01*
X831980Y112200D01*
X832527Y112501D01*
X833080Y112788D01*
X833640Y113061D01*
X834207Y113321D01*
X834780Y113567D01*
X835359Y113798D01*
X835943Y114015D01*
X836532Y114218D01*
X837127Y114406D01*
X837725Y114580D01*
X838328Y114739D01*
X838935Y114883D01*
X839545Y115012D01*
X840158Y115126D01*
X840773Y115225D01*
X841391Y115309D01*
X842010Y115378D01*
X842631Y115431D01*
X843254Y115469D01*
X843877Y115492D01*
X844500Y115500D01*
X845123Y115492D01*
X845746Y115469D01*
X846369Y115431D01*
X846990Y115378D01*
X847609Y115309D01*
X848227Y115225D01*
X848842Y115126D01*
X849455Y115012D01*
X850065Y114883D01*
X850672Y114739D01*
X851275Y114580D01*
X851873Y114406D01*
X852468Y114218D01*
X853057Y114015D01*
X853641Y113798D01*
X854220Y113567D01*
X854793Y113321D01*
X855360Y113061D01*
X855920Y112788D01*
X856473Y112501D01*
X857020Y112200D01*
X857558Y111886D01*
X858089Y111559D01*
X858611Y111219D01*
X859126Y110867D01*
X859631Y110501D01*
X860127Y110124D01*
X860614Y109734D01*
X861091Y109333D01*
X861558Y108920D01*
X862014Y108496D01*
X862461Y108061D01*
X862896Y107614D01*
X863320Y107158D01*
X863733Y106691D01*
X864134Y106214D01*
X864524Y105727D01*
X864901Y105231D01*
X865267Y104726D01*
X865619Y104211D01*
X865959Y103689D01*
X866286Y103158D01*
X866600Y102620D01*
X866901Y102073D01*
X867188Y101520D01*
X867461Y100960D01*
X867721Y100393D01*
X867967Y99820D01*
X868198Y99241D01*
X868415Y98657D01*
X868618Y98068D01*
X868806Y97473D01*
X868980Y96875D01*
X869139Y96272D01*
X869283Y95665D01*
X869412Y95055D01*
X869526Y94442D01*
X869625Y93827D01*
X869709Y93209D01*
X869778Y92590D01*
X869831Y91969D01*
X869869Y91346D01*
X869892Y90723D01*
X869900Y90100D01*
X869892Y89477D01*
X869869Y88854D01*
X869831Y88231D01*
X869778Y87610D01*
X869709Y86991D01*
X869625Y86373D01*
X869526Y85758D01*
X869412Y85145D01*
X869283Y84535D01*
X869139Y83928D01*
X868980Y83325D01*
X868806Y82727D01*
X868618Y82132D01*
X868415Y81543D01*
X868198Y80959D01*
X867967Y80380D01*
X867721Y79807D01*
X867461Y79240D01*
X867188Y78680D01*
X866901Y78127D01*
X866600Y77580D01*
X866286Y77042D01*
X865959Y76511D01*
X865619Y75989D01*
X865267Y75474D01*
X864901Y74969D01*
X864524Y74473D01*
X864134Y73986D01*
X863733Y73509D01*
X863320Y73042D01*
X862896Y72586D01*
X862461Y72139D01*
X862014Y71704D01*
X861558Y71280D01*
X861091Y70867D01*
X860614Y70466D01*
X860127Y70076D01*
X859631Y69699D01*
X859126Y69333D01*
X858611Y68981D01*
X858089Y68641D01*
X857558Y68314D01*
X857020Y68000D01*
X856473Y67699D01*
X855920Y67412D01*
X855360Y67139D01*
X854793Y66879D01*
X854220Y66633D01*
X853641Y66402D01*
X853057Y66185D01*
X852468Y65982D01*
X851873Y65794D01*
X851275Y65620D01*
X850672Y65461D01*
X850065Y65317D01*
X849455Y65188D01*
X848842Y65074D01*
X848227Y64975D01*
X847609Y64891D01*
X846990Y64822D01*
X846369Y64769D01*
X845746Y64731D01*
X845123Y64708D01*
X844500Y64700D01*
X843877Y64708D01*
X843254Y64731D01*
X842631Y64769D01*
X842010Y64822D01*
X841391Y64891D01*
X840773Y64975D01*
X840158Y65074D01*
X839545Y65188D01*
X838935Y65317D01*
X838328Y65461D01*
X837725Y65620D01*
X837127Y65794D01*
X836532Y65982D01*
X835943Y66185D01*
X835359Y66402D01*
X834780Y66633D01*
X834207Y66879D01*
X833640Y67139D01*
X833080Y67412D01*
X832527Y67699D01*
X831980Y68000D01*
X831442Y68314D01*
X830911Y68641D01*
X830389Y68981D01*
X829874Y69333D01*
X829369Y69699D01*
X828873Y70076D01*
X828386Y70466D01*
X827909Y70867D01*
X827442Y71280D01*
X826986Y71704D01*
X826539Y72139D01*
X826104Y72586D01*
X825680Y73042D01*
X825267Y73509D01*
X824866Y73986D01*
X824476Y74473D01*
X824099Y74969D01*
X823733Y75474D01*
X823381Y75989D01*
X823041Y76511D01*
X822714Y77042D01*
X822400Y77580D01*
X822099Y78127D01*
X821812Y78680D01*
X821539Y79240D01*
X821279Y79807D01*
X821033Y80380D01*
X820802Y80959D01*
X820585Y81543D01*
X820382Y82132D01*
X820194Y82727D01*
X820020Y83325D01*
X819861Y83928D01*
X819717Y84535D01*
X819588Y85145D01*
X819474Y85758D01*
X819375Y86373D01*
X819291Y86991D01*
X819222Y87610D01*
X819169Y88231D01*
X819131Y88854D01*
X819108Y89477D01*
X819100Y90100D01*
D12*
X849580Y90100D03*
D11*
X807962Y71118D02*
X806055Y73025D01*
X802242Y73025D01*
X800335Y71118D01*
X800335Y63492D01*
X802242Y61585D01*
X806055Y61585D01*
X807962Y63492D01*
X812029Y69212D02*
X815842Y73025D01*
X815842Y61585D01*
X812029Y61585D02*
X819655Y61585D01*
X157705Y336935D02*
X157705Y348375D01*
X163425Y348375D01*
X165332Y346468D01*
X165332Y342655D01*
X163425Y340748D01*
X157705Y340748D01*
X169399Y344562D02*
X173212Y348375D01*
X173212Y336935D01*
X169399Y336935D02*
X177025Y336935D01*
X181093Y344562D02*
X184906Y348375D01*
X184906Y336935D01*
X181093Y336935D02*
X188719Y336935D01*
X137505Y222975D02*
X137505Y211535D01*
X137505Y222975D02*
X143225Y222975D01*
X145132Y221068D01*
X145132Y217255D01*
X143225Y215348D01*
X137505Y215348D01*
X149199Y219162D02*
X153012Y222975D01*
X153012Y211535D01*
X149199Y211535D02*
X156825Y211535D01*
X160893Y221068D02*
X162800Y222975D01*
X166613Y222975D01*
X168519Y221068D01*
X168519Y219162D01*
X166613Y217255D01*
X168519Y215348D01*
X168519Y213442D01*
X166613Y211535D01*
X162800Y211535D01*
X160893Y213442D01*
X160893Y215348D01*
X162800Y217255D01*
X160893Y219162D01*
X160893Y221068D01*
X162800Y217255D02*
X166613Y217255D01*
X159105Y181275D02*
X159105Y169835D01*
X159105Y181275D02*
X164825Y181275D01*
X166732Y179368D01*
X166732Y175555D01*
X164825Y173648D01*
X159105Y173648D01*
X170799Y169835D02*
X178425Y169835D01*
X170799Y169835D02*
X178425Y177462D01*
X178425Y179368D01*
X176519Y181275D01*
X172706Y181275D01*
X170799Y179368D01*
X182493Y177462D02*
X186306Y181275D01*
X186306Y169835D01*
X182493Y169835D02*
X190119Y169835D01*
X117565Y23205D02*
X106125Y23205D01*
X106125Y28925D01*
X108032Y30832D01*
X111845Y30832D01*
X113752Y28925D01*
X113752Y23205D01*
X117565Y34899D02*
X117565Y42525D01*
X117565Y34899D02*
X109939Y42525D01*
X108032Y42525D01*
X106125Y40619D01*
X106125Y36806D01*
X108032Y34899D01*
X108032Y46593D02*
X106125Y48500D01*
X106125Y52313D01*
X108032Y54219D01*
X109939Y54219D01*
X111845Y52313D01*
X113752Y54219D01*
X115658Y54219D01*
X117565Y52313D01*
X117565Y48500D01*
X115658Y46593D01*
X113752Y46593D01*
X111845Y48500D01*
X109939Y46593D01*
X108032Y46593D01*
X111845Y48500D02*
X111845Y52313D01*
D10*
X605300Y512850D02*
X605300Y525550D01*
X611650Y531900D01*
X624350Y531900D01*
X630700Y525550D01*
X605300Y487450D02*
X611650Y481100D01*
X605300Y487450D02*
X605300Y500150D01*
X611650Y506500D01*
X624350Y506500D01*
X630700Y500150D01*
X630700Y487450D01*
X624350Y481100D01*
X611650Y506500D02*
X605300Y512850D01*
X624350Y506500D02*
X630700Y512850D01*
X630700Y525550D01*
X605300Y449350D02*
X605300Y436650D01*
X605300Y449350D02*
X611650Y455700D01*
X624350Y455700D01*
X630700Y449350D01*
X611650Y455700D02*
X605300Y462050D01*
X605300Y474750D01*
X611650Y481100D01*
X624350Y481100D01*
X630700Y474750D01*
X630700Y462050D01*
X624350Y455700D01*
X605300Y411250D02*
X611650Y404900D01*
X605300Y411250D02*
X605300Y423950D01*
X611650Y430300D01*
X624350Y430300D01*
X630700Y423950D01*
X630700Y411250D01*
X624350Y404900D01*
X611650Y430300D02*
X605300Y436650D01*
X624350Y430300D02*
X630700Y436650D01*
X630700Y449350D01*
X605300Y373150D02*
X605300Y360450D01*
X605300Y373150D02*
X611650Y379500D01*
X624350Y379500D01*
X630700Y373150D01*
X611650Y379500D02*
X605300Y385850D01*
X605300Y398550D01*
X611650Y404900D01*
X624350Y404900D01*
X630700Y398550D01*
X630700Y385850D01*
X624350Y379500D01*
X605300Y335050D02*
X611650Y328700D01*
X605300Y335050D02*
X605300Y347750D01*
X611650Y354100D01*
X624350Y354100D01*
X630700Y347750D01*
X630700Y335050D01*
X624350Y328700D01*
X611650Y354100D02*
X605300Y360450D01*
X624350Y354100D02*
X630700Y360450D01*
X630700Y373150D01*
X605300Y296950D02*
X605300Y284250D01*
X605300Y296950D02*
X611650Y303300D01*
X624350Y303300D01*
X630700Y296950D01*
X611650Y303300D02*
X605300Y309650D01*
X605300Y322350D01*
X611650Y328700D01*
X624350Y328700D01*
X630700Y322350D01*
X630700Y309650D01*
X624350Y303300D01*
X605300Y258850D02*
X611650Y252500D01*
X605300Y258850D02*
X605300Y271550D01*
X611650Y277900D01*
X624350Y277900D01*
X630700Y271550D01*
X630700Y258850D01*
X624350Y252500D01*
X611650Y277900D02*
X605300Y284250D01*
X624350Y277900D02*
X630700Y284250D01*
X630700Y296950D01*
X605300Y220750D02*
X605300Y208050D01*
X605300Y220750D02*
X611650Y227100D01*
X624350Y227100D01*
X630700Y220750D01*
X611650Y227100D02*
X605300Y233450D01*
X605300Y246150D01*
X611650Y252500D01*
X624350Y252500D01*
X630700Y246150D01*
X630700Y233450D01*
X624350Y227100D01*
X605300Y182650D02*
X611650Y176300D01*
X605300Y182650D02*
X605300Y195350D01*
X611650Y201700D01*
X624350Y201700D01*
X630700Y195350D01*
X630700Y182650D01*
X624350Y176300D01*
X611650Y201700D02*
X605300Y208050D01*
X624350Y201700D02*
X630700Y208050D01*
X630700Y220750D01*
X605300Y144550D02*
X605300Y131850D01*
X605300Y144550D02*
X611650Y150900D01*
X624350Y150900D01*
X630700Y144550D01*
X611650Y150900D02*
X605300Y157250D01*
X605300Y169950D01*
X611650Y176300D01*
X624350Y176300D01*
X630700Y169950D01*
X630700Y157250D01*
X624350Y150900D01*
X605300Y106450D02*
X611650Y100100D01*
X605300Y106450D02*
X605300Y119150D01*
X611650Y125500D01*
X624350Y125500D01*
X630700Y119150D01*
X630700Y106450D01*
X624350Y100100D01*
X611650Y125500D02*
X605300Y131850D01*
X624350Y125500D02*
X630700Y131850D01*
X630700Y144550D01*
X605300Y68350D02*
X605300Y55650D01*
X605300Y68350D02*
X611650Y74700D01*
X624350Y74700D01*
X630700Y68350D01*
X611650Y74700D02*
X605300Y81050D01*
X605300Y93750D01*
X611650Y100100D01*
X624350Y100100D01*
X630700Y93750D01*
X630700Y81050D01*
X624350Y74700D01*
X624350Y49300D02*
X611650Y49300D01*
X605300Y55650D01*
X624350Y49300D02*
X630700Y55650D01*
X630700Y68350D01*
X605300Y538250D02*
X605300Y550950D01*
X611650Y557300D01*
X624350Y557300D01*
X630700Y550950D01*
X611650Y531900D02*
X605300Y538250D01*
X624350Y531900D02*
X630700Y538250D01*
X630700Y550950D01*
X452900Y525550D02*
X452900Y512850D01*
X452900Y525550D02*
X459250Y531900D01*
X471950Y531900D01*
X478300Y525550D01*
X452900Y487450D02*
X459250Y481100D01*
X452900Y487450D02*
X452900Y500150D01*
X459250Y506500D01*
X471950Y506500D01*
X478300Y500150D01*
X478300Y487450D01*
X471950Y481100D01*
X459250Y506500D02*
X452900Y512850D01*
X471950Y506500D02*
X478300Y512850D01*
X478300Y525550D01*
X452900Y449350D02*
X452900Y436650D01*
X452900Y449350D02*
X459250Y455700D01*
X471950Y455700D01*
X478300Y449350D01*
X459250Y455700D02*
X452900Y462050D01*
X452900Y474750D01*
X459250Y481100D01*
X471950Y481100D01*
X478300Y474750D01*
X478300Y462050D01*
X471950Y455700D01*
X452900Y411250D02*
X459250Y404900D01*
X452900Y411250D02*
X452900Y423950D01*
X459250Y430300D01*
X471950Y430300D01*
X478300Y423950D01*
X478300Y411250D01*
X471950Y404900D01*
X459250Y430300D02*
X452900Y436650D01*
X471950Y430300D02*
X478300Y436650D01*
X478300Y449350D01*
X452900Y373150D02*
X452900Y360450D01*
X452900Y373150D02*
X459250Y379500D01*
X471950Y379500D01*
X478300Y373150D01*
X459250Y379500D02*
X452900Y385850D01*
X452900Y398550D01*
X459250Y404900D01*
X471950Y404900D01*
X478300Y398550D01*
X478300Y385850D01*
X471950Y379500D01*
X452900Y335050D02*
X459250Y328700D01*
X452900Y335050D02*
X452900Y347750D01*
X459250Y354100D01*
X471950Y354100D01*
X478300Y347750D01*
X478300Y335050D01*
X471950Y328700D01*
X459250Y354100D02*
X452900Y360450D01*
X471950Y354100D02*
X478300Y360450D01*
X478300Y373150D01*
X452900Y296950D02*
X452900Y284250D01*
X452900Y296950D02*
X459250Y303300D01*
X471950Y303300D01*
X478300Y296950D01*
X459250Y303300D02*
X452900Y309650D01*
X452900Y322350D01*
X459250Y328700D01*
X471950Y328700D01*
X478300Y322350D01*
X478300Y309650D01*
X471950Y303300D01*
X452900Y258850D02*
X459250Y252500D01*
X452900Y258850D02*
X452900Y271550D01*
X459250Y277900D01*
X471950Y277900D01*
X478300Y271550D01*
X478300Y258850D01*
X471950Y252500D01*
X459250Y277900D02*
X452900Y284250D01*
X471950Y277900D02*
X478300Y284250D01*
X478300Y296950D01*
X452900Y220750D02*
X452900Y208050D01*
X452900Y220750D02*
X459250Y227100D01*
X471950Y227100D01*
X478300Y220750D01*
X459250Y227100D02*
X452900Y233450D01*
X452900Y246150D01*
X459250Y252500D01*
X471950Y252500D01*
X478300Y246150D01*
X478300Y233450D01*
X471950Y227100D01*
X452900Y182650D02*
X459250Y176300D01*
X452900Y182650D02*
X452900Y195350D01*
X459250Y201700D01*
X471950Y201700D01*
X478300Y195350D01*
X478300Y182650D01*
X471950Y176300D01*
X459250Y201700D02*
X452900Y208050D01*
X471950Y201700D02*
X478300Y208050D01*
X478300Y220750D01*
X452900Y144550D02*
X452900Y131850D01*
X452900Y144550D02*
X459250Y150900D01*
X471950Y150900D01*
X478300Y144550D01*
X459250Y150900D02*
X452900Y157250D01*
X452900Y169950D01*
X459250Y176300D01*
X471950Y176300D01*
X478300Y169950D01*
X478300Y157250D01*
X471950Y150900D01*
X452900Y106450D02*
X459250Y100100D01*
X452900Y106450D02*
X452900Y119150D01*
X459250Y125500D01*
X471950Y125500D01*
X478300Y119150D01*
X478300Y106450D01*
X471950Y100100D01*
X459250Y125500D02*
X452900Y131850D01*
X471950Y125500D02*
X478300Y131850D01*
X478300Y144550D01*
X452900Y68350D02*
X452900Y55650D01*
X452900Y68350D02*
X459250Y74700D01*
X471950Y74700D01*
X478300Y68350D01*
X459250Y74700D02*
X452900Y81050D01*
X452900Y93750D01*
X459250Y100100D01*
X471950Y100100D01*
X478300Y93750D01*
X478300Y81050D01*
X471950Y74700D01*
X471950Y49300D02*
X459250Y49300D01*
X452900Y55650D01*
X471950Y49300D02*
X478300Y55650D01*
X478300Y68350D01*
X452900Y538250D02*
X452900Y550950D01*
X459250Y557300D01*
X471950Y557300D01*
X478300Y550950D01*
X459250Y531900D02*
X452900Y538250D01*
X471950Y531900D02*
X478300Y538250D01*
X478300Y550950D01*
D11*
X444770Y49173D02*
X435237Y49173D01*
X444770Y49173D02*
X446677Y51080D01*
X446677Y54893D01*
X444770Y56800D01*
X435237Y56800D01*
X444770Y60867D02*
X446677Y62774D01*
X446677Y66587D01*
X444770Y68493D01*
X442864Y68493D01*
X440957Y66587D01*
X440957Y62774D01*
X439051Y60867D01*
X437144Y60867D01*
X435237Y62774D01*
X435237Y66587D01*
X437144Y68493D01*
X433331Y64680D02*
X448584Y64680D01*
X439051Y72561D02*
X435237Y76374D01*
X446677Y76374D01*
X446677Y72561D02*
X446677Y80187D01*
D10*
X318250Y439900D02*
X305550Y439900D01*
X299200Y446250D01*
X299200Y458950D01*
X305550Y465300D01*
X299200Y446250D02*
X292850Y439900D01*
X280150Y439900D01*
X273800Y446250D01*
X273800Y458950D01*
X280150Y465300D01*
X292850Y465300D01*
X299200Y458950D01*
X343650Y439900D02*
X350000Y446250D01*
X343650Y439900D02*
X330950Y439900D01*
X324600Y446250D01*
X324600Y458950D01*
X330950Y465300D01*
X343650Y465300D01*
X350000Y458950D01*
X324600Y446250D02*
X318250Y439900D01*
X324600Y458950D02*
X318250Y465300D01*
X305550Y465300D01*
X381750Y439900D02*
X394450Y439900D01*
X381750Y439900D02*
X375400Y446250D01*
X375400Y458950D01*
X381750Y465300D01*
X375400Y446250D02*
X369050Y439900D01*
X356350Y439900D01*
X350000Y446250D01*
X350000Y458950D01*
X356350Y465300D01*
X369050Y465300D01*
X375400Y458950D01*
X400800Y458950D02*
X400800Y446250D01*
X394450Y439900D01*
X400800Y458950D02*
X394450Y465300D01*
X381750Y465300D01*
X267450Y439900D02*
X254750Y439900D01*
X248400Y446250D01*
X248400Y458950D01*
X254750Y465300D01*
X273800Y446250D02*
X267450Y439900D01*
X273800Y458950D02*
X267450Y465300D01*
X254750Y465300D01*
D11*
X367115Y424154D02*
X369022Y422247D01*
X370928Y422247D01*
X372835Y424154D01*
X372835Y433687D01*
X370928Y433687D02*
X374742Y433687D01*
X378809Y433687D02*
X378809Y422247D01*
X378809Y433687D02*
X384529Y433687D01*
X386436Y431780D01*
X386436Y427967D01*
X384529Y426060D01*
X378809Y426060D01*
X390503Y431780D02*
X392410Y433687D01*
X396223Y433687D01*
X398129Y431780D01*
X398129Y429874D01*
X396223Y427967D01*
X394316Y427967D01*
X396223Y427967D02*
X398129Y426060D01*
X398129Y424154D01*
X396223Y422247D01*
X392410Y422247D01*
X390503Y424154D01*
D10*
X881550Y147200D02*
X887900Y153550D01*
X887900Y166250D02*
X881550Y172600D01*
X887900Y178950D01*
X887900Y191650D02*
X881550Y198000D01*
X887900Y204350D01*
X887900Y217050D02*
X881550Y223400D01*
X887900Y229750D01*
X887900Y242450D02*
X881550Y248800D01*
X887900Y255150D01*
X887900Y267850D02*
X881550Y274200D01*
X887900Y280550D01*
X887900Y293250D02*
X881550Y299600D01*
X881550Y147200D02*
X818050Y147200D01*
X811700Y153550D01*
X811700Y166250D01*
X818050Y172600D01*
X811700Y178950D01*
X811700Y191650D01*
X818050Y198000D01*
X811700Y204350D01*
X811700Y217050D01*
X818050Y223400D01*
X811700Y229750D01*
X811700Y242450D01*
X818050Y248800D01*
X811700Y255150D01*
X811700Y267850D01*
X818050Y274200D01*
X811700Y280550D01*
X811700Y293250D01*
X818050Y299600D01*
X818050Y172600D02*
X881550Y172600D01*
X881550Y198000D02*
X818050Y198000D01*
X818050Y223400D02*
X881550Y223400D01*
X881550Y248800D02*
X818050Y248800D01*
X818050Y274200D02*
X881550Y274200D01*
X881550Y299600D02*
X818050Y299600D01*
X887900Y293250D02*
X887900Y280550D01*
X887900Y267850D02*
X887900Y255150D01*
X887900Y242450D02*
X887900Y229750D01*
X887900Y217050D02*
X887900Y204350D01*
X887900Y191650D02*
X887900Y178950D01*
X887900Y166250D02*
X887900Y153550D01*
X881550Y299600D02*
X887900Y305950D01*
X887900Y318650D02*
X881550Y325000D01*
X818050Y299600D02*
X811700Y305950D01*
X811700Y318650D01*
X818050Y325000D01*
X881550Y325000D01*
X887900Y318650D02*
X887900Y305950D01*
D11*
X802808Y147835D02*
X793275Y147835D01*
X802808Y147835D02*
X804715Y149742D01*
X804715Y153555D01*
X802808Y155462D01*
X793275Y155462D01*
X802808Y159529D02*
X804715Y161436D01*
X804715Y165249D01*
X802808Y167155D01*
X800902Y167155D01*
X798995Y165249D01*
X798995Y161436D01*
X797089Y159529D01*
X795182Y159529D01*
X793275Y161436D01*
X793275Y165249D01*
X795182Y167155D01*
X791369Y163342D02*
X806622Y163342D01*
X804715Y171223D02*
X804715Y178849D01*
X804715Y171223D02*
X797089Y178849D01*
X795182Y178849D01*
X793275Y176943D01*
X793275Y173130D01*
X795182Y171223D01*
D10*
X758342Y394460D02*
X758342Y475740D01*
X793648Y479550D02*
X793770Y479548D01*
X793892Y479542D01*
X794014Y479532D01*
X794135Y479519D01*
X794256Y479501D01*
X794376Y479480D01*
X794496Y479454D01*
X794614Y479425D01*
X794732Y479393D01*
X794849Y479356D01*
X794964Y479316D01*
X795078Y479272D01*
X795190Y479224D01*
X795301Y479173D01*
X795410Y479118D01*
X795518Y479060D01*
X795623Y478998D01*
X795726Y478933D01*
X795828Y478865D01*
X795927Y478793D01*
X796023Y478719D01*
X796118Y478641D01*
X796209Y478560D01*
X796299Y478477D01*
X796385Y478391D01*
X796468Y478301D01*
X796549Y478210D01*
X796627Y478115D01*
X796701Y478019D01*
X796773Y477920D01*
X796841Y477818D01*
X796906Y477715D01*
X796968Y477610D01*
X797026Y477502D01*
X797081Y477393D01*
X797132Y477282D01*
X797180Y477170D01*
X797224Y477056D01*
X797264Y476941D01*
X797301Y476824D01*
X797333Y476706D01*
X797362Y476588D01*
X797388Y476468D01*
X797409Y476348D01*
X797427Y476227D01*
X797440Y476106D01*
X797450Y475984D01*
X797456Y475862D01*
X797458Y475740D01*
X758342Y394460D02*
X758344Y394338D01*
X758350Y394216D01*
X758360Y394094D01*
X758373Y393973D01*
X758391Y393852D01*
X758412Y393732D01*
X758438Y393612D01*
X758467Y393494D01*
X758499Y393376D01*
X758536Y393259D01*
X758576Y393144D01*
X758620Y393030D01*
X758668Y392918D01*
X758719Y392807D01*
X758774Y392698D01*
X758832Y392590D01*
X758894Y392485D01*
X758959Y392382D01*
X759027Y392280D01*
X759099Y392181D01*
X759173Y392085D01*
X759251Y391990D01*
X759332Y391899D01*
X759415Y391809D01*
X759501Y391723D01*
X759591Y391640D01*
X759682Y391559D01*
X759777Y391481D01*
X759873Y391407D01*
X759972Y391335D01*
X760074Y391267D01*
X760177Y391202D01*
X760282Y391140D01*
X760390Y391082D01*
X760499Y391027D01*
X760610Y390976D01*
X760722Y390928D01*
X760836Y390884D01*
X760951Y390844D01*
X761068Y390807D01*
X761186Y390775D01*
X761304Y390746D01*
X761424Y390720D01*
X761544Y390699D01*
X761665Y390681D01*
X761786Y390668D01*
X761908Y390658D01*
X762030Y390652D01*
X762152Y390650D01*
X758342Y475740D02*
X758344Y475862D01*
X758350Y475984D01*
X758360Y476106D01*
X758373Y476227D01*
X758391Y476348D01*
X758412Y476468D01*
X758438Y476588D01*
X758467Y476706D01*
X758499Y476824D01*
X758536Y476941D01*
X758576Y477056D01*
X758620Y477170D01*
X758668Y477282D01*
X758719Y477393D01*
X758774Y477502D01*
X758832Y477610D01*
X758894Y477715D01*
X758959Y477818D01*
X759027Y477920D01*
X759099Y478019D01*
X759173Y478115D01*
X759251Y478210D01*
X759332Y478301D01*
X759415Y478391D01*
X759501Y478477D01*
X759591Y478560D01*
X759682Y478641D01*
X759777Y478719D01*
X759873Y478793D01*
X759972Y478865D01*
X760074Y478933D01*
X760177Y478998D01*
X760282Y479060D01*
X760390Y479118D01*
X760499Y479173D01*
X760610Y479224D01*
X760722Y479272D01*
X760836Y479316D01*
X760951Y479356D01*
X761068Y479393D01*
X761186Y479425D01*
X761304Y479454D01*
X761424Y479480D01*
X761544Y479501D01*
X761665Y479519D01*
X761786Y479532D01*
X761908Y479542D01*
X762030Y479548D01*
X762152Y479550D01*
X797458Y394460D02*
X797456Y394338D01*
X797450Y394216D01*
X797440Y394094D01*
X797427Y393973D01*
X797409Y393852D01*
X797388Y393732D01*
X797362Y393612D01*
X797333Y393494D01*
X797301Y393376D01*
X797264Y393259D01*
X797224Y393144D01*
X797180Y393030D01*
X797132Y392918D01*
X797081Y392807D01*
X797026Y392698D01*
X796968Y392590D01*
X796906Y392485D01*
X796841Y392382D01*
X796773Y392280D01*
X796701Y392181D01*
X796627Y392085D01*
X796549Y391990D01*
X796468Y391899D01*
X796385Y391809D01*
X796299Y391723D01*
X796209Y391640D01*
X796118Y391559D01*
X796023Y391481D01*
X795927Y391407D01*
X795828Y391335D01*
X795726Y391267D01*
X795623Y391202D01*
X795518Y391140D01*
X795410Y391082D01*
X795301Y391027D01*
X795190Y390976D01*
X795078Y390928D01*
X794964Y390884D01*
X794849Y390844D01*
X794732Y390807D01*
X794614Y390775D01*
X794496Y390746D01*
X794376Y390720D01*
X794256Y390699D01*
X794135Y390681D01*
X794014Y390668D01*
X793892Y390658D01*
X793770Y390652D01*
X793648Y390650D01*
X797458Y394460D02*
X797458Y475740D01*
X793648Y479550D02*
X762152Y479550D01*
X762152Y390650D02*
X793648Y390650D01*
X782980Y390650D02*
X782978Y390791D01*
X782972Y390932D01*
X782962Y391073D01*
X782949Y391214D01*
X782931Y391354D01*
X782909Y391493D01*
X782884Y391632D01*
X782855Y391771D01*
X782822Y391908D01*
X782785Y392044D01*
X782744Y392179D01*
X782700Y392314D01*
X782652Y392446D01*
X782600Y392578D01*
X782545Y392708D01*
X782486Y392836D01*
X782423Y392963D01*
X782357Y393087D01*
X782288Y393210D01*
X782215Y393331D01*
X782139Y393450D01*
X782059Y393567D01*
X781976Y393681D01*
X781891Y393794D01*
X781802Y393903D01*
X781710Y394011D01*
X781615Y394115D01*
X781517Y394217D01*
X781416Y394316D01*
X781313Y394413D01*
X781207Y394506D01*
X781099Y394596D01*
X780988Y394684D01*
X780875Y394768D01*
X780759Y394849D01*
X780641Y394927D01*
X780521Y395002D01*
X780399Y395073D01*
X780275Y395141D01*
X780149Y395205D01*
X780022Y395266D01*
X779893Y395323D01*
X779762Y395376D01*
X779630Y395426D01*
X779497Y395473D01*
X779362Y395515D01*
X779226Y395554D01*
X779089Y395589D01*
X778952Y395620D01*
X778813Y395647D01*
X778674Y395671D01*
X778534Y395690D01*
X778394Y395706D01*
X778253Y395718D01*
X778112Y395726D01*
X777971Y395730D01*
X777829Y395730D01*
X777688Y395726D01*
X777547Y395718D01*
X777406Y395706D01*
X777266Y395690D01*
X777126Y395671D01*
X776987Y395647D01*
X776848Y395620D01*
X776711Y395589D01*
X776574Y395554D01*
X776438Y395515D01*
X776303Y395473D01*
X776170Y395426D01*
X776038Y395376D01*
X775907Y395323D01*
X775778Y395266D01*
X775651Y395205D01*
X775525Y395141D01*
X775401Y395073D01*
X775279Y395002D01*
X775159Y394927D01*
X775041Y394849D01*
X774925Y394768D01*
X774812Y394684D01*
X774701Y394596D01*
X774593Y394506D01*
X774487Y394413D01*
X774384Y394316D01*
X774283Y394217D01*
X774185Y394115D01*
X774090Y394011D01*
X773998Y393903D01*
X773909Y393794D01*
X773824Y393681D01*
X773741Y393567D01*
X773661Y393450D01*
X773585Y393331D01*
X773512Y393210D01*
X773443Y393087D01*
X773377Y392963D01*
X773314Y392836D01*
X773255Y392708D01*
X773200Y392578D01*
X773148Y392446D01*
X773100Y392314D01*
X773056Y392179D01*
X773015Y392044D01*
X772978Y391908D01*
X772945Y391771D01*
X772916Y391632D01*
X772891Y391493D01*
X772869Y391354D01*
X772851Y391214D01*
X772838Y391073D01*
X772828Y390932D01*
X772822Y390791D01*
X772820Y390650D01*
D14*
X793902Y390650D02*
X793902Y479550D01*
D11*
X768944Y376045D02*
X765131Y376045D01*
X767038Y376045D02*
X767038Y387485D01*
X768944Y387485D02*
X765131Y387485D01*
X778647Y387485D02*
X780554Y385578D01*
X778647Y387485D02*
X774834Y387485D01*
X772927Y385578D01*
X772927Y377952D01*
X774834Y376045D01*
X778647Y376045D01*
X780554Y377952D01*
X784621Y383672D02*
X788434Y387485D01*
X788434Y376045D01*
X784621Y376045D02*
X792247Y376045D01*
D10*
X758542Y504360D02*
X758542Y585640D01*
X793848Y589450D02*
X793970Y589448D01*
X794092Y589442D01*
X794214Y589432D01*
X794335Y589419D01*
X794456Y589401D01*
X794576Y589380D01*
X794696Y589354D01*
X794814Y589325D01*
X794932Y589293D01*
X795049Y589256D01*
X795164Y589216D01*
X795278Y589172D01*
X795390Y589124D01*
X795501Y589073D01*
X795610Y589018D01*
X795718Y588960D01*
X795823Y588898D01*
X795926Y588833D01*
X796028Y588765D01*
X796127Y588693D01*
X796223Y588619D01*
X796318Y588541D01*
X796409Y588460D01*
X796499Y588377D01*
X796585Y588291D01*
X796668Y588201D01*
X796749Y588110D01*
X796827Y588015D01*
X796901Y587919D01*
X796973Y587820D01*
X797041Y587718D01*
X797106Y587615D01*
X797168Y587510D01*
X797226Y587402D01*
X797281Y587293D01*
X797332Y587182D01*
X797380Y587070D01*
X797424Y586956D01*
X797464Y586841D01*
X797501Y586724D01*
X797533Y586606D01*
X797562Y586488D01*
X797588Y586368D01*
X797609Y586248D01*
X797627Y586127D01*
X797640Y586006D01*
X797650Y585884D01*
X797656Y585762D01*
X797658Y585640D01*
X758542Y504360D02*
X758544Y504238D01*
X758550Y504116D01*
X758560Y503994D01*
X758573Y503873D01*
X758591Y503752D01*
X758612Y503632D01*
X758638Y503512D01*
X758667Y503394D01*
X758699Y503276D01*
X758736Y503159D01*
X758776Y503044D01*
X758820Y502930D01*
X758868Y502818D01*
X758919Y502707D01*
X758974Y502598D01*
X759032Y502490D01*
X759094Y502385D01*
X759159Y502282D01*
X759227Y502180D01*
X759299Y502081D01*
X759373Y501985D01*
X759451Y501890D01*
X759532Y501799D01*
X759615Y501709D01*
X759701Y501623D01*
X759791Y501540D01*
X759882Y501459D01*
X759977Y501381D01*
X760073Y501307D01*
X760172Y501235D01*
X760274Y501167D01*
X760377Y501102D01*
X760482Y501040D01*
X760590Y500982D01*
X760699Y500927D01*
X760810Y500876D01*
X760922Y500828D01*
X761036Y500784D01*
X761151Y500744D01*
X761268Y500707D01*
X761386Y500675D01*
X761504Y500646D01*
X761624Y500620D01*
X761744Y500599D01*
X761865Y500581D01*
X761986Y500568D01*
X762108Y500558D01*
X762230Y500552D01*
X762352Y500550D01*
X758542Y585640D02*
X758544Y585762D01*
X758550Y585884D01*
X758560Y586006D01*
X758573Y586127D01*
X758591Y586248D01*
X758612Y586368D01*
X758638Y586488D01*
X758667Y586606D01*
X758699Y586724D01*
X758736Y586841D01*
X758776Y586956D01*
X758820Y587070D01*
X758868Y587182D01*
X758919Y587293D01*
X758974Y587402D01*
X759032Y587510D01*
X759094Y587615D01*
X759159Y587718D01*
X759227Y587820D01*
X759299Y587919D01*
X759373Y588015D01*
X759451Y588110D01*
X759532Y588201D01*
X759615Y588291D01*
X759701Y588377D01*
X759791Y588460D01*
X759882Y588541D01*
X759977Y588619D01*
X760073Y588693D01*
X760172Y588765D01*
X760274Y588833D01*
X760377Y588898D01*
X760482Y588960D01*
X760590Y589018D01*
X760699Y589073D01*
X760810Y589124D01*
X760922Y589172D01*
X761036Y589216D01*
X761151Y589256D01*
X761268Y589293D01*
X761386Y589325D01*
X761504Y589354D01*
X761624Y589380D01*
X761744Y589401D01*
X761865Y589419D01*
X761986Y589432D01*
X762108Y589442D01*
X762230Y589448D01*
X762352Y589450D01*
X797658Y504360D02*
X797656Y504238D01*
X797650Y504116D01*
X797640Y503994D01*
X797627Y503873D01*
X797609Y503752D01*
X797588Y503632D01*
X797562Y503512D01*
X797533Y503394D01*
X797501Y503276D01*
X797464Y503159D01*
X797424Y503044D01*
X797380Y502930D01*
X797332Y502818D01*
X797281Y502707D01*
X797226Y502598D01*
X797168Y502490D01*
X797106Y502385D01*
X797041Y502282D01*
X796973Y502180D01*
X796901Y502081D01*
X796827Y501985D01*
X796749Y501890D01*
X796668Y501799D01*
X796585Y501709D01*
X796499Y501623D01*
X796409Y501540D01*
X796318Y501459D01*
X796223Y501381D01*
X796127Y501307D01*
X796028Y501235D01*
X795926Y501167D01*
X795823Y501102D01*
X795718Y501040D01*
X795610Y500982D01*
X795501Y500927D01*
X795390Y500876D01*
X795278Y500828D01*
X795164Y500784D01*
X795049Y500744D01*
X794932Y500707D01*
X794814Y500675D01*
X794696Y500646D01*
X794576Y500620D01*
X794456Y500599D01*
X794335Y500581D01*
X794214Y500568D01*
X794092Y500558D01*
X793970Y500552D01*
X793848Y500550D01*
X797658Y504360D02*
X797658Y585640D01*
X793848Y589450D02*
X762352Y589450D01*
X762352Y500550D02*
X793848Y500550D01*
X783180Y500550D02*
X783178Y500691D01*
X783172Y500832D01*
X783162Y500973D01*
X783149Y501114D01*
X783131Y501254D01*
X783109Y501393D01*
X783084Y501532D01*
X783055Y501671D01*
X783022Y501808D01*
X782985Y501944D01*
X782944Y502079D01*
X782900Y502214D01*
X782852Y502346D01*
X782800Y502478D01*
X782745Y502608D01*
X782686Y502736D01*
X782623Y502863D01*
X782557Y502987D01*
X782488Y503110D01*
X782415Y503231D01*
X782339Y503350D01*
X782259Y503467D01*
X782176Y503581D01*
X782091Y503694D01*
X782002Y503803D01*
X781910Y503911D01*
X781815Y504015D01*
X781717Y504117D01*
X781616Y504216D01*
X781513Y504313D01*
X781407Y504406D01*
X781299Y504496D01*
X781188Y504584D01*
X781075Y504668D01*
X780959Y504749D01*
X780841Y504827D01*
X780721Y504902D01*
X780599Y504973D01*
X780475Y505041D01*
X780349Y505105D01*
X780222Y505166D01*
X780093Y505223D01*
X779962Y505276D01*
X779830Y505326D01*
X779697Y505373D01*
X779562Y505415D01*
X779426Y505454D01*
X779289Y505489D01*
X779152Y505520D01*
X779013Y505547D01*
X778874Y505571D01*
X778734Y505590D01*
X778594Y505606D01*
X778453Y505618D01*
X778312Y505626D01*
X778171Y505630D01*
X778029Y505630D01*
X777888Y505626D01*
X777747Y505618D01*
X777606Y505606D01*
X777466Y505590D01*
X777326Y505571D01*
X777187Y505547D01*
X777048Y505520D01*
X776911Y505489D01*
X776774Y505454D01*
X776638Y505415D01*
X776503Y505373D01*
X776370Y505326D01*
X776238Y505276D01*
X776107Y505223D01*
X775978Y505166D01*
X775851Y505105D01*
X775725Y505041D01*
X775601Y504973D01*
X775479Y504902D01*
X775359Y504827D01*
X775241Y504749D01*
X775125Y504668D01*
X775012Y504584D01*
X774901Y504496D01*
X774793Y504406D01*
X774687Y504313D01*
X774584Y504216D01*
X774483Y504117D01*
X774385Y504015D01*
X774290Y503911D01*
X774198Y503803D01*
X774109Y503694D01*
X774024Y503581D01*
X773941Y503467D01*
X773861Y503350D01*
X773785Y503231D01*
X773712Y503110D01*
X773643Y502987D01*
X773577Y502863D01*
X773514Y502736D01*
X773455Y502608D01*
X773400Y502478D01*
X773348Y502346D01*
X773300Y502214D01*
X773256Y502079D01*
X773215Y501944D01*
X773178Y501808D01*
X773145Y501671D01*
X773116Y501532D01*
X773091Y501393D01*
X773069Y501254D01*
X773051Y501114D01*
X773038Y500973D01*
X773028Y500832D01*
X773022Y500691D01*
X773020Y500550D01*
D14*
X794102Y500550D02*
X794102Y589450D01*
D11*
X769144Y485945D02*
X765331Y485945D01*
X767238Y485945D02*
X767238Y497385D01*
X769144Y497385D02*
X765331Y497385D01*
X778847Y497385D02*
X780754Y495478D01*
X778847Y497385D02*
X775034Y497385D01*
X773127Y495478D01*
X773127Y487852D01*
X775034Y485945D01*
X778847Y485945D01*
X780754Y487852D01*
X784821Y485945D02*
X792447Y485945D01*
X784821Y485945D02*
X792447Y493572D01*
X792447Y495478D01*
X790541Y497385D01*
X786728Y497385D01*
X784821Y495478D01*
X335710Y578900D02*
X328090Y578900D01*
X331900Y578900D02*
X331904Y579212D01*
X331915Y579523D01*
X331934Y579834D01*
X331961Y580145D01*
X331996Y580455D01*
X332037Y580763D01*
X332087Y581071D01*
X332144Y581378D01*
X332209Y581683D01*
X332281Y581986D01*
X332360Y582287D01*
X332447Y582587D01*
X332541Y582884D01*
X332642Y583179D01*
X332751Y583471D01*
X332867Y583760D01*
X332990Y584047D01*
X333119Y584330D01*
X333256Y584610D01*
X333400Y584887D01*
X333550Y585160D01*
X333707Y585429D01*
X333870Y585694D01*
X334040Y585956D01*
X334217Y586213D01*
X334399Y586465D01*
X334588Y586713D01*
X334783Y586957D01*
X334983Y587195D01*
X335190Y587429D01*
X335402Y587657D01*
X335620Y587880D01*
X335843Y588098D01*
X336071Y588310D01*
X336305Y588517D01*
X336543Y588717D01*
X336787Y588912D01*
X337035Y589101D01*
X337287Y589283D01*
X337544Y589460D01*
X337806Y589630D01*
X338071Y589793D01*
X338340Y589950D01*
X338613Y590100D01*
X338890Y590244D01*
X339170Y590381D01*
X339453Y590510D01*
X339740Y590633D01*
X340029Y590749D01*
X340321Y590858D01*
X340616Y590959D01*
X340913Y591053D01*
X341213Y591140D01*
X341514Y591219D01*
X341817Y591291D01*
X342122Y591356D01*
X342429Y591413D01*
X342737Y591463D01*
X343045Y591504D01*
X343355Y591539D01*
X343666Y591566D01*
X343977Y591585D01*
X344288Y591596D01*
X344600Y591600D01*
X344912Y591596D01*
X345223Y591585D01*
X345534Y591566D01*
X345845Y591539D01*
X346155Y591504D01*
X346463Y591463D01*
X346771Y591413D01*
X347078Y591356D01*
X347383Y591291D01*
X347686Y591219D01*
X347987Y591140D01*
X348287Y591053D01*
X348584Y590959D01*
X348879Y590858D01*
X349171Y590749D01*
X349460Y590633D01*
X349747Y590510D01*
X350030Y590381D01*
X350310Y590244D01*
X350587Y590100D01*
X350860Y589950D01*
X351129Y589793D01*
X351394Y589630D01*
X351656Y589460D01*
X351913Y589283D01*
X352165Y589101D01*
X352413Y588912D01*
X352657Y588717D01*
X352895Y588517D01*
X353129Y588310D01*
X353357Y588098D01*
X353580Y587880D01*
X353798Y587657D01*
X354010Y587429D01*
X354217Y587195D01*
X354417Y586957D01*
X354612Y586713D01*
X354801Y586465D01*
X354983Y586213D01*
X355160Y585956D01*
X355330Y585694D01*
X355493Y585429D01*
X355650Y585160D01*
X355800Y584887D01*
X355944Y584610D01*
X356081Y584330D01*
X356210Y584047D01*
X356333Y583760D01*
X356449Y583471D01*
X356558Y583179D01*
X356659Y582884D01*
X356753Y582587D01*
X356840Y582287D01*
X356919Y581986D01*
X356991Y581683D01*
X357056Y581378D01*
X357113Y581071D01*
X357163Y580763D01*
X357204Y580455D01*
X357239Y580145D01*
X357266Y579834D01*
X357285Y579523D01*
X357296Y579212D01*
X357300Y578900D01*
X357296Y578588D01*
X357285Y578277D01*
X357266Y577966D01*
X357239Y577655D01*
X357204Y577345D01*
X357163Y577037D01*
X357113Y576729D01*
X357056Y576422D01*
X356991Y576117D01*
X356919Y575814D01*
X356840Y575513D01*
X356753Y575213D01*
X356659Y574916D01*
X356558Y574621D01*
X356449Y574329D01*
X356333Y574040D01*
X356210Y573753D01*
X356081Y573470D01*
X355944Y573190D01*
X355800Y572913D01*
X355650Y572640D01*
X355493Y572371D01*
X355330Y572106D01*
X355160Y571844D01*
X354983Y571587D01*
X354801Y571335D01*
X354612Y571087D01*
X354417Y570843D01*
X354217Y570605D01*
X354010Y570371D01*
X353798Y570143D01*
X353580Y569920D01*
X353357Y569702D01*
X353129Y569490D01*
X352895Y569283D01*
X352657Y569083D01*
X352413Y568888D01*
X352165Y568699D01*
X351913Y568517D01*
X351656Y568340D01*
X351394Y568170D01*
X351129Y568007D01*
X350860Y567850D01*
X350587Y567700D01*
X350310Y567556D01*
X350030Y567419D01*
X349747Y567290D01*
X349460Y567167D01*
X349171Y567051D01*
X348879Y566942D01*
X348584Y566841D01*
X348287Y566747D01*
X347987Y566660D01*
X347686Y566581D01*
X347383Y566509D01*
X347078Y566444D01*
X346771Y566387D01*
X346463Y566337D01*
X346155Y566296D01*
X345845Y566261D01*
X345534Y566234D01*
X345223Y566215D01*
X344912Y566204D01*
X344600Y566200D01*
X344288Y566204D01*
X343977Y566215D01*
X343666Y566234D01*
X343355Y566261D01*
X343045Y566296D01*
X342737Y566337D01*
X342429Y566387D01*
X342122Y566444D01*
X341817Y566509D01*
X341514Y566581D01*
X341213Y566660D01*
X340913Y566747D01*
X340616Y566841D01*
X340321Y566942D01*
X340029Y567051D01*
X339740Y567167D01*
X339453Y567290D01*
X339170Y567419D01*
X338890Y567556D01*
X338613Y567700D01*
X338340Y567850D01*
X338071Y568007D01*
X337806Y568170D01*
X337544Y568340D01*
X337287Y568517D01*
X337035Y568699D01*
X336787Y568888D01*
X336543Y569083D01*
X336305Y569283D01*
X336071Y569490D01*
X335843Y569702D01*
X335620Y569920D01*
X335402Y570143D01*
X335190Y570371D01*
X334983Y570605D01*
X334783Y570843D01*
X334588Y571087D01*
X334399Y571335D01*
X334217Y571587D01*
X334040Y571844D01*
X333870Y572106D01*
X333707Y572371D01*
X333550Y572640D01*
X333400Y572913D01*
X333256Y573190D01*
X333119Y573470D01*
X332990Y573753D01*
X332867Y574040D01*
X332751Y574329D01*
X332642Y574621D01*
X332541Y574916D01*
X332447Y575213D01*
X332360Y575513D01*
X332281Y575814D01*
X332209Y576117D01*
X332144Y576422D01*
X332087Y576729D01*
X332037Y577037D01*
X331996Y577345D01*
X331961Y577655D01*
X331934Y577966D01*
X331915Y578277D01*
X331904Y578588D01*
X331900Y578900D01*
X322853Y547795D02*
X322853Y536355D01*
X322853Y547795D02*
X328573Y547795D01*
X330480Y545888D01*
X330480Y542075D01*
X328573Y540168D01*
X322853Y540168D01*
X326666Y540168D02*
X330480Y536355D01*
X334547Y536355D02*
X342174Y536355D01*
X334547Y536355D02*
X342174Y543982D01*
X342174Y545888D01*
X340267Y547795D01*
X336454Y547795D01*
X334547Y545888D01*
X346241Y547795D02*
X353867Y547795D01*
X346241Y547795D02*
X346241Y542075D01*
X350054Y543982D01*
X351961Y543982D01*
X353867Y542075D01*
X353867Y538262D01*
X351961Y536355D01*
X348148Y536355D01*
X346241Y538262D01*
D10*
X298350Y563000D02*
X285650Y563000D01*
X279300Y569350D01*
X279300Y582050D01*
X285650Y588400D01*
X304700Y582050D02*
X304700Y569350D01*
X298350Y563000D01*
X304700Y582050D02*
X298350Y588400D01*
X285650Y588400D01*
X279300Y569350D02*
X272950Y563000D01*
X260250Y563000D01*
X253900Y569350D01*
X253900Y582050D01*
X260250Y588400D01*
X272950Y588400D01*
X279300Y582050D01*
D11*
X271015Y547254D02*
X272922Y545347D01*
X274828Y545347D01*
X276735Y547254D01*
X276735Y556787D01*
X274828Y556787D02*
X278642Y556787D01*
X282709Y556787D02*
X282709Y545347D01*
X282709Y556787D02*
X288429Y556787D01*
X290336Y554880D01*
X290336Y551067D01*
X288429Y549160D01*
X282709Y549160D01*
X294403Y545347D02*
X302029Y545347D01*
X294403Y545347D02*
X302029Y552974D01*
X302029Y554880D01*
X300123Y556787D01*
X296310Y556787D01*
X294403Y554880D01*
D10*
X941100Y389100D02*
X941100Y389100D01*
X941100Y389100D01*
X940450Y389100D02*
X935100Y389100D01*
X924940Y382750D02*
X924940Y395450D01*
X935100Y389100D01*
X921860Y389100D01*
X924940Y382750D02*
X935100Y389100D01*
X935100Y382750D01*
X935100Y389100D02*
X935100Y395450D01*
D11*
X925463Y389600D02*
X925467Y389959D01*
X925481Y390318D01*
X925503Y390677D01*
X925533Y391035D01*
X925573Y391392D01*
X925621Y391748D01*
X925678Y392102D01*
X925744Y392456D01*
X925819Y392807D01*
X925902Y393157D01*
X925993Y393504D01*
X926093Y393849D01*
X926202Y394191D01*
X926319Y394531D01*
X926444Y394868D01*
X926577Y395201D01*
X926719Y395532D01*
X926868Y395858D01*
X927026Y396181D01*
X927191Y396500D01*
X927365Y396815D01*
X927545Y397125D01*
X927734Y397431D01*
X927930Y397732D01*
X928133Y398028D01*
X928343Y398319D01*
X928561Y398605D01*
X928785Y398886D01*
X929017Y399160D01*
X929255Y399430D01*
X929499Y399693D01*
X929750Y399950D01*
X930007Y400201D01*
X930270Y400445D01*
X930540Y400683D01*
X930814Y400915D01*
X931095Y401139D01*
X931381Y401357D01*
X931672Y401567D01*
X931968Y401770D01*
X932269Y401966D01*
X932575Y402155D01*
X932885Y402335D01*
X933200Y402509D01*
X933519Y402674D01*
X933842Y402832D01*
X934168Y402981D01*
X934499Y403123D01*
X934832Y403256D01*
X935169Y403381D01*
X935509Y403498D01*
X935851Y403607D01*
X936196Y403707D01*
X936543Y403798D01*
X936893Y403881D01*
X937244Y403956D01*
X937598Y404022D01*
X937952Y404079D01*
X938308Y404127D01*
X938665Y404167D01*
X939023Y404197D01*
X939382Y404219D01*
X939741Y404233D01*
X940100Y404237D01*
X940459Y404233D01*
X940818Y404219D01*
X941177Y404197D01*
X941535Y404167D01*
X941892Y404127D01*
X942248Y404079D01*
X942602Y404022D01*
X942956Y403956D01*
X943307Y403881D01*
X943657Y403798D01*
X944004Y403707D01*
X944349Y403607D01*
X944691Y403498D01*
X945031Y403381D01*
X945368Y403256D01*
X945701Y403123D01*
X946032Y402981D01*
X946358Y402832D01*
X946681Y402674D01*
X947000Y402509D01*
X947315Y402335D01*
X947625Y402155D01*
X947931Y401966D01*
X948232Y401770D01*
X948528Y401567D01*
X948819Y401357D01*
X949105Y401139D01*
X949386Y400915D01*
X949660Y400683D01*
X949930Y400445D01*
X950193Y400201D01*
X950450Y399950D01*
X950701Y399693D01*
X950945Y399430D01*
X951183Y399160D01*
X951415Y398886D01*
X951639Y398605D01*
X951857Y398319D01*
X952067Y398028D01*
X952270Y397732D01*
X952466Y397431D01*
X952655Y397125D01*
X952835Y396815D01*
X953009Y396500D01*
X953174Y396181D01*
X953332Y395858D01*
X953481Y395532D01*
X953623Y395201D01*
X953756Y394868D01*
X953881Y394531D01*
X953998Y394191D01*
X954107Y393849D01*
X954207Y393504D01*
X954298Y393157D01*
X954381Y392807D01*
X954456Y392456D01*
X954522Y392102D01*
X954579Y391748D01*
X954627Y391392D01*
X954667Y391035D01*
X954697Y390677D01*
X954719Y390318D01*
X954733Y389959D01*
X954737Y389600D01*
X954733Y389241D01*
X954719Y388882D01*
X954697Y388523D01*
X954667Y388165D01*
X954627Y387808D01*
X954579Y387452D01*
X954522Y387098D01*
X954456Y386744D01*
X954381Y386393D01*
X954298Y386043D01*
X954207Y385696D01*
X954107Y385351D01*
X953998Y385009D01*
X953881Y384669D01*
X953756Y384332D01*
X953623Y383999D01*
X953481Y383668D01*
X953332Y383342D01*
X953174Y383019D01*
X953009Y382700D01*
X952835Y382385D01*
X952655Y382075D01*
X952466Y381769D01*
X952270Y381468D01*
X952067Y381172D01*
X951857Y380881D01*
X951639Y380595D01*
X951415Y380314D01*
X951183Y380040D01*
X950945Y379770D01*
X950701Y379507D01*
X950450Y379250D01*
X950193Y378999D01*
X949930Y378755D01*
X949660Y378517D01*
X949386Y378285D01*
X949105Y378061D01*
X948819Y377843D01*
X948528Y377633D01*
X948232Y377430D01*
X947931Y377234D01*
X947625Y377045D01*
X947315Y376865D01*
X947000Y376691D01*
X946681Y376526D01*
X946358Y376368D01*
X946032Y376219D01*
X945701Y376077D01*
X945368Y375944D01*
X945031Y375819D01*
X944691Y375702D01*
X944349Y375593D01*
X944004Y375493D01*
X943657Y375402D01*
X943307Y375319D01*
X942956Y375244D01*
X942602Y375178D01*
X942248Y375121D01*
X941892Y375073D01*
X941535Y375033D01*
X941177Y375003D01*
X940818Y374981D01*
X940459Y374967D01*
X940100Y374963D01*
X939741Y374967D01*
X939382Y374981D01*
X939023Y375003D01*
X938665Y375033D01*
X938308Y375073D01*
X937952Y375121D01*
X937598Y375178D01*
X937244Y375244D01*
X936893Y375319D01*
X936543Y375402D01*
X936196Y375493D01*
X935851Y375593D01*
X935509Y375702D01*
X935169Y375819D01*
X934832Y375944D01*
X934499Y376077D01*
X934168Y376219D01*
X933842Y376368D01*
X933519Y376526D01*
X933200Y376691D01*
X932885Y376865D01*
X932575Y377045D01*
X932269Y377234D01*
X931968Y377430D01*
X931672Y377633D01*
X931381Y377843D01*
X931095Y378061D01*
X930814Y378285D01*
X930540Y378517D01*
X930270Y378755D01*
X930007Y378999D01*
X929750Y379250D01*
X929499Y379507D01*
X929255Y379770D01*
X929017Y380040D01*
X928785Y380314D01*
X928561Y380595D01*
X928343Y380881D01*
X928133Y381172D01*
X927930Y381468D01*
X927734Y381769D01*
X927545Y382075D01*
X927365Y382385D01*
X927191Y382700D01*
X927026Y383019D01*
X926868Y383342D01*
X926719Y383668D01*
X926577Y383999D01*
X926444Y384332D01*
X926319Y384669D01*
X926202Y385009D01*
X926093Y385351D01*
X925993Y385696D01*
X925902Y386043D01*
X925819Y386393D01*
X925744Y386744D01*
X925678Y387098D01*
X925621Y387452D01*
X925573Y387808D01*
X925533Y388165D01*
X925503Y388523D01*
X925481Y388882D01*
X925467Y389241D01*
X925463Y389600D01*
X917667Y371465D02*
X917667Y360025D01*
X923387Y360025D01*
X925294Y361932D01*
X925294Y369558D01*
X923387Y371465D01*
X917667Y371465D01*
X929361Y367652D02*
X933174Y371465D01*
X933174Y360025D01*
X929361Y360025D02*
X936988Y360025D01*
X214810Y562400D02*
X207190Y562400D01*
X211000Y562400D02*
X211004Y562712D01*
X211015Y563023D01*
X211034Y563334D01*
X211061Y563645D01*
X211096Y563955D01*
X211137Y564263D01*
X211187Y564571D01*
X211244Y564878D01*
X211309Y565183D01*
X211381Y565486D01*
X211460Y565787D01*
X211547Y566087D01*
X211641Y566384D01*
X211742Y566679D01*
X211851Y566971D01*
X211967Y567260D01*
X212090Y567547D01*
X212219Y567830D01*
X212356Y568110D01*
X212500Y568387D01*
X212650Y568660D01*
X212807Y568929D01*
X212970Y569194D01*
X213140Y569456D01*
X213317Y569713D01*
X213499Y569965D01*
X213688Y570213D01*
X213883Y570457D01*
X214083Y570695D01*
X214290Y570929D01*
X214502Y571157D01*
X214720Y571380D01*
X214943Y571598D01*
X215171Y571810D01*
X215405Y572017D01*
X215643Y572217D01*
X215887Y572412D01*
X216135Y572601D01*
X216387Y572783D01*
X216644Y572960D01*
X216906Y573130D01*
X217171Y573293D01*
X217440Y573450D01*
X217713Y573600D01*
X217990Y573744D01*
X218270Y573881D01*
X218553Y574010D01*
X218840Y574133D01*
X219129Y574249D01*
X219421Y574358D01*
X219716Y574459D01*
X220013Y574553D01*
X220313Y574640D01*
X220614Y574719D01*
X220917Y574791D01*
X221222Y574856D01*
X221529Y574913D01*
X221837Y574963D01*
X222145Y575004D01*
X222455Y575039D01*
X222766Y575066D01*
X223077Y575085D01*
X223388Y575096D01*
X223700Y575100D01*
X224012Y575096D01*
X224323Y575085D01*
X224634Y575066D01*
X224945Y575039D01*
X225255Y575004D01*
X225563Y574963D01*
X225871Y574913D01*
X226178Y574856D01*
X226483Y574791D01*
X226786Y574719D01*
X227087Y574640D01*
X227387Y574553D01*
X227684Y574459D01*
X227979Y574358D01*
X228271Y574249D01*
X228560Y574133D01*
X228847Y574010D01*
X229130Y573881D01*
X229410Y573744D01*
X229687Y573600D01*
X229960Y573450D01*
X230229Y573293D01*
X230494Y573130D01*
X230756Y572960D01*
X231013Y572783D01*
X231265Y572601D01*
X231513Y572412D01*
X231757Y572217D01*
X231995Y572017D01*
X232229Y571810D01*
X232457Y571598D01*
X232680Y571380D01*
X232898Y571157D01*
X233110Y570929D01*
X233317Y570695D01*
X233517Y570457D01*
X233712Y570213D01*
X233901Y569965D01*
X234083Y569713D01*
X234260Y569456D01*
X234430Y569194D01*
X234593Y568929D01*
X234750Y568660D01*
X234900Y568387D01*
X235044Y568110D01*
X235181Y567830D01*
X235310Y567547D01*
X235433Y567260D01*
X235549Y566971D01*
X235658Y566679D01*
X235759Y566384D01*
X235853Y566087D01*
X235940Y565787D01*
X236019Y565486D01*
X236091Y565183D01*
X236156Y564878D01*
X236213Y564571D01*
X236263Y564263D01*
X236304Y563955D01*
X236339Y563645D01*
X236366Y563334D01*
X236385Y563023D01*
X236396Y562712D01*
X236400Y562400D01*
X236396Y562088D01*
X236385Y561777D01*
X236366Y561466D01*
X236339Y561155D01*
X236304Y560845D01*
X236263Y560537D01*
X236213Y560229D01*
X236156Y559922D01*
X236091Y559617D01*
X236019Y559314D01*
X235940Y559013D01*
X235853Y558713D01*
X235759Y558416D01*
X235658Y558121D01*
X235549Y557829D01*
X235433Y557540D01*
X235310Y557253D01*
X235181Y556970D01*
X235044Y556690D01*
X234900Y556413D01*
X234750Y556140D01*
X234593Y555871D01*
X234430Y555606D01*
X234260Y555344D01*
X234083Y555087D01*
X233901Y554835D01*
X233712Y554587D01*
X233517Y554343D01*
X233317Y554105D01*
X233110Y553871D01*
X232898Y553643D01*
X232680Y553420D01*
X232457Y553202D01*
X232229Y552990D01*
X231995Y552783D01*
X231757Y552583D01*
X231513Y552388D01*
X231265Y552199D01*
X231013Y552017D01*
X230756Y551840D01*
X230494Y551670D01*
X230229Y551507D01*
X229960Y551350D01*
X229687Y551200D01*
X229410Y551056D01*
X229130Y550919D01*
X228847Y550790D01*
X228560Y550667D01*
X228271Y550551D01*
X227979Y550442D01*
X227684Y550341D01*
X227387Y550247D01*
X227087Y550160D01*
X226786Y550081D01*
X226483Y550009D01*
X226178Y549944D01*
X225871Y549887D01*
X225563Y549837D01*
X225255Y549796D01*
X224945Y549761D01*
X224634Y549734D01*
X224323Y549715D01*
X224012Y549704D01*
X223700Y549700D01*
X223388Y549704D01*
X223077Y549715D01*
X222766Y549734D01*
X222455Y549761D01*
X222145Y549796D01*
X221837Y549837D01*
X221529Y549887D01*
X221222Y549944D01*
X220917Y550009D01*
X220614Y550081D01*
X220313Y550160D01*
X220013Y550247D01*
X219716Y550341D01*
X219421Y550442D01*
X219129Y550551D01*
X218840Y550667D01*
X218553Y550790D01*
X218270Y550919D01*
X217990Y551056D01*
X217713Y551200D01*
X217440Y551350D01*
X217171Y551507D01*
X216906Y551670D01*
X216644Y551840D01*
X216387Y552017D01*
X216135Y552199D01*
X215887Y552388D01*
X215643Y552583D01*
X215405Y552783D01*
X215171Y552990D01*
X214943Y553202D01*
X214720Y553420D01*
X214502Y553643D01*
X214290Y553871D01*
X214083Y554105D01*
X213883Y554343D01*
X213688Y554587D01*
X213499Y554835D01*
X213317Y555087D01*
X213140Y555344D01*
X212970Y555606D01*
X212807Y555871D01*
X212650Y556140D01*
X212500Y556413D01*
X212356Y556690D01*
X212219Y556970D01*
X212090Y557253D01*
X211967Y557540D01*
X211851Y557829D01*
X211742Y558121D01*
X211641Y558416D01*
X211547Y558713D01*
X211460Y559013D01*
X211381Y559314D01*
X211309Y559617D01*
X211244Y559922D01*
X211187Y560229D01*
X211137Y560537D01*
X211096Y560845D01*
X211061Y561155D01*
X211034Y561466D01*
X211015Y561777D01*
X211004Y562088D01*
X211000Y562400D01*
X201953Y531295D02*
X201953Y519855D01*
X201953Y531295D02*
X207673Y531295D01*
X209580Y529388D01*
X209580Y525575D01*
X207673Y523668D01*
X201953Y523668D01*
X205766Y523668D02*
X209580Y519855D01*
X213647Y519855D02*
X221274Y519855D01*
X213647Y519855D02*
X221274Y527482D01*
X221274Y529388D01*
X219367Y531295D01*
X215554Y531295D01*
X213647Y529388D01*
X229154Y529388D02*
X232967Y531295D01*
X229154Y529388D02*
X225341Y525575D01*
X225341Y521762D01*
X227248Y519855D01*
X231061Y519855D01*
X232967Y521762D01*
X232967Y523668D01*
X231061Y525575D01*
X225341Y525575D01*
D10*
X72140Y592030D02*
X42930Y593300D01*
X72140Y592030D02*
X74680Y589490D01*
X74680Y495510D01*
X72140Y492970D01*
X42930Y491700D01*
D15*
X68584Y497542D03*
D16*
X35310Y542500D03*
D17*
X41660Y498685D03*
X41660Y586315D03*
D18*
X41660Y542500D03*
D11*
X76777Y504815D02*
X88217Y504815D01*
X88217Y510535D01*
X86310Y512442D01*
X78684Y512442D01*
X76777Y510535D01*
X76777Y504815D01*
X88217Y516509D02*
X88217Y524135D01*
X88217Y516509D02*
X80591Y524135D01*
X78684Y524135D01*
X76777Y522229D01*
X76777Y518416D01*
X78684Y516509D01*
X33905Y498375D02*
X33905Y488842D01*
X35812Y486935D01*
X39625Y486935D01*
X41532Y488842D01*
X41532Y498375D01*
X45599Y488842D02*
X47506Y486935D01*
X51319Y486935D01*
X53225Y488842D01*
X53225Y490748D01*
X51319Y492655D01*
X47506Y492655D01*
X45599Y494562D01*
X45599Y496468D01*
X47506Y498375D01*
X51319Y498375D01*
X53225Y496468D01*
X49412Y500281D02*
X49412Y485028D01*
X57293Y498375D02*
X64919Y498375D01*
X57293Y498375D02*
X57293Y492655D01*
X61106Y494562D01*
X63013Y494562D01*
X64919Y492655D01*
X64919Y488842D01*
X63013Y486935D01*
X59200Y486935D01*
X57293Y488842D01*
X33305Y582342D02*
X33305Y591875D01*
X33305Y582342D02*
X35212Y580435D01*
X39025Y580435D01*
X40932Y582342D01*
X40932Y591875D01*
X44999Y582342D02*
X46906Y580435D01*
X50719Y580435D01*
X52625Y582342D01*
X52625Y584248D01*
X50719Y586155D01*
X46906Y586155D01*
X44999Y588062D01*
X44999Y589968D01*
X46906Y591875D01*
X50719Y591875D01*
X52625Y589968D01*
X48812Y593781D02*
X48812Y578528D01*
X56693Y588062D02*
X60506Y591875D01*
X60506Y580435D01*
X56693Y580435D02*
X64319Y580435D01*
X68387Y582342D02*
X68387Y589968D01*
X70294Y591875D01*
X74107Y591875D01*
X76013Y589968D01*
X76013Y582342D01*
X74107Y580435D01*
X70294Y580435D01*
X68387Y582342D01*
X76013Y589968D01*
X28705Y546675D02*
X28705Y537142D01*
X30612Y535235D01*
X34425Y535235D01*
X36332Y537142D01*
X36332Y546675D01*
X40399Y537142D02*
X42306Y535235D01*
X46119Y535235D01*
X48025Y537142D01*
X48025Y539048D01*
X46119Y540955D01*
X42306Y540955D01*
X40399Y542862D01*
X40399Y544768D01*
X42306Y546675D01*
X46119Y546675D01*
X48025Y544768D01*
X44212Y548581D02*
X44212Y533328D01*
X52093Y542862D02*
X55906Y546675D01*
X55906Y535235D01*
X52093Y535235D02*
X59719Y535235D01*
X63787Y542862D02*
X67600Y546675D01*
X67600Y535235D01*
X63787Y535235D02*
X71413Y535235D01*
D10*
X859400Y543050D02*
X865750Y536700D01*
X859400Y543050D02*
X859400Y555750D01*
X865750Y562100D01*
X878450Y562100D01*
X884800Y555750D01*
X884800Y543050D01*
X878450Y536700D01*
X859400Y504950D02*
X859400Y492250D01*
X859400Y504950D02*
X865750Y511300D01*
X878450Y511300D01*
X884800Y504950D01*
X865750Y511300D02*
X859400Y517650D01*
X859400Y530350D01*
X865750Y536700D01*
X878450Y536700D01*
X884800Y530350D01*
X884800Y517650D01*
X878450Y511300D01*
X859400Y466850D02*
X865750Y460500D01*
X859400Y466850D02*
X859400Y479550D01*
X865750Y485900D01*
X878450Y485900D01*
X884800Y479550D01*
X884800Y466850D01*
X878450Y460500D01*
X865750Y485900D02*
X859400Y492250D01*
X878450Y485900D02*
X884800Y492250D01*
X884800Y504950D01*
X859400Y428750D02*
X859400Y416050D01*
X859400Y428750D02*
X865750Y435100D01*
X878450Y435100D01*
X884800Y428750D01*
X865750Y435100D02*
X859400Y441450D01*
X859400Y454150D01*
X865750Y460500D01*
X878450Y460500D01*
X884800Y454150D01*
X884800Y441450D01*
X878450Y435100D01*
X878450Y409700D02*
X865750Y409700D01*
X859400Y416050D01*
X878450Y409700D02*
X884800Y416050D01*
X884800Y428750D01*
X859400Y568450D02*
X859400Y581150D01*
X865750Y587500D01*
X878450Y587500D01*
X884800Y581150D01*
X865750Y562100D02*
X859400Y568450D01*
X878450Y562100D02*
X884800Y568450D01*
X884800Y581150D01*
D11*
X853177Y411480D02*
X851270Y409573D01*
X853177Y411480D02*
X853177Y413386D01*
X851270Y415293D01*
X841737Y415293D01*
X841737Y413386D02*
X841737Y417200D01*
X841737Y421267D02*
X853177Y421267D01*
X841737Y421267D02*
X841737Y426987D01*
X843644Y428893D01*
X847457Y428893D01*
X849364Y426987D01*
X849364Y421267D01*
X841737Y432961D02*
X841737Y440587D01*
X841737Y432961D02*
X847457Y432961D01*
X845551Y436774D01*
X845551Y438681D01*
X847457Y440587D01*
X851270Y440587D01*
X853177Y438681D01*
X853177Y434868D01*
X851270Y432961D01*
D10*
X936260Y260130D02*
X967140Y260130D01*
X967140Y245880D01*
X936260Y245880D01*
X936260Y260130D01*
D11*
X931378Y235855D02*
X921845Y235855D01*
X931378Y235855D02*
X933285Y237762D01*
X933285Y241575D01*
X931378Y243482D01*
X921845Y243482D01*
X931378Y247549D02*
X933285Y249456D01*
X933285Y253269D01*
X931378Y255175D01*
X929472Y255175D01*
X927565Y253269D01*
X927565Y249456D01*
X925659Y247549D01*
X923752Y247549D01*
X921845Y249456D01*
X921845Y253269D01*
X923752Y255175D01*
X919939Y251362D02*
X935192Y251362D01*
X925659Y259243D02*
X921845Y263056D01*
X933285Y263056D01*
X933285Y259243D02*
X933285Y266869D01*
X933285Y276657D02*
X921845Y276657D01*
X927565Y270937D01*
X927565Y278563D01*
D13*
X973608Y241418D02*
X985302Y241418D01*
X973608Y241418D02*
X973608Y247265D01*
X975557Y249214D01*
X979455Y249214D01*
X981404Y247265D01*
X981404Y241418D01*
X981404Y245316D02*
X985302Y249214D01*
X975557Y253112D02*
X973608Y255061D01*
X973608Y258959D01*
X975557Y260908D01*
X977506Y260908D01*
X979455Y258959D01*
X979455Y257010D01*
X979455Y258959D02*
X981404Y260908D01*
X983353Y260908D01*
X985302Y258959D01*
X985302Y255061D01*
X983353Y253112D01*
X985302Y264806D02*
X985302Y272602D01*
X985302Y264806D02*
X977506Y272602D01*
X975557Y272602D01*
X973608Y270653D01*
X973608Y266755D01*
X975557Y264806D01*
X920716Y198512D02*
X920716Y186818D01*
X920716Y198512D02*
X926563Y198512D01*
X928512Y196563D01*
X928512Y192665D01*
X926563Y190716D01*
X920716Y190716D01*
X924614Y190716D02*
X928512Y186818D01*
X932410Y196563D02*
X934359Y198512D01*
X938257Y198512D01*
X940206Y196563D01*
X940206Y194614D01*
X938257Y192665D01*
X936308Y192665D01*
X938257Y192665D02*
X940206Y190716D01*
X940206Y188767D01*
X938257Y186818D01*
X934359Y186818D01*
X932410Y188767D01*
X944104Y196563D02*
X946053Y198512D01*
X949951Y198512D01*
X951900Y196563D01*
X951900Y194614D01*
X949951Y192665D01*
X948002Y192665D01*
X949951Y192665D02*
X951900Y190716D01*
X951900Y188767D01*
X949951Y186818D01*
X946053Y186818D01*
X944104Y188767D01*
X971718Y217898D02*
X971718Y229592D01*
X977565Y229592D01*
X979514Y227643D01*
X979514Y223745D01*
X977565Y221796D01*
X971718Y221796D01*
X975616Y221796D02*
X979514Y217898D01*
X983412Y227643D02*
X985361Y229592D01*
X989259Y229592D01*
X991208Y227643D01*
X991208Y225694D01*
X989259Y223745D01*
X987310Y223745D01*
X989259Y223745D02*
X991208Y221796D01*
X991208Y219847D01*
X989259Y217898D01*
X985361Y217898D01*
X983412Y219847D01*
X1000953Y217898D02*
X1000953Y229592D01*
X995106Y223745D01*
X1002902Y223745D01*
X920416Y172912D02*
X920416Y161218D01*
X920416Y172912D02*
X926263Y172912D01*
X928212Y170963D01*
X928212Y167065D01*
X926263Y165116D01*
X920416Y165116D01*
X924314Y165116D02*
X928212Y161218D01*
X932110Y170963D02*
X934059Y172912D01*
X937957Y172912D01*
X939906Y170963D01*
X939906Y169014D01*
X937957Y167065D01*
X936008Y167065D01*
X937957Y167065D02*
X939906Y165116D01*
X939906Y163167D01*
X937957Y161218D01*
X934059Y161218D01*
X932110Y163167D01*
X943804Y172912D02*
X951600Y172912D01*
X943804Y172912D02*
X943804Y167065D01*
X947702Y169014D01*
X949651Y169014D01*
X951600Y167065D01*
X951600Y163167D01*
X949651Y161218D01*
X945753Y161218D01*
X943804Y163167D01*
X973318Y190798D02*
X973318Y202492D01*
X979165Y202492D01*
X981114Y200543D01*
X981114Y196645D01*
X979165Y194696D01*
X973318Y194696D01*
X977216Y194696D02*
X981114Y190798D01*
X985012Y200543D02*
X986961Y202492D01*
X990859Y202492D01*
X992808Y200543D01*
X992808Y198594D01*
X990859Y196645D01*
X988910Y196645D01*
X990859Y196645D02*
X992808Y194696D01*
X992808Y192747D01*
X990859Y190798D01*
X986961Y190798D01*
X985012Y192747D01*
X1000604Y200543D02*
X1004502Y202492D01*
X1000604Y200543D02*
X996706Y196645D01*
X996706Y192747D01*
X998655Y190798D01*
X1002553Y190798D01*
X1004502Y192747D01*
X1004502Y194696D01*
X1002553Y196645D01*
X996706Y196645D01*
D10*
X968400Y39250D02*
X962050Y32900D01*
X968400Y51950D02*
X962050Y58300D01*
X968400Y64650D01*
X968400Y77350D02*
X962050Y83700D01*
X962050Y32900D02*
X923950Y32900D01*
X917600Y39250D01*
X917600Y51950D01*
X923950Y58300D01*
X917600Y64650D01*
X917600Y77350D01*
X923950Y83700D01*
X923950Y58300D02*
X962050Y58300D01*
X962050Y83700D02*
X923950Y83700D01*
X968400Y77350D02*
X968400Y64650D01*
X968400Y51950D02*
X968400Y39250D01*
X962050Y83700D02*
X968400Y90050D01*
X968400Y102750D02*
X962050Y109100D01*
X923950Y83700D02*
X917600Y90050D01*
X917600Y102750D01*
X923950Y109100D01*
X962050Y109100D01*
X968400Y102750D02*
X968400Y90050D01*
D11*
X910615Y35442D02*
X908708Y33535D01*
X910615Y35442D02*
X910615Y37348D01*
X908708Y39255D01*
X899175Y39255D01*
X899175Y37348D02*
X899175Y41162D01*
X899175Y45229D02*
X910615Y45229D01*
X899175Y45229D02*
X899175Y50949D01*
X901082Y52855D01*
X904895Y52855D01*
X906802Y50949D01*
X906802Y45229D01*
X901082Y60736D02*
X899175Y64549D01*
X901082Y60736D02*
X904895Y56923D01*
X908708Y56923D01*
X910615Y58830D01*
X910615Y62643D01*
X908708Y64549D01*
X906802Y64549D01*
X904895Y62643D01*
X904895Y56923D01*
D13*
X157292Y378308D02*
X145598Y378308D01*
X157292Y378308D02*
X157292Y386104D01*
X145598Y390002D02*
X145598Y397798D01*
X145598Y390002D02*
X157292Y390002D01*
X157292Y397798D01*
X151445Y393900D02*
X151445Y390002D01*
X145598Y401696D02*
X157292Y401696D01*
X157292Y407543D01*
X155343Y409492D01*
X147547Y409492D01*
X145598Y407543D01*
X145598Y401696D01*
X157292Y413390D02*
X157292Y421186D01*
X157292Y413390D02*
X149496Y421186D01*
X147547Y421186D01*
X145598Y419237D01*
X145598Y415339D01*
X147547Y413390D01*
D19*
X170500Y391500D03*
D11*
X209000Y493790D02*
X209000Y501410D01*
X196300Y510300D02*
X196304Y510612D01*
X196315Y510923D01*
X196334Y511234D01*
X196361Y511545D01*
X196396Y511855D01*
X196437Y512163D01*
X196487Y512471D01*
X196544Y512778D01*
X196609Y513083D01*
X196681Y513386D01*
X196760Y513687D01*
X196847Y513987D01*
X196941Y514284D01*
X197042Y514579D01*
X197151Y514871D01*
X197267Y515160D01*
X197390Y515447D01*
X197519Y515730D01*
X197656Y516010D01*
X197800Y516287D01*
X197950Y516560D01*
X198107Y516829D01*
X198270Y517094D01*
X198440Y517356D01*
X198617Y517613D01*
X198799Y517865D01*
X198988Y518113D01*
X199183Y518357D01*
X199383Y518595D01*
X199590Y518829D01*
X199802Y519057D01*
X200020Y519280D01*
X200243Y519498D01*
X200471Y519710D01*
X200705Y519917D01*
X200943Y520117D01*
X201187Y520312D01*
X201435Y520501D01*
X201687Y520683D01*
X201944Y520860D01*
X202206Y521030D01*
X202471Y521193D01*
X202740Y521350D01*
X203013Y521500D01*
X203290Y521644D01*
X203570Y521781D01*
X203853Y521910D01*
X204140Y522033D01*
X204429Y522149D01*
X204721Y522258D01*
X205016Y522359D01*
X205313Y522453D01*
X205613Y522540D01*
X205914Y522619D01*
X206217Y522691D01*
X206522Y522756D01*
X206829Y522813D01*
X207137Y522863D01*
X207445Y522904D01*
X207755Y522939D01*
X208066Y522966D01*
X208377Y522985D01*
X208688Y522996D01*
X209000Y523000D01*
X209312Y522996D01*
X209623Y522985D01*
X209934Y522966D01*
X210245Y522939D01*
X210555Y522904D01*
X210863Y522863D01*
X211171Y522813D01*
X211478Y522756D01*
X211783Y522691D01*
X212086Y522619D01*
X212387Y522540D01*
X212687Y522453D01*
X212984Y522359D01*
X213279Y522258D01*
X213571Y522149D01*
X213860Y522033D01*
X214147Y521910D01*
X214430Y521781D01*
X214710Y521644D01*
X214987Y521500D01*
X215260Y521350D01*
X215529Y521193D01*
X215794Y521030D01*
X216056Y520860D01*
X216313Y520683D01*
X216565Y520501D01*
X216813Y520312D01*
X217057Y520117D01*
X217295Y519917D01*
X217529Y519710D01*
X217757Y519498D01*
X217980Y519280D01*
X218198Y519057D01*
X218410Y518829D01*
X218617Y518595D01*
X218817Y518357D01*
X219012Y518113D01*
X219201Y517865D01*
X219383Y517613D01*
X219560Y517356D01*
X219730Y517094D01*
X219893Y516829D01*
X220050Y516560D01*
X220200Y516287D01*
X220344Y516010D01*
X220481Y515730D01*
X220610Y515447D01*
X220733Y515160D01*
X220849Y514871D01*
X220958Y514579D01*
X221059Y514284D01*
X221153Y513987D01*
X221240Y513687D01*
X221319Y513386D01*
X221391Y513083D01*
X221456Y512778D01*
X221513Y512471D01*
X221563Y512163D01*
X221604Y511855D01*
X221639Y511545D01*
X221666Y511234D01*
X221685Y510923D01*
X221696Y510612D01*
X221700Y510300D01*
X221696Y509988D01*
X221685Y509677D01*
X221666Y509366D01*
X221639Y509055D01*
X221604Y508745D01*
X221563Y508437D01*
X221513Y508129D01*
X221456Y507822D01*
X221391Y507517D01*
X221319Y507214D01*
X221240Y506913D01*
X221153Y506613D01*
X221059Y506316D01*
X220958Y506021D01*
X220849Y505729D01*
X220733Y505440D01*
X220610Y505153D01*
X220481Y504870D01*
X220344Y504590D01*
X220200Y504313D01*
X220050Y504040D01*
X219893Y503771D01*
X219730Y503506D01*
X219560Y503244D01*
X219383Y502987D01*
X219201Y502735D01*
X219012Y502487D01*
X218817Y502243D01*
X218617Y502005D01*
X218410Y501771D01*
X218198Y501543D01*
X217980Y501320D01*
X217757Y501102D01*
X217529Y500890D01*
X217295Y500683D01*
X217057Y500483D01*
X216813Y500288D01*
X216565Y500099D01*
X216313Y499917D01*
X216056Y499740D01*
X215794Y499570D01*
X215529Y499407D01*
X215260Y499250D01*
X214987Y499100D01*
X214710Y498956D01*
X214430Y498819D01*
X214147Y498690D01*
X213860Y498567D01*
X213571Y498451D01*
X213279Y498342D01*
X212984Y498241D01*
X212687Y498147D01*
X212387Y498060D01*
X212086Y497981D01*
X211783Y497909D01*
X211478Y497844D01*
X211171Y497787D01*
X210863Y497737D01*
X210555Y497696D01*
X210245Y497661D01*
X209934Y497634D01*
X209623Y497615D01*
X209312Y497604D01*
X209000Y497600D01*
X208688Y497604D01*
X208377Y497615D01*
X208066Y497634D01*
X207755Y497661D01*
X207445Y497696D01*
X207137Y497737D01*
X206829Y497787D01*
X206522Y497844D01*
X206217Y497909D01*
X205914Y497981D01*
X205613Y498060D01*
X205313Y498147D01*
X205016Y498241D01*
X204721Y498342D01*
X204429Y498451D01*
X204140Y498567D01*
X203853Y498690D01*
X203570Y498819D01*
X203290Y498956D01*
X203013Y499100D01*
X202740Y499250D01*
X202471Y499407D01*
X202206Y499570D01*
X201944Y499740D01*
X201687Y499917D01*
X201435Y500099D01*
X201187Y500288D01*
X200943Y500483D01*
X200705Y500683D01*
X200471Y500890D01*
X200243Y501102D01*
X200020Y501320D01*
X199802Y501543D01*
X199590Y501771D01*
X199383Y502005D01*
X199183Y502243D01*
X198988Y502487D01*
X198799Y502735D01*
X198617Y502987D01*
X198440Y503244D01*
X198270Y503506D01*
X198107Y503771D01*
X197950Y504040D01*
X197800Y504313D01*
X197656Y504590D01*
X197519Y504870D01*
X197390Y505153D01*
X197267Y505440D01*
X197151Y505729D01*
X197042Y506021D01*
X196941Y506316D01*
X196847Y506613D01*
X196760Y506913D01*
X196681Y507214D01*
X196609Y507517D01*
X196544Y507822D01*
X196487Y508129D01*
X196437Y508437D01*
X196396Y508745D01*
X196361Y509055D01*
X196334Y509366D01*
X196315Y509677D01*
X196304Y509988D01*
X196300Y510300D01*
X240105Y488553D02*
X251545Y488553D01*
X240105Y488553D02*
X240105Y494273D01*
X242012Y496180D01*
X245825Y496180D01*
X247732Y494273D01*
X247732Y488553D01*
X247732Y492366D02*
X251545Y496180D01*
X251545Y505967D02*
X240105Y505967D01*
X245825Y500247D01*
X245825Y507874D01*
X240105Y511941D02*
X240105Y519567D01*
X242012Y519567D01*
X249638Y511941D01*
X251545Y511941D01*
D10*
X198350Y448100D02*
X185650Y448100D01*
X179300Y454450D01*
X179300Y467150D01*
X185650Y473500D01*
X204700Y467150D02*
X204700Y454450D01*
X198350Y448100D01*
X204700Y467150D02*
X198350Y473500D01*
X185650Y473500D01*
X179300Y454450D02*
X172950Y448100D01*
X160250Y448100D01*
X153900Y454450D01*
X153900Y467150D01*
X160250Y473500D01*
X172950Y473500D01*
X179300Y467150D01*
D11*
X171015Y432354D02*
X172922Y430447D01*
X174828Y430447D01*
X176735Y432354D01*
X176735Y441887D01*
X174828Y441887D02*
X178642Y441887D01*
X182709Y441887D02*
X182709Y430447D01*
X182709Y441887D02*
X188429Y441887D01*
X190336Y439980D01*
X190336Y436167D01*
X188429Y434260D01*
X182709Y434260D01*
X194403Y432354D02*
X196310Y430447D01*
X200123Y430447D01*
X202029Y432354D01*
X202029Y439980D01*
X200123Y441887D01*
X196310Y441887D01*
X194403Y439980D01*
X194403Y438074D01*
X196310Y436167D01*
X202029Y436167D01*
D10*
X419000Y188650D02*
X419000Y175950D01*
X412650Y169600D01*
X399950Y169600D01*
X393600Y175950D01*
X399950Y195000D02*
X412650Y195000D01*
X419000Y188650D01*
X399950Y195000D02*
X393600Y188650D01*
X393600Y175950D01*
X412650Y169600D02*
X419000Y163250D01*
X419000Y150550D01*
X412650Y144200D01*
X399950Y144200D01*
X393600Y150550D01*
X393600Y163250D01*
X399950Y169600D01*
D11*
X434746Y149621D02*
X436653Y151528D01*
X436653Y153434D01*
X434746Y155341D01*
X425213Y155341D01*
X425213Y153434D02*
X425213Y157248D01*
X425213Y161315D02*
X436653Y161315D01*
X425213Y161315D02*
X425213Y167035D01*
X427120Y168942D01*
X430933Y168942D01*
X432840Y167035D01*
X432840Y161315D01*
X429027Y173009D02*
X425213Y176822D01*
X436653Y176822D01*
X436653Y173009D02*
X436653Y180635D01*
X429027Y184703D02*
X425213Y188516D01*
X436653Y188516D01*
X436653Y184703D02*
X436653Y192329D01*
D10*
X939100Y466450D02*
X945450Y460100D01*
X939100Y466450D02*
X939100Y479150D01*
X945450Y485500D01*
X958150Y485500D01*
X964500Y479150D01*
X964500Y466450D01*
X958150Y460100D01*
X939100Y428350D02*
X939100Y415650D01*
X939100Y428350D02*
X945450Y434700D01*
X958150Y434700D01*
X964500Y428350D01*
X945450Y434700D02*
X939100Y441050D01*
X939100Y453750D01*
X945450Y460100D01*
X958150Y460100D01*
X964500Y453750D01*
X964500Y441050D01*
X958150Y434700D01*
X958150Y409300D02*
X945450Y409300D01*
X939100Y415650D01*
X958150Y409300D02*
X964500Y415650D01*
X964500Y428350D01*
X939100Y491850D02*
X939100Y504550D01*
X945450Y510900D01*
X958150Y510900D01*
X964500Y504550D01*
X945450Y485500D02*
X939100Y491850D01*
X958150Y485500D02*
X964500Y491850D01*
X964500Y504550D01*
D11*
X932877Y411080D02*
X930970Y409173D01*
X932877Y411080D02*
X932877Y412986D01*
X930970Y414893D01*
X921437Y414893D01*
X921437Y412986D02*
X921437Y416800D01*
X921437Y420867D02*
X932877Y420867D01*
X921437Y420867D02*
X921437Y426587D01*
X923344Y428493D01*
X927157Y428493D01*
X929064Y426587D01*
X929064Y420867D01*
X925251Y432561D02*
X921437Y436374D01*
X932877Y436374D01*
X932877Y432561D02*
X932877Y440187D01*
X932877Y444255D02*
X932877Y451881D01*
X932877Y444255D02*
X925251Y451881D01*
X923344Y451881D01*
X921437Y449975D01*
X921437Y446162D01*
X923344Y444255D01*
D10*
X989170Y440960D02*
X989170Y471840D01*
X1000420Y471840D01*
X1000420Y440960D01*
X989170Y440960D01*
D11*
X1014412Y397333D02*
X1022038Y397333D01*
X1014412Y397333D02*
X1012505Y399240D01*
X1012505Y403053D01*
X1014412Y404960D01*
X1022038Y404960D01*
X1023945Y403053D01*
X1023945Y399240D01*
X1022038Y397333D01*
X1020132Y401146D02*
X1023945Y404960D01*
X1016319Y409027D02*
X1012505Y412840D01*
X1023945Y412840D01*
X1023945Y409027D02*
X1023945Y416654D01*
X1012505Y420721D02*
X1012505Y428347D01*
X1014412Y428347D01*
X1022038Y420721D01*
X1023945Y420721D01*
D10*
X984870Y507960D02*
X984870Y538840D01*
X996120Y538840D01*
X996120Y507960D01*
X984870Y507960D01*
D11*
X945933Y543162D02*
X945933Y550788D01*
X947840Y552695D01*
X951653Y552695D01*
X953560Y550788D01*
X953560Y543162D01*
X951653Y541255D01*
X947840Y541255D01*
X945933Y543162D01*
X949746Y545068D02*
X953560Y541255D01*
X957627Y541255D02*
X965254Y541255D01*
X957627Y541255D02*
X965254Y548882D01*
X965254Y550788D01*
X963347Y552695D01*
X959534Y552695D01*
X957627Y550788D01*
X969321Y550788D02*
X969321Y543162D01*
X969321Y550788D02*
X971228Y552695D01*
X975041Y552695D01*
X976947Y550788D01*
X976947Y543162D01*
X975041Y541255D01*
X971228Y541255D01*
X969321Y543162D01*
X976947Y550788D01*
D20*
X159290Y592670D02*
X99346Y592666D01*
X159290Y592670D02*
X159290Y527130D01*
X99346Y527134D01*
D13*
X116832Y521302D02*
X116832Y511557D01*
X118781Y509608D01*
X122679Y509608D01*
X124628Y511557D01*
X124628Y521302D01*
X128526Y511557D02*
X130475Y509608D01*
X134373Y509608D01*
X136322Y511557D01*
X136322Y513506D01*
X134373Y515455D01*
X130475Y515455D01*
X128526Y517404D01*
X128526Y519353D01*
X130475Y521302D01*
X134373Y521302D01*
X136322Y519353D01*
X132424Y523251D02*
X132424Y507659D01*
X140220Y509608D02*
X148016Y509608D01*
X140220Y509608D02*
X148016Y517404D01*
X148016Y519353D01*
X146067Y521302D01*
X142169Y521302D01*
X140220Y519353D01*
X151914Y517404D02*
X155812Y521302D01*
X155812Y509608D01*
X151914Y509608D02*
X159710Y509608D01*
D21*
X164116Y559900D03*
D11*
X78670Y522040D02*
X77400Y492830D01*
X78670Y522040D02*
X81210Y524580D01*
X175190Y524580D01*
X177730Y522040D01*
X179000Y492830D01*
X170618Y518484D02*
X170620Y518584D01*
X170626Y518685D01*
X170636Y518784D01*
X170650Y518884D01*
X170667Y518983D01*
X170689Y519081D01*
X170715Y519178D01*
X170744Y519274D01*
X170777Y519368D01*
X170814Y519462D01*
X170854Y519554D01*
X170898Y519644D01*
X170946Y519732D01*
X170997Y519819D01*
X171051Y519903D01*
X171109Y519985D01*
X171170Y520065D01*
X171234Y520142D01*
X171301Y520217D01*
X171371Y520289D01*
X171444Y520358D01*
X171519Y520424D01*
X171597Y520488D01*
X171677Y520548D01*
X171760Y520605D01*
X171845Y520658D01*
X171932Y520708D01*
X172021Y520755D01*
X172111Y520798D01*
X172203Y520838D01*
X172297Y520874D01*
X172392Y520906D01*
X172488Y520934D01*
X172586Y520959D01*
X172684Y520979D01*
X172783Y520996D01*
X172883Y521009D01*
X172982Y521018D01*
X173083Y521023D01*
X173183Y521024D01*
X173283Y521021D01*
X173384Y521014D01*
X173483Y521003D01*
X173583Y520988D01*
X173681Y520970D01*
X173779Y520947D01*
X173876Y520920D01*
X173971Y520890D01*
X174066Y520856D01*
X174159Y520818D01*
X174250Y520777D01*
X174340Y520732D01*
X174428Y520684D01*
X174514Y520632D01*
X174598Y520577D01*
X174679Y520518D01*
X174758Y520456D01*
X174835Y520392D01*
X174909Y520324D01*
X174980Y520253D01*
X175049Y520180D01*
X175114Y520104D01*
X175177Y520025D01*
X175236Y519944D01*
X175292Y519861D01*
X175345Y519776D01*
X175394Y519688D01*
X175440Y519599D01*
X175482Y519508D01*
X175521Y519415D01*
X175556Y519321D01*
X175587Y519226D01*
X175615Y519129D01*
X175638Y519032D01*
X175658Y518933D01*
X175674Y518834D01*
X175686Y518735D01*
X175694Y518634D01*
X175698Y518534D01*
X175698Y518434D01*
X175694Y518334D01*
X175686Y518233D01*
X175674Y518134D01*
X175658Y518035D01*
X175638Y517936D01*
X175615Y517839D01*
X175587Y517742D01*
X175556Y517647D01*
X175521Y517553D01*
X175482Y517460D01*
X175440Y517369D01*
X175394Y517280D01*
X175345Y517192D01*
X175292Y517107D01*
X175236Y517024D01*
X175177Y516943D01*
X175114Y516864D01*
X175049Y516788D01*
X174980Y516715D01*
X174909Y516644D01*
X174835Y516576D01*
X174758Y516512D01*
X174679Y516450D01*
X174598Y516391D01*
X174514Y516336D01*
X174428Y516284D01*
X174340Y516236D01*
X174250Y516191D01*
X174159Y516150D01*
X174066Y516112D01*
X173971Y516078D01*
X173876Y516048D01*
X173779Y516021D01*
X173681Y515998D01*
X173583Y515980D01*
X173483Y515965D01*
X173384Y515954D01*
X173283Y515947D01*
X173183Y515944D01*
X173083Y515945D01*
X172982Y515950D01*
X172883Y515959D01*
X172783Y515972D01*
X172684Y515989D01*
X172586Y516009D01*
X172488Y516034D01*
X172392Y516062D01*
X172297Y516094D01*
X172203Y516130D01*
X172111Y516170D01*
X172021Y516213D01*
X171932Y516260D01*
X171845Y516310D01*
X171760Y516363D01*
X171677Y516420D01*
X171597Y516480D01*
X171519Y516544D01*
X171444Y516610D01*
X171371Y516679D01*
X171301Y516751D01*
X171234Y516826D01*
X171170Y516903D01*
X171109Y516983D01*
X171051Y517065D01*
X170997Y517149D01*
X170946Y517236D01*
X170898Y517324D01*
X170854Y517414D01*
X170814Y517506D01*
X170777Y517600D01*
X170744Y517694D01*
X170715Y517790D01*
X170689Y517887D01*
X170667Y517985D01*
X170650Y518084D01*
X170636Y518184D01*
X170626Y518283D01*
X170620Y518384D01*
X170618Y518484D01*
X144553Y531694D02*
X144553Y541227D01*
X144553Y531694D02*
X146460Y529787D01*
X150273Y529787D01*
X152180Y531694D01*
X152180Y541227D01*
X156247Y531694D02*
X158154Y529787D01*
X161967Y529787D01*
X163874Y531694D01*
X163874Y533600D01*
X161967Y535507D01*
X158154Y535507D01*
X156247Y537414D01*
X156247Y539320D01*
X158154Y541227D01*
X161967Y541227D01*
X163874Y539320D01*
X160060Y543133D02*
X160060Y527880D01*
X167941Y531694D02*
X169848Y529787D01*
X173661Y529787D01*
X175567Y531694D01*
X175567Y539320D01*
X173661Y541227D01*
X169848Y541227D01*
X167941Y539320D01*
X167941Y537414D01*
X169848Y535507D01*
X175567Y535507D01*
D22*
X128200Y485210D03*
D23*
X172015Y491560D03*
D24*
X140900Y491560D03*
X115500Y491560D03*
D23*
X84385Y491560D03*
D11*
X1055760Y358300D02*
X1086060Y358300D01*
X1055760Y524200D02*
X1189740Y524200D01*
X1055760Y524200D02*
X1055760Y358300D01*
X1086060Y358300D02*
X1086060Y382800D01*
X1086060Y422800D01*
X1086060Y471170D01*
X1159090Y471170D01*
X1159090Y359300D01*
X1172740Y358300D02*
X1189740Y358800D01*
X1189740Y524200D01*
X1159740Y422800D02*
X1086060Y422800D01*
X1086060Y382800D02*
X1145740Y382800D01*
X1152740Y382800D01*
X1159740Y382800D01*
X1091060Y358800D02*
X1087060Y358800D01*
X1091060Y358800D02*
X1091167Y358802D01*
X1091274Y358808D01*
X1091381Y358817D01*
X1091487Y358831D01*
X1091593Y358848D01*
X1091698Y358869D01*
X1091802Y358893D01*
X1091905Y358922D01*
X1092007Y358954D01*
X1092108Y358989D01*
X1092208Y359028D01*
X1092306Y359071D01*
X1092403Y359117D01*
X1092498Y359167D01*
X1092591Y359220D01*
X1092682Y359276D01*
X1092771Y359336D01*
X1092858Y359398D01*
X1092942Y359464D01*
X1093025Y359533D01*
X1093104Y359604D01*
X1093181Y359679D01*
X1093256Y359756D01*
X1093327Y359835D01*
X1093396Y359918D01*
X1093462Y360002D01*
X1093524Y360089D01*
X1093584Y360178D01*
X1093640Y360269D01*
X1093693Y360362D01*
X1093743Y360457D01*
X1093789Y360554D01*
X1093832Y360652D01*
X1093871Y360752D01*
X1093906Y360853D01*
X1093938Y360955D01*
X1093967Y361058D01*
X1093991Y361162D01*
X1094012Y361267D01*
X1094029Y361373D01*
X1094043Y361479D01*
X1094052Y361586D01*
X1094058Y361693D01*
X1094060Y361800D01*
X1094060Y381800D01*
X1159740Y358800D02*
X1189740Y358800D01*
X1159740Y358800D02*
X1156740Y358800D01*
X1156623Y358785D01*
X1156505Y358774D01*
X1156387Y358767D01*
X1156269Y358764D01*
X1156151Y358765D01*
X1156033Y358770D01*
X1155915Y358779D01*
X1155797Y358792D01*
X1155681Y358809D01*
X1155564Y358829D01*
X1155449Y358854D01*
X1155334Y358882D01*
X1155220Y358914D01*
X1155108Y358950D01*
X1154996Y358990D01*
X1154886Y359033D01*
X1154778Y359080D01*
X1154671Y359131D01*
X1154566Y359185D01*
X1154463Y359243D01*
X1154362Y359304D01*
X1154263Y359368D01*
X1154166Y359436D01*
X1154071Y359507D01*
X1153979Y359581D01*
X1153890Y359658D01*
X1153803Y359738D01*
X1153719Y359821D01*
X1153637Y359907D01*
X1153559Y359995D01*
X1153483Y360086D01*
X1153411Y360179D01*
X1153341Y360275D01*
X1153275Y360373D01*
X1153213Y360473D01*
X1153153Y360575D01*
X1153097Y360679D01*
X1153045Y360785D01*
X1152996Y360893D01*
X1152951Y361002D01*
X1152909Y361113D01*
X1152871Y361225D01*
X1152837Y361338D01*
X1152807Y361452D01*
X1152781Y361567D01*
X1152758Y361683D01*
X1152740Y361800D01*
X1152740Y382800D01*
X1151740Y358800D02*
X1156740Y358800D01*
X1151740Y358800D02*
X1151621Y358743D01*
X1151499Y358689D01*
X1151377Y358638D01*
X1151253Y358592D01*
X1151127Y358549D01*
X1151001Y358509D01*
X1150873Y358474D01*
X1150744Y358442D01*
X1150615Y358414D01*
X1150485Y358390D01*
X1150354Y358370D01*
X1150222Y358354D01*
X1150090Y358342D01*
X1149958Y358333D01*
X1149825Y358329D01*
X1149693Y358328D01*
X1149560Y358332D01*
X1149428Y358339D01*
X1149296Y358350D01*
X1149164Y358365D01*
X1149033Y358384D01*
X1148903Y358407D01*
X1148773Y358434D01*
X1148644Y358464D01*
X1148516Y358499D01*
X1148389Y358537D01*
X1148263Y358579D01*
X1148139Y358625D01*
X1148016Y358674D01*
X1147894Y358727D01*
X1147774Y358783D01*
X1147656Y358843D01*
X1147540Y358907D01*
X1147425Y358974D01*
X1147313Y359044D01*
X1147203Y359117D01*
X1147095Y359194D01*
X1146989Y359274D01*
X1146886Y359357D01*
X1146785Y359443D01*
X1146687Y359532D01*
X1146591Y359624D01*
X1146499Y359719D01*
X1146409Y359816D01*
X1146322Y359916D01*
X1146238Y360019D01*
X1146157Y360124D01*
X1146079Y360231D01*
X1146005Y360341D01*
X1145934Y360453D01*
X1145866Y360567D01*
X1145801Y360682D01*
X1145740Y360800D01*
X1145740Y382800D01*
X1101060Y360800D02*
X1101023Y360696D01*
X1100983Y360593D01*
X1100939Y360492D01*
X1100891Y360392D01*
X1100841Y360294D01*
X1100786Y360198D01*
X1100729Y360104D01*
X1100668Y360012D01*
X1100604Y359922D01*
X1100537Y359834D01*
X1100467Y359749D01*
X1100394Y359666D01*
X1100318Y359586D01*
X1100239Y359509D01*
X1100158Y359434D01*
X1100074Y359362D01*
X1099988Y359294D01*
X1099899Y359228D01*
X1099808Y359165D01*
X1099715Y359106D01*
X1099620Y359050D01*
X1099523Y358997D01*
X1099425Y358948D01*
X1099324Y358902D01*
X1099222Y358859D01*
X1099119Y358821D01*
X1099014Y358785D01*
X1098908Y358754D01*
X1098802Y358726D01*
X1098694Y358702D01*
X1098585Y358682D01*
X1098476Y358666D01*
X1098367Y358653D01*
X1098257Y358644D01*
X1098146Y358639D01*
X1098036Y358638D01*
X1097926Y358641D01*
X1097815Y358647D01*
X1097706Y358658D01*
X1097596Y358672D01*
X1097487Y358690D01*
X1097379Y358712D01*
X1097272Y358738D01*
X1097165Y358767D01*
X1097060Y358800D01*
X1101060Y360800D02*
X1101060Y381800D01*
X1097060Y358800D02*
X1091060Y358800D01*
X1097060Y358800D02*
X1159740Y358800D01*
D10*
X1061150Y543000D02*
X1054800Y549350D01*
X1073850Y543000D02*
X1080200Y549350D01*
X1086550Y543000D01*
X1099250Y543000D02*
X1105600Y549350D01*
X1111950Y543000D01*
X1124650Y543000D02*
X1131000Y549350D01*
X1137350Y543000D01*
X1150050Y543000D02*
X1156400Y549350D01*
X1162750Y543000D01*
X1175450Y543000D02*
X1181800Y549350D01*
X1054800Y549350D02*
X1054800Y587450D01*
X1061150Y593800D01*
X1073850Y593800D01*
X1080200Y587450D01*
X1086550Y593800D01*
X1099250Y593800D01*
X1105600Y587450D01*
X1111950Y593800D01*
X1124650Y593800D01*
X1131000Y587450D01*
X1137350Y593800D01*
X1150050Y593800D01*
X1156400Y587450D01*
X1162750Y593800D01*
X1175450Y593800D01*
X1181800Y587450D01*
X1080200Y587450D02*
X1080200Y549350D01*
X1105600Y549350D02*
X1105600Y587450D01*
X1131000Y587450D02*
X1131000Y549350D01*
X1156400Y549350D02*
X1156400Y587450D01*
X1181800Y587450D02*
X1181800Y549350D01*
X1175450Y543000D02*
X1162750Y543000D01*
X1150050Y543000D02*
X1137350Y543000D01*
X1124650Y543000D02*
X1111950Y543000D01*
X1099250Y543000D02*
X1086550Y543000D01*
X1073850Y543000D02*
X1061150Y543000D01*
X1181800Y549350D02*
X1188150Y543000D01*
X1200850Y543000D02*
X1207200Y549350D01*
X1181800Y587450D02*
X1188150Y593800D01*
X1200850Y593800D01*
X1207200Y587450D01*
X1207200Y549350D01*
X1200850Y543000D02*
X1188150Y543000D01*
D11*
X1057342Y600785D02*
X1055435Y602692D01*
X1057342Y600785D02*
X1059248Y600785D01*
X1061155Y602692D01*
X1061155Y612225D01*
X1059248Y612225D02*
X1063062Y612225D01*
X1067129Y612225D02*
X1067129Y600785D01*
X1067129Y612225D02*
X1072849Y612225D01*
X1074755Y610318D01*
X1074755Y606505D01*
X1072849Y604598D01*
X1067129Y604598D01*
X1078823Y608412D02*
X1082636Y612225D01*
X1082636Y600785D01*
X1078823Y600785D02*
X1086449Y600785D01*
X1090517Y602692D02*
X1090517Y610318D01*
X1092424Y612225D01*
X1096237Y612225D01*
X1098143Y610318D01*
X1098143Y602692D01*
X1096237Y600785D01*
X1092424Y600785D01*
X1090517Y602692D01*
X1098143Y610318D01*
X1197860Y359400D02*
X1228160Y359400D01*
X1197860Y525300D02*
X1331840Y525300D01*
X1197860Y525300D02*
X1197860Y359400D01*
X1228160Y359400D02*
X1228160Y383900D01*
X1228160Y423900D01*
X1228160Y472270D01*
X1301190Y472270D01*
X1301190Y360400D01*
X1314840Y359400D02*
X1331840Y359900D01*
X1331840Y525300D01*
X1301840Y423900D02*
X1228160Y423900D01*
X1228160Y383900D02*
X1287840Y383900D01*
X1294840Y383900D01*
X1301840Y383900D01*
X1233160Y359900D02*
X1229160Y359900D01*
X1233160Y359900D02*
X1233267Y359902D01*
X1233374Y359908D01*
X1233481Y359917D01*
X1233587Y359931D01*
X1233693Y359948D01*
X1233798Y359969D01*
X1233902Y359993D01*
X1234005Y360022D01*
X1234107Y360054D01*
X1234208Y360089D01*
X1234308Y360128D01*
X1234406Y360171D01*
X1234503Y360217D01*
X1234598Y360267D01*
X1234691Y360320D01*
X1234782Y360376D01*
X1234871Y360436D01*
X1234958Y360498D01*
X1235042Y360564D01*
X1235125Y360633D01*
X1235204Y360704D01*
X1235281Y360779D01*
X1235356Y360856D01*
X1235427Y360935D01*
X1235496Y361018D01*
X1235562Y361102D01*
X1235624Y361189D01*
X1235684Y361278D01*
X1235740Y361369D01*
X1235793Y361462D01*
X1235843Y361557D01*
X1235889Y361654D01*
X1235932Y361752D01*
X1235971Y361852D01*
X1236006Y361953D01*
X1236038Y362055D01*
X1236067Y362158D01*
X1236091Y362262D01*
X1236112Y362367D01*
X1236129Y362473D01*
X1236143Y362579D01*
X1236152Y362686D01*
X1236158Y362793D01*
X1236160Y362900D01*
X1236160Y382900D01*
X1301840Y359900D02*
X1331840Y359900D01*
X1301840Y359900D02*
X1298840Y359900D01*
X1298723Y359885D01*
X1298605Y359874D01*
X1298487Y359867D01*
X1298369Y359864D01*
X1298251Y359865D01*
X1298133Y359870D01*
X1298015Y359879D01*
X1297897Y359892D01*
X1297781Y359909D01*
X1297664Y359929D01*
X1297549Y359954D01*
X1297434Y359982D01*
X1297320Y360014D01*
X1297208Y360050D01*
X1297096Y360090D01*
X1296986Y360133D01*
X1296878Y360180D01*
X1296771Y360231D01*
X1296666Y360285D01*
X1296563Y360343D01*
X1296462Y360404D01*
X1296363Y360468D01*
X1296266Y360536D01*
X1296171Y360607D01*
X1296079Y360681D01*
X1295990Y360758D01*
X1295903Y360838D01*
X1295819Y360921D01*
X1295737Y361007D01*
X1295659Y361095D01*
X1295583Y361186D01*
X1295511Y361279D01*
X1295441Y361375D01*
X1295375Y361473D01*
X1295313Y361573D01*
X1295253Y361675D01*
X1295197Y361779D01*
X1295145Y361885D01*
X1295096Y361993D01*
X1295051Y362102D01*
X1295009Y362213D01*
X1294971Y362325D01*
X1294937Y362438D01*
X1294907Y362552D01*
X1294881Y362667D01*
X1294858Y362783D01*
X1294840Y362900D01*
X1294840Y383900D01*
X1293840Y359900D02*
X1298840Y359900D01*
X1293840Y359900D02*
X1293721Y359843D01*
X1293599Y359789D01*
X1293477Y359738D01*
X1293353Y359692D01*
X1293227Y359649D01*
X1293101Y359609D01*
X1292973Y359574D01*
X1292844Y359542D01*
X1292715Y359514D01*
X1292585Y359490D01*
X1292454Y359470D01*
X1292322Y359454D01*
X1292190Y359442D01*
X1292058Y359433D01*
X1291925Y359429D01*
X1291793Y359428D01*
X1291660Y359432D01*
X1291528Y359439D01*
X1291396Y359450D01*
X1291264Y359465D01*
X1291133Y359484D01*
X1291003Y359507D01*
X1290873Y359534D01*
X1290744Y359564D01*
X1290616Y359599D01*
X1290489Y359637D01*
X1290363Y359679D01*
X1290239Y359725D01*
X1290116Y359774D01*
X1289994Y359827D01*
X1289874Y359883D01*
X1289756Y359943D01*
X1289640Y360007D01*
X1289525Y360074D01*
X1289413Y360144D01*
X1289303Y360217D01*
X1289195Y360294D01*
X1289089Y360374D01*
X1288986Y360457D01*
X1288885Y360543D01*
X1288787Y360632D01*
X1288691Y360724D01*
X1288599Y360819D01*
X1288509Y360916D01*
X1288422Y361016D01*
X1288338Y361119D01*
X1288257Y361224D01*
X1288179Y361331D01*
X1288105Y361441D01*
X1288034Y361553D01*
X1287966Y361667D01*
X1287901Y361782D01*
X1287840Y361900D01*
X1287840Y383900D01*
X1243160Y361900D02*
X1243123Y361796D01*
X1243083Y361693D01*
X1243039Y361592D01*
X1242991Y361492D01*
X1242941Y361394D01*
X1242886Y361298D01*
X1242829Y361204D01*
X1242768Y361112D01*
X1242704Y361022D01*
X1242637Y360934D01*
X1242567Y360849D01*
X1242494Y360766D01*
X1242418Y360686D01*
X1242339Y360609D01*
X1242258Y360534D01*
X1242174Y360462D01*
X1242088Y360394D01*
X1241999Y360328D01*
X1241908Y360265D01*
X1241815Y360206D01*
X1241720Y360150D01*
X1241623Y360097D01*
X1241525Y360048D01*
X1241424Y360002D01*
X1241322Y359959D01*
X1241219Y359921D01*
X1241114Y359885D01*
X1241008Y359854D01*
X1240902Y359826D01*
X1240794Y359802D01*
X1240685Y359782D01*
X1240576Y359766D01*
X1240467Y359753D01*
X1240357Y359744D01*
X1240246Y359739D01*
X1240136Y359738D01*
X1240026Y359741D01*
X1239915Y359747D01*
X1239806Y359758D01*
X1239696Y359772D01*
X1239587Y359790D01*
X1239479Y359812D01*
X1239372Y359838D01*
X1239265Y359867D01*
X1239160Y359900D01*
X1243160Y361900D02*
X1243160Y382900D01*
X1239160Y359900D02*
X1233160Y359900D01*
X1239160Y359900D02*
X1301840Y359900D01*
D10*
X1218950Y543900D02*
X1212600Y550250D01*
X1231650Y543900D02*
X1238000Y550250D01*
X1244350Y543900D01*
X1257050Y543900D02*
X1263400Y550250D01*
X1269750Y543900D01*
X1282450Y543900D02*
X1288800Y550250D01*
X1295150Y543900D01*
X1307850Y543900D02*
X1314200Y550250D01*
X1320550Y543900D01*
X1333250Y543900D02*
X1339600Y550250D01*
X1212600Y550250D02*
X1212600Y588350D01*
X1218950Y594700D01*
X1231650Y594700D01*
X1238000Y588350D01*
X1244350Y594700D01*
X1257050Y594700D01*
X1263400Y588350D01*
X1269750Y594700D01*
X1282450Y594700D01*
X1288800Y588350D01*
X1295150Y594700D01*
X1307850Y594700D01*
X1314200Y588350D01*
X1320550Y594700D01*
X1333250Y594700D01*
X1339600Y588350D01*
X1238000Y588350D02*
X1238000Y550250D01*
X1263400Y550250D02*
X1263400Y588350D01*
X1288800Y588350D02*
X1288800Y550250D01*
X1314200Y550250D02*
X1314200Y588350D01*
X1339600Y588350D02*
X1339600Y550250D01*
X1333250Y543900D02*
X1320550Y543900D01*
X1307850Y543900D02*
X1295150Y543900D01*
X1282450Y543900D02*
X1269750Y543900D01*
X1257050Y543900D02*
X1244350Y543900D01*
X1231650Y543900D02*
X1218950Y543900D01*
X1339600Y550250D02*
X1345950Y543900D01*
X1358650Y543900D02*
X1365000Y550250D01*
X1339600Y588350D02*
X1345950Y594700D01*
X1358650Y594700D01*
X1365000Y588350D01*
X1365000Y550250D01*
X1358650Y543900D02*
X1345950Y543900D01*
D11*
X1215142Y601685D02*
X1213235Y603592D01*
X1215142Y601685D02*
X1217048Y601685D01*
X1218955Y603592D01*
X1218955Y613125D01*
X1217048Y613125D02*
X1220862Y613125D01*
X1224929Y613125D02*
X1224929Y601685D01*
X1224929Y613125D02*
X1230649Y613125D01*
X1232555Y611218D01*
X1232555Y607405D01*
X1230649Y605498D01*
X1224929Y605498D01*
X1236623Y609312D02*
X1240436Y613125D01*
X1240436Y601685D01*
X1236623Y601685D02*
X1244249Y601685D01*
X1248317Y611218D02*
X1250224Y613125D01*
X1254037Y613125D01*
X1255943Y611218D01*
X1255943Y609312D01*
X1254037Y607405D01*
X1252130Y607405D01*
X1254037Y607405D02*
X1255943Y605498D01*
X1255943Y603592D01*
X1254037Y601685D01*
X1250224Y601685D01*
X1248317Y603592D01*
X1223860Y6900D02*
X1193560Y6900D01*
X1193560Y172800D02*
X1327540Y172800D01*
X1193560Y172800D02*
X1193560Y6900D01*
X1223860Y6900D02*
X1223860Y31400D01*
X1223860Y71400D01*
X1223860Y119770D01*
X1296890Y119770D01*
X1296890Y7900D01*
X1310540Y6900D02*
X1327540Y7400D01*
X1327540Y172800D01*
X1297540Y71400D02*
X1223860Y71400D01*
X1223860Y31400D02*
X1283540Y31400D01*
X1290540Y31400D01*
X1297540Y31400D01*
X1228860Y7400D02*
X1224860Y7400D01*
X1228860Y7400D02*
X1228967Y7402D01*
X1229074Y7408D01*
X1229181Y7417D01*
X1229287Y7431D01*
X1229393Y7448D01*
X1229498Y7469D01*
X1229602Y7493D01*
X1229705Y7522D01*
X1229807Y7554D01*
X1229908Y7589D01*
X1230008Y7628D01*
X1230106Y7671D01*
X1230203Y7717D01*
X1230298Y7767D01*
X1230391Y7820D01*
X1230482Y7876D01*
X1230571Y7936D01*
X1230658Y7998D01*
X1230742Y8064D01*
X1230825Y8133D01*
X1230904Y8204D01*
X1230981Y8279D01*
X1231056Y8356D01*
X1231127Y8435D01*
X1231196Y8518D01*
X1231262Y8602D01*
X1231324Y8689D01*
X1231384Y8778D01*
X1231440Y8869D01*
X1231493Y8962D01*
X1231543Y9057D01*
X1231589Y9154D01*
X1231632Y9252D01*
X1231671Y9352D01*
X1231706Y9453D01*
X1231738Y9555D01*
X1231767Y9658D01*
X1231791Y9762D01*
X1231812Y9867D01*
X1231829Y9973D01*
X1231843Y10079D01*
X1231852Y10186D01*
X1231858Y10293D01*
X1231860Y10400D01*
X1231860Y30400D01*
X1297540Y7400D02*
X1327540Y7400D01*
X1297540Y7400D02*
X1294540Y7400D01*
X1294423Y7385D01*
X1294305Y7374D01*
X1294187Y7367D01*
X1294069Y7364D01*
X1293951Y7365D01*
X1293833Y7370D01*
X1293715Y7379D01*
X1293597Y7392D01*
X1293481Y7409D01*
X1293364Y7429D01*
X1293249Y7454D01*
X1293134Y7482D01*
X1293020Y7514D01*
X1292908Y7550D01*
X1292796Y7590D01*
X1292686Y7633D01*
X1292578Y7680D01*
X1292471Y7731D01*
X1292366Y7785D01*
X1292263Y7843D01*
X1292162Y7904D01*
X1292063Y7968D01*
X1291966Y8036D01*
X1291871Y8107D01*
X1291779Y8181D01*
X1291690Y8258D01*
X1291603Y8338D01*
X1291519Y8421D01*
X1291437Y8507D01*
X1291359Y8595D01*
X1291283Y8686D01*
X1291211Y8779D01*
X1291141Y8875D01*
X1291075Y8973D01*
X1291013Y9073D01*
X1290953Y9175D01*
X1290897Y9279D01*
X1290845Y9385D01*
X1290796Y9493D01*
X1290751Y9602D01*
X1290709Y9713D01*
X1290671Y9825D01*
X1290637Y9938D01*
X1290607Y10052D01*
X1290581Y10167D01*
X1290558Y10283D01*
X1290540Y10400D01*
X1290540Y31400D01*
X1289540Y7400D02*
X1294540Y7400D01*
X1289540Y7400D02*
X1289421Y7343D01*
X1289299Y7289D01*
X1289177Y7238D01*
X1289053Y7192D01*
X1288927Y7149D01*
X1288801Y7109D01*
X1288673Y7074D01*
X1288544Y7042D01*
X1288415Y7014D01*
X1288285Y6990D01*
X1288154Y6970D01*
X1288022Y6954D01*
X1287890Y6942D01*
X1287758Y6933D01*
X1287625Y6929D01*
X1287493Y6928D01*
X1287360Y6932D01*
X1287228Y6939D01*
X1287096Y6950D01*
X1286964Y6965D01*
X1286833Y6984D01*
X1286703Y7007D01*
X1286573Y7034D01*
X1286444Y7064D01*
X1286316Y7099D01*
X1286189Y7137D01*
X1286063Y7179D01*
X1285939Y7225D01*
X1285816Y7274D01*
X1285694Y7327D01*
X1285574Y7383D01*
X1285456Y7443D01*
X1285340Y7507D01*
X1285225Y7574D01*
X1285113Y7644D01*
X1285003Y7717D01*
X1284895Y7794D01*
X1284789Y7874D01*
X1284686Y7957D01*
X1284585Y8043D01*
X1284487Y8132D01*
X1284391Y8224D01*
X1284299Y8319D01*
X1284209Y8416D01*
X1284122Y8516D01*
X1284038Y8619D01*
X1283957Y8724D01*
X1283879Y8831D01*
X1283805Y8941D01*
X1283734Y9053D01*
X1283666Y9167D01*
X1283601Y9282D01*
X1283540Y9400D01*
X1283540Y31400D01*
X1238860Y9400D02*
X1238823Y9296D01*
X1238783Y9193D01*
X1238739Y9092D01*
X1238691Y8992D01*
X1238641Y8894D01*
X1238586Y8798D01*
X1238529Y8704D01*
X1238468Y8612D01*
X1238404Y8522D01*
X1238337Y8434D01*
X1238267Y8349D01*
X1238194Y8266D01*
X1238118Y8186D01*
X1238039Y8109D01*
X1237958Y8034D01*
X1237874Y7962D01*
X1237788Y7894D01*
X1237699Y7828D01*
X1237608Y7765D01*
X1237515Y7706D01*
X1237420Y7650D01*
X1237323Y7597D01*
X1237225Y7548D01*
X1237124Y7502D01*
X1237022Y7459D01*
X1236919Y7421D01*
X1236814Y7385D01*
X1236708Y7354D01*
X1236602Y7326D01*
X1236494Y7302D01*
X1236385Y7282D01*
X1236276Y7266D01*
X1236167Y7253D01*
X1236057Y7244D01*
X1235946Y7239D01*
X1235836Y7238D01*
X1235726Y7241D01*
X1235615Y7247D01*
X1235506Y7258D01*
X1235396Y7272D01*
X1235287Y7290D01*
X1235179Y7312D01*
X1235072Y7338D01*
X1234965Y7367D01*
X1234860Y7400D01*
X1238860Y9400D02*
X1238860Y30400D01*
X1234860Y7400D02*
X1228860Y7400D01*
X1234860Y7400D02*
X1297540Y7400D01*
D10*
X1215350Y192300D02*
X1209000Y198650D01*
X1228050Y192300D02*
X1234400Y198650D01*
X1240750Y192300D01*
X1253450Y192300D02*
X1259800Y198650D01*
X1266150Y192300D01*
X1278850Y192300D02*
X1285200Y198650D01*
X1291550Y192300D01*
X1304250Y192300D02*
X1310600Y198650D01*
X1316950Y192300D01*
X1329650Y192300D02*
X1336000Y198650D01*
X1209000Y198650D02*
X1209000Y236750D01*
X1215350Y243100D01*
X1228050Y243100D01*
X1234400Y236750D01*
X1240750Y243100D01*
X1253450Y243100D01*
X1259800Y236750D01*
X1266150Y243100D01*
X1278850Y243100D01*
X1285200Y236750D01*
X1291550Y243100D01*
X1304250Y243100D01*
X1310600Y236750D01*
X1316950Y243100D01*
X1329650Y243100D01*
X1336000Y236750D01*
X1234400Y236750D02*
X1234400Y198650D01*
X1259800Y198650D02*
X1259800Y236750D01*
X1285200Y236750D02*
X1285200Y198650D01*
X1310600Y198650D02*
X1310600Y236750D01*
X1336000Y236750D02*
X1336000Y198650D01*
X1329650Y192300D02*
X1316950Y192300D01*
X1304250Y192300D02*
X1291550Y192300D01*
X1278850Y192300D02*
X1266150Y192300D01*
X1253450Y192300D02*
X1240750Y192300D01*
X1228050Y192300D02*
X1215350Y192300D01*
X1336000Y198650D02*
X1342350Y192300D01*
X1355050Y192300D02*
X1361400Y198650D01*
X1336000Y236750D02*
X1342350Y243100D01*
X1355050Y243100D01*
X1361400Y236750D01*
X1361400Y198650D01*
X1355050Y192300D02*
X1342350Y192300D01*
D11*
X1211542Y250085D02*
X1209635Y251992D01*
X1211542Y250085D02*
X1213448Y250085D01*
X1215355Y251992D01*
X1215355Y261525D01*
X1213448Y261525D02*
X1217262Y261525D01*
X1221329Y261525D02*
X1221329Y250085D01*
X1221329Y261525D02*
X1227049Y261525D01*
X1228955Y259618D01*
X1228955Y255805D01*
X1227049Y253898D01*
X1221329Y253898D01*
X1233023Y257712D02*
X1236836Y261525D01*
X1236836Y250085D01*
X1233023Y250085D02*
X1240649Y250085D01*
X1250437Y250085D02*
X1250437Y261525D01*
X1244717Y255805D01*
X1252343Y255805D01*
X1081060Y5000D02*
X1050760Y5000D01*
X1050760Y170900D02*
X1184740Y170900D01*
X1050760Y170900D02*
X1050760Y5000D01*
X1081060Y5000D02*
X1081060Y29500D01*
X1081060Y69500D01*
X1081060Y117870D01*
X1154090Y117870D01*
X1154090Y6000D01*
X1167740Y5000D02*
X1184740Y5500D01*
X1184740Y170900D01*
X1154740Y69500D02*
X1081060Y69500D01*
X1081060Y29500D02*
X1140740Y29500D01*
X1147740Y29500D01*
X1154740Y29500D01*
X1086060Y5500D02*
X1082060Y5500D01*
X1086060Y5500D02*
X1086167Y5502D01*
X1086274Y5508D01*
X1086381Y5517D01*
X1086487Y5531D01*
X1086593Y5548D01*
X1086698Y5569D01*
X1086802Y5593D01*
X1086905Y5622D01*
X1087007Y5654D01*
X1087108Y5689D01*
X1087208Y5728D01*
X1087306Y5771D01*
X1087403Y5817D01*
X1087498Y5867D01*
X1087591Y5920D01*
X1087682Y5976D01*
X1087771Y6036D01*
X1087858Y6098D01*
X1087942Y6164D01*
X1088025Y6233D01*
X1088104Y6304D01*
X1088181Y6379D01*
X1088256Y6456D01*
X1088327Y6535D01*
X1088396Y6618D01*
X1088462Y6702D01*
X1088524Y6789D01*
X1088584Y6878D01*
X1088640Y6969D01*
X1088693Y7062D01*
X1088743Y7157D01*
X1088789Y7254D01*
X1088832Y7352D01*
X1088871Y7452D01*
X1088906Y7553D01*
X1088938Y7655D01*
X1088967Y7758D01*
X1088991Y7862D01*
X1089012Y7967D01*
X1089029Y8073D01*
X1089043Y8179D01*
X1089052Y8286D01*
X1089058Y8393D01*
X1089060Y8500D01*
X1089060Y28500D01*
X1154740Y5500D02*
X1184740Y5500D01*
X1154740Y5500D02*
X1151740Y5500D01*
X1151623Y5485D01*
X1151505Y5474D01*
X1151387Y5467D01*
X1151269Y5464D01*
X1151151Y5465D01*
X1151033Y5470D01*
X1150915Y5479D01*
X1150797Y5492D01*
X1150681Y5509D01*
X1150564Y5529D01*
X1150449Y5554D01*
X1150334Y5582D01*
X1150220Y5614D01*
X1150108Y5650D01*
X1149996Y5690D01*
X1149886Y5733D01*
X1149778Y5780D01*
X1149671Y5831D01*
X1149566Y5885D01*
X1149463Y5943D01*
X1149362Y6004D01*
X1149263Y6068D01*
X1149166Y6136D01*
X1149071Y6207D01*
X1148979Y6281D01*
X1148890Y6358D01*
X1148803Y6438D01*
X1148719Y6521D01*
X1148637Y6607D01*
X1148559Y6695D01*
X1148483Y6786D01*
X1148411Y6879D01*
X1148341Y6975D01*
X1148275Y7073D01*
X1148213Y7173D01*
X1148153Y7275D01*
X1148097Y7379D01*
X1148045Y7485D01*
X1147996Y7593D01*
X1147951Y7702D01*
X1147909Y7813D01*
X1147871Y7925D01*
X1147837Y8038D01*
X1147807Y8152D01*
X1147781Y8267D01*
X1147758Y8383D01*
X1147740Y8500D01*
X1147740Y29500D01*
X1146740Y5500D02*
X1151740Y5500D01*
X1146740Y5500D02*
X1146621Y5443D01*
X1146499Y5389D01*
X1146377Y5338D01*
X1146253Y5292D01*
X1146127Y5249D01*
X1146001Y5209D01*
X1145873Y5174D01*
X1145744Y5142D01*
X1145615Y5114D01*
X1145485Y5090D01*
X1145354Y5070D01*
X1145222Y5054D01*
X1145090Y5042D01*
X1144958Y5033D01*
X1144825Y5029D01*
X1144693Y5028D01*
X1144560Y5032D01*
X1144428Y5039D01*
X1144296Y5050D01*
X1144164Y5065D01*
X1144033Y5084D01*
X1143903Y5107D01*
X1143773Y5134D01*
X1143644Y5164D01*
X1143516Y5199D01*
X1143389Y5237D01*
X1143263Y5279D01*
X1143139Y5325D01*
X1143016Y5374D01*
X1142894Y5427D01*
X1142774Y5483D01*
X1142656Y5543D01*
X1142540Y5607D01*
X1142425Y5674D01*
X1142313Y5744D01*
X1142203Y5817D01*
X1142095Y5894D01*
X1141989Y5974D01*
X1141886Y6057D01*
X1141785Y6143D01*
X1141687Y6232D01*
X1141591Y6324D01*
X1141499Y6419D01*
X1141409Y6516D01*
X1141322Y6616D01*
X1141238Y6719D01*
X1141157Y6824D01*
X1141079Y6931D01*
X1141005Y7041D01*
X1140934Y7153D01*
X1140866Y7267D01*
X1140801Y7382D01*
X1140740Y7500D01*
X1140740Y29500D01*
X1096060Y7500D02*
X1096023Y7396D01*
X1095983Y7293D01*
X1095939Y7192D01*
X1095891Y7092D01*
X1095841Y6994D01*
X1095786Y6898D01*
X1095729Y6804D01*
X1095668Y6712D01*
X1095604Y6622D01*
X1095537Y6534D01*
X1095467Y6449D01*
X1095394Y6366D01*
X1095318Y6286D01*
X1095239Y6209D01*
X1095158Y6134D01*
X1095074Y6062D01*
X1094988Y5994D01*
X1094899Y5928D01*
X1094808Y5865D01*
X1094715Y5806D01*
X1094620Y5750D01*
X1094523Y5697D01*
X1094425Y5648D01*
X1094324Y5602D01*
X1094222Y5559D01*
X1094119Y5521D01*
X1094014Y5485D01*
X1093908Y5454D01*
X1093802Y5426D01*
X1093694Y5402D01*
X1093585Y5382D01*
X1093476Y5366D01*
X1093367Y5353D01*
X1093257Y5344D01*
X1093146Y5339D01*
X1093036Y5338D01*
X1092926Y5341D01*
X1092815Y5347D01*
X1092706Y5358D01*
X1092596Y5372D01*
X1092487Y5390D01*
X1092379Y5412D01*
X1092272Y5438D01*
X1092165Y5467D01*
X1092060Y5500D01*
X1096060Y7500D02*
X1096060Y28500D01*
X1092060Y5500D02*
X1086060Y5500D01*
X1092060Y5500D02*
X1154740Y5500D01*
D10*
X1048250Y190100D02*
X1041900Y196450D01*
X1060950Y190100D02*
X1067300Y196450D01*
X1073650Y190100D01*
X1086350Y190100D02*
X1092700Y196450D01*
X1099050Y190100D01*
X1111750Y190100D02*
X1118100Y196450D01*
X1124450Y190100D01*
X1137150Y190100D02*
X1143500Y196450D01*
X1149850Y190100D01*
X1162550Y190100D02*
X1168900Y196450D01*
X1041900Y196450D02*
X1041900Y234550D01*
X1048250Y240900D01*
X1060950Y240900D01*
X1067300Y234550D01*
X1073650Y240900D01*
X1086350Y240900D01*
X1092700Y234550D01*
X1099050Y240900D01*
X1111750Y240900D01*
X1118100Y234550D01*
X1124450Y240900D01*
X1137150Y240900D01*
X1143500Y234550D01*
X1149850Y240900D01*
X1162550Y240900D01*
X1168900Y234550D01*
X1067300Y234550D02*
X1067300Y196450D01*
X1092700Y196450D02*
X1092700Y234550D01*
X1118100Y234550D02*
X1118100Y196450D01*
X1143500Y196450D02*
X1143500Y234550D01*
X1168900Y234550D02*
X1168900Y196450D01*
X1162550Y190100D02*
X1149850Y190100D01*
X1137150Y190100D02*
X1124450Y190100D01*
X1111750Y190100D02*
X1099050Y190100D01*
X1086350Y190100D02*
X1073650Y190100D01*
X1060950Y190100D02*
X1048250Y190100D01*
X1168900Y196450D02*
X1175250Y190100D01*
X1187950Y190100D02*
X1194300Y196450D01*
X1168900Y234550D02*
X1175250Y240900D01*
X1187950Y240900D01*
X1194300Y234550D01*
X1194300Y196450D01*
X1187950Y190100D02*
X1175250Y190100D01*
D11*
X1044442Y247885D02*
X1042535Y249792D01*
X1044442Y247885D02*
X1046348Y247885D01*
X1048255Y249792D01*
X1048255Y259325D01*
X1046348Y259325D02*
X1050162Y259325D01*
X1054229Y259325D02*
X1054229Y247885D01*
X1054229Y259325D02*
X1059949Y259325D01*
X1061855Y257418D01*
X1061855Y253605D01*
X1059949Y251698D01*
X1054229Y251698D01*
X1065923Y255512D02*
X1069736Y259325D01*
X1069736Y247885D01*
X1065923Y247885D02*
X1073549Y247885D01*
X1077617Y259325D02*
X1085243Y259325D01*
X1077617Y259325D02*
X1077617Y253605D01*
X1081430Y255512D01*
X1083337Y255512D01*
X1085243Y253605D01*
X1085243Y249792D01*
X1083337Y247885D01*
X1079524Y247885D01*
X1077617Y249792D01*
X1154270Y323440D02*
X1159350Y323440D01*
X1154270Y323440D02*
X1154270Y292960D01*
X1159350Y292960D01*
X1166970Y317090D02*
X1166970Y324710D01*
X1170780Y320900D02*
X1163160Y320900D01*
X1159350Y323440D02*
X1159350Y292960D01*
X1127600Y308200D02*
X1127608Y308823D01*
X1127631Y309446D01*
X1127669Y310069D01*
X1127722Y310690D01*
X1127791Y311309D01*
X1127875Y311927D01*
X1127974Y312542D01*
X1128088Y313155D01*
X1128217Y313765D01*
X1128361Y314372D01*
X1128520Y314975D01*
X1128694Y315573D01*
X1128882Y316168D01*
X1129085Y316757D01*
X1129302Y317341D01*
X1129533Y317920D01*
X1129779Y318493D01*
X1130039Y319060D01*
X1130312Y319620D01*
X1130599Y320173D01*
X1130900Y320720D01*
X1131214Y321258D01*
X1131541Y321789D01*
X1131881Y322311D01*
X1132233Y322826D01*
X1132599Y323331D01*
X1132976Y323827D01*
X1133366Y324314D01*
X1133767Y324791D01*
X1134180Y325258D01*
X1134604Y325714D01*
X1135039Y326161D01*
X1135486Y326596D01*
X1135942Y327020D01*
X1136409Y327433D01*
X1136886Y327834D01*
X1137373Y328224D01*
X1137869Y328601D01*
X1138374Y328967D01*
X1138889Y329319D01*
X1139411Y329659D01*
X1139942Y329986D01*
X1140480Y330300D01*
X1141027Y330601D01*
X1141580Y330888D01*
X1142140Y331161D01*
X1142707Y331421D01*
X1143280Y331667D01*
X1143859Y331898D01*
X1144443Y332115D01*
X1145032Y332318D01*
X1145627Y332506D01*
X1146225Y332680D01*
X1146828Y332839D01*
X1147435Y332983D01*
X1148045Y333112D01*
X1148658Y333226D01*
X1149273Y333325D01*
X1149891Y333409D01*
X1150510Y333478D01*
X1151131Y333531D01*
X1151754Y333569D01*
X1152377Y333592D01*
X1153000Y333600D01*
X1153623Y333592D01*
X1154246Y333569D01*
X1154869Y333531D01*
X1155490Y333478D01*
X1156109Y333409D01*
X1156727Y333325D01*
X1157342Y333226D01*
X1157955Y333112D01*
X1158565Y332983D01*
X1159172Y332839D01*
X1159775Y332680D01*
X1160373Y332506D01*
X1160968Y332318D01*
X1161557Y332115D01*
X1162141Y331898D01*
X1162720Y331667D01*
X1163293Y331421D01*
X1163860Y331161D01*
X1164420Y330888D01*
X1164973Y330601D01*
X1165520Y330300D01*
X1166058Y329986D01*
X1166589Y329659D01*
X1167111Y329319D01*
X1167626Y328967D01*
X1168131Y328601D01*
X1168627Y328224D01*
X1169114Y327834D01*
X1169591Y327433D01*
X1170058Y327020D01*
X1170514Y326596D01*
X1170961Y326161D01*
X1171396Y325714D01*
X1171820Y325258D01*
X1172233Y324791D01*
X1172634Y324314D01*
X1173024Y323827D01*
X1173401Y323331D01*
X1173767Y322826D01*
X1174119Y322311D01*
X1174459Y321789D01*
X1174786Y321258D01*
X1175100Y320720D01*
X1175401Y320173D01*
X1175688Y319620D01*
X1175961Y319060D01*
X1176221Y318493D01*
X1176467Y317920D01*
X1176698Y317341D01*
X1176915Y316757D01*
X1177118Y316168D01*
X1177306Y315573D01*
X1177480Y314975D01*
X1177639Y314372D01*
X1177783Y313765D01*
X1177912Y313155D01*
X1178026Y312542D01*
X1178125Y311927D01*
X1178209Y311309D01*
X1178278Y310690D01*
X1178331Y310069D01*
X1178369Y309446D01*
X1178392Y308823D01*
X1178400Y308200D01*
X1178392Y307577D01*
X1178369Y306954D01*
X1178331Y306331D01*
X1178278Y305710D01*
X1178209Y305091D01*
X1178125Y304473D01*
X1178026Y303858D01*
X1177912Y303245D01*
X1177783Y302635D01*
X1177639Y302028D01*
X1177480Y301425D01*
X1177306Y300827D01*
X1177118Y300232D01*
X1176915Y299643D01*
X1176698Y299059D01*
X1176467Y298480D01*
X1176221Y297907D01*
X1175961Y297340D01*
X1175688Y296780D01*
X1175401Y296227D01*
X1175100Y295680D01*
X1174786Y295142D01*
X1174459Y294611D01*
X1174119Y294089D01*
X1173767Y293574D01*
X1173401Y293069D01*
X1173024Y292573D01*
X1172634Y292086D01*
X1172233Y291609D01*
X1171820Y291142D01*
X1171396Y290686D01*
X1170961Y290239D01*
X1170514Y289804D01*
X1170058Y289380D01*
X1169591Y288967D01*
X1169114Y288566D01*
X1168627Y288176D01*
X1168131Y287799D01*
X1167626Y287433D01*
X1167111Y287081D01*
X1166589Y286741D01*
X1166058Y286414D01*
X1165520Y286100D01*
X1164973Y285799D01*
X1164420Y285512D01*
X1163860Y285239D01*
X1163293Y284979D01*
X1162720Y284733D01*
X1162141Y284502D01*
X1161557Y284285D01*
X1160968Y284082D01*
X1160373Y283894D01*
X1159775Y283720D01*
X1159172Y283561D01*
X1158565Y283417D01*
X1157955Y283288D01*
X1157342Y283174D01*
X1156727Y283075D01*
X1156109Y282991D01*
X1155490Y282922D01*
X1154869Y282869D01*
X1154246Y282831D01*
X1153623Y282808D01*
X1153000Y282800D01*
X1152377Y282808D01*
X1151754Y282831D01*
X1151131Y282869D01*
X1150510Y282922D01*
X1149891Y282991D01*
X1149273Y283075D01*
X1148658Y283174D01*
X1148045Y283288D01*
X1147435Y283417D01*
X1146828Y283561D01*
X1146225Y283720D01*
X1145627Y283894D01*
X1145032Y284082D01*
X1144443Y284285D01*
X1143859Y284502D01*
X1143280Y284733D01*
X1142707Y284979D01*
X1142140Y285239D01*
X1141580Y285512D01*
X1141027Y285799D01*
X1140480Y286100D01*
X1139942Y286414D01*
X1139411Y286741D01*
X1138889Y287081D01*
X1138374Y287433D01*
X1137869Y287799D01*
X1137373Y288176D01*
X1136886Y288566D01*
X1136409Y288967D01*
X1135942Y289380D01*
X1135486Y289804D01*
X1135039Y290239D01*
X1134604Y290686D01*
X1134180Y291142D01*
X1133767Y291609D01*
X1133366Y292086D01*
X1132976Y292573D01*
X1132599Y293069D01*
X1132233Y293574D01*
X1131881Y294089D01*
X1131541Y294611D01*
X1131214Y295142D01*
X1130900Y295680D01*
X1130599Y296227D01*
X1130312Y296780D01*
X1130039Y297340D01*
X1129779Y297907D01*
X1129533Y298480D01*
X1129302Y299059D01*
X1129085Y299643D01*
X1128882Y300232D01*
X1128694Y300827D01*
X1128520Y301425D01*
X1128361Y302028D01*
X1128217Y302635D01*
X1128088Y303245D01*
X1127974Y303858D01*
X1127875Y304473D01*
X1127791Y305091D01*
X1127722Y305710D01*
X1127669Y306331D01*
X1127631Y306954D01*
X1127608Y307577D01*
X1127600Y308200D01*
X1161367Y263125D02*
X1163274Y261218D01*
X1161367Y263125D02*
X1157554Y263125D01*
X1155647Y261218D01*
X1155647Y253592D01*
X1157554Y251685D01*
X1161367Y251685D01*
X1163274Y253592D01*
X1167341Y251685D02*
X1174968Y251685D01*
X1167341Y251685D02*
X1174968Y259312D01*
X1174968Y261218D01*
X1173061Y263125D01*
X1169248Y263125D01*
X1167341Y261218D01*
D12*
X1147920Y308200D03*
D11*
X1229770Y323740D02*
X1234850Y323740D01*
X1229770Y323740D02*
X1229770Y293260D01*
X1234850Y293260D01*
X1242470Y317390D02*
X1242470Y325010D01*
X1246280Y321200D02*
X1238660Y321200D01*
X1234850Y323740D02*
X1234850Y293260D01*
X1203100Y308500D02*
X1203108Y309123D01*
X1203131Y309746D01*
X1203169Y310369D01*
X1203222Y310990D01*
X1203291Y311609D01*
X1203375Y312227D01*
X1203474Y312842D01*
X1203588Y313455D01*
X1203717Y314065D01*
X1203861Y314672D01*
X1204020Y315275D01*
X1204194Y315873D01*
X1204382Y316468D01*
X1204585Y317057D01*
X1204802Y317641D01*
X1205033Y318220D01*
X1205279Y318793D01*
X1205539Y319360D01*
X1205812Y319920D01*
X1206099Y320473D01*
X1206400Y321020D01*
X1206714Y321558D01*
X1207041Y322089D01*
X1207381Y322611D01*
X1207733Y323126D01*
X1208099Y323631D01*
X1208476Y324127D01*
X1208866Y324614D01*
X1209267Y325091D01*
X1209680Y325558D01*
X1210104Y326014D01*
X1210539Y326461D01*
X1210986Y326896D01*
X1211442Y327320D01*
X1211909Y327733D01*
X1212386Y328134D01*
X1212873Y328524D01*
X1213369Y328901D01*
X1213874Y329267D01*
X1214389Y329619D01*
X1214911Y329959D01*
X1215442Y330286D01*
X1215980Y330600D01*
X1216527Y330901D01*
X1217080Y331188D01*
X1217640Y331461D01*
X1218207Y331721D01*
X1218780Y331967D01*
X1219359Y332198D01*
X1219943Y332415D01*
X1220532Y332618D01*
X1221127Y332806D01*
X1221725Y332980D01*
X1222328Y333139D01*
X1222935Y333283D01*
X1223545Y333412D01*
X1224158Y333526D01*
X1224773Y333625D01*
X1225391Y333709D01*
X1226010Y333778D01*
X1226631Y333831D01*
X1227254Y333869D01*
X1227877Y333892D01*
X1228500Y333900D01*
X1229123Y333892D01*
X1229746Y333869D01*
X1230369Y333831D01*
X1230990Y333778D01*
X1231609Y333709D01*
X1232227Y333625D01*
X1232842Y333526D01*
X1233455Y333412D01*
X1234065Y333283D01*
X1234672Y333139D01*
X1235275Y332980D01*
X1235873Y332806D01*
X1236468Y332618D01*
X1237057Y332415D01*
X1237641Y332198D01*
X1238220Y331967D01*
X1238793Y331721D01*
X1239360Y331461D01*
X1239920Y331188D01*
X1240473Y330901D01*
X1241020Y330600D01*
X1241558Y330286D01*
X1242089Y329959D01*
X1242611Y329619D01*
X1243126Y329267D01*
X1243631Y328901D01*
X1244127Y328524D01*
X1244614Y328134D01*
X1245091Y327733D01*
X1245558Y327320D01*
X1246014Y326896D01*
X1246461Y326461D01*
X1246896Y326014D01*
X1247320Y325558D01*
X1247733Y325091D01*
X1248134Y324614D01*
X1248524Y324127D01*
X1248901Y323631D01*
X1249267Y323126D01*
X1249619Y322611D01*
X1249959Y322089D01*
X1250286Y321558D01*
X1250600Y321020D01*
X1250901Y320473D01*
X1251188Y319920D01*
X1251461Y319360D01*
X1251721Y318793D01*
X1251967Y318220D01*
X1252198Y317641D01*
X1252415Y317057D01*
X1252618Y316468D01*
X1252806Y315873D01*
X1252980Y315275D01*
X1253139Y314672D01*
X1253283Y314065D01*
X1253412Y313455D01*
X1253526Y312842D01*
X1253625Y312227D01*
X1253709Y311609D01*
X1253778Y310990D01*
X1253831Y310369D01*
X1253869Y309746D01*
X1253892Y309123D01*
X1253900Y308500D01*
X1253892Y307877D01*
X1253869Y307254D01*
X1253831Y306631D01*
X1253778Y306010D01*
X1253709Y305391D01*
X1253625Y304773D01*
X1253526Y304158D01*
X1253412Y303545D01*
X1253283Y302935D01*
X1253139Y302328D01*
X1252980Y301725D01*
X1252806Y301127D01*
X1252618Y300532D01*
X1252415Y299943D01*
X1252198Y299359D01*
X1251967Y298780D01*
X1251721Y298207D01*
X1251461Y297640D01*
X1251188Y297080D01*
X1250901Y296527D01*
X1250600Y295980D01*
X1250286Y295442D01*
X1249959Y294911D01*
X1249619Y294389D01*
X1249267Y293874D01*
X1248901Y293369D01*
X1248524Y292873D01*
X1248134Y292386D01*
X1247733Y291909D01*
X1247320Y291442D01*
X1246896Y290986D01*
X1246461Y290539D01*
X1246014Y290104D01*
X1245558Y289680D01*
X1245091Y289267D01*
X1244614Y288866D01*
X1244127Y288476D01*
X1243631Y288099D01*
X1243126Y287733D01*
X1242611Y287381D01*
X1242089Y287041D01*
X1241558Y286714D01*
X1241020Y286400D01*
X1240473Y286099D01*
X1239920Y285812D01*
X1239360Y285539D01*
X1238793Y285279D01*
X1238220Y285033D01*
X1237641Y284802D01*
X1237057Y284585D01*
X1236468Y284382D01*
X1235873Y284194D01*
X1235275Y284020D01*
X1234672Y283861D01*
X1234065Y283717D01*
X1233455Y283588D01*
X1232842Y283474D01*
X1232227Y283375D01*
X1231609Y283291D01*
X1230990Y283222D01*
X1230369Y283169D01*
X1229746Y283131D01*
X1229123Y283108D01*
X1228500Y283100D01*
X1227877Y283108D01*
X1227254Y283131D01*
X1226631Y283169D01*
X1226010Y283222D01*
X1225391Y283291D01*
X1224773Y283375D01*
X1224158Y283474D01*
X1223545Y283588D01*
X1222935Y283717D01*
X1222328Y283861D01*
X1221725Y284020D01*
X1221127Y284194D01*
X1220532Y284382D01*
X1219943Y284585D01*
X1219359Y284802D01*
X1218780Y285033D01*
X1218207Y285279D01*
X1217640Y285539D01*
X1217080Y285812D01*
X1216527Y286099D01*
X1215980Y286400D01*
X1215442Y286714D01*
X1214911Y287041D01*
X1214389Y287381D01*
X1213874Y287733D01*
X1213369Y288099D01*
X1212873Y288476D01*
X1212386Y288866D01*
X1211909Y289267D01*
X1211442Y289680D01*
X1210986Y290104D01*
X1210539Y290539D01*
X1210104Y290986D01*
X1209680Y291442D01*
X1209267Y291909D01*
X1208866Y292386D01*
X1208476Y292873D01*
X1208099Y293369D01*
X1207733Y293874D01*
X1207381Y294389D01*
X1207041Y294911D01*
X1206714Y295442D01*
X1206400Y295980D01*
X1206099Y296527D01*
X1205812Y297080D01*
X1205539Y297640D01*
X1205279Y298207D01*
X1205033Y298780D01*
X1204802Y299359D01*
X1204585Y299943D01*
X1204382Y300532D01*
X1204194Y301127D01*
X1204020Y301725D01*
X1203861Y302328D01*
X1203717Y302935D01*
X1203588Y303545D01*
X1203474Y304158D01*
X1203375Y304773D01*
X1203291Y305391D01*
X1203222Y306010D01*
X1203169Y306631D01*
X1203131Y307254D01*
X1203108Y307877D01*
X1203100Y308500D01*
X1236867Y263425D02*
X1238774Y261518D01*
X1236867Y263425D02*
X1233054Y263425D01*
X1231147Y261518D01*
X1231147Y253892D01*
X1233054Y251985D01*
X1236867Y251985D01*
X1238774Y253892D01*
X1248561Y251985D02*
X1248561Y263425D01*
X1242841Y257705D01*
X1250468Y257705D01*
D12*
X1223420Y308500D03*
D13*
X852982Y329622D02*
X841288Y329622D01*
X841288Y335469D01*
X843237Y337418D01*
X845186Y337418D01*
X847135Y335469D01*
X849084Y337418D01*
X851033Y337418D01*
X852982Y335469D01*
X852982Y329622D01*
X847135Y329622D02*
X847135Y335469D01*
X841288Y341316D02*
X841288Y349112D01*
X841288Y341316D02*
X852982Y341316D01*
X852982Y349112D01*
X847135Y345214D02*
X847135Y341316D01*
X845186Y353010D02*
X852982Y353010D01*
X845186Y353010D02*
X841288Y356908D01*
X845186Y360806D01*
X852982Y360806D01*
X847135Y360806D02*
X847135Y353010D01*
X841288Y364704D02*
X852982Y364704D01*
X852982Y370551D01*
X851033Y372500D01*
X843237Y372500D01*
X841288Y370551D01*
X841288Y364704D01*
D10*
X937650Y366300D02*
X950350Y366300D01*
X956700Y359950D01*
X956700Y347250D01*
X950350Y340900D01*
X956700Y359950D02*
X963050Y366300D01*
X975750Y366300D01*
X982100Y359950D01*
X982100Y347250D01*
X975750Y340900D01*
X963050Y340900D01*
X956700Y347250D01*
X931300Y347250D02*
X931300Y359950D01*
X937650Y366300D01*
X931300Y347250D02*
X937650Y340900D01*
X950350Y340900D01*
X982100Y359950D02*
X988450Y366300D01*
X1001150Y366300D01*
X1007500Y359950D01*
X1007500Y347250D01*
X1001150Y340900D01*
X988450Y340900D01*
X982100Y347250D01*
D11*
X933080Y372523D02*
X931173Y374430D01*
X933080Y372523D02*
X934986Y372523D01*
X936893Y374430D01*
X936893Y383963D01*
X934986Y383963D02*
X938800Y383963D01*
X942867Y383963D02*
X942867Y372523D01*
X942867Y383963D02*
X948587Y383963D01*
X950493Y382056D01*
X950493Y378243D01*
X948587Y376336D01*
X942867Y376336D01*
X954561Y380150D02*
X958374Y383963D01*
X958374Y372523D01*
X954561Y372523D02*
X962187Y372523D01*
X970068Y382056D02*
X973881Y383963D01*
X970068Y382056D02*
X966255Y378243D01*
X966255Y374430D01*
X968162Y372523D01*
X971975Y372523D01*
X973881Y374430D01*
X973881Y376336D01*
X971975Y378243D01*
X966255Y378243D01*
M02*
