G04 EAGLE Gerber X2 export*
%TF.Part,Single*%
%TF.FileFunction,Paste,Top*%
%TF.FilePolarity,Positive*%
%TF.GenerationSoftware,Autodesk,EAGLE,8.6.3*%
%TF.CreationDate,2018-07-14T15:56:02Z*%
G75*
%MOMM*%
%FSLAX34Y34*%
%LPD*%
%AMOC8*
5,1,8,0,0,1.08239X$1,22.5*%
G01*
%ADD10R,1.000000X1.100000*%
%ADD11R,2.032000X0.660400*%
%ADD12R,0.600000X1.200000*%
%ADD13R,1.100000X1.000000*%
%ADD14R,1.200000X1.200000*%
%ADD15R,1.200000X0.900000*%
%ADD16R,6.200000X5.400000*%
%ADD17R,1.600000X1.000000*%


D10*
X134501Y401600D03*
X151501Y401600D03*
D11*
X808634Y397000D03*
X747166Y397000D03*
X808634Y409700D03*
X808634Y422400D03*
X747166Y409700D03*
X747166Y422400D03*
X808634Y435100D03*
X747166Y435100D03*
X808634Y447800D03*
X808634Y460500D03*
X747166Y447800D03*
X747166Y460500D03*
X808634Y473200D03*
X747166Y473200D03*
X808834Y506900D03*
X747366Y506900D03*
X808834Y519600D03*
X808834Y532300D03*
X747366Y519600D03*
X747366Y532300D03*
X808834Y545000D03*
X747366Y545000D03*
X808834Y557700D03*
X808834Y570400D03*
X747366Y557700D03*
X747366Y570400D03*
X808834Y583100D03*
X747366Y583100D03*
D12*
X961200Y266060D03*
X942200Y239940D03*
X951700Y239940D03*
X961200Y239940D03*
X942200Y266060D03*
D13*
X994700Y241300D03*
X994700Y258300D03*
D10*
X954900Y207900D03*
X937900Y207900D03*
X971600Y208500D03*
X988600Y208500D03*
X954600Y182300D03*
X937600Y182300D03*
X973200Y181400D03*
X990200Y181400D03*
D14*
X170500Y401000D03*
X170500Y380000D03*
D15*
X984240Y446900D03*
X984740Y465900D03*
X1005360Y456400D03*
X979940Y513900D03*
X980440Y532900D03*
X1001060Y523400D03*
D16*
X112700Y559900D03*
D17*
X185700Y537100D03*
X185700Y582700D03*
D13*
X831900Y375500D03*
X831900Y358500D03*
M02*
