G04 EAGLE Gerber X2 export*
%TF.Part,Single*%
%TF.FileFunction,Paste,Bot*%
%TF.FilePolarity,Positive*%
%TF.GenerationSoftware,Autodesk,EAGLE,8.6.3*%
%TF.CreationDate,2018-07-14T15:56:02Z*%
G75*
%MOMM*%
%FSLAX34Y34*%
%LPD*%
%AMOC8*
5,1,8,0,0,1.08239X$1,22.5*%
G01*
%ADD10R,2.200000X0.600000*%
%ADD11R,1.100000X1.000000*%
%ADD12R,1.200000X0.550000*%
%ADD13R,0.600000X1.200000*%
%ADD14R,1.200000X0.900000*%
%ADD15R,1.000000X1.100000*%


D10*
X342442Y228368D03*
X290442Y228368D03*
X342442Y241068D03*
X342442Y215668D03*
X342442Y202968D03*
X290442Y241068D03*
X290442Y215668D03*
X290442Y202968D03*
D11*
X834800Y61900D03*
X851800Y61900D03*
X546000Y104900D03*
X546000Y121900D03*
X546200Y140200D03*
X546200Y157200D03*
X672500Y497100D03*
X672500Y480100D03*
X672600Y463100D03*
X672600Y446100D03*
X742000Y310600D03*
X742000Y327600D03*
X742000Y293400D03*
X742000Y276400D03*
X744900Y177000D03*
X744900Y160000D03*
X745100Y144000D03*
X745100Y127000D03*
X563700Y371000D03*
X563700Y354000D03*
X563800Y336100D03*
X563800Y319100D03*
X682600Y358500D03*
X682600Y375500D03*
X682700Y392700D03*
X682700Y409700D03*
X743500Y236500D03*
X743500Y253500D03*
X742900Y218200D03*
X742900Y201200D03*
X745800Y102200D03*
X745800Y85200D03*
X745800Y69300D03*
X745800Y52300D03*
D12*
X373200Y557000D03*
X373200Y547500D03*
X373200Y538000D03*
X347200Y538000D03*
X347200Y557000D03*
D13*
X559500Y50440D03*
X540500Y76560D03*
X550000Y76560D03*
X559500Y76560D03*
X540500Y50440D03*
D11*
X510500Y75400D03*
X510500Y58400D03*
X510500Y109900D03*
X510500Y92900D03*
X705300Y177100D03*
X705300Y160100D03*
X704800Y102000D03*
X704800Y85000D03*
X705500Y200900D03*
X705500Y217900D03*
X705700Y235600D03*
X705700Y252600D03*
D14*
X870540Y387600D03*
X871040Y368600D03*
X891660Y378100D03*
D12*
X274200Y545200D03*
X274200Y535700D03*
X274200Y526200D03*
X248200Y526200D03*
X248200Y545200D03*
D15*
X983800Y297500D03*
X966800Y297500D03*
X980400Y169300D03*
X997400Y169300D03*
X951600Y171300D03*
X934600Y171300D03*
X947600Y297800D03*
X930600Y297800D03*
D11*
X994700Y253600D03*
X994700Y236600D03*
D13*
X933600Y252460D03*
X952600Y226340D03*
X943100Y226340D03*
X933600Y226340D03*
X952600Y252460D03*
D11*
X705200Y52500D03*
X705200Y69500D03*
X704900Y144800D03*
X704900Y127800D03*
X707200Y277300D03*
X707200Y294300D03*
X707100Y310600D03*
X707100Y327600D03*
X765800Y275800D03*
X765800Y292800D03*
X766900Y201900D03*
X766900Y218900D03*
X768800Y127500D03*
X768800Y144500D03*
X770600Y53300D03*
X770600Y70300D03*
X705900Y377600D03*
X705900Y360600D03*
X693500Y446400D03*
X693500Y463400D03*
D12*
X373900Y517200D03*
X373900Y507700D03*
X373900Y498200D03*
X347900Y498200D03*
X347900Y517200D03*
D14*
X428560Y209000D03*
X428060Y228000D03*
X407440Y218500D03*
X1000460Y411500D03*
X999960Y430500D03*
X979340Y421000D03*
X1000960Y465700D03*
X1000460Y484700D03*
X979840Y475200D03*
D15*
X778000Y518100D03*
X778000Y535100D03*
X776800Y404200D03*
X776800Y421200D03*
M02*
